<svg width="452" height="466" viewBox="0 0 452 466" fill="none" xmlns="http://www.w3.org/2000/svg">
<path fill-rule="evenodd" clip-rule="evenodd" d="M169.786 79.4312C76.5541 114.244 38.5499 243.032 84.8569 367.045C99.4993 406.258 112.993 419.91 129.036 414.777C135.972 412.557 143.446 406.956 153.005 397.314C156.796 393.489 160.749 389.226 166.412 382.921C167.932 381.227 173.3 375.224 173.584 374.905C176.523 371.624 178.828 369.071 181.114 366.572C208.122 337.062 229.621 319.605 255.814 309.825C266.324 305.9 275.421 302.766 292.008 297.233C320.548 287.718 330.358 284.204 342.475 278.669C358.294 271.445 369.583 263.711 377.446 254.143C395.259 232.478 395.664 200.45 376.647 149.523C354.698 90.7418 327.379 61.8202 290.982 54.9943C261.429 49.4493 230.906 56.6087 169.786 79.4312Z" stroke="url(#paint0_linear_603_11461)" stroke-opacity="0.5" stroke-width="1.07047"/>
<path d="M78.8201 234.765C60.5157 264.444 75.8003 301.191 104.03 323.678C230.713 424.59 296.481 410.824 326.328 388.719C352.206 369.553 383.118 299.65 395.775 229.558C411.021 145.125 371.135 85.8804 352.563 79.8021C341.239 76.0958 324.712 64.9002 289.464 91.929C251.28 121.209 171.444 163.851 159.976 168.453C148.507 173.055 101.413 198.133 78.8201 234.765Z" fill="#2957FF"/>
<mask id="mask0_603_11461" style="mask-type:alpha" maskUnits="userSpaceOnUse" x="55" y="70" width="333" height="328">
<path d="M65.0951 218.092C45.2652 246.773 58.609 284.269 85.6254 308.2C206.863 415.593 273.261 405.282 304.221 384.766C331.065 366.978 365.588 298.786 381.889 229.45C401.526 145.93 364.79 84.6821 346.561 77.6417C335.446 73.3488 319.526 61.3052 282.914 86.4555C243.252 113.7 161.297 152.113 149.604 156.11C137.911 160.106 89.5712 182.69 65.0951 218.092Z" fill="black"/>
</mask>
<g mask="url(#mask0_603_11461)">
<g filter="url(#filter0_d_603_11461)">
<path d="M28.7188 43.6191C28.7188 38.6733 32.7281 34.6639 37.6739 34.6639H553.638C558.584 34.6639 562.594 38.6733 562.594 43.6191V389.755C562.594 394.7 558.584 398.71 553.638 398.71H37.6739C32.7281 398.71 28.7188 394.7 28.7188 389.755V43.6191Z" fill="#FAFEFF"/>
</g>
<path fill-rule="evenodd" clip-rule="evenodd" d="M180.652 199.715L114.672 300.761C113.432 302.661 111.061 303.067 109.377 301.667C109.047 301.392 108.758 301.058 108.522 300.678C106.694 297.733 106.627 293.832 108.354 290.809L177.54 169.72C184.343 157.813 198.412 154.384 208.963 162.061C209.328 162.326 209.685 162.603 210.035 162.891L273.165 214.822C281.515 221.69 292.919 221.34 300.925 213.97L397.254 125.29L390.472 114.678C388.025 110.847 388.792 105.502 392.186 102.74C393.477 101.69 395.027 101.125 396.618 101.125H444.343C448.528 101.125 451.921 104.953 451.921 109.676C451.921 110.585 451.792 111.488 451.54 112.351L436.235 164.798C434.926 169.284 430.643 171.723 426.668 170.246C425.4 169.774 424.265 168.934 423.378 167.808L413.35 155.093L301.01 255.159C292.332 262.889 279.984 262.452 271.752 254.125L214.126 195.831C204.777 186.374 190.405 187.261 182.025 197.81C181.541 198.42 181.083 199.056 180.652 199.715Z" fill="#CDE2FF"/>
<path d="M380.839 113.737C384.919 113.737 388.227 110.005 388.227 105.4C388.227 100.796 384.919 97.0628 380.839 97.0628C376.759 97.0628 373.451 100.796 373.451 105.4C373.451 110.005 376.759 113.737 380.839 113.737Z" fill="#CDE2FF"/>
<path d="M262.632 199.248C266.712 199.248 270.02 195.515 270.02 190.91C270.02 186.306 266.712 182.573 262.632 182.573C258.552 182.573 255.244 186.306 255.244 190.91C255.244 195.515 258.552 199.248 262.632 199.248Z" fill="#CDE2FF"/>
<path d="M163.178 364.282H124.533V374.543H163.178V364.282Z" fill="#E3EEFF"/>
<path d="M239.709 364.282H201.064V374.543H239.709V364.282Z" fill="#E3EEFF"/>
<path fill-rule="evenodd" clip-rule="evenodd" d="M138.463 324.429H190.043C193.262 324.429 195.871 327.374 195.871 331.006V390.858H132.635V331.006C132.635 327.374 135.244 324.429 138.463 324.429Z" fill="url(#paint1_linear_603_11461)"/>
<path fill-rule="evenodd" clip-rule="evenodd" d="M282.42 242.216H334C337.219 242.216 339.828 245.16 339.828 248.793V390.858H276.592V248.793C276.592 245.16 279.201 242.216 282.42 242.216Z" fill="url(#paint2_linear_603_11461)"/>
<path fill-rule="evenodd" clip-rule="evenodd" d="M210.441 288.255H262.021C265.24 288.255 267.849 291.2 267.849 294.832V390.858H204.613V294.832C204.613 291.2 207.223 288.255 210.441 288.255Z" fill="url(#paint3_linear_603_11461)"/>
<path d="M292.896 104.286L326.199 94.2163L339.177 148.875C339.537 150.392 338.749 151.948 337.416 152.351C336.714 152.563 335.964 152.417 335.362 151.951L319.065 139.334L310.541 159.456C309.943 160.868 308.45 161.456 307.205 160.771C306.55 160.41 306.064 159.744 305.875 158.945L292.896 104.286Z" fill="url(#paint4_linear_603_11461)"/>
<path d="M328.176 140.538C327.814 140.472 327.464 140.315 327.154 140.07L322.003 136.016L312.436 95.722L317.193 94.2835L328.176 140.538Z" fill="url(#paint5_linear_603_11461)"/>
<path d="M314.684 138.229L312.02 144.646C311.855 145.042 311.621 145.373 311.342 145.628L300.359 99.3739L305.117 97.9354L314.684 138.229Z" fill="url(#paint6_linear_603_11461)"/>
<path fill-rule="evenodd" clip-rule="evenodd" d="M313.232 113.938L310.643 118.884C309.938 120.231 308.399 120.679 307.204 119.885C306.908 119.688 306.65 119.424 306.448 119.109L303.573 114.64L299.407 118.053C298.285 118.972 296.715 118.692 295.901 117.428C295.682 117.088 295.533 116.697 295.464 116.284L294.602 111.08L289.709 112.381C288.359 112.74 287.008 111.798 286.69 110.277C286.596 109.828 286.601 109.361 286.704 108.914L287.869 103.873L283.123 102.976C281.756 102.717 280.834 101.257 281.064 99.7158C281.136 99.2383 281.314 98.7893 281.583 98.4118L284.538 94.2667L280.648 91.4013C279.488 90.5465 279.163 88.7925 279.921 87.4837C280.153 87.0852 280.469 86.7588 280.842 86.5346L285.186 83.9211L282.723 79.4922C281.987 78.168 282.343 76.4211 283.518 75.5904C283.85 75.356 284.225 75.2121 284.615 75.1704L289.699 74.6253L289.143 69.2634C288.982 67.7108 289.968 66.3044 291.345 66.122C291.699 66.0751 292.057 66.1136 292.397 66.2349L297.299 67.9867L298.878 62.6308C299.316 61.1472 300.737 60.3438 302.053 60.8363C302.376 60.9573 302.674 61.1511 302.929 61.4061L306.67 65.153L310.139 60.8699C311.074 59.7153 312.662 59.6334 313.686 60.6872C313.949 60.9577 314.158 61.2883 314.299 61.6569L316.193 66.6143L320.837 64.2175C322.098 63.5667 323.588 64.1914 324.165 65.6127C324.327 66.0138 324.405 66.4522 324.39 66.8931L324.22 72.1179L329.14 71.9302C330.526 71.8773 331.687 73.1009 331.733 74.6633C331.747 75.139 331.654 75.6111 331.464 76.0359L329.365 80.7122L333.76 82.6347C335.053 83.2 335.693 84.8397 335.191 86.2972C335.036 86.7486 334.78 87.1475 334.449 87.4559L330.736 90.9111L333.979 94.6197C334.952 95.7326 334.94 97.5247 333.952 98.6224C333.661 98.946 333.304 99.1846 332.913 99.3175L328.098 100.951L329.658 105.945C330.118 107.419 329.431 109.036 328.123 109.556C327.772 109.695 327.397 109.745 327.026 109.701L321.906 109.096L321.397 114.589C321.253 116.144 320.018 117.273 318.639 117.111C318.297 117.071 317.965 116.952 317.665 116.761L313.232 113.938Z" fill="url(#paint7_linear_603_11461)"/>
<path fill-rule="evenodd" clip-rule="evenodd" d="M312.758 111.117C302.551 114.203 292.06 107.368 289.325 95.8498C286.59 84.3315 292.647 72.4922 302.854 69.4059C313.06 66.3196 323.552 73.1551 326.287 84.6733C329.022 96.1915 322.964 108.031 312.758 111.117ZM311.955 107.735C320.506 105.149 325.581 95.2299 323.29 85.5795C320.998 75.9291 312.208 70.2021 303.657 72.7879C295.105 75.3737 290.03 85.2932 292.322 94.9436C294.613 104.594 303.403 110.321 311.955 107.735Z" fill="url(#paint8_linear_603_11461)"/>
<path d="M236.455 136.739C231.698 142.487 227.474 145.849 223.783 146.825C218.247 148.288 217.696 143.707 213.005 146.825C208.314 149.942 183.281 158.14 181.706 160.348C180.131 162.555 180.31 187.839 184.649 181.224C186.452 178.476 186.54 174.767 187.817 174.001C191.125 172.014 197.255 170.869 206.205 170.565C204.466 186.159 201.773 197.725 198.127 205.262C192.657 216.568 190.557 218.375 189.324 227.32C188.502 233.284 187.576 248.67 186.546 273.479C176.11 289.335 169.752 304.648 167.474 319.418L164.593 323.553C163.211 326.533 163.211 328.606 164.593 329.773C165.975 330.939 169.116 333.172 174.016 336.472C181.935 337.897 185.255 337.897 183.975 336.472C182.695 335.047 180.382 333.693 177.034 332.41L172.883 322.327C186.29 298.848 194.705 285.657 198.127 282.754C201.549 279.851 205.981 263.661 211.425 234.185C228.263 230.592 237.83 227.443 240.125 224.738C237.032 228.206 234.862 231.355 233.615 234.185C230.006 242.376 227.088 254.314 221.348 267.243L218.276 271.149C217.889 274.581 218.46 276.909 219.99 278.132C221.52 279.356 226.062 282.813 233.615 288.505C240.728 288.11 243.591 287.274 242.205 285.997C240.819 284.72 238.224 283.933 234.42 283.637L227.895 269.814L260.148 216.556C263.607 205.908 260.907 201.047 252.048 201.972C243.189 202.898 234.488 203.994 225.945 205.262C232.106 194.355 236.01 186.342 237.656 181.224C240.125 173.546 239.839 160.998 237.656 157.82C236.201 155.701 235.122 153.987 234.42 152.678C238.867 147.202 241.462 144.465 242.205 144.465C242.948 144.465 241.031 141.89 236.455 136.739Z" fill="url(#paint9_linear_603_11461)"/>
<path d="M235.145 125.857C235.947 119.117 240.827 113.933 246.726 113.933C253.186 113.933 259.209 111.778 260.765 121.755C262.32 131.732 249.756 150.946 246.726 149.457C240.461 146.376 237.494 141.901 236.129 137.146C236.099 137.146 236.068 137.147 236.038 137.147C233.253 137.147 230.996 134.599 230.996 131.457C230.996 128.659 232.786 126.332 235.145 125.857Z" fill="url(#paint10_linear_603_11461)"/>
<path d="M250.697 133.832C251.116 133.832 251.455 133.353 251.455 132.763C251.455 132.173 251.116 131.694 250.697 131.694C250.279 131.694 249.939 132.173 249.939 132.763C249.939 133.353 250.279 133.832 250.697 133.832Z" fill="#423565"/>
<path d="M257.518 132.977C257.936 132.977 258.275 132.498 258.275 131.908C258.275 131.318 257.936 130.839 257.518 130.839C257.099 130.839 256.76 131.318 256.76 131.908C256.76 132.498 257.099 132.977 257.518 132.977Z" fill="#423565"/>
<path d="M252.619 120.821C253.826 123.281 257.022 124.511 262.206 124.511C269.982 124.511 279.857 103.716 266.202 96.5768C257.099 91.8173 250.39 95.2279 246.076 106.809C243.773 104.922 240.962 104.72 237.642 106.203C234.323 107.686 232.832 110.876 233.169 115.774C228.437 116.457 226.07 118.657 226.07 122.373C226.07 124.817 228.075 127.768 230.122 131.887C230.832 133.315 231.848 136.203 233.169 140.55C234.41 139.272 235.43 138.128 236.227 137.118C228.774 131.362 234.098 124.96 236.058 126.435C238.268 128.099 239.807 130.088 240.676 132.403C244.583 130.435 246.057 127.804 245.099 124.511C248.44 126.202 250.947 124.972 252.619 120.821Z" fill="#423565"/>
<path fill-rule="evenodd" clip-rule="evenodd" d="M168.785 325.63C166.746 325.245 165.861 321.144 165.196 322.098C164.901 322.522 161.817 328.64 163.89 330.39C165.272 331.556 168.629 333.901 173.962 337.422C181.958 338.176 185.317 337.841 184.037 336.416C182.758 334.991 180.444 333.637 177.097 332.354L173.962 323.934C171.869 325.321 170.143 325.886 168.785 325.63Z" fill="url(#paint11_linear_603_11461)"/>
<path fill-rule="evenodd" clip-rule="evenodd" d="M220.596 266.939L218.221 270.99C216.257 273.848 216.621 276.735 219.315 279.653C222.009 282.571 225.949 285.636 231.133 288.851C239.865 288.119 243.537 287.115 242.151 285.838C240.764 284.561 238.169 283.774 234.365 283.478L228.915 271.931C226.353 272.913 224.464 273.017 223.247 272.243C222.163 271.553 221.908 269.206 221.353 266.939C221.308 266.754 221.056 266.754 220.596 266.939Z" fill="url(#paint12_linear_603_11461)"/>
<path fill-rule="evenodd" clip-rule="evenodd" d="M198.286 205.213C191.797 211.645 190.716 218.325 189.484 227.27C188.251 236.216 188.031 261.29 183.76 272.095C179.489 282.9 174.985 292.15 170.878 301.524C166.771 310.898 167.658 306.256 165.653 311.542C163.649 316.828 177.115 323.769 180.891 321.181C184.668 318.593 183.89 311.986 185.273 309.245C192.371 295.172 198.716 288.394 201.129 282.9C204.012 276.335 208.599 259.905 214.889 233.61C227.969 232.088 235.656 229.975 237.952 227.27C235.025 230.829 232.938 234.024 231.691 236.853C228.081 245.044 226.105 256.178 221.644 259.502C217.183 262.827 223.186 267.396 224.901 268.772C226.605 270.139 233.738 271.06 235.887 268.772C237.32 267.246 246.762 249.879 264.214 216.672C265.069 205.914 261.067 200.997 252.208 201.922C243.348 202.848 234.648 203.945 226.105 205.213C211.885 200.924 202.612 200.924 198.286 205.213Z" fill="#013ACE"/>
<path fill-rule="evenodd" clip-rule="evenodd" d="M194.391 207.799C188.922 219.105 188.762 228.902 201.095 233.947C213.427 238.993 234.308 231.231 237.752 227.174C234.825 230.733 232.737 233.927 231.49 236.757C227.881 244.948 225.905 256.082 221.444 259.406C216.983 262.731 222.985 267.3 224.7 268.675C226.405 270.042 233.538 270.964 235.687 268.675C237.12 267.15 246.562 249.783 264.014 216.576C264.869 205.817 260.866 200.901 252.007 201.826C243.148 202.752 234.447 203.848 225.905 205.116C208.542 199.368 198.038 200.262 194.391 207.799Z" fill="url(#paint13_linear_603_11461)"/>
<path d="M223.97 177.841C220.736 177.592 226.135 168.153 236.91 161.26C243.447 169.565 246.061 181.655 249.41 182.06C250.683 182.214 250.683 180.6 254.197 177.841C260.343 173.014 272.059 166.332 270.168 165.1C269.841 164.887 263.482 163.357 263.64 158.917C263.664 158.245 266.531 153.414 269.09 153.072C274.802 155.694 276.483 162.76 275.639 167.328C274.372 174.181 253.891 195.801 247.412 195.801C240.932 195.801 228.822 178.213 223.97 177.841Z" fill="url(#paint14_linear_603_11461)"/>
<path fill-rule="evenodd" clip-rule="evenodd" d="M223.878 177.815C220.644 177.567 227.065 165.524 237.839 158.63C242.041 163.968 242.362 172.819 246.632 177.382C248.267 179.129 239.266 192.507 237.115 190.82C230.762 185.837 227.503 178.094 223.878 177.815Z" fill="url(#paint15_linear_603_11461)"/>
<path fill-rule="evenodd" clip-rule="evenodd" d="M221.794 146.698C218.429 146.511 216.919 143.765 213.046 146.339C208.355 149.456 189.728 152.086 188.153 154.294C186.579 156.501 190.565 177.474 195.528 174.494C198.836 172.507 202.444 171.227 206.351 170.656C203.872 186.766 199.675 198.332 193.761 205.353C187.847 212.375 200.396 212.193 231.41 204.81C230.504 201.284 230.365 198.715 230.994 197.101C233.581 190.453 236.595 185.067 237.802 181.315C240.272 173.637 239.985 161.089 237.802 157.911C236.347 155.792 235.268 154.078 234.566 152.769C235.57 156.197 234.379 157.911 230.994 157.911C225.915 157.911 222.504 146.737 221.794 146.698Z" fill="url(#paint16_linear_603_11461)"/>
<path d="M155.885 144.726L160.163 141.041C160.78 140.51 161.593 140.371 162.322 140.671L170.879 144.197C171.54 144.469 172.052 145.072 172.265 145.829L173.818 151.337L216.769 170.963C217.841 171.453 218.417 172.774 218.105 174.032L207.546 216.65C207.208 218.015 205.953 218.812 204.744 218.43C204.676 218.409 204.608 218.383 204.542 218.354L143.723 192.009C142.628 191.534 142.033 190.198 142.349 188.923L152.895 146.358C153.224 145.028 154.446 144.252 155.625 144.624C155.713 144.651 155.8 144.686 155.885 144.726Z" fill="#423565"/>
<path fill-rule="evenodd" clip-rule="evenodd" d="M134.315 158.563L169.274 150.895C171.328 150.444 173.317 151.958 173.716 154.276L177.909 178.618C178.308 180.936 176.967 183.18 174.913 183.631L139.953 191.299C137.899 191.75 135.911 190.236 135.511 187.918L131.318 163.576C130.919 161.258 132.261 159.014 134.315 158.563Z" fill="url(#paint17_linear_603_11461)"/>
<path fill-rule="evenodd" clip-rule="evenodd" d="M158.161 149.449L158.314 149.521L162.592 145.837C163.209 145.306 164.022 145.167 164.751 145.467L173.308 148.992C173.969 149.265 174.481 149.868 174.695 150.625L176.247 156.133L219.012 175.674C220.161 176.199 220.725 177.665 220.281 178.971L207.1 217.722C206.65 219.045 205.335 219.706 204.163 219.198L143.325 192.844C142.153 192.336 141.568 190.853 142.018 189.53L155.16 150.896C155.61 149.573 156.924 148.912 158.097 149.42C158.118 149.429 158.139 149.439 158.161 149.449Z" fill="url(#paint18_linear_603_11461)"/>
<path d="M201.899 151.921C193.226 155.305 182.878 159.087 181.884 160.481C180.482 162.446 168.764 190.634 168.484 202.552C168.46 203.542 168.764 206.013 171.319 208.778C173.873 211.543 174.572 209.905 176.439 210.831C177.158 211.187 178.286 210.503 179.823 208.778C177.271 207.341 176.06 206.243 176.191 205.481C176.219 205.319 176.722 204.718 177.7 203.68C178.695 204.775 179.293 205.244 179.494 205.086C180.145 204.572 179.387 202.107 178.528 201.258C177.67 200.408 174.625 201.125 174.603 200.463C174.491 197.148 180.487 187.973 184.827 181.357C186.629 178.609 186.718 174.901 187.994 174.134C191.004 172.327 196.349 171.216 204.03 170.801C204.791 170.76 206.962 149.946 201.899 151.921Z" fill="url(#paint19_linear_603_11461)"/>
<path d="M258.844 129.556C259.994 129.556 260.927 129.174 260.927 128.701C260.927 128.229 259.994 127.846 258.844 127.846C257.693 127.846 256.76 128.229 256.76 128.701C256.76 129.174 257.693 129.556 258.844 129.556Z" fill="#423565"/>
<path d="M249.75 129.556C250.901 129.556 251.834 129.174 251.834 128.701C251.834 128.229 250.901 127.846 249.75 127.846C248.599 127.846 247.666 128.229 247.666 128.701C247.666 129.174 248.599 129.556 249.75 129.556Z" fill="#423565"/>
<path d="M255.009 129.791C254.999 129.673 255.075 129.569 255.179 129.558C255.284 129.546 255.376 129.632 255.386 129.75C255.663 133.002 256.03 135.048 256.471 135.855C256.763 136.388 256.638 136.841 256.132 137.083C255.701 137.288 254.965 137.364 253.911 137.32C253.806 137.315 253.725 137.216 253.729 137.098C253.733 136.98 253.82 136.888 253.925 136.892C254.927 136.934 255.618 136.863 255.985 136.689C256.276 136.55 256.319 136.391 256.149 136.079C255.666 135.196 255.292 133.111 255.009 129.791Z" fill="#EF6949"/>
<path d="M249.183 137.917C249.171 137.8 249.246 137.694 249.35 137.681C249.454 137.668 249.548 137.753 249.559 137.87C249.707 139.38 250.261 140.093 251.246 140.093C251.35 140.093 251.435 140.189 251.435 140.307C251.435 140.425 251.35 140.521 251.246 140.521C250.046 140.521 249.35 139.625 249.183 137.917Z" fill="#EF6949"/>
<path d="M233.644 132.192C233.62 132.307 233.518 132.379 233.416 132.352C233.314 132.325 233.251 132.21 233.275 132.095C233.753 129.775 234.463 128.763 235.432 129.247C236.297 129.679 237.259 131.172 238.354 133.736C238.399 133.843 238.359 133.97 238.265 134.022C238.171 134.073 238.058 134.028 238.012 133.922C236.956 131.446 236.033 130.015 235.279 129.638C234.629 129.313 234.075 130.103 233.644 132.192Z" fill="#EF6949"/>
<path fill-rule="evenodd" clip-rule="evenodd" d="M213.151 146.888C208.46 150.005 189.728 152.059 188.153 154.266C186.579 156.473 190.565 177.446 195.528 174.466C200.49 171.485 207.835 169.709 211.295 168.503C214.754 167.297 217.024 144.314 213.151 146.888Z" fill="url(#paint20_linear_603_11461)"/>
<path d="M236.941 131.294C237.045 131.306 237.121 131.41 237.111 131.528C237.1 131.645 237.008 131.731 236.904 131.72C235.822 131.598 235.441 131.855 235.57 132.495C235.593 132.61 235.53 132.725 235.428 132.751C235.326 132.777 235.224 132.705 235.201 132.59C234.998 131.582 235.642 131.149 236.941 131.294Z" fill="#EF6949"/>
<path d="M268.739 115.168C270.651 113.777 271.126 111.273 270.03 108.92C269.981 108.815 270.017 108.686 270.11 108.631C270.202 108.576 270.317 108.616 270.365 108.721C271.55 111.263 271.027 114.012 268.944 115.528C268.199 116.07 266.894 116.66 265.537 117.087C266.166 118.065 266.341 119.059 265.821 119.771C264.667 121.352 262.332 121.914 258.824 121.493C258.72 121.48 258.644 121.375 258.655 121.258C258.666 121.14 258.76 121.055 258.864 121.068C262.258 121.476 264.476 120.941 265.528 119.5C265.933 118.946 265.74 118.082 265.14 117.207C264.576 117.371 264.012 117.502 263.484 117.588C262.378 117.767 261.466 117.746 260.835 117.493C260.075 117.188 259.726 116.544 259.888 115.606C260.05 114.672 260.62 114.218 261.446 114.257C262.142 114.29 263.002 114.676 263.827 115.297C264.403 115.731 264.9 116.22 265.282 116.723C266.658 116.303 267.999 115.707 268.739 115.168ZM263.617 115.653C262.844 115.071 262.047 114.714 261.43 114.684C260.783 114.654 260.384 114.971 260.26 115.687C260.135 116.412 260.374 116.854 260.962 117.09C261.523 117.316 262.38 117.335 263.43 117.165C263.889 117.09 264.377 116.98 264.867 116.844C264.53 116.429 264.106 116.021 263.617 115.653Z" fill="white"/>
<path d="M266.194 162.453C266.241 162.558 266.203 162.687 266.11 162.74C266.016 162.793 265.902 162.75 265.855 162.645C265.044 160.826 264.873 159.502 265.381 158.669C265.848 157.904 266.778 156.773 268.175 155.269C268.251 155.187 268.371 155.19 268.443 155.276C268.515 155.361 268.513 155.497 268.437 155.578C267.057 157.063 266.141 158.177 265.693 158.911C265.286 159.578 265.439 160.76 266.194 162.453Z" fill="#EF6949"/>
<path d="M268.278 163.569C268.338 163.666 268.316 163.799 268.23 163.866C268.144 163.933 268.026 163.909 267.966 163.812C266.853 161.994 266.676 160.631 267.507 159.774C268.25 159.006 269.211 158.071 270.39 156.969C270.471 156.894 270.59 156.906 270.657 156.997C270.724 157.088 270.712 157.223 270.632 157.298C269.457 158.396 268.501 159.327 267.762 160.089C267.111 160.762 267.259 161.905 268.278 163.569Z" fill="#EF6949"/>
<path d="M271.073 162.579C271.024 162.474 271.059 162.345 271.151 162.29C271.244 162.234 271.358 162.274 271.407 162.378C271.962 163.558 271.887 164.375 271.121 164.691C270.576 164.916 269.817 164.491 269.32 163.775C268.776 162.99 268.707 162.094 269.298 161.484C270.041 160.716 271.002 159.782 272.181 158.679C272.262 158.604 272.381 158.617 272.448 158.707C272.514 158.798 272.503 158.933 272.423 159.008C271.248 160.107 270.292 161.037 269.553 161.8C269.133 162.233 269.183 162.884 269.619 163.511C270.025 164.098 270.632 164.438 270.991 164.29C271.486 164.085 271.534 163.561 271.073 162.579Z" fill="#EF6949"/>
<path fill-rule="evenodd" clip-rule="evenodd" d="M230.868 158.046C229.111 153.76 227.935 150.449 227.341 148.111C226.746 145.774 226.746 144.729 227.341 144.978C225.165 143.26 223.539 143.26 222.464 144.978C221.389 146.696 222.335 152.856 225.301 163.458L230.868 158.046Z" fill="url(#paint21_linear_603_11461)"/>
<path fill-rule="evenodd" clip-rule="evenodd" d="M230.965 158.046C234.352 157.804 235.509 156.02 234.436 152.695C234.713 152.291 234.921 152.024 235.06 151.895C236.223 154.905 236.521 157.372 235.956 159.297C235.39 161.222 234.641 163.263 233.708 165.42L230.965 158.046Z" fill="url(#paint22_linear_603_11461)"/>
<path d="M236.855 139.07L238.038 148.094L240.868 145.248L236.855 139.07Z" fill="#EF6949"/>
</g>
<path fill-rule="evenodd" clip-rule="evenodd" d="M229.228 62.3254C348.718 60.2397 447.685 180.411 450.308 330.672C451.137 378.186 442.039 398.225 421.855 399.49C413.127 400.036 402.316 397.235 387.402 391.036C381.486 388.577 375.197 385.722 366.102 381.423C363.659 380.268 355.026 376.164 354.569 375.946C349.844 373.706 346.148 371.97 342.496 370.284C299.363 350.374 267.673 340.897 234.103 341.483C220.633 341.719 209.089 342.199 188.121 343.269C152.043 345.113 139.535 345.49 123.562 344.694C102.711 343.657 86.6989 340.193 73.7122 333.366C44.2987 317.909 29.7988 284.254 28.7217 222.547C27.4785 151.325 45.3338 109.398 83.028 87.0221C113.633 68.8513 150.894 63.6927 229.228 62.3254Z" stroke="url(#paint23_linear_603_11461)" stroke-opacity="0.5" stroke-width="1.4"/>
<path d="M254.616 101.227C230.072 78.2008 192.099 85.2888 165.088 107.334C43.879 206.264 43.8159 270.676 58.8565 303.036C71.8972 331.093 132.144 373.883 196.22 399.585C273.405 430.546 337.673 404.818 347.161 388.596C352.946 378.704 366.888 365.409 348.248 327.01C328.056 285.413 303.491 202.107 301.41 190.441C299.329 178.775 284.911 129.649 254.616 101.227Z" stroke="#00CCE8" stroke-width="0.85591"/>
<defs>
<filter id="filter0_d_603_11461" x="5.21147" y="20.1118" width="609.994" height="440.165" filterUnits="userSpaceOnUse" color-interpolation-filters="sRGB">
<feFlood flood-opacity="0" result="BackgroundImageFix"/>
<feColorMatrix in="SourceAlpha" type="matrix" values="0 0 0 0 0 0 0 0 0 0 0 0 0 0 0 0 0 0 127 0" result="hardAlpha"/>
<feOffset dx="14.5521" dy="23.5073"/>
<feGaussianBlur stdDeviation="19.0297"/>
<feComposite in2="hardAlpha" operator="out"/>
<feColorMatrix type="matrix" values="0 0 0 0 0.26 0 0 0 0 0 0 0 0 0 1 0 0 0 0.1 0"/>
<feBlend mode="normal" in2="BackgroundImageFix" result="effect1_dropShadow_603_11461"/>
<feBlend mode="normal" in="SourceGraphic" in2="effect1_dropShadow_603_11461" result="shape"/>
</filter>
<linearGradient id="paint0_linear_603_11461" x1="251.093" y1="176.21" x2="179.578" y2="294.008" gradientUnits="userSpaceOnUse">
<stop stop-color="#444CF8"/>
<stop offset="0.39935" stop-color="#4200FF"/>
<stop offset="1" stop-color="#1C41E0"/>
</linearGradient>
<linearGradient id="paint1_linear_603_11461" x1="164.253" y1="324.429" x2="164.253" y2="390.858" gradientUnits="userSpaceOnUse">
<stop stop-color="#FF9CCC"/>
<stop offset="1" stop-color="#FF73B7"/>
</linearGradient>
<linearGradient id="paint2_linear_603_11461" x1="308.21" y1="242.216" x2="308.21" y2="390.858" gradientUnits="userSpaceOnUse">
<stop stop-color="#FF9CCC"/>
<stop offset="1" stop-color="#FF73B7"/>
</linearGradient>
<linearGradient id="paint3_linear_603_11461" x1="236.231" y1="288.255" x2="236.231" y2="390.858" gradientUnits="userSpaceOnUse">
<stop stop-color="#FF9CCC"/>
<stop offset="1" stop-color="#FF73B7"/>
</linearGradient>
<linearGradient id="paint4_linear_603_11461" x1="309.548" y1="99.2512" x2="326.593" y2="155.623" gradientUnits="userSpaceOnUse">
<stop/>
<stop offset="0.0001" stop-color="#094BF6"/>
<stop offset="1" stop-color="#737CFE"/>
</linearGradient>
<linearGradient id="paint5_linear_603_11461" x1="320.306" y1="140.538" x2="320.306" y2="94.2835" gradientUnits="userSpaceOnUse">
<stop stop-color="white"/>
<stop offset="1" stop-color="#D8E6EC"/>
</linearGradient>
<linearGradient id="paint6_linear_603_11461" x1="307.522" y1="145.628" x2="307.522" y2="97.9354" gradientUnits="userSpaceOnUse">
<stop stop-color="white"/>
<stop offset="1" stop-color="#D8E6EC"/>
</linearGradient>
<linearGradient id="paint7_linear_603_11461" x1="307.437" y1="59.9474" x2="307.437" y2="120.278" gradientUnits="userSpaceOnUse">
<stop stop-color="#FF9CCC"/>
<stop offset="1" stop-color="#FF73B7"/>
</linearGradient>
<linearGradient id="paint8_linear_603_11461" x1="307.806" y1="111.858" x2="307.806" y2="68.6649" gradientUnits="userSpaceOnUse">
<stop stop-color="#FF9CCC"/>
<stop offset="1" stop-color="#FF73B7"/>
</linearGradient>
<linearGradient id="paint9_linear_603_11461" x1="212.581" y1="212.359" x2="212.581" y2="458.726" gradientUnits="userSpaceOnUse">
<stop stop-color="#FFD7C2"/>
<stop offset="1" stop-color="#FFA5A5"/>
</linearGradient>
<linearGradient id="paint10_linear_603_11461" x1="245.947" y1="127.219" x2="245.947" y2="171.145" gradientUnits="userSpaceOnUse">
<stop stop-color="#FFD7C2"/>
<stop offset="1" stop-color="#FFA5A5"/>
</linearGradient>
<linearGradient id="paint11_linear_603_11461" x1="173.74" y1="321.954" x2="173.74" y2="337.814" gradientUnits="userSpaceOnUse">
<stop stop-color="#485295"/>
<stop offset="1" stop-color="#303565"/>
</linearGradient>
<linearGradient id="paint12_linear_603_11461" x1="229.707" y1="266.801" x2="229.707" y2="288.851" gradientUnits="userSpaceOnUse">
<stop stop-color="#485295"/>
<stop offset="1" stop-color="#303565"/>
</linearGradient>
<linearGradient id="paint13_linear_603_11461" x1="227.481" y1="201.385" x2="227.481" y2="270.067" gradientUnits="userSpaceOnUse">
<stop/>
<stop offset="0.0001" stop-color="#094BF6"/>
<stop offset="1" stop-color="#737CFE"/>
</linearGradient>
<linearGradient id="paint14_linear_603_11461" x1="249.442" y1="169.163" x2="249.442" y2="221.588" gradientUnits="userSpaceOnUse">
<stop stop-color="#FFD7C2"/>
<stop offset="1" stop-color="#FFA5A5"/>
</linearGradient>
<linearGradient id="paint15_linear_603_11461" x1="234.934" y1="158.63" x2="234.934" y2="190.967" gradientUnits="userSpaceOnUse">
<stop stop-color="#FF9CCC"/>
<stop offset="1" stop-color="#FF73B7"/>
</linearGradient>
<linearGradient id="paint16_linear_603_11461" x1="213.677" y1="145.244" x2="213.677" y2="210.487" gradientUnits="userSpaceOnUse">
<stop stop-color="#FF9CCC"/>
<stop offset="1" stop-color="#FF73B7"/>
</linearGradient>
<linearGradient id="paint17_linear_603_11461" x1="154.614" y1="150.815" x2="154.614" y2="191.379" gradientUnits="userSpaceOnUse">
<stop stop-color="#FF9CCC"/>
<stop offset="1" stop-color="#FF73B7"/>
</linearGradient>
<linearGradient id="paint18_linear_603_11461" x1="190.596" y1="156.481" x2="169.864" y2="204.34" gradientUnits="userSpaceOnUse">
<stop stop-color="#AD7DFE"/>
<stop offset="1" stop-color="#5B62D9"/>
</linearGradient>
<linearGradient id="paint19_linear_603_11461" x1="186.815" y1="174.058" x2="186.815" y2="246.61" gradientUnits="userSpaceOnUse">
<stop stop-color="#FFD7C2"/>
<stop offset="1" stop-color="#FFA5A5"/>
</linearGradient>
<linearGradient id="paint20_linear_603_11461" x1="201.492" y1="146.687" x2="201.492" y2="174.755" gradientUnits="userSpaceOnUse">
<stop stop-color="#FF9CCC"/>
<stop offset="1" stop-color="#FF73B7"/>
</linearGradient>
<linearGradient id="paint21_linear_603_11461" x1="226.452" y1="143.69" x2="226.452" y2="163.458" gradientUnits="userSpaceOnUse">
<stop stop-color="#FF9CCC"/>
<stop offset="1" stop-color="#FF73B7"/>
</linearGradient>
<linearGradient id="paint22_linear_603_11461" x1="233.599" y1="151.895" x2="233.599" y2="165.42" gradientUnits="userSpaceOnUse">
<stop stop-color="#FF9CCC"/>
<stop offset="1" stop-color="#FF73B7"/>
</linearGradient>
<linearGradient id="paint23_linear_603_11461" x1="137.375" y1="212.308" x2="263.438" y2="313.796" gradientUnits="userSpaceOnUse">
<stop stop-color="white"/>
<stop offset="0.419792" stop-color="white"/>
<stop offset="1" stop-color="#4200FF"/>
</linearGradient>
</defs>
</svg>
