<svg width="451" height="465" viewBox="0 0 451 465" fill="none" xmlns="http://www.w3.org/2000/svg">
<path d="M78.5427 234.433C60.2384 264.111 75.5229 300.858 103.753 323.346C230.435 424.257 296.204 410.491 326.05 388.386C351.928 369.22 382.841 299.318 395.498 229.225C410.744 144.792 370.858 85.5477 352.286 79.4693C340.962 75.763 324.435 64.5675 289.186 91.5963C251.002 120.876 171.167 163.518 159.698 168.12C148.23 172.722 101.136 197.8 78.5427 234.433Z" fill="#2957FF"/>
<mask id="mask0_603_11460" style="mask-type:alpha" maskUnits="userSpaceOnUse" x="55" y="70" width="333" height="328">
<path d="M64.8177 217.759C44.9878 246.441 58.3316 283.936 85.348 307.868C206.585 415.26 272.984 404.949 303.944 384.433C330.788 366.645 365.31 298.453 381.612 229.118C401.249 145.597 364.512 84.3493 346.283 77.3089C335.168 73.0161 319.249 60.9724 282.636 86.1227C242.974 113.368 161.02 151.781 149.327 155.777C137.634 159.774 89.2939 182.357 64.8177 217.759Z" fill="black"/>
</mask>
<g mask="url(#mask0_603_11460)">
<g filter="url(#filter0_d_603_11460)">
<path d="M28.4414 43.2863C28.4414 38.3405 32.4508 34.3312 37.3966 34.3312H553.361C558.307 34.3312 562.316 38.3405 562.316 43.2863V386.994C562.316 391.94 558.307 395.949 553.361 395.949H37.3965C32.4507 395.949 28.4414 391.94 28.4414 386.994V43.2863Z" fill="#FAFEFF"/>
</g>
<path d="M28.5546 331.068C9.69388 331.068 -5.59579 315.849 -5.59579 297.076C-5.59579 278.302 -14.5072 204.199 4.35354 204.199C23.2143 204.199 62.7051 278.302 62.7051 297.076C62.7051 315.849 47.4154 331.068 28.5546 331.068Z" fill="#CDE2FF"/>
<path d="M125.673 310.804C110.332 310.804 97.8952 298.439 97.8952 283.185C97.8952 267.932 90.6466 207.723 105.988 207.723C121.329 207.723 153.451 267.932 153.451 283.185C153.451 298.439 141.015 310.804 125.673 310.804Z" fill="#CDE2FF"/>
<path fill-rule="evenodd" clip-rule="evenodd" d="M120.354 255.304L124.685 248.688C125.118 248.026 126.006 247.841 126.668 248.274C127.33 248.708 127.515 249.596 127.082 250.258L122.014 258.002C121.866 258.228 121.665 258.399 121.438 258.508C124.049 266.569 126.237 275.898 128.006 286.495L133.701 279.058C134.182 278.429 135.081 278.31 135.709 278.792C136.337 279.273 136.457 280.172 135.975 280.801L128.629 290.395C130.896 305.221 132.387 322.393 133.107 341.916C133.137 342.707 132.519 343.372 131.728 343.401C130.938 343.43 130.273 342.813 130.244 342.022C129.643 325.721 128.501 311.085 126.823 298.116C126.749 298.088 126.677 298.055 126.606 298.015L115.935 291.923C115.248 291.531 115.009 290.656 115.401 289.968C115.793 289.281 116.668 289.041 117.356 289.434L126.344 294.565C125.068 285.474 123.515 277.244 121.686 269.874C121.531 269.846 121.378 269.791 121.233 269.708L110.563 263.617C109.875 263.225 109.636 262.349 110.028 261.662C110.421 260.974 111.296 260.735 111.983 261.127L120.707 266.108C118.029 256.266 114.817 248.092 111.074 241.589C110.679 240.903 110.915 240.027 111.601 239.632C112.287 239.237 113.163 239.473 113.558 240.159C116.058 244.504 118.324 249.553 120.354 255.304Z" fill="#F0F6FF"/>
<path fill-rule="evenodd" clip-rule="evenodd" d="M71.924 307.72C48.794 307.72 30.0434 289.067 30.0434 266.056C30.0434 243.046 19.1148 152.218 42.2448 152.218C65.3749 152.218 113.805 243.046 113.805 266.056C113.805 289.067 95.0541 307.72 71.924 307.72Z" fill="#F0F6FF"/>
<path d="M63.9399 224.165L70.4352 214.185C71.0853 213.186 72.4174 212.906 73.4104 213.56C74.4034 214.214 74.6814 215.554 74.0313 216.553L66.4289 228.234C66.2069 228.576 65.9053 228.833 65.5649 228.998C69.4811 241.158 72.7643 255.229 75.4175 271.215L83.959 259.996C84.6807 259.048 86.0297 258.869 86.972 259.595C87.9142 260.321 88.093 261.678 87.3713 262.626L76.3524 277.098C79.7528 299.462 81.9892 325.366 83.0693 354.816C83.113 356.01 82.187 357.012 81.0009 357.057C79.8148 357.101 78.8178 356.169 78.774 354.976C77.8722 330.386 76.1602 308.308 73.6425 288.745C73.5318 288.704 73.423 288.653 73.3172 288.592L57.3114 279.404C56.2805 278.812 55.9217 277.491 56.51 276.454C57.0983 275.417 58.4109 275.056 59.4418 275.648L72.9243 283.388C71.0098 269.676 68.6803 257.26 65.9374 246.143C65.7047 246.1 65.4751 246.017 65.258 245.893L49.2523 236.704C48.2214 236.113 47.8626 234.792 48.4509 233.755C49.0391 232.718 50.3517 232.357 51.3826 232.949L64.4692 240.462C60.4514 225.616 55.6334 213.286 50.0195 203.475C49.4274 202.441 49.7812 201.119 50.8099 200.523C51.8386 199.927 53.1525 200.283 53.7446 201.318C57.4957 207.873 60.8937 215.489 63.9399 224.165Z" fill="#CDE2FF"/>
<path d="M52.0523 366.317C55.1515 371.036 57.4635 373.875 58.9883 374.834L1.47461 374.014L15.5173 369.871C7.81481 362.727 4.8397 358.459 6.59193 357.066C8.34417 355.673 15.2852 356.789 27.4149 360.414C11.6253 344.379 7.18164 336.215 14.0839 335.921C20.9862 335.628 30.1435 343.41 41.5556 359.269C35.328 348.687 35.328 344.487 41.5556 346.67C50.897 349.944 47.4035 359.239 52.0523 366.317Z" fill="#CDE2FF"/>
<path fill-rule="evenodd" clip-rule="evenodd" d="M75.189 367.339C70.5403 360.341 74.0337 351.151 64.6923 347.914C58.4647 345.756 58.4647 349.977 64.6923 360.574C51.3587 350.582 43.203 346.929 40.2252 349.614C37.2475 352.299 38.6918 356.41 44.5584 361.948C28.6294 350.495 19.394 347.118 16.8521 351.816C13.0394 358.865 37.6598 367.889 38.654 370.852C39.0559 372.051 31.241 369.524 27.7124 370.274C26.851 370.456 32.1241 374.126 31.0285 374.282C29.8172 374.455 27.6782 374.677 24.6113 374.949L82.125 375.759C80.6002 374.811 78.2882 372.004 75.189 367.339Z" fill="#F0F6FF"/>
<path d="M386.715 316.971C405.576 316.971 420.865 301.752 420.865 282.979C420.865 264.206 429.777 190.103 410.916 190.103C392.055 190.103 352.564 264.206 352.564 282.979C352.564 301.752 367.854 316.971 386.715 316.971Z" fill="#CDE2FF"/>
<path fill-rule="evenodd" clip-rule="evenodd" d="M393.284 248.812C395.781 241.741 398.567 235.534 401.643 230.191C402.128 229.348 403.206 229.058 404.049 229.543C404.893 230.029 405.183 231.106 404.697 231.95C400.094 239.945 396.144 249.995 392.85 262.094L403.58 255.971C404.425 255.489 405.501 255.783 405.983 256.628C406.466 257.473 406.171 258.55 405.326 259.032L392.203 266.521C392.025 266.622 391.837 266.689 391.646 266.724C389.397 275.785 387.487 285.904 385.917 297.08L396.972 290.772C397.817 290.29 398.893 290.584 399.376 291.429C399.858 292.274 399.564 293.35 398.718 293.833L385.595 301.321C385.509 301.371 385.419 301.412 385.329 301.446C383.264 317.39 381.861 335.385 381.121 355.425C381.085 356.398 380.268 357.157 379.295 357.121C378.323 357.085 377.564 356.268 377.6 355.295C378.485 331.293 380.319 310.181 383.107 291.953L374.072 280.158C373.481 279.386 373.627 278.28 374.4 277.688C375.172 277.096 376.278 277.243 376.87 278.015L383.873 287.158C386.049 274.13 388.741 262.662 391.951 252.751C391.672 252.616 391.425 252.407 391.243 252.129L385.01 242.608C384.477 241.794 384.705 240.702 385.519 240.169C386.333 239.636 387.425 239.864 387.958 240.678L393.284 248.812Z" fill="#F0F6FF"/>
<path fill-rule="evenodd" clip-rule="evenodd" d="M262.169 245.195C275.531 297.292 211.246 347.948 69.3145 397.164L341.543 395.405C238.219 347.297 281.545 272.057 298.878 266.331C316.211 260.604 296.446 219.442 262.169 245.195Z" fill="url(#paint0_linear_603_11460)"/>
<path fill-rule="evenodd" clip-rule="evenodd" d="M71.9526 397.145H224.249C224.619 395.315 224.816 393.396 224.816 391.418C224.816 378.767 216.749 368.511 206.796 368.511C204.211 368.511 201.752 369.204 199.529 370.451C195.777 355.529 184.779 344.724 171.796 344.724C167.85 344.724 164.088 345.721 160.657 347.53C160.11 340.026 155.143 334.151 149.098 334.151C146.342 334.151 143.811 335.371 141.82 337.41C139.83 335.371 137.298 334.151 134.543 334.151C133.23 334.151 131.967 334.428 130.79 334.939C124.499 329.706 116.979 326.662 108.899 326.662C86.7938 326.662 68.8739 349.442 68.8739 377.542C68.8739 380.958 56.8293 392.535 30.1086 397.145H71.9526Z" fill="url(#paint1_linear_603_11460)"/>
<path fill-rule="evenodd" clip-rule="evenodd" d="M434.553 397.145H240.956C240.485 395.315 240.234 393.396 240.234 391.418C240.234 378.767 250.49 368.511 263.141 368.511C266.428 368.511 269.554 369.204 272.379 370.451C277.148 355.529 291.129 344.724 307.633 344.724C312.649 344.724 317.432 345.721 321.793 347.53C322.489 340.026 328.802 334.151 336.487 334.151C339.99 334.151 343.207 335.371 345.738 337.41C348.268 335.371 351.486 334.151 354.989 334.151C356.658 334.151 358.263 334.428 359.76 334.939C367.756 329.706 377.316 326.662 387.587 326.662C415.687 326.662 438.466 349.442 438.466 377.542C438.466 381.639 446.578 370.435 457.756 374.407C465.533 377.171 461.774 392.535 500.579 397.145H434.553Z" fill="url(#paint2_linear_603_11460)"/>
<path d="M140.284 416.222L138.895 419.665L149.421 421.783C152.511 412.257 154.077 405.103 154.118 400.319C154.464 360.633 146.458 384.949 142.326 402.669C141.124 407.826 140.909 414.331 140.284 416.222Z" fill="url(#paint3_linear_603_11460)"/>
<path d="M192.846 419.665L204.263 420.738C202.563 412.735 201.734 406.341 201.775 401.557C202.008 374.863 198.317 375.904 190.703 404.681L192.846 419.665Z" fill="url(#paint4_linear_603_11460)"/>
<path fill-rule="evenodd" clip-rule="evenodd" d="M146.949 279.819C148.909 269.39 161.221 265.394 183.886 267.832C194.814 294.04 200.974 315.72 202.365 332.871C203.756 350.023 205.654 372.961 204.262 403.99C198.367 408.196 191.691 409.989 188.028 407.061C182.533 402.669 188.224 401.194 183.886 393.146C179.547 385.098 179.665 352.928 177.276 346.514C167.237 319.568 145.535 287.342 146.949 279.819Z" fill="url(#paint5_linear_603_11460)"/>
<path fill-rule="evenodd" clip-rule="evenodd" d="M143.782 270.734C140.11 277.452 148.002 314.004 149.212 342.729C149.405 347.296 139.936 367.968 139.936 390.109C139.936 400.269 138.648 397.114 139.936 401.645C141.223 406.176 152.986 409.195 156.027 407.057C159.067 404.919 156.957 399.652 157.488 397.823C163.057 378.645 168.579 361.516 172.215 346.232C176.199 329.49 179.667 304.324 182.62 270.734C161.819 261.421 148.873 261.421 143.782 270.734Z" fill="url(#paint6_linear_603_11460)"/>
</g>
<path fill-rule="evenodd" clip-rule="evenodd" d="M364.008 170.493C352.699 195.71 332.625 226.618 303.787 263.215C297.434 264.76 288.974 262.955 278.407 257.801C267.841 252.648 261.21 247.092 258.516 241.135C269.6 195.878 281.597 161.032 294.506 136.595C307.415 112.158 333.346 88.3913 372.299 65.2949C378.081 110.21 375.317 145.276 364.008 170.493Z" fill="url(#paint7_linear_603_11460)"/>
<path fill-rule="evenodd" clip-rule="evenodd" d="M337.488 88.7669C347.625 80.8675 359.228 73.0435 372.296 65.2949C374.242 80.4093 375.22 94.4084 375.23 107.292C368.848 106.132 362.047 103.917 355.299 100.626C348.418 97.2692 342.384 93.1801 337.488 88.7669Z" fill="url(#paint8_linear_603_11460)"/>
<path d="M320.917 170.117C331.304 175.183 345.301 167.856 352.18 153.752C359.059 139.648 356.215 124.107 345.828 119.041C335.442 113.975 321.445 121.302 314.566 135.406C307.687 149.51 310.53 165.051 320.917 170.117Z" fill="url(#paint9_linear_603_11460)"/>
<path d="M323.043 165.761C331.68 169.974 343.308 163.905 349.014 152.207C354.72 140.508 352.343 127.609 343.706 123.396C335.068 119.184 323.441 125.252 317.735 136.951C312.029 148.65 314.406 161.549 323.043 165.761Z" fill="url(#paint10_linear_603_11460)"/>
<path fill-rule="evenodd" clip-rule="evenodd" d="M329.544 228.434C334.171 241.329 336.371 250.505 336.145 255.963C335.92 261.421 332.959 267.492 327.262 274.176L303.902 262.783L329.544 228.434Z" fill="url(#paint11_linear_603_11460)"/>
<path fill-rule="evenodd" clip-rule="evenodd" d="M296.329 213.998L301.477 216.508L279.848 260.853L274.701 258.342L296.329 213.998Z" fill="url(#paint12_linear_603_11460)"/>
<path fill-rule="evenodd" clip-rule="evenodd" d="M270.089 199.729L259.055 240.909L235.695 229.515C237.455 220.911 240.416 214.84 244.578 211.302C248.74 207.765 256.836 203.708 270.089 199.729Z" fill="url(#paint13_linear_603_11460)"/>
<path d="M174.088 244.316C176.689 232.032 178.72 225.196 180.18 223.807C181.12 222.913 184.105 229.943 186.459 235.828C188.39 232.454 190.457 230.23 193.288 225.392C196.668 219.618 199.708 212.859 202.168 211.183C206.211 208.43 216.06 210.712 216.941 213.477C217.172 214.203 215.578 219.402 215.514 220.11C215.427 221.062 220.439 227.994 219.103 230.518C217.768 233.043 212.854 220.8 209.951 221.482C209.951 223.013 208.184 224.601 207.182 223.807C206.18 223.013 205.572 221.968 205.29 222.356C199.83 229.877 194.807 250.425 188.701 252.059C184.631 253.149 179.76 250.568 174.088 244.316Z" fill="url(#paint14_linear_603_11460)"/>
<path fill-rule="evenodd" clip-rule="evenodd" d="M153.277 222.503C148.834 222.252 156.103 210.149 170.906 203.207C179.404 205.7 178.671 217.472 184.537 222.066C186.784 223.826 174.417 237.297 171.462 235.598C162.734 230.58 158.256 222.783 153.277 222.503Z" fill="url(#paint15_linear_603_11460)"/>
<path d="M149.48 174.393C159.333 175.995 162.809 180.061 161.885 180.532C160.96 181.002 160.922 185.523 161.769 194.093C163.378 195.089 165.681 196.292 168.68 197.703C173.178 199.819 176.311 215.562 177.547 225.581C178.37 232.26 182.272 241.445 180.727 257.359C157.512 274.109 145.977 279.987 146.122 274.991C146.43 264.381 143.291 249.941 136.707 231.67C130.743 215.641 129.124 205.492 131.848 201.222C135.934 194.816 139.188 199.51 145.254 194.391C149.299 190.977 149.299 183.508 149.48 174.393Z" fill="url(#paint16_linear_603_11460)"/>
<path d="M148.028 163.54C147.246 155.174 152.443 147.4 160.469 145.548C169.256 143.519 176.85 139.032 181.739 150.556C186.628 162.08 174.878 189.159 170.343 188.317C160.964 186.576 155.684 182.119 152.505 176.824C152.464 176.834 152.423 176.844 152.381 176.853C148.593 177.728 144.815 175.37 143.941 171.586C143.163 168.217 144.952 164.854 148.028 163.54Z" fill="url(#paint17_linear_603_11460)"/>
<path d="M172.57 166.754C173.154 166.754 173.627 166.163 173.627 165.433C173.627 164.704 173.154 164.112 172.57 164.112C171.985 164.112 171.512 164.704 171.512 165.433C171.512 166.163 171.985 166.754 172.57 166.754Z" fill="#423565"/>
<path d="M180.941 165.432C181.525 165.432 181.999 164.841 181.999 164.111C181.999 163.382 181.525 162.791 180.941 162.791C180.356 162.791 179.883 163.382 179.883 164.111C179.883 164.841 180.356 165.432 180.941 165.432Z" fill="#423565"/>
<path d="M171.127 153.112C169.814 158.592 166.668 160.752 161.691 159.591C163.781 163.33 162.38 166.914 157.49 170.342C155.754 167.766 153.176 165.763 149.755 164.334C146.721 163.066 140.934 172.25 152.505 177.246C151.651 178.683 150.523 180.343 149.123 182.224C146.288 177.303 144.215 174.071 142.905 172.527C139.128 168.077 135.685 165.032 135.109 162.067C134.233 157.559 136.957 154.261 143.282 152.172C141.665 146.321 142.956 142.054 147.156 139.371C151.355 136.688 155.255 136.184 158.856 137.859C162.038 122.662 170.428 116.738 184.026 120.086C204.422 125.109 195.793 152.962 185.136 155.034C178.031 156.415 173.361 155.774 171.127 153.112Z" fill="#423565"/>
<path fill-rule="evenodd" clip-rule="evenodd" d="M143.926 195.516C144.852 195.157 154.817 205.834 161.295 202.95C165.614 201.027 166.271 198.416 163.267 195.116C164.821 196.195 167.22 196.521 170.14 198.087C174.522 200.436 181.032 215.433 181.741 225.502C182.088 230.423 180.951 238.215 180.992 247.189C181.006 250.456 183.574 261.074 188.919 264.994C194.002 268.722 184.201 275.925 172.998 280.561C158.045 286.747 134.21 287.323 137.652 277.647C141.667 266.362 141.206 250.924 136.272 231.33C126.653 215.877 123.315 206.089 126.26 201.967C129.906 196.862 139.541 197.216 143.926 195.516Z" fill="url(#paint18_linear_603_11460)"/>
<path d="M139.388 231.087C137.174 224.937 155.335 222.8 156.847 227.445C158.979 234 161.26 239.178 163.689 242.98C168.627 243.589 172.441 244.317 175.131 245.165C184.842 248.225 201.191 252.873 205.018 251.393C205.453 251.224 207.56 244.953 209.3 245.02C211.04 245.088 208.106 250.794 211.04 250.595C213.974 250.397 226.238 249.505 227.728 250.595C229.217 251.686 219.386 252.035 217.91 254.102C216.125 256.604 210.765 258.456 210.242 258.62C196.174 263.045 158.116 258.79 154.94 257.876C146.999 255.593 143.668 242.98 139.388 231.087Z" fill="url(#paint19_linear_603_11460)"/>
<path d="M240.673 244.727H230.541V245.608H240.673V244.727Z" fill="url(#paint20_linear_603_11460)"/>
<path d="M241.555 246.929C242.528 246.929 243.317 246.14 243.317 245.167C243.317 244.194 242.528 243.405 241.555 243.405C240.582 243.405 239.793 244.194 239.793 245.167C239.793 246.14 240.582 246.929 241.555 246.929Z" fill="url(#paint21_linear_603_11460)"/>
<path d="M230.982 240.762H209.396V250.453H230.982V240.762Z" fill="url(#paint22_linear_603_11460)"/>
<path fill-rule="evenodd" clip-rule="evenodd" d="M216.446 235.916H223.935C225.394 235.916 226.578 237.1 226.578 238.559V241.202H213.803V238.559C213.803 237.1 214.986 235.916 216.446 235.916Z" fill="url(#paint23_linear_603_11460)"/>
<path d="M181.028 160.939C182.635 160.939 183.937 160.466 183.937 159.883C183.937 159.299 182.635 158.826 181.028 158.826C179.422 158.826 178.119 159.299 178.119 159.883C178.119 160.466 179.422 160.939 181.028 160.939Z" fill="#423565"/>
<path d="M170.456 162.261C172.063 162.261 173.365 161.788 173.365 161.204C173.365 160.621 172.063 160.148 170.456 160.148C168.849 160.148 167.547 160.621 167.547 161.204C167.547 161.788 168.849 162.261 170.456 162.261Z" fill="#423565"/>
<path d="M177.264 164.842C177.25 164.697 177.357 164.568 177.502 164.554C177.648 164.54 177.777 164.646 177.791 164.792C178.177 168.81 178.69 171.338 179.306 172.335C179.713 172.994 179.539 173.554 178.832 173.852C178.23 174.106 177.203 174.2 175.731 174.145C175.585 174.14 175.471 174.017 175.477 173.871C175.482 173.726 175.605 173.612 175.751 173.617C177.15 173.669 178.115 173.581 178.626 173.366C179.033 173.195 179.093 172.998 178.856 172.613C178.182 171.521 177.659 168.944 177.264 164.842Z" fill="#EF6949"/>
<path d="M171.678 180.07C171.543 180.016 171.477 179.863 171.531 179.727C171.585 179.591 171.738 179.525 171.874 179.579C173.618 180.272 174.759 180.003 175.404 178.79C175.473 178.661 175.633 178.612 175.762 178.68C175.89 178.749 175.939 178.909 175.871 179.038C175.084 180.517 173.651 180.855 171.678 180.07Z" fill="#EF6949"/>
<path d="M148.247 170.981C148.214 171.123 148.071 171.212 147.929 171.179C147.787 171.146 147.698 171.004 147.732 170.861C148.4 167.994 149.391 166.744 150.744 167.342C151.951 167.876 153.295 169.72 154.823 172.889C154.886 173.02 154.831 173.178 154.699 173.241C154.567 173.305 154.409 173.249 154.346 173.118C152.871 170.059 151.583 168.291 150.53 167.825C149.622 167.424 148.848 168.399 148.247 170.981Z" fill="#EF6949"/>
<path fill-rule="evenodd" clip-rule="evenodd" d="M157.67 225.663C163.776 234.431 133.713 245.603 132.758 237.822C131.803 230.04 125.291 211.278 124.316 206.423C122.875 199.251 130.992 196.443 139.546 196.443C143.529 196.443 153.599 219.818 157.67 225.663Z" fill="url(#paint24_linear_603_11460)"/>
<path d="M152.848 169.873C152.993 169.887 153.099 170.017 153.085 170.162C153.071 170.307 152.941 170.413 152.796 170.399C151.286 170.249 150.754 170.566 150.934 171.357C150.967 171.499 150.877 171.641 150.735 171.673C150.593 171.706 150.451 171.616 150.419 171.474C150.135 170.229 151.034 169.693 152.848 169.873Z" fill="#EF6949"/>
<path d="M191.318 141.825C193.986 140.106 194.651 137.012 193.12 134.104C193.052 133.975 193.102 133.815 193.231 133.747C193.36 133.679 193.52 133.729 193.588 133.858C195.242 136.999 194.512 140.396 191.604 142.269C190.563 142.939 188.741 143.668 186.848 144.196C187.725 145.405 187.97 146.632 187.244 147.513C185.633 149.466 182.372 150.161 177.475 149.64C177.33 149.624 177.224 149.494 177.24 149.349C177.255 149.204 177.386 149.099 177.531 149.114C182.269 149.618 185.366 148.958 186.835 147.177C187.399 146.493 187.13 145.425 186.293 144.345C185.506 144.546 184.718 144.709 183.98 144.815C182.437 145.036 181.164 145.011 180.282 144.697C179.221 144.32 178.735 143.524 178.961 142.365C179.186 141.212 179.983 140.651 181.135 140.699C182.108 140.74 183.307 141.216 184.46 141.984C185.265 142.52 185.957 143.124 186.491 143.746C188.412 143.228 190.285 142.49 191.318 141.825ZM184.167 142.424C183.088 141.705 181.975 141.263 181.113 141.227C180.21 141.189 179.653 141.582 179.48 142.466C179.306 143.362 179.639 143.908 180.46 144.199C181.244 144.478 182.439 144.502 183.905 144.292C184.546 144.2 185.227 144.063 185.912 143.895C185.441 143.383 184.85 142.879 184.167 142.424Z" fill="white"/>
<path d="M153.816 178.911L161.55 190.608L160.972 184.647L153.816 178.911Z" fill="#EF6949"/>
<path fill-rule="evenodd" clip-rule="evenodd" d="M169.508 79.0984C76.2767 113.912 38.2725 242.699 84.5795 366.712C99.222 405.926 112.716 419.577 128.759 414.445C135.695 412.225 143.169 406.623 152.728 396.981C156.519 393.157 160.472 388.894 166.135 382.588C167.655 380.895 173.022 374.891 173.307 374.572C176.246 371.291 178.551 368.738 180.837 366.239C207.844 336.729 229.344 319.272 255.537 309.492C266.047 305.567 275.144 302.433 291.73 296.901C320.271 287.385 330.081 283.871 342.198 278.337C358.017 271.112 369.305 263.378 377.169 253.81C394.981 232.145 395.387 200.117 376.37 149.19C354.421 90.409 327.102 61.4874 290.705 54.6615C261.152 49.1165 230.628 56.276 169.508 79.0984Z" stroke="url(#paint25_linear_603_11460)" stroke-opacity="0.5" stroke-width="1.07047"/>
<path d="M254.339 100.895C229.795 77.868 191.821 84.9561 164.811 107.001C43.6016 205.931 43.5386 270.343 58.5791 302.703C71.6198 330.76 131.866 373.55 195.942 399.253C273.127 430.213 337.396 404.485 346.884 388.263C352.669 378.371 366.61 365.076 347.971 326.677C327.779 285.08 303.214 201.775 301.133 190.108C299.052 178.442 284.634 129.316 254.339 100.895Z" stroke="#00CCE8" stroke-width="0.85591"/>
<defs>
<filter id="filter0_d_603_11460" x="4.93412" y="19.779" width="609.994" height="437.737" filterUnits="userSpaceOnUse" color-interpolation-filters="sRGB">
<feFlood flood-opacity="0" result="BackgroundImageFix"/>
<feColorMatrix in="SourceAlpha" type="matrix" values="0 0 0 0 0 0 0 0 0 0 0 0 0 0 0 0 0 0 127 0" result="hardAlpha"/>
<feOffset dx="14.5521" dy="23.5073"/>
<feGaussianBlur stdDeviation="19.0297"/>
<feComposite in2="hardAlpha" operator="out"/>
<feColorMatrix type="matrix" values="0 0 0 0 0.26 0 0 0 0 0 0 0 0 0 1 0 0 0 0.1 0"/>
<feBlend mode="normal" in2="BackgroundImageFix" result="effect1_dropShadow_603_11460"/>
<feBlend mode="normal" in="SourceGraphic" in2="effect1_dropShadow_603_11460" result="shape"/>
</filter>
<linearGradient id="paint0_linear_603_11460" x1="205.429" y1="236.797" x2="205.429" y2="397.164" gradientUnits="userSpaceOnUse">
<stop stop-color="#DDEBFF"/>
<stop offset="1" stop-color="#AFD0FF"/>
</linearGradient>
<linearGradient id="paint1_linear_603_11460" x1="127.462" y1="326.662" x2="127.462" y2="397.145" gradientUnits="userSpaceOnUse">
<stop stop-color="#DDEBFF"/>
<stop offset="1" stop-color="#AFD0FF"/>
</linearGradient>
<linearGradient id="paint2_linear_603_11460" x1="370.407" y1="326.662" x2="370.407" y2="397.145" gradientUnits="userSpaceOnUse">
<stop stop-color="#DDEBFF"/>
<stop offset="1" stop-color="#AFD0FF"/>
</linearGradient>
<linearGradient id="paint3_linear_603_11460" x1="146.512" y1="395.047" x2="146.512" y2="447.664" gradientUnits="userSpaceOnUse">
<stop stop-color="#FFD7C2"/>
<stop offset="1" stop-color="#FFA5A5"/>
</linearGradient>
<linearGradient id="paint4_linear_603_11460" x1="197.483" y1="396.768" x2="197.483" y2="443.942" gradientUnits="userSpaceOnUse">
<stop stop-color="#FFD7C2"/>
<stop offset="1" stop-color="#FFA5A5"/>
</linearGradient>
<linearGradient id="paint5_linear_603_11460" x1="175.816" y1="408.501" x2="175.816" y2="337.82" gradientUnits="userSpaceOnUse">
<stop stop-color="#FF9CCC"/>
<stop offset="1" stop-color="#FF73B7"/>
</linearGradient>
<linearGradient id="paint6_linear_603_11460" x1="160.992" y1="263.749" x2="160.992" y2="407.759" gradientUnits="userSpaceOnUse">
<stop stop-color="#FF9CCC"/>
<stop offset="1" stop-color="#FF73B7"/>
</linearGradient>
<linearGradient id="paint7_linear_603_11460" x1="316.874" y1="65.2949" x2="316.874" y2="263.749" gradientUnits="userSpaceOnUse">
<stop stop-color="#AD7DFE"/>
<stop offset="1" stop-color="#5B62D9"/>
</linearGradient>
<linearGradient id="paint8_linear_603_11460" x1="356.359" y1="65.2949" x2="356.359" y2="107.292" gradientUnits="userSpaceOnUse">
<stop stop-color="#FF9CCC"/>
<stop offset="1" stop-color="#FF73B7"/>
</linearGradient>
<linearGradient id="paint9_linear_603_11460" x1="345.828" y1="119.041" x2="320.917" y2="170.117" gradientUnits="userSpaceOnUse">
<stop stop-color="#FF9CCC"/>
<stop offset="1" stop-color="#FF73B7"/>
</linearGradient>
<linearGradient id="paint10_linear_603_11460" x1="343.706" y1="123.396" x2="323.043" y2="165.761" gradientUnits="userSpaceOnUse">
<stop stop-color="#DDEBFF"/>
<stop offset="1" stop-color="#AFD0FF"/>
</linearGradient>
<linearGradient id="paint11_linear_603_11460" x1="320.032" y1="228.434" x2="320.032" y2="274.176" gradientUnits="userSpaceOnUse">
<stop stop-color="#FF9CCC"/>
<stop offset="1" stop-color="#FF73B7"/>
</linearGradient>
<linearGradient id="paint12_linear_603_11460" x1="288.089" y1="213.998" x2="288.089" y2="260.853" gradientUnits="userSpaceOnUse">
<stop stop-color="#FF9CCC"/>
<stop offset="1" stop-color="#FF73B7"/>
</linearGradient>
<linearGradient id="paint13_linear_603_11460" x1="252.892" y1="199.729" x2="252.892" y2="240.909" gradientUnits="userSpaceOnUse">
<stop stop-color="#FF9CCC"/>
<stop offset="1" stop-color="#FF73B7"/>
</linearGradient>
<linearGradient id="paint14_linear_603_11460" x1="179.753" y1="232.191" x2="234.909" y2="252.121" gradientUnits="userSpaceOnUse">
<stop stop-color="#FFD7C2"/>
<stop offset="1" stop-color="#FFA5A5"/>
</linearGradient>
<linearGradient id="paint15_linear_603_11460" x1="176.944" y1="206.285" x2="163.226" y2="231.033" gradientUnits="userSpaceOnUse">
<stop stop-color="#485295"/>
<stop offset="1" stop-color="#303565"/>
</linearGradient>
<linearGradient id="paint16_linear_603_11460" x1="155.826" y1="212.925" x2="155.826" y2="338.462" gradientUnits="userSpaceOnUse">
<stop stop-color="#FFD7C2"/>
<stop offset="1" stop-color="#FFA5A5"/>
</linearGradient>
<linearGradient id="paint17_linear_603_11460" x1="163.334" y1="160.053" x2="163.334" y2="215.717" gradientUnits="userSpaceOnUse">
<stop stop-color="#FFD7C2"/>
<stop offset="1" stop-color="#FFA5A5"/>
</linearGradient>
<linearGradient id="paint18_linear_603_11460" x1="157.761" y1="195.116" x2="157.761" y2="285.085" gradientUnits="userSpaceOnUse">
<stop stop-color="#485295"/>
<stop offset="1" stop-color="#303565"/>
</linearGradient>
<linearGradient id="paint19_linear_603_11460" x1="167.931" y1="228.081" x2="170.484" y2="282.73" gradientUnits="userSpaceOnUse">
<stop stop-color="#FFD7C2"/>
<stop offset="1" stop-color="#FFA5A5"/>
</linearGradient>
<linearGradient id="paint20_linear_603_11460" x1="235.607" y1="244.727" x2="235.607" y2="245.608" gradientUnits="userSpaceOnUse">
<stop stop-color="#485295"/>
<stop offset="1" stop-color="#303565"/>
</linearGradient>
<linearGradient id="paint21_linear_603_11460" x1="241.555" y1="243.405" x2="241.555" y2="246.929" gradientUnits="userSpaceOnUse">
<stop stop-color="#FF9CCC"/>
<stop offset="1" stop-color="#FF73B7"/>
</linearGradient>
<linearGradient id="paint22_linear_603_11460" x1="220.189" y1="240.762" x2="220.189" y2="250.453" gradientUnits="userSpaceOnUse">
<stop stop-color="#AD7DFE"/>
<stop offset="1" stop-color="#5B62D9"/>
</linearGradient>
<linearGradient id="paint23_linear_603_11460" x1="220.19" y1="235.916" x2="220.19" y2="241.202" gradientUnits="userSpaceOnUse">
<stop stop-color="#FF9CCC"/>
<stop offset="1" stop-color="#FF73B7"/>
</linearGradient>
<linearGradient id="paint24_linear_603_11460" x1="141.318" y1="196.443" x2="141.318" y2="240.445" gradientUnits="userSpaceOnUse">
<stop stop-color="#485295"/>
<stop offset="1" stop-color="#303565"/>
</linearGradient>
<linearGradient id="paint25_linear_603_11460" x1="250.816" y1="175.877" x2="179.301" y2="293.675" gradientUnits="userSpaceOnUse">
<stop stop-color="#444CF8"/>
<stop offset="0.39935" stop-color="#4200FF"/>
<stop offset="1" stop-color="#1C41E0"/>
</linearGradient>
</defs>
</svg>
