<svg width="33" height="34" viewBox="0 0 33 34" fill="none" xmlns="http://www.w3.org/2000/svg">
<path d="M16.5 0.883301C7.38723 0.883301 0 8.27053 0 17.3833C0 26.496 7.38723 33.8832 16.5 33.8832C25.6127 33.8832 33 26.496 33 17.3833C32.9999 8.27053 25.6126 0.883301 16.5 0.883301ZM12.0977 25.3602H8.47501V13.6562H12.0977V25.3602ZM10.2691 12.1235C9.08597 12.1235 8.12682 11.1565 8.12682 9.9639C8.12682 8.77114 9.0861 7.80424 10.2691 7.80424C11.4521 7.80424 12.4113 8.77114 12.4113 9.9639C12.4113 11.1566 11.4522 12.1235 10.2691 12.1235ZM25.6739 25.3602H22.0688V19.2166C22.0688 17.5316 21.4287 16.591 20.0963 16.591C18.6462 16.591 17.8887 17.5706 17.8887 19.2166V25.3602H14.4141V13.6562H17.8887V15.2326C17.8887 15.2326 18.9339 13.2992 21.4156 13.2992C23.8974 13.2992 25.674 14.8146 25.674 17.9494L25.6739 25.3602Z" fill="url(#paint0_linear_2707_127303)"/>
<defs>
<linearGradient id="paint0_linear_2707_127303" x1="4.83272" y1="5.71602" x2="28.1672" y2="29.0505" gradientUnits="userSpaceOnUse">
<stop stop-color="#2489BE"/>
<stop offset="1" stop-color="#0575B3"/>
</linearGradient>
</defs>
</svg>
