<svg width="292" height="188" viewBox="0 0 292 188" fill="none" xmlns="http://www.w3.org/2000/svg">
<path d="M274.202 -44V4.00567L246.538 4.00567C224.298 4.00567 213.178 15.1256 213.178 37.3655V63.4025H225.383C244.368 63.4025 260.098 69.0981 272.575 80.4892C285.051 91.8804 291.289 106.255 291.289 123.613C291.289 142.598 285.051 158.058 272.575 169.991C260.098 181.383 244.368 187.078 225.383 187.078C206.397 187.078 190.667 181.111 178.191 169.178C166.257 156.702 160.29 140.7 160.29 121.172L160.29 36.5519C160.29 -17.1494 187.141 -44 240.842 -44L274.202 -44ZM113.912 -44V4.00567L86.2475 4.00567C64.0075 4.00567 52.8876 15.1256 52.8876 37.3655L52.8876 63.4025L65.0924 63.4025C84.0777 63.4025 99.8084 69.0981 112.284 80.4892C124.76 91.8804 130.999 106.255 130.999 123.613C130.999 142.598 124.76 158.058 112.284 169.991C99.8084 181.383 84.0777 187.078 65.0924 187.078C46.1071 187.078 30.3765 181.111 17.9004 169.178C5.9668 156.702 0 140.7 0 121.172L0 36.5519C0 -17.1494 26.8506 -44 80.5519 -44L113.912 -44Z" fill="#B9C8FF"/>
</svg>
