<svg width="292" height="227" viewBox="0 0 292 227" fill="none" xmlns="http://www.w3.org/2000/svg">
<path d="M17.0863 231.078L17.0863 183.072L44.7505 183.072C66.9904 183.072 78.1104 171.953 78.1104 149.713L78.1104 123.676L65.9056 123.676C46.9203 123.676 31.1896 117.98 18.7136 106.589C6.23751 95.1977 -0.000531935 80.8231 -0.000533452 63.4652C-0.000535112 44.4799 6.2375 29.0204 18.7135 17.0868C31.1896 5.69563 46.9203 3.66221e-05 65.9056 3.49624e-05C84.8908 3.33026e-05 100.622 5.96684 113.098 17.9005C125.031 30.3765 130.998 46.3784 130.998 65.9061L130.998 150.526C130.998 204.228 104.147 231.078 50.4461 231.078L17.0863 231.078ZM177.376 231.078L177.376 183.072L205.041 183.072C227.281 183.072 238.4 171.953 238.4 149.713L238.4 123.676L226.196 123.676C207.21 123.676 191.48 117.98 179.004 106.589C166.528 95.1977 160.29 80.8231 160.29 63.4651C160.29 44.4799 166.528 29.0204 179.004 17.0868C191.48 5.69561 207.21 2.26091e-05 226.196 2.09493e-05C245.181 1.92896e-05 260.912 5.96683 273.388 17.9004C285.321 30.3765 291.288 46.3784 291.288 65.9061L291.288 150.526C291.288 204.227 264.437 231.078 210.736 231.078L177.376 231.078Z" fill="#B9C8FF"/>
</svg>
