<svg xmlns="http://www.w3.org/2000/svg" width="37" height="36" viewBox="0 0 37 36" fill="currentColor">
  <path d="M18.5834 35.8469C8.73845 35.8469 0.736328 27.8449 0.736328 18.0001C0.736328 8.15532 8.73845 0.15332 18.5834 0.15332C28.4283 0.15332 36.4304 8.15532 36.4304 18.0001C36.4304 27.8449 28.4283 35.8469 18.5834 35.8469Z" fill="#2957FF"/>
  <path d="M17.2139 27.9611C17.2139 28.7108 17.8343 29.3312 18.584 29.3312C19.3337 29.3312 19.9542 28.7108 19.9542 27.9611V8.03907C19.9542 7.28936 19.3337 6.66895 18.584 6.66895C17.8343 6.66895 17.2139 7.28936 17.2139 8.03907V27.9611Z" fill="white" stroke="white" stroke-width="0.25" stroke-linecap="round"/>
  <path d="M25.4983 22.3835V22.3826C25.4983 20.8702 25.0538 19.8556 24.433 19.1616C23.8149 18.4706 23.0324 18.1089 22.3764 17.8818C22.3763 17.8818 22.3762 17.8817 22.3761 17.8817L15.6862 15.5245C15.2619 15.3747 14.9534 15.2387 14.7434 14.9804C14.5353 14.7244 14.4083 14.3272 14.4083 13.617C14.4083 12.5152 15.2572 11.617 16.2589 11.617H20.426C21.6933 11.617 22.7414 12.731 22.7414 14.115C22.7414 14.8647 23.3619 15.4851 24.1116 15.4851C24.8613 15.4851 25.4817 14.8647 25.4817 14.115C25.4817 11.228 23.222 8.87671 20.426 8.87671H16.2589C13.7292 8.87671 11.668 10.9949 11.668 13.617C11.668 15.1294 12.1125 16.144 12.7333 16.838C13.3514 17.5291 14.1339 17.8907 14.7899 18.1178C14.79 18.1179 14.7901 18.1179 14.7902 18.1179L21.4801 20.4751C21.9044 20.6249 22.2129 20.7609 22.4229 21.0192C22.631 21.2752 22.758 21.6725 22.758 22.3826C22.758 23.4844 21.9091 24.3827 20.9074 24.3827H16.7403C15.473 24.3827 14.4249 23.2686 14.4249 21.8846C14.4249 21.1349 13.8044 20.5145 13.0547 20.5145C12.305 20.5145 11.6846 21.1349 11.6846 21.8846C11.6846 24.7716 13.9443 27.1229 16.7403 27.1229H20.9074C23.4381 27.1229 25.4813 24.9873 25.4983 22.3835Z" fill="white" stroke="white" stroke-width="0.25" stroke-linecap="round"/>
</svg>