<svg xmlns="http://www.w3.org/2000/svg" width="39" height="35" viewBox="0 0 39 35" fill="none">
  <path d="M15.208 5.77222L19.4185 1.56172" stroke="#2957FF" stroke-width="2.14783" stroke-linecap="round"/>
  <path d="M12.2852 5.15771L14.2342 3.20869" stroke="#2957FF" stroke-width="2.14783" stroke-linecap="round"/>
  <path d="M28.9521 13.3518L33.1627 9.14131" stroke="#2957FF" stroke-width="2.14783" stroke-linecap="round"/>
  <path d="M26.0273 12.7373L27.9764 10.7883" stroke="#2957FF" stroke-width="2.14783" stroke-linecap="round"/>
  <path d="M22.005 33.2698H6.12886L8.26191 10.684C8.36123 9.6356 9.24158 8.83472 10.2947 8.83472H18.0678C19.1244 8.83472 20.0064 9.64077 20.1014 10.6931L22.005 33.2698H22.0053L23.4966 18.2681C23.5938 17.2178 24.475 16.4144 25.5298 16.4144H29.5219C30.5801 16.4144 31.4629 17.2229 31.5558 18.277L32.9201 33.2698H22.0053L22.0052 33.2713L22.005 33.2698Z" fill="#2957FF"/>
  <path d="M1.65332 33.2698H37.3474M6.12886 33.2698L8.26191 10.684C8.36123 9.6356 9.24158 8.83472 10.2947 8.83472H18.0678C19.1244 8.83472 20.0064 9.64077 20.1014 10.6931L22.0052 33.2713L23.4966 18.2681C23.5938 17.2178 24.475 16.4144 25.5298 16.4144H29.5219C30.5801 16.4144 31.4629 17.2229 31.5558 18.277L32.9201 33.2698" stroke="#2957FF" stroke-width="2.14783" stroke-linecap="round"/>
</svg>