<svg xmlns="http://www.w3.org/2000/svg" width="39" height="41" viewBox="0 0 39 41" fill="none">
  <path d="M14.4663 32.4565C13.711 32.4565 12.9726 32.6805 12.3446 33.1001C11.7167 33.5197 11.2272 34.1161 10.9382 34.8139C10.6491 35.5117 10.5735 36.2795 10.7208 37.0203C10.8682 37.7611 11.2319 38.4415 11.766 38.9756C12.3 39.5096 12.9805 39.8733 13.7212 40.0207C14.462 40.168 15.2298 40.0924 15.9276 39.8034C16.6254 39.5143 17.2218 39.0249 17.6415 38.3969C18.0611 37.7689 18.285 37.0306 18.285 36.2753C18.285 35.2625 17.8827 34.2912 17.1665 33.575C16.4504 32.8589 15.4791 32.4565 14.4663 32.4565Z" fill="#2957FF"/>
  <path d="M32.3549 32.4565C31.5996 32.4565 30.8613 32.6805 30.2333 33.1001C29.6053 33.5197 29.1159 34.1161 28.8268 34.8139C28.5378 35.5117 28.4622 36.2795 28.6095 37.0203C28.7569 37.7611 29.1206 38.4415 29.6546 38.9756C30.1887 39.5096 30.8691 39.8733 31.6099 40.0207C32.3507 40.168 33.1185 40.0924 33.8163 39.8034C34.5141 39.5143 35.1105 39.0249 35.5301 38.3969C35.9497 37.7689 36.1737 37.0306 36.1737 36.2753C36.1737 35.2625 35.7714 34.2912 35.0552 33.575C34.3391 32.8589 33.3677 32.4565 32.3549 32.4565Z" fill="#2957FF"/>
  <path d="M34.8828 10.8168H10.5491C9.62177 10.8168 8.97148 11.7315 9.27612 12.6073L13.6516 25.1868C13.8401 25.7286 14.3509 26.0918 14.9246 26.0918H29.6561C32.6708 26.0918 35.2721 23.9767 35.8869 21.0253L37.3752 13.8818C37.7045 12.3009 36.4977 10.8168 34.8828 10.8168Z" fill="#2957FF" stroke="#2957FF" stroke-width="2.69551" stroke-linecap="round"/>
  <path d="M1.73633 1.90637H3.15969C4.59389 1.90637 5.8709 2.81425 6.34207 4.16884L14.4794 27.5636C15.2333 29.7309 17.2765 31.1835 19.5712 31.1835H28.4679" stroke="#2957FF" stroke-width="2.69551" stroke-linecap="round"/>
</svg>