<svg xmlns="http://www.w3.org/2000/svg" width="37" height="31" viewBox="0 0 37 31" fill="currentColor">
  <path d="M1.50318 15.8965C1.27778 15.8965 1.06161 15.986 0.902232 16.1454C0.742852 16.3047 0.65332 16.5209 0.65332 16.7463V24.4801C0.65332 25.1563 0.921944 25.8047 1.40008 26.2829C1.87822 26.761 2.5267 27.0296 3.20289 27.0296H4.56268C4.75431 27.9587 5.26054 28.7932 5.99594 29.3924C6.73135 29.9916 7.65091 30.3188 8.59951 30.3188C9.54811 30.3188 10.4677 29.9916 11.2031 29.3924C11.9385 28.7932 12.4447 27.9587 12.6363 27.0296H24.3219C24.5135 27.9587 25.0198 28.7932 25.7552 29.3924C26.4906 29.9916 27.4101 30.3188 28.3587 30.3188C29.3073 30.3188 30.2269 29.9916 30.9623 29.3924C31.6977 28.7932 32.204 27.9587 32.3956 27.0296H33.7979C34.4741 27.0296 35.1226 26.761 35.6007 26.2829C36.0788 25.8047 36.3474 25.1563 36.3474 24.4801V18.4461C36.3442 17.8758 36.1498 17.3232 35.7955 16.8764C35.4412 16.4296 34.9473 16.1145 34.3928 15.9815L31.1633 8.88512C30.883 8.30009 30.4431 7.80617 29.8942 7.46034C29.3454 7.1145 28.71 6.9308 28.0613 6.93042H21.8148C21.5894 6.93042 21.3733 7.01995 21.2139 7.17933C21.0545 7.33871 20.965 7.55488 20.965 7.78028V15.8965H1.50318ZM8.59951 28.6444C7.9684 28.6444 7.36315 28.3937 6.91689 27.9474C6.47062 27.5011 6.21989 26.8959 6.21989 26.2648C6.21979 25.6297 6.46916 25.02 6.91424 24.5669C7.35932 24.1139 7.96452 23.8538 8.59951 23.8427C9.23848 23.8536 9.84823 24.1123 10.3001 24.5642C10.752 25.0161 11.0107 25.6258 11.0216 26.2648C11.0105 26.8997 10.7504 27.505 10.2974 27.9501C9.84433 28.3951 9.2346 28.6445 8.59951 28.6444ZM28.3587 28.6444C27.7237 28.6445 27.114 28.3951 26.6609 27.9501C26.2079 27.505 25.9478 26.8997 25.9366 26.2648C25.9366 25.6224 26.1919 25.0063 26.6461 24.5521C27.1003 24.0978 27.7164 23.8427 28.3587 23.8427C29.0011 23.8427 29.6172 24.0978 30.0715 24.5521C30.5257 25.0063 30.7809 25.6224 30.7809 26.2648C30.7697 26.8997 30.5096 27.505 30.0566 27.9501C29.6036 28.3951 28.9938 28.6445 28.3587 28.6444ZM22.6647 8.63014H28.0613C28.3826 8.63181 28.6968 8.72452 28.9676 8.8975C29.2383 9.07048 29.4545 9.31666 29.5911 9.6075L32.4806 15.8965H22.6647V8.63014Z" fill="#2957FF"/>
  <rect x="7.45215" y="0.513916" width="8.4986" height="8.49861" fill="#2957FF"/>
  <rect x="4.05273" y="7.31299" width="8.4986" height="8.49861" fill="#2957FF"/>
  <rect x="10.8506" y="7.31299" width="8.4986" height="8.49861" fill="#2957FF"/>
</svg>