<svg width="172" height="188" viewBox="0 0 172 188" fill="none" xmlns="http://www.w3.org/2000/svg">
<path d="M65.5554 89.755C67.3871 91.2095 70.7368 91.1805 72.6168 88.5099C74.4967 85.8393 72.6739 84.1358 72.6168 81.334C72.1301 57.4898 62.7448 37.346 60.7872 21.4212C58.8296 5.49636 71.3784 11.1081 73.5475 19.1712L89.4948 85.5339C89.4948 85.5339 92.7452 98.1902 93.8428 103.526C97.8212 122.867 98.0234 125.49 108.315 133.334C115.242 138.612 118.452 141.672 129.315 140.834C142.554 139.813 138.325 138.541 150.816 133.334C163.306 128.127 175.147 133.827 165.085 154.267C165.085 154.267 150.289 165.536 120.815 174.334C91.3421 183.132 92.1561 182.219 54.3155 185.334C16.475 188.449 19.1699 139.996 12.5783 102.614L2.55324 45.7588C4.49955 37.8023 9.56839 36.9514 13.953 43.7488C18.3375 50.5461 20.4266 95.2312 23.3765 97.1923C26.3264 99.1534 27.9364 96.3883 27.9364 96.3883C27.9364 96.3883 25.3596 55.0649 18.1232 20.7368C20.6272 9.54012 29.6495 14.1848 30.6629 18.5258C30.6629 18.5258 38.8154 84.834 41.8154 91.834C44.8154 98.834 48.3723 94.3984 49.5958 92.5691C53.4958 91.8199 34.625 19.7373 35.1598 10.6981C35.6945 1.65898 44.0485 -1.01562 48.0782 8.42029C52.1079 17.8562 63.7238 88.3006 65.5554 89.755Z" stroke="#DCDCDC" stroke-width="5"/>
</svg>
