<svg width="505" height="627" viewBox="0 0 505 627" fill="none" xmlns="http://www.w3.org/2000/svg">
<path d="M190.199 305.091C195.407 310.964 206.497 312.82 214.269 305.091C222.041 297.363 217.008 290.672 218.452 281.382C230.743 202.317 211.458 130.294 214.269 76.5376C217.08 22.7813 255.294 48.6333 257.765 76.5376L271.801 305.091C271.801 305.091 275.169 348.802 275.687 367.072C277.565 433.292 276.704 442.077 306.156 473.988C325.977 495.463 334.806 507.441 371.208 511.002C415.569 515.341 402.329 508.676 446.658 498.748C490.986 488.82 526.806 514.551 481.63 576.224C481.63 576.224 426.145 604.838 323.58 616.735C221.016 628.632 224.239 626.09 97.3264 614.337C-29.5866 602.584 7.56652 444.066 7.56652 316.713L7.56652 123.023C18.6388 97.8686 35.8919 98.0102 46.4246 123.023C56.9572 148.036 37.8157 296.893 46.4246 305.091C55.0334 313.289 61.9678 305.091 61.9678 305.091C61.9678 305.091 77.5373 167.057 73.6252 49.4211C88.4297 13.8857 115.549 34.488 116.369 49.4211C116.369 49.4211 104.668 273.254 110.505 298.13C116.342 323.005 130.687 310.422 135.798 305.091C149.127 304.888 128.761 55.7322 135.798 26.1783C142.835 -3.37563 172.011 -7.34562 179.833 26.1784C187.654 59.7024 184.992 299.219 190.199 305.091Z" fill="#D9D9D9" stroke="#DCDCDC" stroke-width="5"/>
</svg>
