<svg width="154" height="191" viewBox="0 0 154 191" fill="none" xmlns="http://www.w3.org/2000/svg">
<path d="M58.4145 92.6922C59.9657 94.4426 63.2696 94.9957 65.5847 92.6922C67.8998 90.3886 66.4006 88.3944 66.8308 85.6253C70.4921 62.0588 64.7473 40.5913 65.5847 24.5685C66.4222 8.54564 77.8059 16.2512 78.5418 24.5685L82.7232 92.6922C82.7232 92.6922 83.7264 105.721 83.8807 111.166C84.4402 130.904 84.1838 133.523 92.9574 143.034C98.8617 149.435 101.492 153.006 112.336 154.067C125.551 155.36 121.607 153.374 134.812 150.414C148.017 147.455 158.688 155.125 145.23 173.507C145.23 173.507 128.701 182.036 98.1479 185.582C67.5947 189.128 68.5548 188.371 30.7482 184.867C-7.05842 181.364 4.00928 134.116 4.00928 96.1562L4.00928 38.4242C7.30765 30.9265 12.4472 30.9687 15.5849 38.4242C18.7225 45.8796 13.0203 90.2486 15.5849 92.6922C18.1494 95.1357 20.2151 92.6922 20.2151 92.6922C20.2151 92.6922 24.8531 51.5491 23.6877 16.486C28.0979 5.89419 36.1767 12.035 36.4209 16.486C36.4209 16.486 32.9352 83.2025 34.6741 90.6171C36.413 98.0317 40.6861 94.2812 42.2087 92.6922C46.1794 92.6316 40.1124 18.3671 42.2087 9.55816C44.3049 0.749198 52.9964 -0.434115 55.3264 9.55819C57.6563 19.5505 56.8632 90.9417 58.4145 92.6922Z" stroke="#DCDCDC" stroke-width="5"/>
</svg>
