<svg width="154" height="191" viewBox="0 0 154 191" fill="none" xmlns="http://www.w3.org/2000/svg">
<path d="M95.542 92.6922C93.9908 94.4426 90.6869 94.9957 88.3718 92.6922C86.0566 90.3886 87.5559 88.3944 87.1257 85.6253C83.4644 62.0588 89.2092 40.5913 88.3718 24.5685C87.5343 8.54564 76.1506 16.2512 75.4147 24.5685L71.2333 92.6922C71.2333 92.6922 70.2301 105.721 70.0758 111.166C69.5163 130.904 69.7727 133.523 60.9991 143.034C55.0947 149.435 52.4646 153.006 41.6206 154.067C28.4057 155.36 32.3499 153.374 19.1446 150.414C5.93932 147.455 -4.73119 155.125 8.72658 173.507C8.72658 173.507 25.2553 182.036 55.8086 185.582C86.3618 189.128 85.4016 188.371 123.208 184.867C161.015 181.364 149.947 134.116 149.947 96.1562V38.4242C146.649 30.9265 141.509 30.9687 138.372 38.4242C135.234 45.8796 140.936 90.2486 138.372 92.6922C135.807 95.1357 133.741 92.6922 133.741 92.6922C133.741 92.6922 129.103 51.5491 130.269 16.486C125.859 5.89419 117.78 12.035 117.536 16.486C117.536 16.486 121.021 83.2025 119.282 90.6171C117.544 98.0317 113.27 94.2812 111.748 92.6922C107.777 92.6316 113.844 18.3671 111.748 9.55816C109.652 0.749198 100.96 -0.434115 98.6301 9.55819C96.3001 19.5505 97.0933 90.9417 95.542 92.6922Z" stroke="#DCDCDC" stroke-width="5"/>
</svg>
