<svg width="505" height="627" viewBox="0 0 505 627" fill="none" xmlns="http://www.w3.org/2000/svg">
<path d="M314.81 305.091C309.603 310.964 298.512 312.82 290.74 305.091C282.969 297.363 288.002 290.672 286.557 281.382C274.267 202.317 293.552 130.294 290.74 76.5376C287.929 22.7813 249.715 48.6333 247.245 76.5376L233.208 305.091C233.208 305.091 229.841 348.802 229.323 367.072C227.444 433.292 228.305 442.077 198.853 473.988C179.033 495.463 170.204 507.441 133.802 511.002C89.4403 515.341 102.681 508.676 58.3518 498.748C14.0231 488.82 -21.7968 514.551 23.3796 576.224C23.3796 576.224 78.865 604.838 181.429 616.735C283.993 628.632 280.77 626.09 407.683 614.337C534.596 602.584 497.443 444.066 497.443 316.713V123.023C486.371 97.8686 469.118 98.0102 458.585 123.023C448.052 148.036 467.194 296.893 458.585 305.091C449.976 313.289 443.042 305.091 443.042 305.091C443.042 305.091 427.472 167.057 431.384 49.4211C416.58 13.8857 389.46 34.488 388.641 49.4211C388.641 49.4211 400.342 273.254 394.504 298.13C388.667 323.005 374.323 310.422 369.212 305.091C355.882 304.888 376.248 55.7322 369.212 26.1783C362.175 -3.37563 332.998 -7.34562 325.177 26.1784C317.355 59.7024 320.018 299.219 314.81 305.091Z" fill="#D9D9D9" stroke="#DCDCDC" stroke-width="5"/>
</svg>
