<svg width="430" height="616" viewBox="0 0 430 616" fill="none" xmlns="http://www.w3.org/2000/svg">
<path d="M187.699 302.59C192.907 308.463 203.997 310.319 211.769 302.59C219.541 294.862 214.508 288.172 215.952 278.881C228.243 199.816 208.958 127.793 211.769 74.0369C214.58 20.2806 252.794 46.1325 255.265 74.0369L269.301 302.59C269.301 302.59 272.669 346.301 273.187 364.571C275.065 430.791 273.187 470.5 273.187 470.5C273.187 470.5 280.098 497.939 316.5 501.5C360.861 505.839 385 501.5 385 501.5C385 501.5 460.609 504.059 415.433 565.731C415.433 565.731 419.064 580.603 316.5 592.5C213.936 604.397 221.739 623.59 94.8264 611.836C-32.0866 600.083 5.06649 441.565 5.06649 314.212L5.06649 120.522C16.1388 95.3678 33.3919 95.5095 43.9245 120.522C54.4572 145.535 35.3157 294.392 43.9245 302.59C52.5334 310.789 59.4678 302.59 59.4678 302.59C59.4678 302.59 75.0373 164.556 71.1251 46.9203C85.9297 11.385 113.049 31.9873 113.869 46.9203C113.869 46.9203 102.168 270.753 108.005 295.629C113.842 320.505 128.187 307.922 133.298 302.59C146.627 302.387 126.261 53.2314 133.298 23.6775C140.335 -5.87636 169.511 -9.84636 177.333 23.6776C185.154 57.2016 182.492 296.718 187.699 302.59Z" fill="#F2C8B8"/>
</svg>
