<svg width="172" height="188" viewBox="0 0 172 188" fill="none" xmlns="http://www.w3.org/2000/svg">
<path d="M105.812 89.755C103.98 91.2095 100.63 91.1805 98.7504 88.5099C96.8705 85.8393 98.6932 84.1358 98.7504 81.334C99.2371 57.4898 108.622 37.346 110.58 21.4212C112.538 5.49636 99.9888 11.1081 97.8197 19.1712L81.8724 85.5339C81.8724 85.5339 78.622 98.1902 77.5244 103.526C73.5459 122.867 73.3438 125.49 63.0518 133.334C56.1256 138.612 52.9155 141.672 42.052 140.834C28.8132 139.813 33.0424 138.541 20.5516 133.334C8.06084 128.127 -3.77936 133.827 6.28188 154.267C6.28188 154.267 21.0785 165.536 50.5518 174.334C80.0251 183.132 79.2111 182.219 117.052 185.334C154.892 188.449 152.197 139.996 158.789 102.614L168.814 45.7588C166.868 37.8023 161.799 36.9514 157.414 43.7488C153.03 50.5461 150.941 95.2312 147.991 97.1923C145.041 99.1534 143.431 96.3883 143.431 96.3883C143.431 96.3883 146.008 55.0649 153.244 20.7368C150.74 9.54012 141.718 14.1848 140.704 18.5258C140.704 18.5258 132.552 84.834 129.552 91.834C126.552 98.834 122.995 94.3984 121.771 92.5691C117.871 91.8199 136.742 19.7373 136.207 10.6981C135.673 1.65898 127.319 -1.01562 123.289 8.42029C119.259 17.8562 107.643 88.3006 105.812 89.755Z" stroke="#DCDCDC" stroke-width="5"/>
</svg>
