<svg width="430" height="616" viewBox="0 0 430 616" fill="none" xmlns="http://www.w3.org/2000/svg">
<path d="M242.126 302.59C236.919 308.463 225.828 310.319 218.056 302.59C210.285 294.862 215.318 288.172 213.873 278.881C201.583 199.816 220.868 127.793 218.056 74.0369C215.245 20.2806 177.031 46.1325 174.561 74.0369L160.524 302.59C160.524 302.59 157.157 346.301 156.639 364.571C154.76 430.791 156.639 470.5 156.639 470.5C156.639 470.5 149.728 497.939 113.325 501.5C68.9641 505.839 44.8254 501.5 44.8254 501.5C44.8254 501.5 -30.7838 504.059 14.3925 565.731C14.3925 565.731 10.7614 580.603 113.325 592.5C215.89 604.397 208.086 623.59 334.999 611.836C461.912 600.083 424.759 441.565 424.759 314.212V120.522C413.687 95.3678 396.434 95.5095 385.901 120.522C375.368 145.535 394.51 294.392 385.901 302.59C377.292 310.789 370.358 302.59 370.358 302.59C370.358 302.59 354.788 164.556 358.7 46.9203C343.896 11.385 316.776 31.9873 315.957 46.9203C315.957 46.9203 327.658 270.753 321.82 295.629C315.983 320.505 301.639 307.922 296.527 302.59C283.198 302.387 303.564 53.2314 296.527 23.6775C289.491 -5.87636 260.314 -9.84636 252.493 23.6776C244.671 57.2016 247.334 296.718 242.126 302.59Z" fill="#F2C8B8"/>
</svg>
