<svg width="64" height="63" viewBox="0 0 64 63" fill="none" xmlns="http://www.w3.org/2000/svg">
<g filter="url(#filter0_f_184_2597)">
<ellipse cx="36.2979" cy="35.0341" rx="14.8594" ry="15.2542" fill="#0D1364" fill-opacity="0.84"/>
</g>
<g filter="url(#filter1_f_184_2597)">
<ellipse cx="27.6114" cy="27.425" rx="14.8594" ry="15.2542" fill="#0097FD" fill-opacity="0.55"/>
</g>
<g filter="url(#filter2_f_184_2597)">
<ellipse cx="27.6114" cy="35.07" rx="14.8594" ry="15.2901" fill="#47D8FD" fill-opacity="0.64"/>
</g>
<g filter="url(#filter3_f_184_2597)">
<ellipse cx="35.5078" cy="27.4249" rx="14.8594" ry="15.2542" fill="#1954E9" fill-opacity="0.87"/>
</g>
<path d="M23.0413 44.747C15.6251 40.4653 13.0841 30.9823 17.3659 23.5661C21.6476 16.15 31.1306 13.609 38.5467 17.8907C45.9629 22.1724 35.0757 23.9027 30.7939 31.3188C26.5122 38.735 30.4574 49.0287 23.0413 44.747Z" fill="url(#paint0_linear_184_2597)"/>
<path d="M21.299 21.4332C27.7128 19.7146 34.3054 23.5208 36.024 29.9346C37.7425 36.3484 33.9363 42.9409 27.5225 44.6595C21.1088 46.3781 27.6817 39.0442 25.9632 32.6304C24.2446 26.2166 14.8853 23.1517 21.299 21.4332Z" fill="url(#paint1_linear_184_2597)"/>
<path d="M31.8169 15.6654C40.3803 15.6654 47.3223 22.6074 47.3223 31.1709C47.3223 39.7343 40.3803 46.6763 31.8169 46.6763C23.2534 46.6763 32.9204 38.9806 32.9204 30.4171C32.9204 21.8537 23.2534 15.6654 31.8169 15.6654Z" fill="url(#paint2_linear_184_2597)"/>
<path d="M46.3674 32.3907C46.3674 40.9541 39.4253 47.8962 30.8619 47.8962C22.2985 47.8962 15.3564 40.9541 15.3564 32.3907C15.3564 23.8273 22.2985 35.0017 30.8619 35.0017C39.4253 35.0017 46.3674 23.8273 46.3674 32.3907Z" fill="url(#paint3_linear_184_2597)"/>
<circle cx="31.9902" cy="31.2654" r="24.1914" fill="url(#paint4_radial_184_2597)"/>
<path opacity="0.0126582" d="M51.6191 16.9703C54.3538 20.7404 54.6401 25.7468 52.8851 30.797C51.13 35.8472 47.3345 40.9386 41.9138 44.8707C36.4932 48.8027 30.4756 50.8294 25.1301 50.9299C19.7845 51.0303 15.1138 49.2044 12.379 45.4343C9.64433 41.6641 9.35865 36.6573 11.1138 31.6071C12.8688 26.5569 16.6643 21.4667 22.0848 17.5347C27.5056 13.6026 33.5232 11.5746 38.8687 11.4742C44.2143 11.3738 48.8842 13.2003 51.6191 16.9703Z" stroke="url(#paint5_linear_184_2597)" stroke-width="0.0717846"/>
<path opacity="0.0253165" d="M51.3846 16.6526C54.1961 20.3985 54.578 25.4181 52.9158 30.5098C51.2536 35.6016 47.5478 40.7625 42.1919 44.7825C36.8361 48.8023 30.8462 50.9187 25.4928 51.0926C20.1394 51.2666 15.4256 49.4985 12.6139 45.7526C9.80232 42.0066 9.42061 36.9859 11.0829 31.894C12.7452 26.8023 16.451 21.6425 21.8067 17.6227C27.1625 13.6028 33.1525 11.4851 38.5059 11.3112C43.8595 11.1372 48.573 12.9066 51.3846 16.6526Z" stroke="url(#paint6_linear_184_2597)" stroke-width="0.0717846"/>
<path opacity="0.0379747" d="M51.1426 16.3352C54.0315 20.0551 54.5101 25.0872 52.9422 30.2192C51.3744 35.351 47.761 40.58 42.4722 44.6874C37.1833 48.7948 31.2227 51.0014 25.8625 51.25C20.5021 51.4985 15.745 49.7892 12.8561 46.0694C9.96742 42.3496 9.48939 37.3179 11.0571 32.1861C12.6249 27.0543 16.2383 21.8254 21.5271 17.7179C26.816 13.6105 32.7766 11.404 38.1369 11.1554C43.4971 10.9068 48.2537 12.6156 51.1426 16.3352Z" stroke="url(#paint7_linear_184_2597)" stroke-width="0.0717846"/>
<path opacity="0.0506329" d="M50.8929 16.0199C53.8595 19.7117 54.4361 24.7534 52.9644 29.9239C51.4926 35.0943 47.9729 40.3906 42.753 44.5852C37.5331 48.7798 31.6034 51.077 26.2374 51.4012C20.8713 51.7254 16.0718 50.0771 13.1052 46.3855C10.1387 42.6938 9.56215 37.652 11.0338 32.4815C12.5055 27.3111 16.0253 22.0148 21.2451 17.8202C26.4651 13.6255 32.3948 11.3285 37.7608 11.0042C43.127 10.6799 47.9263 12.3282 50.8929 16.0199Z" stroke="url(#paint8_linear_184_2597)" stroke-width="0.0717846"/>
<path opacity="0.0632911" d="M50.6361 15.7055C53.6807 19.3672 54.357 24.4171 52.9829 29.6247C51.6086 34.832 48.1847 40.1945 43.0357 44.4758C37.8867 48.7571 31.9896 51.1452 26.6189 51.5461C21.2481 51.947 16.4063 50.3606 13.3616 46.6989C10.3172 43.0373 9.64137 37.9878 11.0154 32.7805C12.3896 27.5731 15.8136 22.2107 20.9626 17.9294C26.1116 13.648 32.0087 11.26 37.3794 10.8591C42.7501 10.4582 47.5914 12.044 50.6361 15.7055Z" stroke="url(#paint9_linear_184_2597)" stroke-width="0.0717846"/>
<path opacity="0.0759494" d="M50.3729 15.3941C53.4958 19.0238 54.2723 24.0793 52.9972 29.3221C51.722 34.5648 48.3956 39.992 43.3195 44.3594C38.2434 48.7268 32.3806 51.2062 27.0063 51.6846C21.6319 52.163 16.7489 50.6408 13.6259 47.0111C10.503 43.3815 9.72656 38.3259 11.0016 33.0831C12.2767 27.8404 15.6033 22.4133 20.6793 18.0458C25.7554 13.6784 31.6182 11.1991 36.9925 10.7206C42.367 10.2422 47.2499 11.7644 50.3729 15.3941Z" stroke="url(#paint10_linear_184_2597)" stroke-width="0.0717846"/>
<path opacity="0.0886076" d="M50.1019 15.0844C53.3033 18.68 54.1808 23.7391 53.0062 29.0155C51.8315 34.2918 48.6051 39.7829 43.6037 44.2359C38.6024 48.6887 32.775 51.2587 27.3983 51.8155C22.0216 52.3721 17.0977 50.9155 13.8964 47.32C10.6953 43.7244 9.81832 38.6656 10.9928 33.3896C12.1675 28.1133 15.394 22.6221 20.3952 18.1692C25.3966 13.7162 31.2239 11.1463 36.6007 10.5896C41.9773 10.0329 46.9005 11.4889 50.1019 15.0844Z" stroke="url(#paint11_linear_184_2597)" stroke-width="0.0717846"/>
<path opacity="0.101266" d="M49.8251 14.7784C53.1051 18.3382 54.0845 23.3986 53.0115 28.7068C51.9385 34.015 48.8132 39.5679 43.8885 44.1055C38.964 48.6428 33.1748 51.3037 27.7969 51.9396C22.4188 52.5754 17.4546 51.1866 14.1746 47.6268C10.8946 44.0671 9.9159 39.006 10.9889 33.6978C12.0619 28.3898 15.1867 22.8373 20.1111 18.2998C25.0358 13.7622 30.8254 11.1009 36.2035 10.465C41.5816 9.82918 46.5451 11.2186 49.8251 14.7784Z" stroke="url(#paint12_linear_184_2597)" stroke-width="0.0717846"/>
<path opacity="0.113924" d="M49.5405 14.4755C52.8988 17.9974 53.9811 23.0573 53.011 28.3953C52.041 33.7334 49.0184 39.3466 44.1723 43.9679C39.3263 48.589 33.5764 51.3413 28.1984 52.0569C22.8204 52.7725 17.8169 51.452 14.4584 47.9303C11.0998 44.4084 10.0177 39.3473 10.9878 34.0091C11.9579 28.6712 14.98 23.0584 19.8259 18.4372C24.672 13.8159 30.4223 11.0631 35.8004 10.3475C41.1786 9.63188 46.1819 10.9536 49.5405 14.4755Z" stroke="url(#paint13_linear_184_2597)" stroke-width="0.0717846"/>
<path opacity="0.126582" d="M49.25 14.1756C52.6871 17.6577 53.8732 22.7153 53.0071 28.0815C52.1411 33.4476 49.2228 39.1194 44.457 43.8234C39.6914 48.5272 33.9825 51.3708 28.6057 52.1669C23.2287 52.9629 18.1863 51.7117 14.7492 48.2295C11.3122 44.7474 10.1268 39.6891 10.9928 34.3229C11.8589 28.957 14.7767 23.2856 19.5422 18.5817C24.308 13.8776 30.0173 11.0335 35.3943 10.2375C40.7713 9.44151 45.813 10.6935 49.25 14.1756Z" stroke="url(#paint14_linear_184_2597)" stroke-width="0.0717846"/>
<path opacity="0.139241" d="M48.9529 13.8803C52.4681 17.3207 53.7582 22.3735 52.9973 27.7656C52.2363 33.1578 49.4238 38.8864 44.7401 43.6721C40.0565 48.4576 34.3902 51.3922 29.0158 52.2692C23.6413 53.1461 18.5613 51.9658 15.0459 48.5255C11.5305 45.085 10.2405 40.031 11.0015 34.6388C11.7626 29.2468 14.5745 23.5185 19.258 18.733C23.9417 13.9473 29.6085 11.0121 34.983 10.1352C40.3576 9.25824 45.4375 10.4398 48.9529 13.8803Z" stroke="url(#paint15_linear_184_2597)" stroke-width="0.0717846"/>
<path opacity="0.151899" d="M48.6503 13.5885C52.2438 16.9855 53.6388 22.0316 52.9838 27.4479C52.3288 32.8642 49.6243 38.6485 45.0243 43.5147C40.4244 48.3806 34.8016 51.4054 29.4308 52.3637C24.0599 53.322 18.9427 52.2135 15.3492 48.8165C11.7557 45.4196 10.3621 40.3733 11.017 34.9571C11.672 29.5409 14.376 23.7571 18.9759 18.891C23.5759 14.0249 29.1991 10.9996 34.57 10.0413C39.9408 9.08314 45.0569 10.1917 48.6503 13.5885Z" stroke="url(#paint16_linear_184_2597)" stroke-width="0.0717846"/>
<path opacity="0.164557" d="M48.3414 13.302C52.0125 16.6536 53.5124 21.6905 52.9642 27.1287C52.4161 32.5671 49.8201 38.4046 45.3055 43.3499C40.7909 48.295 35.2138 51.4101 29.848 52.4502C24.4821 53.4902 19.329 52.455 15.6577 49.1036C11.9864 45.752 10.4874 40.7145 11.0356 35.2762C11.5837 29.8379 14.1792 24.001 18.6937 19.0557C23.2084 14.1104 28.7858 10.9947 34.1518 9.95467C39.5177 8.91474 44.6702 9.9505 48.3414 13.302Z" stroke="url(#paint17_linear_184_2597)" stroke-width="0.0717846"/>
<path opacity="0.177215" d="M48.0265 13.0197C51.7751 16.324 53.3797 21.3496 52.9393 26.8078C52.4987 32.2661 50.0132 38.1554 45.5854 43.1786C41.1576 48.2017 35.6274 51.406 30.2676 52.5281C24.9078 53.6501 19.72 52.6896 15.9714 49.3852C12.2227 46.0808 10.6187 41.0547 11.0592 35.5965C11.4998 30.1382 13.9855 24.2502 18.4132 19.227C22.841 14.2038 28.371 10.9982 33.7309 9.87617C39.0906 8.75419 44.2778 9.71551 48.0265 13.0197Z" stroke="url(#paint18_linear_184_2597)" stroke-width="0.0717846"/>
<path opacity="0.189873" d="M47.7077 12.7433C51.5331 15.9986 53.2429 21.0106 52.9107 26.4865C52.5784 31.9628 50.2038 37.9012 45.8643 43.0008C41.5249 48.1003 36.0434 51.394 30.6911 52.5983C25.3388 53.8026 20.1172 52.9175 16.2916 49.6622C12.466 46.4068 10.7561 41.3938 11.0885 35.9176C11.4208 30.4415 13.7956 24.5042 18.135 19.4046C22.4745 14.305 27.9557 11.0101 33.3081 9.8058C38.6605 8.60152 43.882 9.48787 47.7077 12.7433Z" stroke="url(#paint19_linear_184_2597)" stroke-width="0.0717846"/>
<path opacity="0.202532" d="M47.3822 12.4716C51.2843 15.6764 53.0994 20.6736 52.8758 26.1656C52.6522 31.6575 50.3902 37.6425 46.1404 42.8169C41.8906 47.9913 36.4595 51.3736 31.1158 52.6604C25.7721 53.9471 20.5173 53.138 16.6153 49.9332C12.7133 46.7285 10.8982 41.7312 11.1217 36.2393C11.3453 30.7475 13.6082 24.763 17.8578 19.5886C22.1075 14.4143 27.5381 11.0314 32.8817 9.74453C38.2254 8.4578 43.4802 9.26704 47.3822 12.4716Z" stroke="url(#paint20_linear_184_2597)" stroke-width="0.0717846"/>
<path opacity="0.21519" d="M47.0534 12.2063C51.0311 15.3587 52.9515 20.338 52.8371 25.8436C52.7227 31.3491 50.5736 37.3791 46.4148 42.6269C42.256 47.8746 36.8766 51.3448 31.5428 52.714C26.2091 54.0832 20.9227 53.3514 16.9449 50.1991C12.9671 47.0468 11.0469 42.0674 11.1611 36.5619C11.2754 31.0564 13.4247 25.0264 17.5834 19.7786C21.7423 14.5308 27.1216 11.0607 32.4554 9.69145C37.7893 8.32222 43.0755 9.05397 47.0534 12.2063Z" stroke="url(#paint21_linear_184_2597)" stroke-width="0.0717846"/>
<path opacity="0.227848" d="M46.7203 11.9464C50.7733 15.0447 52.7993 20.0045 52.7946 25.5216C52.7897 31.0386 50.7542 37.1115 46.6876 42.4309C42.621 47.7504 37.2947 51.3076 31.9721 52.7593C26.6494 54.211 21.3319 53.5569 17.279 50.4585C13.2262 47.3601 11.2008 42.4008 11.2055 36.8839C11.2103 31.3668 13.2459 25.294 17.3124 19.9745C21.3791 14.655 26.7053 11.0978 32.028 9.64611C37.3505 8.19445 42.6674 8.84814 46.7203 11.9464Z" stroke="url(#paint22_linear_184_2597)" stroke-width="0.0717846"/>
<path opacity="0.240506" d="M46.3824 11.6932C50.5097 14.736 52.6406 19.6736 52.7456 25.2C52.8506 30.7263 50.9294 36.84 46.9561 42.2294C42.9828 47.6188 37.711 51.2622 32.4007 52.7963C27.0905 54.3304 21.7436 53.755 17.6163 50.7123C13.489 47.6695 11.3582 42.7319 11.2531 37.2056C11.148 31.6792 13.0693 25.5657 17.0426 20.1762C21.0159 14.7867 26.2877 11.1434 31.598 9.60925C36.9083 8.07518 42.2551 8.65042 46.3824 11.6932Z" stroke="url(#paint23_linear_184_2597)" stroke-width="0.0717846"/>
<path opacity="0.253165" d="M46.0407 11.4459C54.4416 17.4166 54.9828 31.1035 47.2225 42.0223C39.4621 52.9409 26.3581 56.9299 17.9573 50.9591C9.55679 44.9883 9.0163 31.3019 16.7764 20.3833C24.5367 9.46459 37.6398 5.47537 46.0407 11.4459Z" stroke="url(#paint24_linear_184_2597)" stroke-width="0.0717846"/>
<path opacity="0.265823" d="M45.6967 11.2055C54.2428 17.0592 55.0555 30.7583 47.4858 41.8098C39.9161 52.8612 26.8489 57.0534 18.3027 51.1998C9.75654 45.3462 8.94401 31.647 16.5136 20.5955C24.0833 9.54391 37.1505 5.35178 45.6967 11.2055Z" stroke="url(#paint25_linear_184_2597)" stroke-width="0.0717846"/>
<path opacity="0.278481" d="M45.3484 10.9714C54.0382 16.7053 55.1229 30.4118 47.7454 41.5924C40.3679 52.7729 27.3395 57.1671 18.6499 51.4333C9.96057 45.6994 8.87657 31.9933 16.2538 20.8129C23.6311 9.63239 36.6587 5.23793 45.3484 10.9714Z" stroke="url(#paint26_linear_184_2597)" stroke-width="0.0717846"/>
<path opacity="0.291139" d="M44.9984 10.7448C53.8296 16.3562 55.1852 30.0644 48.0014 41.3703C40.8177 52.6759 27.8317 57.2717 19.0006 51.6604C10.1694 46.0491 8.81399 32.3408 15.9976 21.035C23.1813 9.72913 36.1672 5.13344 44.9984 10.7448Z" stroke="url(#paint27_linear_184_2597)" stroke-width="0.0717846"/>
<path opacity="0.303797" d="M44.6457 10.5247C53.6164 16.0111 55.2429 29.7164 48.2541 41.1436C41.2653 52.5706 28.3237 57.3664 19.3531 51.88C10.3829 46.3935 8.75708 32.6886 15.7456 21.2616C22.7342 9.83462 35.6751 5.03873 44.6457 10.5247Z" stroke="url(#paint28_linear_184_2597)" stroke-width="0.0717846"/>
<path opacity="0.316456" d="M44.2909 10.3123C53.3988 15.6714 55.2946 29.3682 48.5018 40.9128C41.709 52.4571 28.8152 57.452 19.7073 52.093C10.5995 46.734 8.70385 33.037 15.4964 21.4925C22.2892 9.94798 35.183 4.95327 44.2909 10.3123Z" stroke="url(#paint29_linear_184_2597)" stroke-width="0.0717846"/>
<path opacity="0.329114" d="M43.9359 10.1071C53.1785 15.3368 55.3425 29.0201 48.7467 40.6779C42.1508 52.3355 29.3072 57.5278 20.0644 52.2986C10.8215 47.0691 8.65693 33.3852 15.2527 21.7274C21.8486 10.0694 34.693 4.87755 43.9359 10.1071Z" stroke="url(#paint30_linear_184_2597)" stroke-width="0.0717846"/>
<path opacity="0.341772" d="M43.5777 9.90872C52.9533 15.0067 55.3846 28.6721 48.9861 40.4394C42.5876 52.2065 29.7959 57.5945 20.4204 52.4965C11.045 47.3985 8.6137 33.733 15.012 21.9658C21.4105 10.1986 34.2021 4.81077 43.5777 9.90872Z" stroke="url(#paint31_linear_184_2597)" stroke-width="0.0717846"/>
<path opacity="0.35443" d="M43.2209 9.71813C52.7264 14.6829 55.423 28.3251 49.2224 40.1975C43.0217 52.0696 30.285 57.6516 20.7793 52.6873C11.2735 47.7227 8.57642 34.08 14.7769 22.2075C20.9776 10.335 33.7151 4.7535 43.2209 9.71813Z" stroke="url(#paint32_linear_184_2597)" stroke-width="0.0717846"/>
<path opacity="0.367089" d="M42.8616 9.5346C52.4952 14.3642 55.4564 27.9794 49.4537 39.953C43.451 51.9264 30.7698 57.6999 21.1363 52.8704C11.5029 48.0408 8.54258 34.4259 14.5451 22.4524C20.5477 10.4788 33.228 4.70515 42.8616 9.5346Z" stroke="url(#paint33_linear_184_2597)" stroke-width="0.0717846"/>
<path opacity="0.379747" d="M42.5045 9.35903C52.2631 14.0521 55.4855 27.6349 49.6808 39.7054C43.876 51.7758 31.254 57.7392 21.4953 53.0465C11.7365 48.3535 8.5144 34.7706 14.319 22.7C20.1237 10.6294 32.7456 4.66604 42.5045 9.35903Z" stroke="url(#paint34_linear_184_2597)" stroke-width="0.0717846"/>
<path opacity="0.392405" d="M42.1466 9.1904C52.0281 13.7455 55.5099 27.2919 49.9028 39.4554C44.2957 51.6188 31.734 57.7697 21.8526 53.2146C11.9714 48.6595 8.49041 35.1134 14.0973 22.95C19.7043 10.7865 32.2652 4.63548 42.1466 9.1904Z" stroke="url(#paint35_linear_184_2597)" stroke-width="0.0717846"/>
<path opacity="0.405063" d="M41.7897 9.02963C51.791 13.4458 55.5292 26.9511 50.1194 39.2034C44.7094 51.4554 32.2105 57.7916 22.2092 53.3758C12.2078 48.9597 8.46983 35.4543 13.8795 23.202C19.2894 10.9497 31.7883 4.61359 41.7897 9.02963Z" stroke="url(#paint36_linear_184_2597)" stroke-width="0.0717846"/>
<path opacity="0.417722" d="M41.434 8.87602C51.5528 13.1521 55.5452 26.6127 50.3318 38.9497C45.1183 51.2865 32.683 57.8053 22.5642 53.5292C12.4457 49.2531 8.45416 35.7928 13.6674 23.4559C18.8807 11.119 31.3152 4.60018 41.434 8.87602Z" stroke="url(#paint37_linear_184_2597)" stroke-width="0.0717846"/>
<path opacity="0.43038" d="M41.0811 8.72988C51.3144 12.8652 55.5574 26.2769 50.5396 38.6944C45.5217 51.1118 33.1522 57.8106 22.9188 53.6755C12.6854 49.5403 8.44263 36.1285 13.4603 23.711C18.4782 11.2933 30.8476 4.5946 41.0811 8.72988Z" stroke="url(#paint38_linear_184_2597)" stroke-width="0.0717846"/>
<path opacity="0.443038" d="M40.7282 8.59081C51.0737 12.5848 55.5649 25.944 50.7414 38.4383C45.9178 50.9323 33.6147 57.8082 23.2693 53.8143C12.9242 49.8203 8.4338 36.4612 13.2571 23.9672C18.0805 11.4731 30.3828 4.59713 40.7282 8.59081Z" stroke="url(#paint39_linear_184_2597)" stroke-width="0.0717846"/>
<path opacity="0.455696" d="M40.3801 8.45928C50.8347 12.3115 55.5701 25.6146 50.9397 38.1814C46.3091 50.7481 34.0743 57.7983 23.6197 53.9462C13.1651 50.0941 8.42983 36.7909 13.0601 24.2241C17.6906 11.6572 29.9254 4.60707 40.3801 8.45928Z" stroke="url(#paint40_linear_184_2597)" stroke-width="0.0717846"/>
<path opacity="0.468354" d="M40.033 8.33439C50.5943 12.0447 55.5712 25.2886 51.1321 37.9242C46.693 50.5596 34.5265 57.7809 23.9653 54.0707C13.4044 50.3602 8.42836 37.1166 12.8672 24.4812C17.3062 11.8458 29.4719 4.62439 40.033 8.33439Z" stroke="url(#paint41_linear_184_2597)" stroke-width="0.0717846"/>
<path opacity="0.481013" d="M39.6908 8.21692C50.3558 11.7853 55.5697 24.9666 51.3204 37.667C47.0709 50.3673 34.9744 57.7568 24.3094 54.1885C13.6443 50.6202 8.43055 37.4388 12.6798 24.7384C16.9291 12.038 29.0257 4.64854 39.6908 8.21692Z" stroke="url(#paint42_linear_184_2597)" stroke-width="0.0717846"/>
<path opacity="0.493671" d="M39.3505 8.10591C50.1168 11.5326 55.5648 24.6486 51.5031 37.4102C47.4413 50.1715 35.4144 57.7258 24.6482 54.2992C13.8823 50.8723 8.43504 37.7565 12.4965 24.9952C16.5582 12.2339 28.5843 4.67958 39.3505 8.10591Z" stroke="url(#paint43_linear_184_2597)" stroke-width="0.0717846"/>
<path opacity="0.506329" d="M39.0151 8.00184C49.8799 11.2872 55.5572 24.3351 51.6809 37.154C47.8046 49.9727 35.8487 57.6887 24.984 54.4034C14.1193 51.1181 8.44205 38.0701 12.3181 25.2513C16.1944 12.4323 28.1503 4.71649 39.0151 8.00184Z" stroke="url(#paint44_linear_184_2597)" stroke-width="0.0717846"/>
<path opacity="0.518987" d="M38.6847 7.90438C49.6451 11.0492 55.5478 24.0265 51.8547 36.899C48.1615 49.7713 36.2765 57.6454 25.3161 54.5011C14.3555 51.3565 8.45215 38.3789 12.1451 25.5063C15.8383 12.6336 27.724 4.75976 38.6847 7.90438Z" stroke="url(#paint45_linear_184_2597)" stroke-width="0.0717846"/>
<path opacity="0.531646" d="M38.3574 7.81314C49.4114 10.8178 55.5359 23.7226 52.0232 36.6455C48.5104 49.5682 36.6959 57.597 25.642 54.5923C14.5882 51.5877 8.46375 38.6828 11.9763 25.76C15.4889 12.8371 27.3035 4.8085 38.3574 7.81314Z" stroke="url(#paint46_linear_184_2597)" stroke-width="0.0717846"/>
<path opacity="0.544304" d="M38.0363 7.72814C49.1807 10.594 55.5221 23.424 52.1872 36.3936C48.8521 49.363 37.1085 57.5428 25.964 54.6774C14.8193 51.8118 8.47731 38.9814 11.8121 26.0117C15.1471 13.042 26.8916 4.86244 38.0363 7.72814Z" stroke="url(#paint47_linear_184_2597)" stroke-width="0.0717846"/>
<path opacity="0.556962" d="M37.7194 7.64898C48.9524 10.3769 55.5068 23.1306 52.3465 36.1439C49.1862 49.157 37.5124 57.4842 26.2795 54.7564C15.0467 52.0285 8.49231 39.2746 11.6524 26.2615C14.8126 13.2482 26.4864 4.92117 37.7194 7.64898Z" stroke="url(#paint48_linear_184_2597)" stroke-width="0.0717846"/>
<path opacity="0.56962" d="M37.4088 7.57568C48.7274 10.1673 55.4907 22.8433 52.5021 35.8967C49.5134 48.95 37.9086 57.4208 26.59 54.8296C15.2713 52.2382 8.50825 39.562 11.4967 26.5086C14.4853 13.455 26.09 4.98426 37.4088 7.57568Z" stroke="url(#paint49_linear_184_2597)" stroke-width="0.0717846"/>
<path opacity="0.582278" d="M37.1046 7.50803C48.5069 9.96455 55.4742 22.5616 52.6538 35.6524C49.8334 48.743 38.2972 57.3538 26.895 54.8973C15.493 52.4407 8.5266 39.8438 11.3467 26.7531C14.167 13.6624 25.7024 5.05163 37.1046 7.50803Z" stroke="url(#paint50_linear_184_2597)" stroke-width="0.0717846"/>
<path opacity="0.594937" d="M36.806 7.44579C48.2892 9.76927 55.4552 22.2861 52.7997 35.411C50.1442 48.5359 38.6762 57.2828 27.193 54.9596C15.7097 52.6363 8.54395 40.1194 11.1993 26.9944C13.8547 13.8693 25.3226 5.12246 36.806 7.44579Z" stroke="url(#paint51_linear_184_2597)" stroke-width="0.0717846"/>
<path opacity="0.607595" d="M36.5141 7.38848C48.0764 9.58054 55.4369 22.0166 52.9426 35.1731C50.4482 48.3295 39.0467 57.2087 27.4845 55.0166C15.9224 52.8245 8.56279 40.3885 11.0569 27.2322C13.5512 14.0757 24.9519 5.19658 36.5141 7.38848Z" stroke="url(#paint52_linear_184_2597)" stroke-width="0.0717846"/>
<path opacity="0.620253" d="M36.23 7.33643C47.8689 9.39942 55.4185 21.7541 53.0816 34.9392C50.7446 48.1242 39.4089 57.1318 27.77 55.0691C16.131 53.0062 8.58168 40.6514 10.9184 27.4663C13.2553 14.2811 24.5909 5.27356 36.23 7.33643Z" stroke="url(#paint53_linear_184_2597)" stroke-width="0.0717846"/>
<path opacity="0.632911" d="M35.9519 7.28875C47.6657 9.2247 55.4001 21.4979 53.2167 34.7092C51.0331 47.9204 39.761 57.0524 28.0473 55.1165C16.3338 53.1804 8.60025 40.9073 10.7835 27.6962C12.967 14.485 24.2383 5.35299 35.9519 7.28875Z" stroke="url(#paint54_linear_184_2597)" stroke-width="0.0717846"/>
<path opacity="0.64557" d="M35.6819 7.24566C47.4683 9.05723 55.382 21.2487 53.3479 34.4836C51.3137 47.7184 40.1043 56.971 28.318 55.1596C16.5316 53.3482 8.61802 41.1565 10.652 27.9217C12.6861 14.6867 23.8954 5.43418 35.6819 7.24566Z" stroke="url(#paint55_linear_184_2597)" stroke-width="0.0717846"/>
<path opacity="0.658228" d="M35.4182 7.20674C47.2755 8.89635 55.3643 21.0066 53.4753 34.2629C51.5862 47.5191 40.4368 56.8881 28.5796 55.1985C16.7226 53.5087 8.63469 41.3986 10.5235 28.1425C12.4124 14.8863 23.5611 5.51736 35.4182 7.20674Z" stroke="url(#paint56_linear_184_2597)" stroke-width="0.0717846"/>
<path opacity="0.670886" d="M35.164 7.17184C47.0902 8.74242 55.3483 20.7717 53.6001 34.0471C51.8518 47.3224 40.7611 56.8039 28.8349 55.2335C16.9087 53.663 8.65079 41.6335 10.3988 28.3582C12.147 15.0827 23.2377 5.60132 35.164 7.17184Z" stroke="url(#paint57_linear_184_2597)" stroke-width="0.0717846"/>
<path opacity="0.683544" d="M34.9173 7.14056C46.9109 8.59494 55.3341 20.5442 53.7222 33.8367C52.1102 47.1291 41.0752 56.719 29.0817 55.2646C17.0884 53.81 8.66605 41.8608 10.2778 28.5685C11.8896 15.2761 22.9239 5.68645 34.9173 7.14056Z" stroke="url(#paint58_linear_184_2597)" stroke-width="0.0717846"/>
<path opacity="0.696203" d="M34.6795 7.11296C46.7387 8.45432 55.3211 20.3243 53.8409 33.632C52.3606 46.9395 41.3797 56.6337 29.3205 55.2924C17.2613 53.9511 8.67908 42.081 10.1591 28.7734C11.6393 15.4657 22.6202 5.77163 34.6795 7.11296Z" stroke="url(#paint59_linear_184_2597)" stroke-width="0.0717846"/>
<path opacity="0.708861" d="M34.4486 7.08843C46.5721 8.31997 55.3095 20.112 53.9563 33.4331C52.603 46.754 41.6728 56.5483 29.5494 55.3168C17.4262 54.085 8.68962 42.293 10.0426 28.9722C11.3958 15.6513 22.3253 5.85718 34.4486 7.08843Z" stroke="url(#paint60_linear_184_2597)" stroke-width="0.0717846"/>
<path opacity="0.721519" d="M34.2278 7.06706C46.4141 8.19224 55.3006 19.9077 54.0696 33.2405C52.8384 46.5731 41.957 56.4635 29.7709 55.3383C17.5848 54.2131 8.69831 42.4976 9.92918 29.1649C11.1602 15.8321 22.0416 5.9419 34.2278 7.06706Z" stroke="url(#paint61_linear_184_2597)" stroke-width="0.0717846"/>
<path opacity="0.734177" d="M34.0164 7.04843C46.2638 8.07103 55.2946 19.7114 54.1808 33.0542C53.0669 46.3968 42.2313 56.379 29.9839 55.357C17.7363 54.3346 8.7049 42.6939 9.81852 29.3511C10.9323 16.0082 21.7687 6.02607 34.0164 7.04843Z" stroke="url(#paint62_linear_184_2597)" stroke-width="0.0717846"/>
<path opacity="0.746835" d="M33.8125 7.03229C46.1204 7.95554 55.2909 19.523 54.2893 32.8747C53.2876 46.2262 42.4941 56.2963 30.1863 55.373C17.8786 54.4498 8.70812 42.8822 9.70951 29.5306C10.711 16.179 21.5046 6.10909 33.8125 7.03229Z" stroke="url(#paint63_linear_184_2597)" stroke-width="0.0717846"/>
<path opacity="0.759494" d="M33.6192 7.01862C45.986 7.84682 55.2906 19.3432 54.3962 32.7022C53.5017 46.0611 42.7477 56.2146 30.3809 55.3869C18.0141 54.5589 8.70872 43.0623 9.60297 29.7033C10.4974 16.3441 21.2523 6.19065 33.6192 7.01862Z" stroke="url(#paint64_linear_184_2597)" stroke-width="0.0717846"/>
<path opacity="0.772152" d="M33.4339 7.00693C45.8589 7.74363 55.2942 19.1715 54.5017 32.5369C53.7091 45.9022 42.9896 56.1352 30.5647 55.3985C18.1398 54.6617 8.70548 43.2338 9.49777 29.8686C10.2902 16.5032 21.0089 6.27032 33.4339 7.00693Z" stroke="url(#paint65_linear_184_2597)" stroke-width="0.0717846"/>
<path opacity="0.78481" d="M33.2595 6.9971C45.7415 7.6468 55.3008 19.0084 54.6051 32.3789C53.9092 45.7493 43.2223 56.0575 30.7403 55.4082C18.2583 54.7586 8.69914 43.3969 9.39475 30.0263C10.0905 16.6557 20.7773 6.34757 33.2595 6.9971Z" stroke="url(#paint66_linear_184_2597)" stroke-width="0.0717846"/>
<path opacity="0.797468" d="M33.0933 6.98911C45.6318 7.55572 55.3108 18.8539 54.7064 32.2288C54.1019 45.6036 43.4433 55.9829 30.9049 55.4163C18.3666 54.8495 8.68855 43.5513 9.2928 30.1766C9.89721 16.8017 20.5549 6.42262 33.0933 6.98911Z" stroke="url(#paint67_linear_184_2597)" stroke-width="0.0717846"/>
<path opacity="0.810127" d="M32.9385 6.98258C45.5324 7.47079 55.3254 18.7082 54.807 32.0865C54.2884 45.4647 43.655 55.9107 31.0613 55.4228C18.4674 54.9347 8.67447 43.6971 9.19277 30.3188C9.71123 16.9404 20.3445 6.49452 32.9385 6.98258Z" stroke="url(#paint68_linear_184_2597)" stroke-width="0.0717846"/>
<path opacity="0.822785" d="M32.7922 6.97738C45.4411 7.39139 55.3439 18.5713 54.906 31.9524C54.4678 45.3335 43.8552 55.842 31.2064 55.428C18.5577 55.0139 8.65577 43.8339 9.09359 30.453C9.53156 17.0719 20.1434 6.56353 32.7922 6.97738Z" stroke="url(#paint69_linear_184_2597)" stroke-width="0.0717846"/>
<path opacity="0.835443" d="M32.6566 6.97332C45.3596 7.31799 55.3666 18.4435 55.0036 31.8267C54.6404 45.2097 44.0452 55.7765 31.3422 55.4321C18.6391 55.0875 8.63228 43.9618 8.99513 30.5787C9.35814 17.1955 19.9534 6.62876 32.6566 6.97332Z" stroke="url(#paint70_linear_184_2597)" stroke-width="0.0717846"/>
<path opacity="0.848101" d="M32.5307 6.97018C45.2877 7.25003 55.3947 18.3246 55.101 31.7094C54.8073 45.0941 44.2245 55.7149 31.4676 55.4351C18.7109 55.1551 8.60483 44.0805 8.89829 30.6959C9.1919 17.3112 19.7739 6.69052 32.5307 6.97018Z" stroke="url(#paint71_linear_184_2597)" stroke-width="0.0717846"/>
<path opacity="0.860759" d="M32.4159 6.96791C45.2262 7.18795 55.4273 18.2151 55.1975 31.6009C54.9675 44.9867 44.3938 55.6572 31.5836 55.4373C18.7734 55.2174 8.57231 44.1901 8.80199 30.8043C9.03184 17.4184 19.6055 6.74794 32.4159 6.96791Z" stroke="url(#paint72_linear_184_2597)" stroke-width="0.0717846"/>
<path opacity="0.873418" d="M32.3101 6.96641C45.1735 7.13144 55.4649 18.1149 55.2932 31.5015C55.1213 44.8881 44.5515 55.604 31.6882 55.439C18.8251 55.2737 8.53459 44.2902 8.70618 30.9039C8.87792 17.5173 19.4469 6.80159 32.3101 6.96641Z" stroke="url(#paint73_linear_184_2597)" stroke-width="0.0717846"/>
<path opacity="0.886076" d="M32.2155 6.96541C45.1316 7.0806 55.5075 18.0242 55.3882 31.4112C55.2687 44.7981 44.6994 55.5551 31.7834 55.44C18.8674 55.3249 8.49158 44.3812 8.61076 30.9942C8.7301 17.6071 19.2994 6.85027 32.2155 6.96541Z" stroke="url(#paint74_linear_184_2597)" stroke-width="0.0717846"/>
<path opacity="0.898734" d="M32.1303 6.96472C45.099 7.03512 55.5554 17.9429 55.4828 31.3301C55.4099 44.7173 44.8357 55.511 31.8671 55.4406C18.8988 55.3699 8.44316 44.4621 8.51568 31.0752C8.58836 17.688 19.1619 6.89456 32.1303 6.96472Z" stroke="url(#paint75_linear_184_2597)" stroke-width="0.0717846"/>
<path opacity="0.911392" d="M32.0575 6.96445C45.0784 6.99538 55.6098 17.8713 55.578 31.2586C55.546 44.6458 44.9633 55.4718 31.9424 55.4409C18.9215 55.41 8.39024 44.5338 8.42186 31.1467C8.45365 17.7594 19.0365 6.93354 32.0575 6.96445Z" stroke="url(#paint76_linear_184_2597)" stroke-width="0.0717846"/>
<path opacity="0.924051" d="M31.9941 6.96446C45.0672 6.96148 55.6687 17.8098 55.672 31.1969C55.6752 44.5838 45.0791 55.4375 32.0062 55.441C18.933 55.4443 8.33078 44.5957 8.32731 31.2086C8.32399 17.8214 18.9209 6.9677 31.9941 6.96446Z" stroke="url(#paint77_linear_184_2597)" stroke-width="0.0717846"/>
<path opacity="0.936709" d="M31.9404 6.96437C45.0658 6.93241 55.7334 17.7577 55.766 31.1447C55.7984 44.5316 45.1838 55.4088 32.0585 55.4408C18.9332 55.4727 8.2657 44.6473 8.23294 31.2605C8.20034 17.8734 18.8151 6.99636 31.9404 6.96437Z" stroke="url(#paint78_linear_184_2597)" stroke-width="0.0717846"/>
<path opacity="0.949367" d="M31.8984 6.96458C45.0757 6.90963 55.804 17.7161 55.86 31.1027C55.9159 44.4893 45.2786 55.3853 32.1013 55.4407C18.9239 55.4959 8.19495 44.6892 8.13875 31.3026C8.08269 17.9157 18.7209 7.01975 31.8984 6.96458Z" stroke="url(#paint79_linear_184_2597)" stroke-width="0.0717846"/>
<path opacity="0.962025" d="M31.866 6.96481C45.0957 6.89202 55.8805 17.6843 55.9541 31.0709C56.0276 44.4574 45.3623 55.3679 32.1327 55.4406C18.9033 55.5134 8.11849 44.7209 8.04468 31.3345C7.97103 17.948 18.6365 7.03765 31.866 6.96481Z" stroke="url(#paint80_linear_184_2597)" stroke-width="0.0717846"/>
<path opacity="0.974684" d="M31.8454 6.9649C45.127 6.88037 55.964 17.663 56.0494 31.0493C56.1346 44.4354 45.4361 55.3556 32.1547 55.4405C18.873 55.5252 8.03628 44.7423 7.95073 31.3561C7.86535 17.9697 18.5637 7.04962 31.8454 6.9649Z" stroke="url(#paint81_linear_184_2597)" stroke-width="0.0717846"/>
<path opacity="0.987342" d="M31.8346 6.96498C45.1685 6.87408 56.0526 17.6519 56.1438 31.0381C56.2349 44.4242 45.4989 55.3495 32.1651 55.4404C18.8314 55.5312 7.94831 44.7533 7.85689 31.3673C7.76563 17.9811 18.5008 7.05597 31.8346 6.96498Z" stroke="url(#paint82_linear_184_2597)" stroke-width="0.0717846"/>
<circle cx="31.9996" cy="31.2023" r="24.2382" transform="rotate(-0.390598 31.9996 31.2023)" stroke="url(#paint83_linear_184_2597)" stroke-width="0.0717846"/>
<defs>
<filter id="filter0_f_184_2597" x="9.55813" y="7.8995" width="53.4794" height="54.2691" filterUnits="userSpaceOnUse" color-interpolation-filters="sRGB">
<feFlood flood-opacity="0" result="BackgroundImageFix"/>
<feBlend mode="normal" in="SourceGraphic" in2="BackgroundImageFix" result="shape"/>
<feGaussianBlur stdDeviation="5.94017" result="effect1_foregroundBlur_184_2597"/>
</filter>
<filter id="filter1_f_184_2597" x="0.871609" y="0.290432" width="53.4794" height="54.2691" filterUnits="userSpaceOnUse" color-interpolation-filters="sRGB">
<feFlood flood-opacity="0" result="BackgroundImageFix"/>
<feBlend mode="normal" in="SourceGraphic" in2="BackgroundImageFix" result="shape"/>
<feGaussianBlur stdDeviation="5.94017" result="effect1_foregroundBlur_184_2597"/>
</filter>
<filter id="filter2_f_184_2597" x="0.871609" y="7.8995" width="53.4794" height="54.3409" filterUnits="userSpaceOnUse" color-interpolation-filters="sRGB">
<feFlood flood-opacity="0" result="BackgroundImageFix"/>
<feBlend mode="normal" in="SourceGraphic" in2="BackgroundImageFix" result="shape"/>
<feGaussianBlur stdDeviation="5.94017" result="effect1_foregroundBlur_184_2597"/>
</filter>
<filter id="filter3_f_184_2597" x="8.76809" y="0.290371" width="53.4794" height="54.2691" filterUnits="userSpaceOnUse" color-interpolation-filters="sRGB">
<feFlood flood-opacity="0" result="BackgroundImageFix"/>
<feBlend mode="normal" in="SourceGraphic" in2="BackgroundImageFix" result="shape"/>
<feGaussianBlur stdDeviation="5.94017" result="effect1_foregroundBlur_184_2597"/>
</filter>
<linearGradient id="paint0_linear_184_2597" x1="33.0709" y1="32.6334" x2="17.3658" y2="23.5661" gradientUnits="userSpaceOnUse">
<stop stop-color="#030960" stop-opacity="0.1"/>
<stop offset="1" stop-color="#030960"/>
</linearGradient>
<linearGradient id="paint1_linear_184_2597" x1="22.4416" y1="33.574" x2="36.024" y2="29.9346" gradientUnits="userSpaceOnUse">
<stop stop-color="#094BF6" stop-opacity="0"/>
<stop offset="1" stop-color="#094BF6"/>
</linearGradient>
<linearGradient id="paint2_linear_184_2597" x1="29.1876" y1="31.1709" x2="47.3223" y2="31.1709" gradientUnits="userSpaceOnUse">
<stop stop-color="#47DAFF"/>
<stop offset="1" stop-color="#47DAFF" stop-opacity="0"/>
</linearGradient>
<linearGradient id="paint3_linear_184_2597" x1="30.8619" y1="29.7615" x2="30.8619" y2="47.8962" gradientUnits="userSpaceOnUse">
<stop stop-color="#0099FF"/>
<stop offset="1" stop-color="#0099FF" stop-opacity="0"/>
</linearGradient>
<radialGradient id="paint4_radial_184_2597" cx="0" cy="0" r="1" gradientUnits="userSpaceOnUse" gradientTransform="translate(31.9902 31.2654) rotate(90) scale(24.1914)">
<stop stop-color="white" stop-opacity="0"/>
<stop offset="0.831168" stop-color="#0047FF" stop-opacity="0.2"/>
<stop offset="1" stop-color="#8EAEFF" stop-opacity="0.66"/>
</radialGradient>
<linearGradient id="paint5_linear_184_2597" x1="22.0639" y1="17.5053" x2="41.935" y2="44.8994" gradientUnits="userSpaceOnUse">
<stop stop-color="#094BF6"/>
<stop offset="1" stop-color="#47DAFF"/>
</linearGradient>
<linearGradient id="paint6_linear_184_2597" x1="21.7852" y1="17.5936" x2="42.2136" y2="44.8109" gradientUnits="userSpaceOnUse">
<stop stop-color="#094BF6"/>
<stop offset="1" stop-color="#47DAFF"/>
</linearGradient>
<linearGradient id="paint7_linear_184_2597" x1="21.5052" y1="17.6892" x2="42.4944" y2="44.7155" gradientUnits="userSpaceOnUse">
<stop stop-color="#094BF6"/>
<stop offset="1" stop-color="#47DAFF"/>
</linearGradient>
<linearGradient id="paint8_linear_184_2597" x1="21.2227" y1="17.7918" x2="42.7758" y2="44.613" gradientUnits="userSpaceOnUse">
<stop stop-color="#094BF6"/>
<stop offset="1" stop-color="#47DAFF"/>
</linearGradient>
<linearGradient id="paint9_linear_184_2597" x1="20.9397" y1="17.9014" x2="43.0589" y2="44.5032" gradientUnits="userSpaceOnUse">
<stop stop-color="#094BF6"/>
<stop offset="1" stop-color="#47DAFF"/>
</linearGradient>
<linearGradient id="paint10_linear_184_2597" x1="20.656" y1="18.0182" x2="43.3432" y2="44.3865" gradientUnits="userSpaceOnUse">
<stop stop-color="#094BF6"/>
<stop offset="1" stop-color="#47DAFF"/>
</linearGradient>
<linearGradient id="paint11_linear_184_2597" x1="20.3714" y1="18.142" x2="43.6279" y2="44.2626" gradientUnits="userSpaceOnUse">
<stop stop-color="#094BF6"/>
<stop offset="1" stop-color="#47DAFF"/>
</linearGradient>
<linearGradient id="paint12_linear_184_2597" x1="20.0869" y1="18.273" x2="43.9133" y2="44.1318" gradientUnits="userSpaceOnUse">
<stop stop-color="#094BF6"/>
<stop offset="1" stop-color="#47DAFF"/>
</linearGradient>
<linearGradient id="paint13_linear_184_2597" x1="19.8012" y1="18.4109" x2="44.1975" y2="43.9939" gradientUnits="userSpaceOnUse">
<stop stop-color="#094BF6"/>
<stop offset="1" stop-color="#47DAFF"/>
</linearGradient>
<linearGradient id="paint14_linear_184_2597" x1="19.5171" y1="18.5557" x2="44.4827" y2="43.849" gradientUnits="userSpaceOnUse">
<stop stop-color="#094BF6"/>
<stop offset="1" stop-color="#47DAFF"/>
</linearGradient>
<linearGradient id="paint15_linear_184_2597" x1="19.2324" y1="18.7075" x2="44.7663" y2="43.6973" gradientUnits="userSpaceOnUse">
<stop stop-color="#094BF6"/>
<stop offset="1" stop-color="#47DAFF"/>
</linearGradient>
<linearGradient id="paint16_linear_184_2597" x1="18.9498" y1="18.866" x2="45.0502" y2="43.5388" gradientUnits="userSpaceOnUse">
<stop stop-color="#094BF6"/>
<stop offset="1" stop-color="#47DAFF"/>
</linearGradient>
<linearGradient id="paint17_linear_184_2597" x1="18.6672" y1="19.0312" x2="45.3318" y2="43.3736" gradientUnits="userSpaceOnUse">
<stop stop-color="#094BF6"/>
<stop offset="1" stop-color="#47DAFF"/>
</linearGradient>
<linearGradient id="paint18_linear_184_2597" x1="18.3863" y1="19.2029" x2="45.6123" y2="43.2018" gradientUnits="userSpaceOnUse">
<stop stop-color="#094BF6"/>
<stop offset="1" stop-color="#47DAFF"/>
</linearGradient>
<linearGradient id="paint19_linear_184_2597" x1="18.1076" y1="19.381" x2="45.8916" y2="43.0237" gradientUnits="userSpaceOnUse">
<stop stop-color="#094BF6"/>
<stop offset="1" stop-color="#47DAFF"/>
</linearGradient>
<linearGradient id="paint20_linear_184_2597" x1="17.8301" y1="19.5654" x2="46.1682" y2="42.8393" gradientUnits="userSpaceOnUse">
<stop stop-color="#094BF6"/>
<stop offset="1" stop-color="#47DAFF"/>
</linearGradient>
<linearGradient id="paint21_linear_184_2597" x1="17.5553" y1="19.7559" x2="46.443" y2="42.6488" gradientUnits="userSpaceOnUse">
<stop stop-color="#094BF6"/>
<stop offset="1" stop-color="#47DAFF"/>
</linearGradient>
<linearGradient id="paint22_linear_184_2597" x1="17.2839" y1="19.9523" x2="46.7162" y2="42.4524" gradientUnits="userSpaceOnUse">
<stop stop-color="#094BF6"/>
<stop offset="1" stop-color="#47DAFF"/>
</linearGradient>
<linearGradient id="paint23_linear_184_2597" x1="17.0137" y1="20.1545" x2="46.9852" y2="42.2504" gradientUnits="userSpaceOnUse">
<stop stop-color="#094BF6"/>
<stop offset="1" stop-color="#47DAFF"/>
</linearGradient>
<linearGradient id="paint24_linear_184_2597" x1="16.7471" y1="20.3621" x2="47.2519" y2="42.0428" gradientUnits="userSpaceOnUse">
<stop stop-color="#094BF6"/>
<stop offset="1" stop-color="#47DAFF"/>
</linearGradient>
<linearGradient id="paint25_linear_184_2597" x1="16.4839" y1="20.5748" x2="47.5156" y2="41.8299" gradientUnits="userSpaceOnUse">
<stop stop-color="#094BF6"/>
<stop offset="1" stop-color="#47DAFF"/>
</linearGradient>
<linearGradient id="paint26_linear_184_2597" x1="16.2238" y1="20.7927" x2="47.7756" y2="41.612" gradientUnits="userSpaceOnUse">
<stop stop-color="#094BF6"/>
<stop offset="1" stop-color="#47DAFF"/>
</linearGradient>
<linearGradient id="paint27_linear_184_2597" x1="15.9672" y1="21.0153" x2="48.032" y2="41.3894" gradientUnits="userSpaceOnUse">
<stop stop-color="#094BF6"/>
<stop offset="1" stop-color="#47DAFF"/>
</linearGradient>
<linearGradient id="paint28_linear_184_2597" x1="15.7149" y1="21.2425" x2="48.2851" y2="41.1622" gradientUnits="userSpaceOnUse">
<stop stop-color="#094BF6"/>
<stop offset="1" stop-color="#47DAFF"/>
</linearGradient>
<linearGradient id="paint29_linear_184_2597" x1="15.4654" y1="21.474" x2="48.5332" y2="40.9308" gradientUnits="userSpaceOnUse">
<stop stop-color="#094BF6"/>
<stop offset="1" stop-color="#47DAFF"/>
</linearGradient>
<linearGradient id="paint30_linear_184_2597" x1="15.2214" y1="21.7093" x2="48.7784" y2="40.6955" gradientUnits="userSpaceOnUse">
<stop stop-color="#094BF6"/>
<stop offset="1" stop-color="#47DAFF"/>
</linearGradient>
<linearGradient id="paint31_linear_184_2597" x1="14.9804" y1="21.9483" x2="49.0182" y2="40.4565" gradientUnits="userSpaceOnUse">
<stop stop-color="#094BF6"/>
<stop offset="1" stop-color="#47DAFF"/>
</linearGradient>
<linearGradient id="paint32_linear_184_2597" x1="14.745" y1="22.1905" x2="49.2547" y2="40.214" gradientUnits="userSpaceOnUse">
<stop stop-color="#094BF6"/>
<stop offset="1" stop-color="#47DAFF"/>
</linearGradient>
<linearGradient id="paint33_linear_184_2597" x1="14.5129" y1="22.4359" x2="49.4856" y2="39.9686" gradientUnits="userSpaceOnUse">
<stop stop-color="#094BF6"/>
<stop offset="1" stop-color="#47DAFF"/>
</linearGradient>
<linearGradient id="paint34_linear_184_2597" x1="14.2865" y1="22.6841" x2="49.7129" y2="39.7206" gradientUnits="userSpaceOnUse">
<stop stop-color="#094BF6"/>
<stop offset="1" stop-color="#47DAFF"/>
</linearGradient>
<linearGradient id="paint35_linear_184_2597" x1="14.0646" y1="22.9346" x2="49.9353" y2="39.47" gradientUnits="userSpaceOnUse">
<stop stop-color="#094BF6"/>
<stop offset="1" stop-color="#47DAFF"/>
</linearGradient>
<linearGradient id="paint36_linear_184_2597" x1="13.8466" y1="23.1872" x2="50.1521" y2="39.2175" gradientUnits="userSpaceOnUse">
<stop stop-color="#094BF6"/>
<stop offset="1" stop-color="#47DAFF"/>
</linearGradient>
<linearGradient id="paint37_linear_184_2597" x1="13.6342" y1="23.4416" x2="50.3648" y2="38.9633" gradientUnits="userSpaceOnUse">
<stop stop-color="#094BF6"/>
<stop offset="1" stop-color="#47DAFF"/>
</linearGradient>
<linearGradient id="paint38_linear_184_2597" x1="13.4269" y1="23.6971" x2="50.5728" y2="38.7075" gradientUnits="userSpaceOnUse">
<stop stop-color="#094BF6"/>
<stop offset="1" stop-color="#47DAFF"/>
</linearGradient>
<linearGradient id="paint39_linear_184_2597" x1="13.2235" y1="23.9539" x2="50.7749" y2="38.4509" gradientUnits="userSpaceOnUse">
<stop stop-color="#094BF6"/>
<stop offset="1" stop-color="#47DAFF"/>
</linearGradient>
<linearGradient id="paint40_linear_184_2597" x1="13.0263" y1="24.2113" x2="50.9734" y2="38.1936" gradientUnits="userSpaceOnUse">
<stop stop-color="#094BF6"/>
<stop offset="1" stop-color="#47DAFF"/>
</linearGradient>
<linearGradient id="paint41_linear_184_2597" x1="12.8332" y1="24.469" x2="51.1661" y2="37.9358" gradientUnits="userSpaceOnUse">
<stop stop-color="#094BF6"/>
<stop offset="1" stop-color="#47DAFF"/>
</linearGradient>
<linearGradient id="paint42_linear_184_2597" x1="12.6456" y1="24.7267" x2="51.3546" y2="37.6781" gradientUnits="userSpaceOnUse">
<stop stop-color="#094BF6"/>
<stop offset="1" stop-color="#47DAFF"/>
</linearGradient>
<linearGradient id="paint43_linear_184_2597" x1="12.4622" y1="24.984" x2="51.5375" y2="37.4208" gradientUnits="userSpaceOnUse">
<stop stop-color="#094BF6"/>
<stop offset="1" stop-color="#47DAFF"/>
</linearGradient>
<linearGradient id="paint44_linear_184_2597" x1="12.2836" y1="25.2405" x2="51.7156" y2="37.1641" gradientUnits="userSpaceOnUse">
<stop stop-color="#094BF6"/>
<stop offset="1" stop-color="#47DAFF"/>
</linearGradient>
<linearGradient id="paint45_linear_184_2597" x1="12.1105" y1="25.496" x2="51.8895" y2="36.9086" gradientUnits="userSpaceOnUse">
<stop stop-color="#094BF6"/>
<stop offset="1" stop-color="#47DAFF"/>
</linearGradient>
<linearGradient id="paint46_linear_184_2597" x1="11.9415" y1="25.7502" x2="52.0582" y2="36.6547" gradientUnits="userSpaceOnUse">
<stop stop-color="#094BF6"/>
<stop offset="1" stop-color="#47DAFF"/>
</linearGradient>
<linearGradient id="paint47_linear_184_2597" x1="11.7772" y1="26.0025" x2="52.2224" y2="36.4023" gradientUnits="userSpaceOnUse">
<stop stop-color="#094BF6"/>
<stop offset="1" stop-color="#47DAFF"/>
</linearGradient>
<linearGradient id="paint48_linear_184_2597" x1="11.6173" y1="26.2526" x2="52.3819" y2="36.1522" gradientUnits="userSpaceOnUse">
<stop stop-color="#094BF6"/>
<stop offset="1" stop-color="#47DAFF"/>
</linearGradient>
<linearGradient id="paint49_linear_184_2597" x1="11.4615" y1="26.5002" x2="52.5367" y2="35.9043" gradientUnits="userSpaceOnUse">
<stop stop-color="#094BF6"/>
<stop offset="1" stop-color="#47DAFF"/>
</linearGradient>
<linearGradient id="paint50_linear_184_2597" x1="11.3115" y1="26.7452" x2="52.6886" y2="35.6596" gradientUnits="userSpaceOnUse">
<stop stop-color="#094BF6"/>
<stop offset="1" stop-color="#47DAFF"/>
</linearGradient>
<linearGradient id="paint51_linear_184_2597" x1="11.1639" y1="26.9869" x2="52.8346" y2="35.4178" gradientUnits="userSpaceOnUse">
<stop stop-color="#094BF6"/>
<stop offset="1" stop-color="#47DAFF"/>
</linearGradient>
<linearGradient id="paint52_linear_184_2597" x1="11.0215" y1="27.2251" x2="52.9777" y2="35.1795" gradientUnits="userSpaceOnUse">
<stop stop-color="#094BF6"/>
<stop offset="1" stop-color="#47DAFF"/>
</linearGradient>
<linearGradient id="paint53_linear_184_2597" x1="10.8829" y1="27.4597" x2="53.1168" y2="34.9451" gradientUnits="userSpaceOnUse">
<stop stop-color="#094BF6"/>
<stop offset="1" stop-color="#47DAFF"/>
</linearGradient>
<linearGradient id="paint54_linear_184_2597" x1="10.7479" y1="27.69" x2="53.252" y2="34.7147" gradientUnits="userSpaceOnUse">
<stop stop-color="#094BF6"/>
<stop offset="1" stop-color="#47DAFF"/>
</linearGradient>
<linearGradient id="paint55_linear_184_2597" x1="10.6163" y1="27.9159" x2="53.3833" y2="34.4888" gradientUnits="userSpaceOnUse">
<stop stop-color="#094BF6"/>
<stop offset="1" stop-color="#47DAFF"/>
</linearGradient>
<linearGradient id="paint56_linear_184_2597" x1="10.4877" y1="28.1371" x2="53.5109" y2="34.2677" gradientUnits="userSpaceOnUse">
<stop stop-color="#094BF6"/>
<stop offset="1" stop-color="#47DAFF"/>
</linearGradient>
<linearGradient id="paint57_linear_184_2597" x1="10.363" y1="28.3531" x2="53.6357" y2="34.0515" gradientUnits="userSpaceOnUse">
<stop stop-color="#094BF6"/>
<stop offset="1" stop-color="#47DAFF"/>
</linearGradient>
<linearGradient id="paint58_linear_184_2597" x1="10.2419" y1="28.5639" x2="53.758" y2="33.8408" gradientUnits="userSpaceOnUse">
<stop stop-color="#094BF6"/>
<stop offset="1" stop-color="#47DAFF"/>
</linearGradient>
<linearGradient id="paint59_linear_184_2597" x1="10.1232" y1="28.7691" x2="53.8767" y2="33.6357" gradientUnits="userSpaceOnUse">
<stop stop-color="#094BF6"/>
<stop offset="1" stop-color="#47DAFF"/>
</linearGradient>
<linearGradient id="paint60_linear_184_2597" x1="10.0067" y1="28.9683" x2="53.9922" y2="33.4365" gradientUnits="userSpaceOnUse">
<stop stop-color="#094BF6"/>
<stop offset="1" stop-color="#47DAFF"/>
</linearGradient>
<linearGradient id="paint61_linear_184_2597" x1="9.89323" y1="29.1613" x2="54.1056" y2="33.2435" gradientUnits="userSpaceOnUse">
<stop stop-color="#094BF6"/>
<stop offset="1" stop-color="#47DAFF"/>
</linearGradient>
<linearGradient id="paint62_linear_184_2597" x1="9.78253" y1="29.3478" x2="54.2169" y2="33.0569" gradientUnits="userSpaceOnUse">
<stop stop-color="#094BF6"/>
<stop offset="1" stop-color="#47DAFF"/>
</linearGradient>
<linearGradient id="paint63_linear_184_2597" x1="9.6735" y1="29.5276" x2="54.3255" y2="32.8771" gradientUnits="userSpaceOnUse">
<stop stop-color="#094BF6"/>
<stop offset="1" stop-color="#47DAFF"/>
</linearGradient>
<linearGradient id="paint64_linear_184_2597" x1="9.56693" y1="29.7005" x2="54.4325" y2="32.7043" gradientUnits="userSpaceOnUse">
<stop stop-color="#094BF6"/>
<stop offset="1" stop-color="#47DAFF"/>
</linearGradient>
<linearGradient id="paint65_linear_184_2597" x1="9.46172" y1="29.8661" x2="54.5371" y2="32.5387" gradientUnits="userSpaceOnUse">
<stop stop-color="#094BF6"/>
<stop offset="1" stop-color="#47DAFF"/>
</linearGradient>
<linearGradient id="paint66_linear_184_2597" x1="9.35868" y1="30.0242" x2="54.6405" y2="32.3805" gradientUnits="userSpaceOnUse">
<stop stop-color="#094BF6"/>
<stop offset="1" stop-color="#47DAFF"/>
</linearGradient>
<linearGradient id="paint67_linear_184_2597" x1="9.25672" y1="30.1747" x2="54.7419" y2="32.2301" gradientUnits="userSpaceOnUse">
<stop stop-color="#094BF6"/>
<stop offset="1" stop-color="#47DAFF"/>
</linearGradient>
<linearGradient id="paint68_linear_184_2597" x1="9.15668" y1="30.3171" x2="54.8425" y2="32.0876" gradientUnits="userSpaceOnUse">
<stop stop-color="#094BF6"/>
<stop offset="1" stop-color="#47DAFF"/>
</linearGradient>
<linearGradient id="paint69_linear_184_2597" x1="9.05748" y1="30.4515" x2="54.9416" y2="31.9533" gradientUnits="userSpaceOnUse">
<stop stop-color="#094BF6"/>
<stop offset="1" stop-color="#47DAFF"/>
</linearGradient>
<linearGradient id="paint70_linear_184_2597" x1="8.95902" y1="30.5774" x2="55.0393" y2="31.8273" gradientUnits="userSpaceOnUse">
<stop stop-color="#094BF6"/>
<stop offset="1" stop-color="#47DAFF"/>
</linearGradient>
<linearGradient id="paint71_linear_184_2597" x1="8.86217" y1="30.6948" x2="55.1368" y2="31.7099" gradientUnits="userSpaceOnUse">
<stop stop-color="#094BF6"/>
<stop offset="1" stop-color="#47DAFF"/>
</linearGradient>
<linearGradient id="paint72_linear_184_2597" x1="8.76587" y1="30.8034" x2="55.2333" y2="31.6013" gradientUnits="userSpaceOnUse">
<stop stop-color="#094BF6"/>
<stop offset="1" stop-color="#47DAFF"/>
</linearGradient>
<linearGradient id="paint73_linear_184_2597" x1="8.67005" y1="30.9031" x2="55.3291" y2="31.5017" gradientUnits="userSpaceOnUse">
<stop stop-color="#094BF6"/>
<stop offset="1" stop-color="#47DAFF"/>
</linearGradient>
<linearGradient id="paint74_linear_184_2597" x1="8.57463" y1="30.9936" x2="55.4242" y2="31.4113" gradientUnits="userSpaceOnUse">
<stop stop-color="#094BF6"/>
<stop offset="1" stop-color="#47DAFF"/>
</linearGradient>
<linearGradient id="paint75_linear_184_2597" x1="8.47955" y1="31.0747" x2="55.5188" y2="31.33" gradientUnits="userSpaceOnUse">
<stop stop-color="#094BF6"/>
<stop offset="1" stop-color="#47DAFF"/>
</linearGradient>
<linearGradient id="paint76_linear_184_2597" x1="8.38573" y1="31.1463" x2="55.6141" y2="31.2584" gradientUnits="userSpaceOnUse">
<stop stop-color="#094BF6"/>
<stop offset="1" stop-color="#47DAFF"/>
</linearGradient>
<linearGradient id="paint77_linear_184_2597" x1="8.29117" y1="31.2083" x2="55.7082" y2="31.1966" gradientUnits="userSpaceOnUse">
<stop stop-color="#094BF6"/>
<stop offset="1" stop-color="#47DAFF"/>
</linearGradient>
<linearGradient id="paint78_linear_184_2597" x1="8.19681" y1="31.2603" x2="55.8022" y2="31.1443" gradientUnits="userSpaceOnUse">
<stop stop-color="#094BF6"/>
<stop offset="1" stop-color="#47DAFF"/>
</linearGradient>
<linearGradient id="paint79_linear_184_2597" x1="8.10261" y1="31.3024" x2="55.8963" y2="31.1023" gradientUnits="userSpaceOnUse">
<stop stop-color="#094BF6"/>
<stop offset="1" stop-color="#47DAFF"/>
</linearGradient>
<linearGradient id="paint80_linear_184_2597" x1="8.00855" y1="31.3344" x2="55.9904" y2="31.0704" gradientUnits="userSpaceOnUse">
<stop stop-color="#094BF6"/>
<stop offset="1" stop-color="#47DAFF"/>
</linearGradient>
<linearGradient id="paint81_linear_184_2597" x1="7.9146" y1="31.356" x2="56.0848" y2="31.0488" gradientUnits="userSpaceOnUse">
<stop stop-color="#094BF6"/>
<stop offset="1" stop-color="#47DAFF"/>
</linearGradient>
<linearGradient id="paint82_linear_184_2597" x1="7.82075" y1="31.3672" x2="56.1793" y2="31.0376" gradientUnits="userSpaceOnUse">
<stop stop-color="#094BF6"/>
<stop offset="1" stop-color="#47DAFF"/>
</linearGradient>
<linearGradient id="paint83_linear_184_2597" x1="7.72546" y1="31.2023" x2="56.2737" y2="31.2023" gradientUnits="userSpaceOnUse">
<stop stop-color="#094BF6"/>
<stop offset="1" stop-color="#47DAFF"/>
</linearGradient>
</defs>
</svg>
