<svg width="138" height="47" viewBox="0 0 138 47" fill="none" xmlns="http://www.w3.org/2000/svg">
<mask id="mask0_102_3040" style="mask-type:alpha" maskUnits="userSpaceOnUse" x="0" y="0" width="138" height="47">
<path d="M66.2197 0.5C71.2601 0.511743 75.3426 4.60226 75.3428 9.64648C75.3428 14.687 71.2602 18.7783 66.2197 18.79H61.2822L73.7266 31.0547V34.498H70.7617L58.0225 21.9424V34.4941H53.4873V14.2549H66.2197C68.759 14.247 70.8154 12.1858 70.8154 9.64648C70.8153 7.10344 68.7589 5.04307 66.2197 5.03516H52.2812C47.8496 5.03899 44.2606 8.63183 44.2529 13.0635H44.2637V33.9082C44.2635 39.0022 41.1954 43.5904 36.4883 45.54C31.7847 47.4897 26.368 46.414 22.7637 42.8135L22.3193 42.3691L25.5254 39.1631L25.9697 39.6074C28.2756 41.9133 31.7424 42.6022 34.7568 41.3535C37.6473 40.1545 39.5727 37.3987 39.7217 34.2959V31.5791C37.4213 33.5157 34.515 34.5821 31.5088 34.5859C26.3149 34.5821 22.1055 30.3725 22.1016 25.1787V12.4316H26.6328V25.1787C26.6367 27.8714 28.8161 30.0509 31.5088 30.0547C35.9235 30.0471 39.5211 26.568 39.7217 22.2012V13.0635C39.7293 6.12681 45.3484 0.50766 52.2812 0.5H66.2197ZM97.2607 11.8262C100.941 11.8262 103.473 13.2047 104.787 15.9277L105.024 16.4258L101.34 18.8584L101.021 18.2227C100.194 16.568 98.9071 15.7598 97.0801 15.7598C94.8358 15.7599 93.3839 16.7402 93.3838 18.2529C93.3838 19.3369 93.71 20.2984 97.7012 21.1143C100.195 21.662 101.938 22.2638 102.88 22.9072L102.902 22.9219C104.668 24.2472 105.561 25.9485 105.561 27.9785C105.56 32.1955 102.048 35.0302 96.8164 35.0303C93.0742 35.0303 90.197 33.5708 88.2627 30.6943L87.9141 30.1729L91.5 27.7217L91.8555 28.2539C93.1118 30.1652 94.7366 31.0928 96.8164 31.0928C99.3747 31.0927 101.056 29.9701 101.091 28.2314C101.121 26.8794 100.34 26.0249 95.9736 25.1133C91.293 24.2055 88.9141 22.064 88.9141 18.7432C88.9142 14.6066 92.27 11.8262 97.2607 11.8262ZM118.935 11.8262C122.056 11.8262 124.638 12.8487 126.61 14.8711C128.594 16.9011 129.602 19.7509 129.602 23.3398V24.8604H112.297C112.531 26.4882 113.308 27.9941 114.503 29.124C115.752 30.3993 117.464 31.1119 119.249 31.0928C121.731 31.1118 124.052 29.859 125.404 27.7754L125.783 27.1699L129.093 29.8936L128.702 30.3799C126.224 33.4632 123.045 35.0302 119.249 35.0303C115.963 35.0303 113.212 33.8999 111.075 31.667C108.919 29.4646 107.823 26.6911 107.823 23.4277C107.823 20.1529 108.903 17.3641 111.032 15.1426C113.139 12.9402 115.798 11.8262 118.935 11.8262ZM5.28906 29.959H20.4004V34.4941H0V2.13965H5.28906V29.959ZM84.0576 34.4932H79.8525V12.3623H84.0576V34.4932ZM118.98 15.7598C117.28 15.7713 115.648 16.4145 114.399 17.5674C113.204 18.6207 112.531 19.8125 112.347 21.1914H125.105C124.845 17.8705 122.497 15.7598 118.98 15.7598Z" fill="#CB93FF"/>
<path d="M131.938 3.60637V0.844727H130.957V0.5H133.313V0.844727H132.324V3.60637H131.938Z" fill="#CB93FF"/>
<path d="M137.323 3.60637V1.04773L136.265 3.60637H136.108L135.055 1.04773V3.60637H134.668V0.5H135.224L136.185 2.83648L137.154 0.5H137.709V3.60637H137.323Z" fill="#CB93FF"/>
<path d="M82.7323 2.46832C81.7213 2.024 80.5425 2.23084 79.7375 2.99307C79.1919 3.49867 78.8791 4.2111 78.8791 4.96184C78.8791 5.70875 79.1881 6.42501 79.7375 6.93061C80.2449 7.42472 80.9278 7.7005 81.6374 7.69667C82.0151 7.69667 82.3927 7.62007 82.7437 7.47068C83.7471 7.04552 84.3995 6.05731 84.3956 4.96567C84.3956 3.87021 83.7356 2.88582 82.7323 2.46832Z" fill="#CB93FF"/>
</mask>
<g mask="url(#mask0_102_3040)">
<rect x="-92.0002" y="-151.029" width="324.706" height="324.706" fill="#2C2C2C"/>
</g>
</svg>
