<svg width="341" height="82" viewBox="0 0 341 82" fill="none" xmlns="http://www.w3.org/2000/svg">
<circle cx="20.4004" cy="42.7591" r="16.8303" stroke="#20273B" stroke-width="7.14012"/>
<rect y="42.1118" width="7.14012" height="39.4079" fill="#20273B"/>
<path d="M144.945 42.7589C144.945 35.4356 139.007 29.4995 131.684 29.4995C124.361 29.4996 118.425 35.4357 118.424 42.7589C118.424 50.0823 124.361 56.0196 131.684 56.0197V63.1591L131.157 63.1523C120.309 62.8773 111.565 54.134 111.291 43.2855L111.284 42.7589C111.284 31.4923 120.417 22.3589 131.684 22.3588L132.21 22.3655C143.234 22.6447 152.084 31.6682 152.084 42.7589L152.077 43.2855C151.798 54.309 142.775 63.1591 131.684 63.1591V56.0197C139.007 56.0197 144.945 50.0823 144.945 42.7589Z" fill="#20273B"/>
<path d="M144.946 42.5719H152.086V60.9521H144.946V42.5719Z" fill="#20273B"/>
<path d="M148.037 51.8994C148.037 55.2544 146.876 58.3368 144.939 60.7742C144.942 60.8889 144.948 61.004 144.948 61.1194C144.947 68.4426 139.011 74.38 131.688 74.3801C126.157 74.3801 121.419 70.9921 119.43 66.1795H111.921C114.172 74.9983 122.168 81.5194 131.688 81.5195L132.215 81.5127C143.063 81.2378 151.807 72.4943 152.081 61.6459L152.088 61.1194C152.088 56.5428 150.582 52.3179 148.037 48.9145V51.8994Z" fill="#20273B"/>
<rect x="48.0486" width="7.14012" height="61.9382" fill="#20273B"/>
<mask id="path-5-inside-1_106_3742" fill="white">
<path d="M63.3529 22.3588H104.245V42.7133C104.245 54.0054 95.0912 63.1595 83.7991 63.1595C72.507 63.1595 63.3529 54.0054 63.3529 42.7133V22.3588Z"/>
</mask>
<path d="M63.3529 22.3588H104.245H63.3529ZM111.385 42.7133C111.385 57.9488 99.0346 70.2996 83.7991 70.2996H83.7991C68.5636 70.2996 56.2128 57.9488 56.2128 42.7133L70.493 42.7133C70.493 50.062 76.4504 56.0193 83.7991 56.0193C91.1478 56.0193 97.1051 50.062 97.1051 42.7133L111.385 42.7133ZM83.7991 70.2996C68.5636 70.2996 56.2128 57.9488 56.2128 42.7133V22.3588H70.493V42.7133C70.493 50.062 76.4504 56.0193 83.7991 56.0193L83.7991 70.2996ZM111.385 22.3588V42.7133C111.385 57.9488 99.0346 70.2996 83.7991 70.2996L83.7991 56.0193C91.1478 56.0193 97.1051 50.062 97.1051 42.7133V22.3588H111.385Z" fill="#20273B" mask="url(#path-5-inside-1_106_3742)"/>
<rect x="264.133" y="22.3588" width="7.14012" height="40.8007" fill="#20273B"/>
<rect x="215.069" width="7.14012" height="63.1594" fill="#20273B"/>
<mask id="path-9-inside-2_106_3742" fill="white">
<path d="M215.068 63.1595H255.961V42.805C255.961 31.5129 246.807 22.3588 235.514 22.3588C224.222 22.3588 215.068 31.5129 215.068 42.805V63.1595Z"/>
</mask>
<path d="M215.068 63.1595H255.961H215.068ZM263.101 42.805C263.101 27.5695 250.75 15.2187 235.514 15.2187H235.514C220.279 15.2187 207.928 27.5695 207.928 42.805L222.208 42.805C222.208 35.4563 228.166 29.499 235.514 29.499C242.863 29.499 248.821 35.4563 248.821 42.805L263.101 42.805ZM235.514 15.2187C220.279 15.2187 207.928 27.5695 207.928 42.805V63.1595H222.208V42.805C222.208 35.4563 228.166 29.499 235.514 29.499L235.514 15.2187ZM263.101 63.1595V42.805C263.101 27.5695 250.75 15.2187 235.514 15.2187L235.514 29.499C242.863 29.499 248.821 35.4563 248.821 42.805V63.1595H263.101Z" fill="#20273B" mask="url(#path-9-inside-2_106_3742)"/>
<path d="M299.113 22.3607V29.5013C299.048 29.5004 298.984 29.4994 298.919 29.4994C291.685 29.4994 285.8 35.2714 285.617 42.4613L285.613 42.8051V63.1595H278.473V42.8051C278.473 31.5129 287.627 22.3588 298.919 22.3588C298.984 22.3588 299.048 22.3601 299.113 22.3607Z" fill="#20273B"/>
<rect x="306.491" y="45.7792" width="5.10009" height="32.6984" transform="rotate(-90 306.491 45.7792)" fill="#20273B"/>
<path d="M321.126 22.3656C332.15 22.6448 341 31.6683 341 42.7592L340.993 43.2855C340.972 44.1307 340.899 44.963 340.778 45.7797H333.513C333.739 44.8093 333.86 43.7983 333.86 42.7592C333.86 35.4357 327.923 29.4984 320.6 29.4984C313.276 29.4984 307.339 35.4357 307.339 42.7592C307.339 50.0826 313.276 56.0189 320.6 56.0189C324.38 56.0189 327.79 54.4372 330.205 51.8998H338.842C335.49 58.5769 328.58 63.1595 320.6 63.1595L320.073 63.1527C309.225 62.878 300.481 54.1341 300.206 43.2855L300.199 42.7592C300.199 31.4924 309.333 22.3588 320.6 22.3588L321.126 22.3656Z" fill="#20273B"/>
<mask id="path-14-inside-3_106_3742" fill="white">
<path d="M163.231 63.1595H204.123V42.805C204.123 31.5129 194.969 22.3588 183.677 22.3588C172.385 22.3588 163.231 31.5129 163.231 42.805V63.1595Z"/>
</mask>
<path d="M163.231 63.1595H204.123H163.231ZM211.264 42.805C211.264 27.5695 198.913 15.2187 183.677 15.2187H183.677C168.442 15.2187 156.091 27.5695 156.091 42.805L170.371 42.805C170.371 35.4563 176.329 29.499 183.677 29.499C191.026 29.499 196.983 35.4563 196.983 42.805L211.264 42.805ZM183.677 15.2187C168.442 15.2187 156.091 27.5695 156.091 42.805V63.1595H170.371V42.805C170.371 35.4563 176.329 29.499 183.677 29.499L183.677 15.2187ZM211.264 63.1595V42.805C211.264 27.5695 198.913 15.2187 183.677 15.2187L183.677 29.499C191.026 29.499 196.983 35.4563 196.983 42.805V63.1595H211.264Z" fill="#2957FF" mask="url(#path-14-inside-3_106_3742)"/>
<circle cx="183.675" cy="8.16014" r="8.16014" fill="#2957FF"/>
</svg>
