<svg width="52" height="51" viewBox="0 0 52 51" fill="none" xmlns="http://www.w3.org/2000/svg">
<path d="M11.2422 24.6631C15.817 18.0249 20.219 14.1506 20.219 14.1506C20.219 14.1506 15.3676 8.61119 9.52524 6.51549L9.14496 6.42487C4.23116 10.6486 1.12642 16.5446 0.455129 22.9273C-0.216159 29.3099 1.5958 35.7057 5.5266 40.8284C5.5266 40.3299 5.59574 32.8647 11.2422 24.6631ZM51.943 25.5354C51.9458 21.915 51.1594 18.3361 49.6367 15.0396C48.1141 11.7431 45.8907 8.80556 43.1161 6.42487L42.7473 6.52682C36.9049 8.62252 32.042 14.162 32.042 14.162C32.042 14.162 36.444 18.0362 41.0188 24.6745C46.6653 32.876 46.7344 40.3413 46.7229 40.8397C50.1202 36.4376 51.9541 31.061 51.943 25.5354ZM19.8157 5.69987C23.192 7.18385 26.1075 9.6194 26.1075 9.6194C26.1075 9.6194 29.0459 7.19518 32.4223 5.69987C36.6629 3.83073 39.901 4.41979 40.7537 4.62369C36.4505 1.71661 31.3519 0.1604 26.1305 0.1604C20.9091 0.1604 15.8105 1.71661 11.5073 4.62369C12.337 4.41979 15.5635 3.8194 19.8157 5.69987ZM37.9651 29.7155C32.6297 23.2698 26.1075 19.0784 26.1075 19.0784C26.1075 19.0784 19.6198 23.2698 14.2729 29.7155C9.68656 35.2549 7.98109 39.3217 7.05922 41.9272L6.90941 42.471C9.33036 45.1261 12.2933 47.2498 15.6052 48.7037C18.917 50.1576 22.5034 50.9091 26.1305 50.9091C29.7576 50.9091 33.344 50.1576 36.6558 48.7037C39.9677 47.2498 42.9307 45.1261 45.3516 42.471L45.1903 41.9272C44.2684 39.3217 42.5514 35.2549 37.9651 29.7155Z" fill="white"/>
</svg>
