<svg width="53" height="52" viewBox="0 0 53 52" fill="none" xmlns="http://www.w3.org/2000/svg">
<path d="M11.5035 25.1631C16.0783 18.5249 20.4802 14.6506 20.4802 14.6506C20.4802 14.6506 15.6288 9.11119 9.78647 7.01549L9.40619 6.92487C4.49239 11.1486 1.38765 17.0446 0.71636 23.4273C0.045071 29.8099 1.85703 36.2057 5.78783 41.3284C5.78783 40.8299 5.85697 33.3647 11.5035 25.1631ZM52.2042 26.0354C52.207 22.415 51.4206 18.8361 49.898 15.5396C48.3754 12.2431 46.1519 9.30556 43.3773 6.92487L43.0085 7.02682C37.1662 9.12252 32.3033 14.662 32.3033 14.662C32.3033 14.662 36.7052 18.5362 41.28 25.1745C46.9265 33.376 46.9956 40.8413 46.9841 41.3397C50.3814 36.9376 52.2153 31.561 52.2042 26.0354ZM20.0769 6.19987C23.4533 7.68385 26.3687 10.1194 26.3687 10.1194C26.3687 10.1194 29.3072 7.69518 32.6835 6.19987C36.9242 4.33073 40.1622 4.91979 41.015 5.12369C36.7118 2.21661 31.6131 0.6604 26.3917 0.6604C21.1704 0.6604 16.0717 2.21661 11.7685 5.12369C12.5982 4.91979 15.8247 4.3194 20.0769 6.19987ZM38.2263 30.2155C32.891 23.7698 26.3687 19.5784 26.3687 19.5784C26.3687 19.5784 19.881 23.7698 14.5341 30.2155C9.94779 35.7549 8.24233 39.8217 7.32045 42.4272L7.17065 42.971C9.59159 45.6261 12.5546 47.7498 15.8664 49.2037C19.1783 50.6576 22.7647 51.4091 26.3917 51.4091C30.0188 51.4091 33.6052 50.6576 36.917 49.2037C40.2289 47.7498 43.1919 45.6261 45.6128 42.971L45.4515 42.4272C44.5296 39.8217 42.8126 35.7549 38.2263 30.2155Z" fill="black" fill-opacity="0.58"/>
</svg>
