<svg width="207" height="36" viewBox="0 0 207 36" fill="none" xmlns="http://www.w3.org/2000/svg">
<path fill-rule="evenodd" clip-rule="evenodd" d="M13.1452 1.54023C13.1359 6.3127 12.9868 20.4973 12.9407 20.9977C12.6741 23.8896 11.7506 25.719 10.0394 26.7449C8.70284 27.5461 5.40086 28.2664 1.86049 28.5292C1.60252 28.5483 1.22559 28.5786 1.02284 28.5966L0.654297 28.6294L0.685605 30.6619C0.702842 31.7797 0.731161 33.2681 0.748574 33.9695C0.780117 35.2373 0.781054 35.2447 0.909981 35.2436C2.38992 35.2304 8.63506 34.0937 10.4791 33.5018C14.0293 32.3625 16.3273 30.2085 17.6339 26.7953C17.8325 26.2765 17.862 26.1861 18.062 25.4829C18.3859 24.3443 18.6634 22.6978 18.7733 21.2615C18.8717 19.9763 19.0538 9.15977 19.0886 2.53213L19.0977 0.805362L16.1222 0.780857L13.1467 0.756348L13.1452 1.54023ZM24.7223 0.847166C24.7061 0.889438 24.7009 6.331 24.7107 12.9396L24.7287 24.9552L24.8652 25.6877C25.098 26.9362 25.5583 28.0883 26.1942 29.0138C26.5595 29.5454 27.616 30.5829 28.1415 30.9259C29.2447 31.6461 30.6835 32.1867 32.372 32.5155C34.1917 32.8698 34.1235 32.8669 40.9666 32.8686C47.6418 32.8703 47.7734 32.8658 49.5978 32.5744C51.7483 32.231 53.3938 31.6656 54.6774 30.8289C55.3141 30.4138 55.3629 30.3742 55.9183 29.8215C56.7198 29.0236 57.3252 27.9878 57.7 26.7727C58.1026 25.4676 58.0767 26.3667 58.0986 12.9214L58.1183 0.770361H55.1575H52.1968L52.1807 12.3351C52.1654 23.3976 52.1599 23.9139 52.0564 24.2223C51.61 25.5527 50.3685 26.3621 48.2333 26.7147C47.1453 26.8944 45.7364 26.9297 40.7614 26.9019C35.7811 26.8741 35.4541 26.8603 34.3121 26.6301C32.2159 26.2074 31.0259 25.2725 30.7983 23.8694C30.7567 23.6132 30.7365 19.7912 30.7362 12.1299L30.7357 0.770361H27.7438C25.3309 0.770361 24.7461 0.785253 24.7223 0.847166ZM66.8224 0.825591C65.5962 1.02939 64.6318 2.00188 64.3647 3.30364C64.2816 3.7086 64.272 5.28228 64.272 18.4448V33.1341H67.2913H70.3106L70.3254 22.6031L70.3402 12.0721L71.6735 14.0578C72.4068 15.1499 73.1681 16.2809 73.3653 16.5711C73.5625 16.8613 74.3631 18.0486 75.1444 19.2095C75.9257 20.3703 76.8154 21.6895 77.1215 22.141C77.4276 22.5924 78.2808 23.8588 79.0175 24.9552C79.7542 26.0516 80.4398 27.0673 80.5409 27.2124C80.642 27.3576 81.3684 28.4393 82.1552 29.6163C83.3467 31.3987 83.6703 31.8409 84.0918 32.2631C84.9024 33.0748 85.7611 33.426 86.9325 33.4249C87.6044 33.4243 87.8924 33.3717 88.4276 33.1522C89.3713 32.7652 89.8897 32.2669 90.8772 30.7982C91.26 30.2288 92.5723 28.2722 93.7933 26.4503C95.5735 23.7939 97.238 21.3154 97.6914 20.6459C97.7242 20.5975 98.4931 19.4498 99.4001 18.0955C100.307 16.7411 101.549 14.8877 102.16 13.9767C102.77 13.0658 103.294 12.3204 103.324 12.3204C103.357 12.3204 103.378 16.4155 103.378 22.7273V33.1341H106.368C109.177 33.1341 109.358 33.1278 109.358 33.0315C109.358 32.975 109.359 26.399 109.359 18.418C109.36 8.11094 109.341 3.8061 109.296 3.55857C109.152 2.78295 108.726 1.99637 108.2 1.53595C107.178 0.641081 105.437 0.522534 104.127 1.25857C103.44 1.64424 103.227 1.91417 100.806 5.46075C100.597 5.76709 100.106 6.47945 99.7142 7.04376C98.8651 8.26754 98.4998 8.79638 97.9203 9.64095C97.5077 10.2423 97.0447 10.9153 96.1375 12.2325C95.9154 12.555 95.5801 13.0431 95.3924 13.3172C95.2046 13.5913 94.8733 14.0727 94.6561 14.3869C94.4389 14.7012 93.9853 15.3608 93.648 15.8527C93.3107 16.3446 92.752 17.156 92.4065 17.6558C92.061 18.1556 91.6378 18.7695 91.466 19.0201C91.2943 19.2706 90.7713 20.0286 90.3037 20.7045C89.8361 21.3803 89.1634 22.3562 88.8086 22.8731C88.4539 23.39 87.9311 24.149 87.6467 24.5599C87.3623 24.9708 87.1065 25.3465 87.0782 25.3949C87.0339 25.4705 87.0107 25.4664 86.9129 25.3656C86.8503 25.3011 86.0793 24.2194 85.1995 22.9618C83.6756 20.7835 82.5691 19.2059 80.9227 16.8643C80.5147 16.2838 80.0886 15.677 79.9759 15.5158C79.8632 15.3545 78.9004 13.9826 77.8363 12.467C76.7723 10.9514 75.7584 9.50616 75.5834 9.25528C75.4084 9.00434 75.0824 8.54263 74.8591 8.22925C74.6358 7.91582 74.0402 7.06575 73.5355 6.3402C70.5269 2.01455 70.2786 1.69847 69.5789 1.30366C69.0116 0.983481 68.4481 0.829048 67.7461 0.801551C67.3993 0.787949 66.9837 0.798797 66.8224 0.825591ZM115.339 16.8344V32.8995H118.358H121.378L121.363 16.8496L121.348 0.799676L118.343 0.784492L115.339 0.769305V16.8344ZM147.204 0.828229C146.623 0.913946 145.897 1.30213 145.383 1.80148C144.958 2.21488 144.699 2.58519 143.91 3.90706C143.524 4.55199 142.382 6.46479 141.371 8.15773C140.36 9.85067 139.068 12.0141 138.499 12.9654C137.93 13.9166 136.795 15.8163 135.977 17.1867C135.158 18.5572 133.977 20.536 133.351 21.584C132.726 22.632 131.972 23.8916 131.677 24.3832C131.381 24.8748 131.09 25.3628 131.03 25.4679C130.909 25.68 127.561 31.2843 126.974 32.2567C126.769 32.5964 126.584 32.9196 126.563 32.9749C126.527 33.0692 126.745 33.0754 130.063 33.0746L133.602 33.0738L134.071 32.2448C134.329 31.7889 134.607 31.2946 134.688 31.1463C134.928 30.7089 135.254 30.1254 135.924 28.9359C136.271 28.3198 136.653 27.6338 136.772 27.4115C136.891 27.1892 137.038 26.9372 137.098 26.8516C137.158 26.766 137.208 26.6819 137.208 26.6647C137.208 26.6475 137.414 26.269 137.667 25.8236C137.919 25.3782 138.2 24.8752 138.292 24.7058L138.458 24.3979L147.813 24.4127L157.168 24.4275L157.586 25.1604C157.815 25.5635 158.42 26.6188 158.929 27.5056C159.439 28.3924 160.265 29.8303 160.766 30.7009C161.266 31.5716 161.771 32.4554 161.887 32.665L162.099 33.0461L165.483 33.0612C167.345 33.0696 168.868 33.0591 168.868 33.038C168.868 33.0169 168.679 32.6803 168.447 32.29C167.739 31.094 166.072 28.2441 165.067 26.5089C164.89 26.2025 164.15 24.9361 163.425 23.6946C161.636 20.6356 161.344 20.1347 161.275 20.0127C161.243 19.9551 161.108 19.7245 160.976 19.5001C160.844 19.2758 160.543 18.7624 160.306 18.3593C160.07 17.9562 159.713 17.3494 159.513 17.0108C159.313 16.6723 158.997 16.1314 158.81 15.8089C158.055 14.5025 157.223 13.0761 155.853 10.7374C155.409 9.97965 154.901 9.109 154.724 8.80266C154.546 8.49632 154.131 7.78396 153.801 7.21965C153.471 6.65534 152.778 5.46808 152.26 4.5813C151.059 2.5224 150.985 2.41212 150.458 1.88128C149.575 0.992158 148.485 0.639323 147.204 0.828229ZM149.267 11.3531C150.057 12.6429 150.896 14.0149 151.131 14.4018C151.366 14.7888 151.986 15.8045 152.51 16.6591C153.034 17.5136 153.475 18.2458 153.491 18.286C153.513 18.3444 152.339 18.3593 147.738 18.3593C144.558 18.3593 141.957 18.3442 141.957 18.3257C141.957 18.2882 142.788 16.8812 143.652 15.4571C143.965 14.9412 144.48 14.0837 144.797 13.5517C145.113 13.0196 145.431 12.4919 145.503 12.3791C145.575 12.2662 145.805 11.8837 146.015 11.5289C146.225 11.1742 146.572 10.5938 146.786 10.2391C147.21 9.5367 147.356 9.29163 147.539 8.97948C147.655 8.78172 147.661 8.77891 147.744 8.89154C147.791 8.9555 148.476 10.0632 149.267 11.3531Z" fill="#3C4668"/>
<circle cx="190.323" cy="17.9933" r="16.475" fill="#3C4668"/>
<path d="M190.322 5.3291L194.119 12.768L202.366 14.0798L196.465 19.989L197.766 28.2386L190.322 24.4518L182.879 28.2386L184.18 19.989L178.278 14.0798L186.526 12.768L190.322 5.3291Z" fill="#20273B"/>
</svg>
