<svg width="177" height="48" viewBox="0 0 177 48" fill="none" xmlns="http://www.w3.org/2000/svg">
<path d="M28.3342 33.4885H155.637L150.168 47.8528H22.8652L28.3342 33.4885Z" fill="#3C4668"/>
<path fill-rule="evenodd" clip-rule="evenodd" d="M12.9496 1.55821C12.099 2.04502 11.3659 2.48056 11.3204 2.52603C11.2749 2.57149 11.572 3.2619 11.9804 4.06025C15.0394 10.0408 15.54 18.5782 13.2415 25.5774C12.7539 27.0624 11.9456 28.9037 11.4466 29.6659C11.3182 29.8623 11.2401 30.0498 11.2732 30.0826C11.3063 30.1155 12.0594 30.5593 12.9469 31.0688L14.5603 31.9952L14.8749 31.5746C16.6949 29.1409 18.2055 24.604 18.7885 19.8204C19.0008 18.0783 19.0031 14.075 18.7925 12.5065C18.2254 8.28191 16.8801 4.22089 15.1736 1.58299C14.8402 1.06772 14.5515 0.652073 14.5318 0.659585C14.5123 0.666965 13.8003 1.07141 12.9496 1.55821ZM3.0041 8.17148C2.07872 8.52729 1.19446 9.50894 0.906118 10.5009C0.0335826 13.5024 3.17819 16.0889 5.96632 14.663C8.22561 13.5075 8.59631 10.4948 6.68599 8.81326C5.66493 7.9145 4.29413 7.67558 3.0041 8.17148ZM3.13865 18.34C1.25653 19.0697 0.296226 21.118 0.982025 22.9403C1.51087 24.3452 2.64065 25.171 4.16116 25.2637C5.31637 25.3342 6.18099 24.9693 6.98922 24.0704C8.58827 22.2919 8.08882 19.64 5.948 18.5425C5.29278 18.2066 3.76634 18.0966 3.13865 18.34Z" fill="#3C4668"/>
<path fill-rule="evenodd" clip-rule="evenodd" d="M72.5033 36.3155C72.4549 36.3637 72.4157 37.7129 72.4159 39.3135C72.4163 41.9896 72.4376 42.2583 72.6795 42.6553C73.0138 43.2036 73.4456 43.3651 74.4486 43.3166C75.2412 43.2783 75.2487 43.2743 75.2487 42.8826C75.2487 42.4963 75.2321 42.4863 74.5255 42.4463C73.3851 42.3818 73.3379 42.2938 73.3379 40.2326V38.4799L74.2137 38.441C74.8757 38.4115 75.1247 38.3457 75.2343 38.1714C75.5163 37.7225 75.1827 37.4836 74.2137 37.4405L73.3379 37.4016V36.8945C73.3379 36.5539 73.2695 36.3613 73.1294 36.3076C72.8569 36.2029 72.6127 36.2061 72.5033 36.3155ZM41.7843 37.4302C40.6515 37.695 39.9155 38.7386 40.7192 38.9403C40.9589 39.0004 41.1553 38.9307 41.4542 38.6793C42.274 37.9895 43.5573 38.327 43.5833 39.2392C43.5987 39.7802 43.4562 39.8735 42.4434 39.9861C41.4306 40.0988 40.6114 40.4521 40.3155 40.9039C40.0265 41.3448 40.0155 42.295 40.2944 42.7208C40.7913 43.4791 42.0473 43.6825 43.0619 43.1688C43.6446 42.8739 43.6704 42.8718 43.7334 43.1127C43.782 43.2988 43.8947 43.3523 44.1712 43.3207L44.5433 43.278V40.9482C44.5433 38.7853 44.5234 38.5916 44.2659 38.2466C43.7239 37.52 42.7586 37.2025 41.7843 37.4302ZM48.958 39.1252C48.958 38.1458 49.361 37.6353 50.3121 37.4102C51.133 37.2158 52.5162 37.6225 52.5162 38.0582C52.5162 38.5269 52.1991 38.6367 51.5156 38.4046C50.499 38.0595 49.8192 38.3468 49.904 39.0859C49.9485 39.4752 50.054 39.5467 51.6288 40.2555C52.7372 40.7544 53.0429 41.4974 52.5591 42.517C52.1411 43.3977 50.6661 43.7367 49.5181 43.2156C48.9338 42.9503 48.8443 42.759 49.1254 42.3747C49.2799 42.1635 49.3302 42.1615 49.7801 42.3495C50.7885 42.7709 51.8573 42.4793 51.8573 41.7829C51.8573 41.4458 51.5411 41.212 50.5053 40.7829C49.4198 40.3333 48.958 39.8386 48.958 39.1252ZM55.5472 37.4419C55.2935 37.5113 54.9821 37.661 54.8553 37.7747C54.6457 37.9628 54.6247 37.9626 54.6247 37.7723C54.6247 37.5284 54.2302 37.371 53.9185 37.4906C53.7271 37.5641 53.7022 37.9062 53.7022 40.467V43.3606L54.1305 43.3192L54.5588 43.278L54.6247 41.2353C54.7077 38.6612 54.8671 38.3361 56.0452 38.3361C56.9673 38.3361 57.0525 38.5523 57.1286 41.084L57.1945 43.278L57.6228 43.3192L58.0511 43.3606V41.4371C58.0511 38.8112 58.2688 38.3361 59.4716 38.3361C60.3936 38.3361 60.4789 38.5522 60.5549 41.0839L60.6208 43.278L61.0491 43.3192L61.4774 43.3606L61.4769 41.013C61.4764 38.4038 61.3781 38.0369 60.5673 37.6177C59.7508 37.1955 58.4574 37.4384 57.9932 38.1011C57.88 38.2626 57.7875 38.323 57.7875 38.2355C57.7875 38.0159 56.8849 37.4579 56.4038 37.38C56.1863 37.3448 55.8009 37.3728 55.5472 37.4419ZM62.8128 38.1461C63.1372 37.7335 63.5045 37.525 64.1131 37.4077C65.0024 37.2362 66.047 37.6147 66.4296 38.247C66.6531 38.6163 66.6829 38.9291 66.6829 40.9059V43.1462L66.3318 43.1868C66.0715 43.2169 65.9582 43.1566 65.8939 42.954L65.8072 42.6806L65.397 42.9726C65.1276 43.1645 64.7354 43.2822 64.2534 43.3159C63.3399 43.3798 62.707 43.0094 62.4139 42.2394C62.2457 41.7976 62.2452 41.6622 62.4091 41.1906C62.6467 40.508 63.317 40.1062 64.4333 39.9773C65.5995 39.8426 65.8263 39.7298 65.8263 39.2848C65.8263 38.3452 64.4411 37.9662 63.5985 38.6752C62.926 39.241 62.2889 38.812 62.8128 38.1461ZM79.8115 37.4191C79.2538 37.5442 78.7613 37.9042 78.3786 38.4666C78.1186 38.8486 78.0821 39.0689 78.0821 40.2579C78.0821 41.7043 78.1929 42.1732 78.651 42.6635C79.1049 43.1495 79.7352 43.3438 80.8568 43.3438C81.7443 43.3438 81.8967 43.3101 81.9637 43.0989C82.1399 42.5437 81.9375 42.4214 80.8428 42.4214C79.941 42.4214 79.7631 42.381 79.4402 42.1034C79.078 41.7918 79.0705 41.7565 79.0705 40.3787C79.0705 39.0009 79.078 38.9656 79.4402 38.6541C79.9828 38.1874 80.7495 38.2158 81.255 38.7213C81.4669 38.9332 81.6402 39.2297 81.6402 39.3802C81.6402 39.636 81.5663 39.6539 80.5118 39.6539H79.3832L79.4246 40.0822L79.4658 40.5105L80.8303 40.5482C81.7232 40.5728 82.2583 40.5332 82.3787 40.4333C82.4828 40.3468 82.5614 40.0445 82.5598 39.7367C82.5518 38.2214 81.2243 37.1021 79.8115 37.4191ZM88.4149 38.8997C88.6434 38.2311 89.344 37.5766 89.9797 37.438C91.4438 37.1184 92.6871 38.0532 92.8126 39.5681C92.8925 40.5309 92.7822 40.5945 91.1094 40.5482L89.7449 40.5105L89.7036 40.0822L89.6622 39.6539H90.7249C91.7755 39.6539 91.7875 39.6501 91.7875 39.3185C91.7875 38.4102 90.481 38.0109 89.6891 38.6773C89.285 39.0173 89.2836 39.0228 89.2836 40.3675C89.2836 41.6465 89.3013 41.7331 89.6231 42.036C89.9087 42.3047 90.1335 42.3659 91.0398 42.4214L92.117 42.4873L92.1582 42.9156L92.1996 43.3438H91.1327C90.5298 43.3438 89.8788 43.2657 89.6356 43.1641C89.0738 42.9294 88.5355 42.2781 88.3579 41.6184C88.1851 40.9768 88.2165 39.4802 88.4149 38.8997ZM98.8595 37.443C98.2184 37.6129 97.5085 38.3169 97.33 38.9596C97.1017 39.7819 97.1614 41.489 97.4397 42.0919C97.9915 43.2873 99.2176 43.7887 100.391 43.2984C100.999 43.044 101.198 42.7682 101.017 42.4298C100.847 42.1127 100.525 42.0862 100.164 42.3597C99.7738 42.6545 99.1038 42.5993 98.6836 42.2378C98.3553 41.9554 98.3076 41.8071 98.2277 40.8211C98.1213 39.5079 98.2615 38.8373 98.7027 38.5481C99.1211 38.274 99.8771 38.2771 100.301 38.5545C100.616 38.7608 100.648 38.7585 100.894 38.5128C101.257 38.1499 101.105 37.8812 100.352 37.5575C99.6465 37.2539 99.5897 37.2495 98.8595 37.443ZM102.523 38.3978C102.826 37.8818 103.315 37.5379 103.977 37.3747C104.717 37.1929 105.789 37.6647 106.262 38.38C106.592 38.8781 106.613 39.0025 106.613 40.4557C106.613 41.9835 106.608 42.0074 106.208 42.5079C105.628 43.2346 105.053 43.5015 104.203 43.4387C103.427 43.3814 102.957 43.1019 102.495 42.4227C102.23 42.0331 102.198 41.8262 102.198 40.4697C102.198 39.0945 102.229 38.9003 102.523 38.3978ZM109.776 37.4854C109.486 37.5947 109.219 37.6929 109.183 37.7035C109.147 37.7143 108.956 37.6448 108.759 37.549C108.466 37.407 108.362 37.4061 108.196 37.5443C108.021 37.6893 107.997 38.1151 108.027 40.4959L108.063 43.278H108.524H108.985L109.051 41.139C109.115 39.0724 109.128 38.9892 109.446 38.6782C109.93 38.2058 110.729 38.1691 111.16 38.5997C111.401 38.8407 111.423 39.0405 111.425 40.9388C111.426 42.0804 111.477 43.0933 111.538 43.1897C111.601 43.2893 111.814 43.3462 112.031 43.3214L112.412 43.278L112.477 41.1468C112.54 39.1172 112.559 38.9992 112.863 38.6758C113.096 38.4281 113.316 38.3361 113.676 38.3361C114.849 38.3361 114.981 38.6363 114.981 41.3031V43.3606L115.41 43.3192L115.838 43.278L115.878 41.2353C115.924 38.8804 115.823 38.3925 115.173 37.8212C114.766 37.4636 114.613 37.4136 113.927 37.4136C113.241 37.4136 113.089 37.4634 112.68 37.8227L112.214 38.2316L111.748 37.8227C111.492 37.5977 111.181 37.4128 111.056 37.4118C110.932 37.4108 110.712 37.3822 110.567 37.3485C110.422 37.3146 110.066 37.3762 109.776 37.4854ZM118.523 37.7655C118.641 37.6633 118.915 37.5189 119.132 37.4445C119.826 37.207 120.832 37.4749 121.335 38.0309C121.789 38.5326 121.966 39.2182 121.966 40.4784C121.966 41.9962 121.666 42.7172 120.846 43.1764C120.235 43.5177 119.304 43.5641 118.803 43.278C118.622 43.1744 118.429 43.0875 118.375 43.0849C118.32 43.0824 118.276 43.5843 118.276 44.2004V45.3206H117.879H117.481L117.516 41.4L117.551 37.4795L117.857 37.4361C118.079 37.4048 118.184 37.4699 118.236 37.672C118.3 37.917 118.336 37.9285 118.523 37.7655ZM124.567 37.4538C123.971 37.6428 123.284 38.2616 123.284 38.6084C123.284 39.0426 123.899 39.0863 124.321 38.682C124.6 38.414 124.815 38.3361 125.271 38.3361C126.095 38.3361 126.446 38.6134 126.446 39.2636L126.446 39.3069C126.447 39.4842 126.447 39.6008 126.395 39.6855C126.295 39.8481 126.003 39.8926 125.149 40.0225L125.041 40.039C124.074 40.1863 123.533 40.4432 123.237 40.8945C122.969 41.3045 122.956 42.1791 123.212 42.6737C123.627 43.4771 125.026 43.7198 126.007 43.1588C126.54 42.8539 126.557 42.8523 126.623 43.1043C126.674 43.2992 126.782 43.3527 127.063 43.3207L127.435 43.278V40.9482C127.435 38.7853 127.415 38.5916 127.157 38.2466C126.597 37.4955 125.496 37.1586 124.567 37.4538ZM130.263 37.7479C130.405 37.6195 130.716 37.468 130.955 37.4115C131.562 37.2677 131.596 37.2677 132.121 37.4135C132.378 37.4852 132.764 37.7257 132.977 37.9481L133.365 38.3527L133.431 40.634C133.467 41.8887 133.478 43.0118 133.454 43.1296C133.398 43.4138 132.697 43.4186 132.588 43.1354C132.544 43.0207 132.508 42.0384 132.508 40.9522C132.508 39.8662 132.45 38.8677 132.378 38.7333C132.165 38.336 131.428 38.1566 130.905 38.3751C130.118 38.7043 130.077 38.8309 130.005 41.1562L129.939 43.278L129.51 43.3192C129.173 43.3518 129.079 43.3098 129.069 43.1215C129.012 42.0281 129.126 37.5865 129.214 37.4957C129.39 37.3145 130.005 37.5244 130.005 37.766C130.005 37.9595 130.031 37.9576 130.263 37.7479ZM67.7591 37.5015C67.7108 37.5497 67.6712 37.7573 67.6712 37.9628C67.6712 38.3016 67.7139 38.3361 68.1325 38.3361H68.5937V40.3787V42.4214H68.1325C67.6932 42.4214 67.6712 42.4434 67.6712 42.8826V43.3438H69.2609H70.8508L70.8094 42.9156C70.7698 42.5049 70.7424 42.4855 70.1422 42.4471L69.5162 42.4069V40.9047V39.4025L70.124 38.9383C70.4583 38.6831 70.9327 38.4366 71.1782 38.3905C71.5853 38.3142 71.6247 38.2657 71.6247 37.8428V37.379L71.0927 37.4503C70.8 37.4895 70.3592 37.6752 70.113 37.863C69.574 38.2742 69.5162 38.2814 69.5162 37.9375C69.5162 37.7723 69.3874 37.6217 69.1782 37.5421C68.793 37.3957 67.8908 37.3699 67.7591 37.5015ZM83.928 40.3986C83.2481 38.548 82.9664 37.6217 83.0648 37.5608C83.3473 37.3862 83.7494 37.4323 83.8631 37.6524C83.9263 37.7748 84.2956 38.7777 84.6837 39.8812C85.072 40.9847 85.4306 41.8446 85.4808 41.7921C85.5308 41.7395 85.879 40.807 86.2542 39.7198C86.6294 38.6326 86.9998 37.6661 87.0772 37.572C87.3191 37.2779 87.7685 37.4354 87.7652 37.813C87.7635 37.9965 87.2001 39.7325 86.5133 41.6709C85.4257 44.7396 85.2247 45.2054 84.9581 45.2746C84.4236 45.4132 84.337 45.1461 84.6507 44.3263C84.807 43.918 84.9353 43.4855 84.9361 43.3651C84.9368 43.2446 84.4832 41.9098 83.928 40.3986ZM134.65 37.5009C134.559 37.5375 134.485 37.6415 134.485 37.7319C134.485 37.8224 134.928 39.1177 135.47 40.6103L136.455 43.3242L136.195 44.0795C135.844 45.0983 135.856 45.3206 136.26 45.3206C136.443 45.3206 136.642 45.2124 136.718 45.0717C136.791 44.9347 137.424 43.2085 138.124 41.2356C139.151 38.339 139.361 37.6263 139.214 37.5331C138.663 37.1842 138.492 37.4397 137.662 39.844L136.901 42.0518L136.131 39.8316C135.707 38.6105 135.297 37.5677 135.22 37.5144C135.061 37.4062 134.894 37.4023 134.65 37.5009ZM105.638 40.7082C105.675 39.094 105.661 39.0156 105.276 38.6592C104.797 38.2153 103.953 38.2114 103.478 38.6512C103.066 39.0335 102.943 39.6176 103.013 40.8563C103.061 41.715 103.101 41.8251 103.491 42.1732C104.058 42.6803 104.686 42.6867 105.221 42.1908C105.591 41.8485 105.614 41.766 105.638 40.7082ZM121.043 40.4507C121.043 39.3089 120.848 38.716 120.392 38.4718C119.926 38.2225 119.134 38.3099 118.765 38.6512C118.353 39.0335 118.229 39.6176 118.299 40.8563C118.348 41.715 118.388 41.8251 118.777 42.1732C119.446 42.7703 120.382 42.6433 120.824 41.8956C120.98 41.6309 121.043 41.2156 121.043 40.4507ZM43.6869 40.9101C43.6869 41.2993 43.3201 41.9844 42.9602 42.2675C42.519 42.6146 41.5706 42.6583 41.2582 42.3461C40.9915 42.0793 40.9918 41.4487 41.2586 41.2272C41.4586 41.0612 42.7794 40.7477 43.3904 40.7211C43.5745 40.7131 43.6869 40.7848 43.6869 40.9101ZM64.0032 42.4885C64.7413 42.6727 65.8246 41.7908 65.8259 41.0047C65.8264 40.7473 65.7613 40.71 65.3322 40.7227C63.9944 40.7617 63.1908 41.1498 63.1908 41.7567C63.1908 42.0492 63.554 42.3764 64.0032 42.4885ZM126.578 41.0047C126.577 41.6369 125.811 42.497 125.195 42.5576C124.351 42.6405 123.943 42.385 123.943 41.7735C123.943 41.2579 124.282 41.0117 125.195 40.8662C126.483 40.6608 126.578 40.6702 126.578 41.0047Z" fill="#20273B"/>
<path fill-rule="evenodd" clip-rule="evenodd" d="M59.5679 2.29351C60.6255 1.23582 61.4545 0.747691 62.8217 0.377513C63.9199 0.0800788 65.5279 0.0981331 66.4206 0.417839L66.9477 0.606684L66.9835 3.04994L67.0193 5.4932L66.1562 5.22976C65.2524 4.95381 64.3874 4.98082 63.9727 5.29776C63.3722 5.7565 63.2619 6.16529 63.2114 8.11739L63.1626 10.0028H65.8129H68.4632V8.03252C68.4632 5.78641 68.5954 4.99361 69.1562 3.8749C69.673 2.84436 71.0616 1.47606 72.1356 0.939304C73.7888 0.113288 75.9356 -0.0932158 77.2597 0.446567L77.8198 0.674815V3.08315V5.49135L76.9595 5.22884C75.3694 4.74348 74.4179 5.15886 74.1388 6.46009C74.0615 6.82117 73.9981 7.76592 73.9981 8.55965V10.0028H75.9089H77.8198V12.3055V14.608L75.9419 14.6446L74.064 14.6811L74.0296 20.183L73.9952 25.685H71.2306H68.4661L68.4317 20.183L68.3973 14.6811H65.8275H63.2578L63.2234 20.183L63.189 25.685H60.423H57.657V20.3586C57.657 17.429 57.621 14.9383 57.577 14.8237C57.5148 14.6615 57.2954 14.6152 56.5886 14.6152H55.6803V12.309V10.0028H56.6686H57.657L57.6602 7.92723C57.662 6.78559 57.7234 5.59164 57.7967 5.27378C58.0415 4.21161 58.6155 3.2459 59.5679 2.29351ZM125.415 6.405C123.809 4.86591 124.147 2.34516 126.089 1.37748C127.626 0.611691 129.538 1.18996 130.28 2.64471C131.088 4.2265 130.486 6.1164 128.929 6.89234C127.718 7.49603 126.356 7.30732 125.415 6.405ZM39.7936 3.24893C39.679 3.5208 39.3844 4.27684 39.1385 4.92916C38.8925 5.58149 37.0075 10.4876 34.9496 15.8317C32.8916 21.1759 31.2383 25.579 31.276 25.6166C31.3136 25.6543 32.7479 25.685 34.4632 25.685H37.5821L38.3471 23.7064L39.1121 21.7278L43.2005 21.7626L47.2888 21.7974L48.0139 23.7412L48.7388 25.685H51.9461C53.71 25.685 55.1531 25.6607 55.1531 25.6312C55.1531 25.6016 53.7661 21.9101 52.0708 17.4277C50.3757 12.9454 48.4373 7.81034 47.7635 6.01637L46.5383 2.75475H43.27H40.0016L39.7936 3.24893ZM114.06 9.99082V7.69054V5.3904H116.828H119.595V7.69661V10.0028H121.176H122.758V12.3048V14.6069L121.209 14.6439L119.661 14.6811L119.627 20.183L119.592 25.685H116.828H114.063L114.029 20.183L113.994 14.6811L113.102 14.6421L112.209 14.6031L112.245 12.3359L112.281 10.0687L113.171 10.0297L114.06 9.99082ZM86.1221 9.56186C82.321 10.0667 79.6936 12.3289 78.9319 15.7524C78.6067 17.2146 78.7196 19.6214 79.1707 20.8409C80.1388 23.4573 82.1415 25.1957 85.002 25.9024C86.2936 26.2215 89.1721 26.2273 90.3392 25.913C93.034 25.1872 95.0013 23.4144 95.6736 21.1055L95.7601 20.809H93.0785H90.3972L89.9448 21.2887C89.3204 21.9506 88.7429 22.1648 87.5932 22.1604C86.7916 22.1575 86.4994 22.0919 85.8829 21.7767C85.2506 21.4533 85.0859 21.2884 84.7818 20.6745C84.5851 20.2773 84.3859 19.7005 84.3391 19.3923L84.254 18.8323H90.064C94.6154 18.8323 95.8776 18.7966 95.8904 18.6675C95.9632 17.9373 95.8182 16.284 95.6101 15.4704C95.2202 13.9454 94.6103 12.828 93.6338 11.8495C92.6535 10.8673 91.6175 10.2706 90.2195 9.88328C89.2517 9.6151 87.0325 9.44102 86.1221 9.56186ZM97.5635 17.0279C98.0632 13.071 100.83 10.2366 104.803 9.61023C106.361 9.36472 108.82 9.73068 109.678 10.3358C109.967 10.539 109.975 10.6091 109.975 12.8546C109.975 14.125 109.93 15.1441 109.876 15.1194C109.822 15.0948 109.392 14.8743 108.922 14.6296C106.229 13.2275 103.332 14.8885 103.329 17.8361C103.326 20.7896 106.26 22.4981 108.991 21.1339C109.422 20.9189 109.819 20.7234 109.874 20.6992C109.93 20.675 109.975 21.7001 109.975 22.9771V25.299L109.349 25.569C109.005 25.7175 108.288 25.923 107.756 26.0256C101.963 27.143 96.8553 22.6342 97.5635 17.0279ZM158.01 9.56054C156.32 9.81475 154.855 10.5564 153.653 11.7673C152.025 13.4069 151.35 15.0078 151.255 17.4529C151.181 19.3489 151.358 20.2058 152.165 21.8633C153.657 24.9258 157.124 26.717 160.34 26.0867C161.453 25.8687 162.463 25.3745 163.159 24.7079L163.731 24.1597L163.769 24.8894L163.808 25.6191L166.61 25.6547L169.411 25.6903L169.377 17.8795L169.343 10.0687H166.576H163.808L163.768 10.6998L163.727 11.331L163.241 10.948C162.637 10.4731 161.784 10.0355 161.005 9.80105C160.354 9.60496 158.633 9.46685 158.01 9.56054ZM124.735 17.9318C124.735 13.6674 124.774 10.1389 124.822 10.0907C124.871 10.0423 126.116 10.0028 127.59 10.0028H130.269V17.8439V25.685H127.502H124.735V17.9318ZM131.941 10.1016C131.91 10.1559 132.947 12.2168 134.246 14.6811C135.545 17.1454 137.087 20.0809 137.673 21.2044C138.26 22.3278 139.034 23.7972 139.394 24.4697L140.048 25.6922L141.846 25.6557L143.644 25.6191L147.628 17.9757C149.819 13.7718 151.613 10.257 151.615 10.1652C151.617 10.0338 150.961 10.0056 148.554 10.0334L145.49 10.0687L145.232 10.5958C145.09 10.8858 144.289 12.5974 143.452 14.3995C142.615 16.2016 141.878 17.6842 141.814 17.6941C141.75 17.7039 140.919 16.0516 139.969 14.0222C139.018 11.9927 138.193 10.2582 138.135 10.1675C138.055 10.0437 137.282 10.0028 135.014 10.0028C133.355 10.0028 131.973 10.0474 131.941 10.1016ZM45.5326 16.9543C45.5326 16.8637 45.0508 15.3368 44.4619 13.5609C43.8729 11.7851 43.3471 10.2837 43.2934 10.2245L43.2876 10.2181C43.2699 10.1985 43.2549 10.1818 43.2381 10.1797C43.1426 10.1678 42.9887 10.6261 41.9616 13.6849L41.9037 13.8574L40.8085 17.119H43.1705C44.9719 17.119 45.5326 17.0799 45.5326 16.9543ZM90.5312 15.0434C90.2679 14.413 89.7537 13.8721 89.0964 13.5341C88.531 13.2434 87.3393 13.1167 86.7148 13.2809C85.7463 13.5357 84.9693 14.1867 84.6115 15.0434L84.405 15.5376H87.5714H90.7377L90.5312 15.0434ZM162.089 14.7596C163.298 15.3822 163.919 16.4498 163.921 17.9097C163.923 19.3078 163.307 20.345 162.096 20.9818C161.333 21.3836 159.554 21.3789 158.781 20.9731C158.059 20.5933 157.355 19.7514 157.151 19.0227C156.898 18.1192 157.042 16.7383 157.464 16.0173C158.331 14.5386 160.51 13.9461 162.089 14.7596Z" fill="#3C4668"/>
</svg>
