<svg width="41" height="40" viewBox="0 0 41 40" fill="none" xmlns="http://www.w3.org/2000/svg">
<path d="M28.7458 33.3333H37.0792V30C37.0792 27.2386 34.8406 25 32.0792 25C30.4865 25 29.0678 25.7447 28.1521 26.9048M28.7458 33.3333H12.0792M28.7458 33.3333V30C28.7458 28.9063 28.5351 27.8617 28.1521 26.9048M12.0792 33.3333H3.74585V30C3.74585 27.2386 5.98443 25 8.74585 25C10.3385 25 11.7573 25.7447 12.6729 26.9048M12.0792 33.3333V30C12.0792 28.9063 12.2899 27.8617 12.6729 26.9048M12.6729 26.9048C13.9017 23.835 16.9039 21.6667 20.4125 21.6667C23.9212 21.6667 26.9233 23.835 28.1521 26.9048M25.4125 11.6667C25.4125 14.4281 23.1739 16.6667 20.4125 16.6667C17.6511 16.6667 15.4125 14.4281 15.4125 11.6667C15.4125 8.90523 17.6511 6.66666 20.4125 6.66666C23.1739 6.66666 25.4125 8.90523 25.4125 11.6667ZM35.4125 16.6667C35.4125 18.5076 33.9201 20 32.0792 20C30.2382 20 28.7458 18.5076 28.7458 16.6667C28.7458 14.8257 30.2382 13.3333 32.0792 13.3333C33.9201 13.3333 35.4125 14.8257 35.4125 16.6667ZM12.0792 16.6667C12.0792 18.5076 10.5868 20 8.74585 20C6.9049 20 5.41252 18.5076 5.41252 16.6667C5.41252 14.8257 6.9049 13.3333 8.74585 13.3333C10.5868 13.3333 12.0792 14.8257 12.0792 16.6667Z" stroke="white" stroke-width="3.33333" stroke-linecap="round" stroke-linejoin="round"/>
</svg>
