<svg width="32" height="38" viewBox="0 0 32 38" fill="none" xmlns="http://www.w3.org/2000/svg">
<path d="M18.3332 17.3333H8.33317M21.6665 10.6666H8.33317M28.3332 15.6666V10.3333C28.3332 7.53302 28.3332 6.13289 27.7882 5.06333C27.3088 4.12252 26.5439 3.35762 25.6031 2.87825C24.5336 2.33328 23.1334 2.33328 20.3332 2.33328H9.6665C6.86624 2.33328 5.46611 2.33328 4.39655 2.87825C3.45574 3.35762 2.69084 4.12252 2.21147 5.06333C1.6665 6.13289 1.6665 7.53302 1.6665 10.3333V27.6666C1.6665 30.4669 1.6665 31.867 2.21147 32.9366C2.69084 33.8774 3.45574 34.6423 4.39655 35.1216C5.46611 35.6666 6.86624 35.6666 9.6665 35.6666H15.8332M24.9998 34C24.9998 34 29.9998 31.6168 29.9998 28.042V23.8714L26.3538 22.5686C25.4778 22.2548 24.5198 22.2548 23.6438 22.5686L19.9998 23.8714V28.042C19.9998 31.6168 24.9998 34 24.9998 34Z" stroke="white" stroke-width="3.33333" stroke-linecap="round" stroke-linejoin="round"/>
</svg>
