<svg width="23" height="21" viewBox="0 0 23 21" fill="none" xmlns="http://www.w3.org/2000/svg">
  <path d="M4.6 5.1C4.6 4.49 4.84232 3.90499 5.27365 3.47365C5.70499 3.04232 6.29 2.8 6.9 2.8C7.51 2.8 8.09501 3.04232 8.52635 3.47365C8.95768 3.90499 9.2 4.49 9.2 5.1C9.2 5.71 8.95768 6.29501 8.52635 6.72635C8.09501 7.15768 7.51 7.4 6.9 7.4C6.29 7.4 5.70499 7.15768 5.27365 6.72635C4.84232 6.29501 4.6 5.71 4.6 5.1ZM6.9 0.5C5.68 0.5 4.50998 0.984641 3.64731 1.84731C2.78464 2.70998 2.3 3.88 2.3 5.1C2.3 6.32 2.78464 7.49002 3.64731 8.35269C4.50998 9.21536 5.68 9.7 6.9 9.7C8.12 9.7 9.29002 9.21536 10.1527 8.35269C11.0154 7.49002 11.5 6.32 11.5 5.1C11.5 3.88 11.0154 2.70998 10.1527 1.84731C9.29002 0.984641 8.12 0.5 6.9 0.5ZM16.1 6.25C16.1 5.945 16.2212 5.65249 16.4368 5.43683C16.6525 5.22116 16.945 5.1 17.25 5.1C17.555 5.1 17.8475 5.22116 18.0632 5.43683C18.2788 5.65249 18.4 5.945 18.4 6.25C18.4 6.555 18.2788 6.84751 18.0632 7.06317C17.8475 7.27884 17.555 7.4 17.25 7.4C16.945 7.4 16.6525 7.27884 16.4368 7.06317C16.2212 6.84751 16.1 6.555 16.1 6.25ZM17.25 2.8C16.335 2.8 15.4575 3.16348 14.8105 3.81048C14.1635 4.45748 13.8 5.335 13.8 6.25C13.8 7.165 14.1635 8.04252 14.8105 8.68952C15.4575 9.33652 16.335 9.7 17.25 9.7C18.165 9.7 19.0425 9.33652 19.6895 8.68952C20.3365 8.04252 20.7 7.165 20.7 6.25C20.7 5.335 20.3365 4.45748 19.6895 3.81048C19.0425 3.16348 18.165 2.8 17.25 2.8ZM0 14.875C0 13.288 1.288 12 2.875 12H10.925C12.512 12 13.8 13.288 13.8 14.875V14.9854C13.7984 15.0692 13.7923 15.1529 13.7816 15.2361C13.7603 15.4375 13.7257 15.6373 13.6781 15.8341C13.5228 16.4702 13.2455 17.0701 12.8616 17.6005C11.8864 18.9414 10.0694 20.05 6.9 20.05C3.7306 20.05 1.9136 18.9414 0.9384 17.6005C0.435918 16.9033 0.119299 16.0896 0.0184 15.2361L0 14.9831V14.875ZM2.3 14.9348L2.3046 14.9969C2.31073 15.0628 2.32837 15.1617 2.3575 15.2936C2.4196 15.5535 2.5461 15.9008 2.7991 16.2481C3.2591 16.8829 4.3171 17.75 6.9 17.75C9.4829 17.75 10.5386 16.8829 11.0009 16.2481C11.2774 15.8614 11.4493 15.4098 11.5 14.9371V14.875C11.5 14.7225 11.4394 14.5762 11.3316 14.4684C11.2238 14.3606 11.0775 14.3 10.925 14.3H2.875C2.7225 14.3 2.57625 14.3606 2.46841 14.4684C2.36058 14.5762 2.3 14.7225 2.3 14.875V14.9348ZM17.2477 18.9C16.4335 18.8969 15.7182 18.8203 15.1018 18.67C15.5207 18.0053 15.819 17.2718 15.9827 16.5034C16.3384 16.5647 16.7601 16.5969 17.2477 16.6C19.2947 16.6 20.0721 15.9744 20.3757 15.5949C20.5421 15.3834 20.6528 15.1335 20.6977 14.8681V14.8566C20.6929 14.7073 20.6302 14.5657 20.5229 14.4619C20.4156 14.358 20.2721 14.2999 20.1227 14.3H16.0678C15.9769 13.477 15.6889 12.6881 15.2283 12H20.125C21.712 12 23 13.288 23 14.875V14.9141C22.998 14.9856 22.9926 15.057 22.9839 15.128C22.8929 15.8241 22.6129 16.482 22.1743 17.0301C21.3256 18.0881 19.8053 18.9 17.25 18.9" fill="#E8255C"/>
</svg>
