<svg width="15" height="15" viewBox="0 0 15 15" fill="none" xmlns="http://www.w3.org/2000/svg">
<path fill-rule="evenodd" clip-rule="evenodd" d="M5.53706 7.63785C5.55044 7.64974 5.56308 7.6609 5.57572 7.67428C6.37801 8.49665 6.82043 9.58595 6.82043 10.7422V13.7045L8.48301 12.7988C8.61387 12.7275 8.69492 12.5877 8.69492 12.4338V10.7333C8.69492 9.58149 9.13287 8.4959 9.92773 7.678L13.5243 3.85242C13.757 3.60482 13.8849 3.27989 13.8849 2.93711V2.24114C13.8849 1.89614 13.6128 1.61582 13.2797 1.61582H2.2223C1.88845 1.61582 1.6163 1.89614 1.6163 2.24114V2.93711C1.6163 3.27989 1.7442 3.60482 1.97693 3.85168L5.53706 7.63785ZM6.55795 15.0005C6.40776 15.0005 6.25904 14.9603 6.12372 14.88C5.86199 14.7239 5.7051 14.448 5.7051 14.1417V10.7422C5.7051 9.89824 5.39058 9.10339 4.8173 8.49442C4.8002 8.48029 4.78309 8.46468 4.76822 8.44832L1.16497 4.61679C0.736683 4.16174 0.500977 3.56467 0.500977 2.93711V2.24114C0.500977 1.28122 1.27353 0.500488 2.2223 0.500488H13.2797C14.2277 0.500488 15.0002 1.28122 15.0002 2.24114V2.93711C15.0002 3.56392 14.7645 4.16025 14.3377 4.61605L10.7337 8.44832C10.1367 9.06398 9.81025 9.87371 9.81025 10.7333V12.4338C9.81025 12.9959 9.50614 13.5104 9.01688 13.7781L6.96393 14.8964C6.83604 14.9656 6.697 15.0005 6.55795 15.0005Z" fill="#1C1C1C"/>
</svg>
