<svg width="101" height="34" viewBox="0 0 101 34" fill="none" xmlns="http://www.w3.org/2000/svg">
<path d="M100.717 11.1115V9.2424L99.9451 11.1115H99.8304L99.0609 9.2424V11.1115H98.7783V8.84229H99.184L99.8863 10.5491L100.594 8.84229H101V11.1115H100.717Z" fill="#EFF2FF"/>
<path d="M97.3945 11.1115V9.09411H96.6782V8.84229H98.399V9.09411H97.6771V11.1115H97.3945Z" fill="#EFF2FF"/>
<path fill-rule="evenodd" clip-rule="evenodd" d="M53.8583 22.3198L44.7675 13.3606H48.3742C52.0564 13.3522 55.0391 10.3639 55.0391 6.68168C55.0391 2.99668 52.0564 0.00839404 48.3742 0H38.1922C33.1277 0.00559598 29.023 4.1103 29.0174 9.17752V15.8645C28.8649 19.049 26.238 21.584 23.0171 21.5894C21.05 21.5866 19.458 19.9946 19.4552 18.0275V8.71572H16.1451V18.0275C16.1479 21.8217 19.2229 24.8967 23.0171 24.8995C25.2133 24.8967 27.3369 24.1182 29.0174 22.7033V24.6917C28.9072 26.9568 27.5002 28.9683 25.3898 29.8436C23.1877 30.7558 20.6555 30.2521 18.9711 28.5677L18.6465 28.2431L16.3046 30.5851L16.6292 30.9097C19.2621 33.5398 23.2185 34.326 26.6545 32.9018C30.0933 31.4777 32.3345 28.1256 32.3345 24.4042V9.1774H32.3275C32.3332 5.94014 34.9549 3.31566 38.1922 3.31286H48.3742C50.2293 3.31846 51.7318 4.82379 51.7318 6.68168C51.7318 8.53677 50.2293 10.0421 48.3742 10.0477H39.0735V24.8325H42.3864V15.6633L51.6926 24.8353H53.8583V22.3198ZM0 1.19776H3.86407V21.5198H14.9023V24.8327H0V1.19776ZM75.1536 16.3685L75.1704 16.3797C76.4603 17.3478 77.1122 18.5901 77.1122 20.0731C77.1122 23.1537 74.5464 25.2242 70.7243 25.2242C67.9907 25.2242 65.8894 24.1582 64.4763 22.0569L64.2217 21.6763L66.8407 19.8856L67.1009 20.2745C68.0186 21.6707 69.205 22.3479 70.7243 22.3479C72.5934 22.3479 73.8217 21.528 73.8469 20.2577C73.8693 19.27 73.2985 18.6461 70.1088 17.9801C66.6896 17.317 64.952 15.7529 64.952 13.327C64.952 10.3052 67.4031 8.27378 71.0489 8.27378C73.7378 8.27378 75.5873 9.28107 76.547 11.2705L76.7205 11.6342L74.0288 13.411L73.7966 12.9465C73.1922 11.7377 72.2521 11.1474 70.9174 11.1474C69.2778 11.1474 68.2173 11.8637 68.2173 12.9689C68.2173 13.7607 68.4551 14.463 71.3707 15.059C73.1922 15.4591 74.4653 15.8984 75.1536 16.3685ZM61.4048 8.66538H58.3325V24.8324H61.4048V8.66538ZM94.6751 16.6846C94.6751 14.0629 93.9392 11.9812 92.4898 10.4982C91.0488 9.02086 89.163 8.27378 86.8826 8.27378C84.591 8.27378 82.6492 9.08801 81.1103 10.6969C79.5546 12.3197 78.7655 14.3567 78.7655 16.749C78.7655 19.1329 79.5658 21.1587 81.141 22.7676C82.7023 24.3988 84.7113 25.2242 87.112 25.2242C89.8849 25.2242 92.2072 24.0798 94.0175 21.8274L94.3029 21.4721L91.8855 19.4827L91.6085 19.9248C90.6208 21.4469 88.9251 22.3618 87.112 22.3479C85.8081 22.3618 84.5574 21.8414 83.6453 20.9097C82.7723 20.0842 82.2043 18.9846 82.0336 17.7955H94.6751V16.6846ZM82.07 15.115C82.2043 14.1077 82.6967 13.2375 83.5697 12.468C84.4819 11.6258 85.6738 11.1558 86.9162 11.1474C89.4847 11.1474 91.1999 12.6891 91.3902 15.115H82.07Z" fill="#EFF2FF"/>
<path d="M60.6771 1.43803C59.9356 1.11346 59.071 1.26456 58.4806 1.82136C58.0805 2.1907 57.8511 2.71114 57.8511 3.25955C57.8511 3.80516 58.0777 4.3284 58.4806 4.69773C58.8528 5.05868 59.3536 5.26014 59.874 5.25734C60.151 5.25734 60.4281 5.20138 60.6855 5.09226C61.4214 4.78168 61.8998 4.05978 61.897 3.26235C61.897 2.46211 61.413 1.74302 60.6771 1.43803Z" fill="#EFF2FF"/>
</svg>
