<svg width="24" height="24" viewBox="0 0 24 24" fill="none" xmlns="http://www.w3.org/2000/svg">
  <path d="M12.0001 7.42855V22.2857M12.0001 7.42855C12.0001 7.42855 12.0001 5.72252 12.0001 5.14284C12.0001 3.88047 13.0234 2.85712 14.2858 2.85712C15.5481 2.85712 16.5715 3.88047 16.5715 5.14284C16.5715 6.4052 15.5481 7.42855 14.2858 7.42855C13.6031 7.42855 12.0001 7.42855 12.0001 7.42855ZM12.0001 7.42855C12.0001 7.42855 12.0001 5.21474 12.0001 4.57141C12.0001 2.99345 10.7209 1.71426 9.14293 1.71426C7.56497 1.71426 6.28578 2.99345 6.28578 4.57141C6.28578 6.14936 7.56497 7.42855 9.14293 7.42855C10.0776 7.42855 12.0001 7.42855 12.0001 7.42855ZM4.00007 12H20.0001M4.00007 12C2.7377 12 1.71436 10.9766 1.71436 9.71426C1.71436 8.4519 2.7377 7.42855 4.00007 7.42855H20.0001C21.2624 7.42855 22.2858 8.4519 22.2858 9.71426C22.2858 10.9766 21.2624 12 20.0001 12M4.00007 12L4.00007 20C4.00007 21.2623 5.02342 22.2857 6.28578 22.2857H17.7144C18.9767 22.2857 20.0001 21.2623 20.0001 20V12" stroke="#E31B54" stroke-width="2.1" stroke-linecap="round" stroke-linejoin="round"/>
</svg>
