<svg width="23" height="25" viewBox="0 0 23 25" fill="none" xmlns="http://www.w3.org/2000/svg">
<path d="M11.2247 0C9.54131 0 8.16579 1.3766 8.16579 3.0612C8.16579 4.57123 9.27349 5.82917 10.7149 6.07453V8.70529C9.69683 8.84195 8.80747 9.38719 8.20565 10.1641L5.91938 8.84067C6.42672 7.46908 5.89535 5.88056 4.58906 5.12568C3.13132 4.28329 1.24865 4.79078 0.406945 6.24977C-0.434761 7.70877 0.0724039 9.58485 1.53013 10.4271C2.83731 11.1823 4.47658 10.8531 5.40953 9.72561L7.68779 11.041C7.50255 11.4898 7.40094 11.9855 7.40094 12.4998C7.40094 13.014 7.50237 13.502 7.68779 13.9508L5.40953 15.2661C4.47622 14.1412 2.83608 13.81 1.53013 14.5647C0.0723948 15.4069 -0.434761 17.291 0.406945 18.75C1.24865 20.209 3.13114 20.7085 4.58906 19.8661C5.89537 19.1114 6.42672 17.5227 5.91938 16.1511L8.20565 14.8357C8.80765 15.6126 9.69683 16.1499 10.7149 16.2867V18.9175C9.27331 19.1628 8.16579 20.4288 8.16579 21.9388C8.16579 23.6234 9.54131 25 11.2247 25C12.908 25 14.2836 23.6234 14.2836 21.9388C14.2836 20.4286 13.176 19.1627 11.7345 18.9175V16.2867C12.7525 16.15 13.6419 15.6126 14.2437 14.8357L16.53 16.1511C16.0226 17.5227 16.554 19.1112 17.8603 19.8661C19.318 20.7085 21.2007 20.209 22.0424 18.75C22.8841 17.291 22.3769 15.4071 20.9192 14.5647C19.6133 13.8102 17.9733 14.1414 17.0398 15.2661L14.7616 13.9508C14.9468 13.502 15.0484 13.0142 15.0484 12.4998C15.0484 11.9855 14.947 11.4896 14.7616 11.041L17.0398 9.72561C17.9728 10.8531 19.612 11.1824 20.9192 10.4271C22.377 9.58485 22.8841 7.70874 22.0424 6.24977C21.2007 4.79081 19.3182 4.28347 17.8603 5.12568C16.554 5.88033 16.0226 7.46903 16.53 8.84067L14.2437 10.1641C13.6417 9.38714 12.7525 8.84195 11.7345 8.70529V6.07453C13.1759 5.82914 14.2836 4.57123 14.2836 3.0612C14.2836 1.3766 12.908 0 11.2247 0ZM11.2247 1.02032C12.3569 1.02032 13.264 1.92804 13.264 3.0612C13.264 4.19436 12.357 5.10208 11.2247 5.10208C10.0924 5.10208 9.18539 4.19436 9.18539 3.0612C9.18539 1.92804 10.0924 1.02032 11.2247 1.02032ZM4.07903 6.0108C5.05968 6.5774 5.38603 7.81962 4.81983 8.80099C4.25364 9.78237 3.02026 10.1089 2.03979 9.5423C1.05915 8.9757 0.724778 7.74149 1.29097 6.76012C2.01273 5.79282 3.11724 5.46715 4.07903 6.0108ZM21.1578 6.76012C21.724 7.74149 21.3896 8.97574 20.409 9.5423C19.4283 10.1089 18.1949 9.78235 17.6289 8.80099C17.0627 7.81962 17.3892 6.5774 18.3697 6.0108C19.3726 5.4595 20.6713 5.95546 21.1578 6.76012ZM11.2242 9.69372C12.7789 9.69372 14.0281 10.944 14.0281 12.5C14.0281 13.0692 13.8623 13.5974 13.574 14.0385C12.8384 13.2226 11.923 13.0101 11.224 13.0101C10.5922 13.0101 9.62732 13.2247 8.8821 14.0385C8.5924 13.5966 8.42013 13.0706 8.42013 12.5C8.42013 10.9442 9.66951 9.69372 11.224 9.69372H11.2242ZM9.94975 11.4794C9.94975 12.1839 10.5204 12.7549 11.2242 12.7549C11.9282 12.7549 12.4987 12.1839 12.4987 11.4794C12.4987 10.7749 11.928 10.2039 11.2242 10.2039C10.5026 10.2064 9.98109 10.8121 9.94975 11.4794ZM4.81988 16.1988C5.38612 17.1802 5.05957 18.4144 4.07908 18.981C3.09843 19.5476 1.85726 19.2209 1.29102 18.2397C0.724778 17.2583 1.05916 16.0161 2.03984 15.4495C3.03921 14.8973 4.335 15.3967 4.81988 16.1988ZM20.409 15.4495C21.3897 16.0161 21.7238 17.2583 21.1578 18.2397C20.5916 19.2211 19.3504 19.5476 18.3698 18.981C17.3891 18.4144 17.0628 17.1802 17.629 16.1988C18.35 15.2322 19.451 14.9073 20.409 15.4495ZM11.2244 19.8978C12.3566 19.8978 13.2636 20.8055 13.2636 21.9387C13.2636 23.0718 12.3567 23.9795 11.2244 23.9795C10.0921 23.9795 9.18507 23.0718 9.18507 21.9387C9.18507 20.8055 10.0921 19.8978 11.2244 19.8978Z" fill="black"/>
</svg>
