<svg width="24" height="22" viewBox="0 0 24 22" fill="none" xmlns="http://www.w3.org/2000/svg">
<path d="M11.9998 8.94614e-05C9.81588 8.94614e-05 8.0311 1.79713 8.0311 3.996C8.0311 5.29757 8.6596 6.41248 9.62261 7.1074C8.53216 7.5294 7.53493 8.24344 6.77019 9.24068C6.55651 9.51574 6.61068 9.96191 6.88388 10.1772C7.15708 10.3925 7.60023 10.3379 7.81392 10.0628C10.0627 7.17181 14.2483 7.40312 16.278 10.1772C16.4817 10.463 16.9271 10.5336 17.2083 10.3248C17.4894 10.1161 17.5535 9.66659 17.3424 9.38618C16.5496 8.34895 15.5214 7.54706 14.3865 7.0969C15.3431 6.40144 15.9678 5.29218 15.9678 3.99591C15.9678 1.79686 14.1831 0 11.9991 0L11.9998 8.94614e-05ZM11.9998 1.33214C13.4688 1.33214 14.6455 2.51699 14.6455 3.996C14.6455 5.47524 13.4688 6.65985 11.9998 6.65985C10.5309 6.65985 9.3541 5.475 9.3541 3.996C9.3541 2.51675 10.5309 1.33214 11.9998 1.33214ZM6.39823 10.5938C6.08713 10.5938 5.79581 10.8465 5.74718 11.1558C5.38098 12.2104 5.29565 13.2923 5.44747 14.3297C4.36327 13.8691 3.09217 13.9049 1.98518 14.5483C0.093741 15.6479 -0.564039 18.0966 0.528075 20.0011C1.62019 21.9055 4.06245 22.5677 5.95388 21.4684C7.05713 20.8272 7.71306 19.7267 7.85556 18.5444C9.066 19.4888 10.4959 19.9811 11.9172 20.0013C12.2879 20.0515 12.6638 19.723 12.6669 19.3463C12.6699 18.9697 12.2993 18.6353 11.9277 18.6797C7.89693 18.8553 5.76061 14.2314 6.98761 11.5829C7.21105 11.1765 6.85973 10.5871 6.39843 10.5943L6.39823 10.5938ZM17.5706 10.6459C17.1476 10.6752 16.8393 11.193 17.0125 11.5824C18.1137 14.8659 16.112 17.6805 13.5502 18.4507C13.201 18.5372 12.9699 18.9496 13.0769 19.2954C13.1838 19.6411 13.6067 19.8485 13.943 19.7201C14.7684 19.4683 15.5061 19.057 16.1443 18.5443C16.2797 19.7255 16.934 20.822 18.046 21.4684C19.9375 22.5679 22.3798 21.9055 23.4718 20.001C24.5639 18.0966 23.9059 15.6478 22.0147 14.5483C20.9084 13.9051 19.6364 13.8786 18.5524 14.3506C18.6573 13.1502 18.5831 12.1285 18.263 11.1351C18.1827 10.8379 17.8754 10.6208 17.5705 10.6459L17.5706 10.6459ZM6.25419 16.6713C6.98869 17.9522 6.56529 19.574 5.29302 20.3135C4.02073 21.0532 2.41036 20.6163 1.67585 19.3354C0.941349 18.0544 1.37522 16.4432 2.64726 15.7035C3.94324 14.9839 5.59986 15.5141 6.25419 16.6713V16.6713ZM21.3538 15.7036C22.6261 16.4432 23.0597 18.0543 22.3252 19.3354C21.5907 20.6163 19.9801 21.0532 18.708 20.3136C17.1753 19.2971 16.9807 17.9222 17.778 16.6297C18.7492 15.1219 20.2893 15.1337 21.354 15.7036H21.3538Z" fill="black"/>
</svg>
