<svg width="20" height="21" viewBox="0 0 20 21" fill="none" xmlns="http://www.w3.org/2000/svg">
  <path fill-rule="evenodd" clip-rule="evenodd" d="M9.99998 0.742432C4.61106 0.742432 0.242432 5.11102 0.242432 10.5C0.242432 15.8889 4.61106 20.2576 9.99998 20.2576C15.389 20.2576 19.7576 15.889 19.7576 10.5C19.7576 5.11102 15.389 0.742432 9.99998 0.742432ZM9.99998 18.3061C5.69575 18.3061 2.19396 14.8043 2.19396 10.5C2.19396 6.19571 5.69571 2.69396 9.99998 2.69396C14.3043 2.69396 17.8061 6.19571 17.8061 10.5C17.8061 14.8043 14.3043 18.3061 9.99998 18.3061ZM11.2218 6.59697C11.2218 7.30446 10.7067 7.81668 10.0099 7.81668C9.28491 7.81668 8.78242 7.30441 8.78242 6.58343C8.78242 5.89049 9.29849 5.37731 10.0099 5.37731C10.7067 5.37731 11.2218 5.89049 11.2218 6.59697ZM9.02639 9.52424H10.9779V15.3788H9.02639V9.52424Z" fill="#E8255C"/>
</svg>
