<svg width="22" height="17" viewBox="0 0 22 17" fill="none" xmlns="http://www.w3.org/2000/svg">
<path d="M7.04022 11.5271L5.89996 11.347L5.60846 8.21776C5.52273 6.82886 4.32248 5.76581 2.93358 5.85152C1.54468 5.93723 0.481626 7.1375 0.56734 8.53498L0.87598 11.8186C0.935992 12.8131 1.57043 13.6704 2.49635 14.0219C2.74498 14.1419 3.01075 14.202 3.2851 14.1848L5.67705 14.2963C5.9171 14.3048 6.11428 14.1248 6.13145 13.8847C6.14002 13.6447 5.95998 13.4475 5.71993 13.4304L3.30223 13.3189H3.25936C3.12218 13.3275 2.98501 13.3017 2.865 13.2332L2.81356 13.2074C2.19628 12.976 1.7676 12.4101 1.73334 11.7328L1.43328 8.46638C1.38184 7.54904 2.07627 6.76887 2.99361 6.70883C3.91094 6.65739 4.69111 7.35182 4.75115 8.27774L5.05979 11.5613V11.7071C5.05122 11.9214 5.21411 12.11 5.42844 12.1443L6.91164 12.3758C7.09168 12.4015 7.22028 12.5558 7.22028 12.7359V16.371C7.22028 16.611 7.41746 16.7996 7.64897 16.7996C7.88047 16.7996 8.07765 16.6025 8.07765 16.371V12.7444C8.08623 12.1357 7.64897 11.6213 7.04027 11.527L7.04022 11.5271Z" fill="#1C1C1C"/>
<path d="M3.24188 4.8568C4.48502 4.8568 5.50524 3.84517 5.50524 2.59344C5.50524 1.34171 4.4936 0.330078 3.24188 0.330078C1.99873 0.330078 0.978516 1.34171 0.978516 2.59344C0.978516 3.84517 1.99873 4.8568 3.24188 4.8568ZM3.24188 1.196C4.0135 1.196 4.63932 1.82186 4.63932 2.59344C4.63932 3.36502 4.01346 3.99088 3.24188 3.99088C2.4703 3.99088 1.84443 3.36502 1.84443 2.59344C1.84443 1.82186 2.4703 1.196 3.24188 1.196Z" fill="#1C1C1C"/>
<path d="M19.6514 5.85152C18.2625 5.76579 17.0623 6.8289 16.9765 8.20064L16.6765 11.347L15.5362 11.5271C14.9361 11.6214 14.4902 12.1358 14.4902 12.7445V16.371C14.4902 16.611 14.6874 16.7997 14.9189 16.7997C15.1504 16.7997 15.3476 16.6025 15.3476 16.371V12.7445C15.3476 12.5644 15.4762 12.4101 15.6562 12.3844L17.1394 12.1529C17.3538 12.1186 17.5081 11.93 17.5081 11.7157V11.5871L17.8167 8.27776C17.8682 7.36043 18.6569 6.66598 19.5743 6.71744C20.4916 6.7689 21.1861 7.55764 21.1346 8.45781L20.826 11.7671C20.7831 12.4273 20.363 12.9931 19.7457 13.2246L19.6943 13.2503C19.5743 13.3104 19.4457 13.3447 19.3 13.3361H19.2571L16.8394 13.4475C16.5993 13.4561 16.4193 13.6619 16.4279 13.9019C16.4364 14.142 16.6422 14.322 16.8823 14.3135L19.2742 14.202C19.5486 14.2106 19.8229 14.1591 20.063 14.0391C20.9889 13.6876 21.6233 12.8217 21.6833 11.8443L21.992 8.53501C22.1034 7.12898 21.0403 5.93729 19.6514 5.85154L19.6514 5.85152Z" fill="#1C1C1C"/>
<path d="M19.343 4.8568C20.5861 4.8568 21.6063 3.84517 21.6063 2.59344C21.6063 1.34171 20.5947 0.330078 19.343 0.330078C18.0998 0.330078 17.0796 1.34171 17.0796 2.59344C17.0796 3.84517 18.0912 4.8568 19.343 4.8568ZM19.343 1.196C20.1146 1.196 20.7404 1.82186 20.7404 2.59344C20.7404 3.36502 20.1145 3.99088 19.343 3.99088C18.5714 3.99088 17.9455 3.36502 17.9455 2.59344C17.9455 1.82186 18.5714 1.196 19.343 1.196Z" fill="#1C1C1C"/>
<path d="M7.60593 9.31489H14.9788C15.2189 9.31489 15.4075 9.11771 15.4075 8.88621C15.4075 8.64615 15.2103 8.45752 14.9788 8.45752H7.60593C7.36588 8.45752 7.17725 8.65471 7.17725 8.88621C7.17725 9.12626 7.36586 9.31489 7.60593 9.31489Z" fill="#1C1C1C"/>
</svg>
