<svg width="25" height="24" viewBox="0 0 25 24" fill="none" xmlns="http://www.w3.org/2000/svg">
  <path d="M0.5 1.71919C0.5 0.77025 1.29444 0 2.27375 0H22.7262C23.7059 0 24.5 0.77025 24.5 1.71919V22.2811C24.5 23.2303 23.7059 24 22.7262 24H2.27375C1.29453 24 0.5 23.2304 0.5 22.2814V1.71891V1.71919Z" fill="white"/>
  <path d="M7.79336 20.0848V9.27994H4.20198V20.0848H7.79373H7.79336ZM5.99842 7.80497C7.25055 7.80497 8.03008 6.97528 8.03008 5.9384C8.00664 4.8779 7.25055 4.07137 6.02223 4.07137C4.79308 4.07137 3.9903 4.8779 3.9903 5.93831C3.9903 6.97519 4.76955 7.80487 5.97489 7.80487H5.99814L5.99842 7.80497ZM9.78123 20.0848H13.3723V14.0515C13.3723 13.729 13.3958 13.4057 13.4906 13.1753C13.7501 12.5299 14.341 11.8617 15.3334 11.8617C16.6326 11.8617 17.1526 12.8525 17.1526 14.3051V20.0848H20.7436V13.8896C20.7436 10.571 18.9721 9.02662 16.6093 9.02662C14.6722 9.02662 13.8214 10.1093 13.3487 10.8468H13.3726V9.28031H9.78142C9.8283 10.2939 9.78114 20.0852 9.78114 20.0852L9.78123 20.0848Z" fill="#006699"/>
</svg>
