<svg width="28" height="18" viewBox="0 0 28 18" fill="none" xmlns="http://www.w3.org/2000/svg">
<path d="M2.92701 11.8703C2.92701 12.9051 3.15404 13.6994 3.45098 14.18C3.84021 14.8096 4.42071 15.0768 5.01256 15.0768C5.77581 15.0768 6.47414 14.8873 7.81982 13.0261C8.89818 11.5343 10.1683 9.44035 11.023 8.12758L12.4705 5.90355C13.476 4.359 14.6398 2.64202 15.9743 1.47818C17.064 0.528204 18.2388 0.000488281 19.4215 0.000488281C21.4072 0.000488281 23.2985 1.15116 24.746 3.30924C26.3302 5.67267 27.0991 8.64974 27.0991 11.7218C27.0991 13.5482 26.7391 14.8902 26.1265 15.9504C25.5348 16.9756 24.3813 18 22.4409 18V15.0763C24.1024 15.0763 24.5169 13.5496 24.5169 11.8024C24.5169 9.31264 23.9364 6.54966 22.6576 4.57535C21.7502 3.17496 20.5741 2.3193 19.2802 2.3193C17.8807 2.3193 16.7546 3.37496 15.4889 5.25665C14.816 6.25657 14.1253 7.475 13.3497 8.84997L12.4958 10.3625C10.7809 13.4041 10.3464 14.0965 9.48878 15.2393C7.98577 17.2408 6.70218 17.9996 5.01256 17.9996C3.00806 17.9996 1.74059 17.1316 0.955541 15.8236C0.314768 14.7578 0 13.3592 0 11.7657L2.92701 11.8703Z" fill="url(#paint0_linear_410_190)"/>
<path d="M2.30811 3.51512C3.65004 1.44659 5.58666 0 7.80786 0C9.09417 0 10.3732 0.380718 11.7083 1.47111C13.169 2.66298 14.7258 4.62674 16.6681 7.86182L17.3645 9.02248C19.0457 11.8233 20.0022 13.2642 20.562 13.9437C21.2819 14.8162 21.7861 15.0764 22.4411 15.0764C24.1026 15.0764 24.5171 13.5497 24.5171 11.8025L27.0993 11.7214C27.0993 13.5478 26.7393 14.8898 26.1267 15.95C25.535 16.9752 24.3815 17.9997 22.4411 17.9997C21.2348 17.9997 20.1662 17.7377 18.9844 16.6228C18.0764 15.7671 17.0139 14.2471 16.1968 12.8806L13.7664 8.82088C12.5471 6.78346 11.4281 5.26433 10.7811 4.57634C10.0846 3.83647 9.1893 2.94313 7.76064 2.94313C6.60441 2.94313 5.62242 3.75451 4.80071 4.99565L2.30811 3.51512Z" fill="url(#paint1_linear_410_190)"/>
<path d="M7.76045 2.94313C6.60422 2.94313 5.62223 3.75451 4.80052 4.99565C3.6385 6.7494 2.92758 9.36165 2.92758 11.8703C2.92758 12.905 3.1546 13.6994 3.45155 14.18L0.955541 15.8235C0.314768 14.7578 0 13.3592 0 11.7657C0 8.86787 0.795376 5.84755 2.30792 3.51512C3.64985 1.44659 5.58648 0 7.80767 0L7.76045 2.94313Z" fill="url(#paint2_linear_410_190)"/>
<defs>
<linearGradient id="paint0_linear_410_190" x1="13.5493" y1="14.901" x2="13.5493" y2="7.07558" gradientUnits="userSpaceOnUse">
<stop stop-color="#0082FB"/>
<stop offset="1" stop-color="#0064E0"/>
</linearGradient>
<linearGradient id="paint1_linear_410_190" x1="14.7035" y1="14.9006" x2="14.7035" y2="7.07513" gradientUnits="userSpaceOnUse">
<stop stop-color="#0082FB"/>
<stop offset="1" stop-color="#0064E0"/>
</linearGradient>
<linearGradient id="paint2_linear_410_190" x1="3.90378" y1="13.0991" x2="3.90378" y2="6.21976" gradientUnits="userSpaceOnUse">
<stop stop-color="#0082FB"/>
<stop offset="1" stop-color="#0064E0"/>
</linearGradient>
</defs>
</svg>
