<svg width="25" height="24" viewBox="0 0 25 24" fill="none" xmlns="http://www.w3.org/2000/svg">
<path fill-rule="evenodd" clip-rule="evenodd" d="M10.2344 2C5.8161 2 2.23438 5.58172 2.23438 10C2.23438 14.4183 5.8161 18 10.2344 18C12.0831 18 13.7853 17.3729 15.14 16.3199L20.5273 21.7071C20.9178 22.0976 21.551 22.0976 21.9415 21.7071C22.332 21.3166 22.332 20.6834 21.9415 20.2929L16.5542 14.9056C17.6073 13.551 18.2344 11.8487 18.2344 10C18.2344 5.58172 14.6527 2 10.2344 2ZM4.23438 10C4.23438 6.68629 6.92067 4 10.2344 4C13.5481 4 16.2344 6.68629 16.2344 10C16.2344 13.3137 13.5481 16 10.2344 16C6.92067 16 4.23438 13.3137 4.23438 10Z" fill="#94A3B8"/>
</svg>
