<svg width="21" height="22" viewBox="0 0 21 22" fill="none" xmlns="http://www.w3.org/2000/svg">
<path d="M8.25369 21.9997C8.03744 22.0002 7.8382 21.8825 7.73419 21.6928L5.31473 17.2549C5.17998 17.009 4.97799 16.8071 4.73237 16.6726L0.306273 14.2529C0.117461 14.1494 0 13.951 0 13.7356C0 13.5202 0.117461 13.3217 0.306273 13.2183L4.73237 10.7986C4.98101 10.6592 5.18355 10.4498 5.31473 10.1968L7.73419 5.79013C7.83793 5.60132 8.03634 5.48413 8.2515 5.48413C8.46693 5.48413 8.66535 5.60132 8.76909 5.79013L11.1926 10.1968C11.3268 10.4427 11.5288 10.6449 11.7747 10.7791L16.2008 13.1988V13.1985C16.3896 13.3023 16.5071 13.5004 16.5071 13.7158C16.5071 13.9313 16.3896 14.1297 16.2008 14.2334L11.7747 16.6726C11.5291 16.8068 11.3268 17.0091 11.1926 17.255L8.77295 21.6811C8.67224 21.8754 8.47245 21.9978 8.25372 21.9997L8.25369 21.9997ZM1.82095 13.7376L5.29889 15.6378C5.73798 15.8821 6.09832 16.2465 6.33762 16.6883L8.24189 20.1663L10.1539 16.6883C10.3965 16.2451 10.7609 15.8804 11.2044 15.6378L14.6862 13.7376L11.2083 11.8374C10.7648 11.5948 10.4004 11.2303 10.1578 10.7869L8.25756 7.30893L6.33762 10.7792C6.09529 11.2227 5.73056 11.5871 5.28708 11.8295L1.82095 13.7376Z" fill="#1C1C1C"/>
<path d="M16.366 8.33242C16.1497 8.33297 15.9505 8.21524 15.8468 8.02533L14.7178 5.95609C14.684 5.89462 14.6335 5.84412 14.572 5.81037L12.4987 4.68902C12.3098 4.58555 12.1924 4.38714 12.1924 4.17171C12.1924 3.95627 12.3098 3.75813 12.4987 3.65439L14.5682 2.52124C14.6302 2.48721 14.6818 2.43672 14.7177 2.37579L15.8509 0.306273H15.8506C15.9544 0.117461 16.1528 0 16.3682 0C16.5836 0 16.7818 0.117461 16.8855 0.306273L18.0187 2.37579C18.0538 2.43836 18.1054 2.48996 18.168 2.52536L20.2375 3.65851V3.65823C20.4263 3.76197 20.5438 3.96039 20.5438 4.17582C20.5438 4.39125 20.4263 4.5894 20.2375 4.69313L18.168 5.82629C18.1048 5.86032 18.0527 5.91246 18.0187 5.97558L16.8855 8.0451C16.7766 8.22733 16.5784 8.33682 16.366 8.33243L16.366 8.33242ZM14.0053 4.15826L15.1305 4.7719L15.1308 4.77162C15.3917 4.91405 15.6061 5.12839 15.7485 5.38938L16.3622 6.5146L16.9758 5.38938H16.9761C17.1182 5.1284 17.3326 4.91406 17.5936 4.77162L18.7149 4.15798L17.5897 3.54434C17.3287 3.40191 17.1144 3.18731 16.9719 2.92659L16.3583 1.80137L15.7447 2.92659H15.7444C15.6019 3.1873 15.3876 3.40191 15.1269 3.54434L14.0053 4.15826Z" fill="#1C1C1C"/>
</svg>
