<svg width="22" height="17" viewBox="0 0 22 17" fill="none" xmlns="http://www.w3.org/2000/svg">
<path d="M21.1595 3.79781L19.3962 2.05708C19.1928 1.85366 18.9667 1.71805 18.6502 1.76315C18.379 1.76315 18.1076 1.87621 17.9042 2.07963L16.1635 3.82036C15.8017 3.34555 15.2593 3.02906 14.6263 3.02906L9.74335 3.02922C8.95221 1.24323 7.16622 0 5.08644 0C2.2832 0 0 2.2832 0 5.08644C0 7.1435 1.24339 8.90679 3.00665 9.69814V15.0559C3.00665 16.1184 3.86573 17 4.9508 17H14.6489C15.7114 17 16.5931 16.1184 16.5931 15.0559V9.9242L21.2048 5.26729C21.5892 4.86029 21.5665 4.20479 21.1597 3.79779L21.1595 3.79781ZM11.4388 10.6928L12.5691 11.8231L10.8736 12.6144C10.7833 12.6596 10.7153 12.6144 10.6702 12.5918C10.625 12.5466 10.6024 12.4788 10.625 12.3884L11.4388 10.6928ZM13.8125 10.964C13.7447 11.0318 13.6769 11.0771 13.6091 11.1449L12.117 9.67552C12.1848 9.60772 12.2301 9.5172 12.2979 9.4721L16.7061 5.04125L18.2208 6.55588L13.8125 10.964ZM1.22074 5.08633C1.22074 2.96129 2.96148 1.22055 5.08652 1.22055C7.21156 1.22055 8.95229 2.96129 8.95229 5.08633C8.95229 7.21121 7.21156 8.95194 5.08652 8.95194C2.93895 8.95194 1.22074 7.21121 1.22074 5.08633ZM15.3497 15.0557C15.3497 15.4626 15.0107 15.8018 14.6262 15.8018H4.92811C4.52128 15.8018 4.20463 15.4627 4.20463 15.0557L4.20478 10.0597C4.49871 10.105 4.76994 10.1501 5.08643 10.1501C7.88966 10.1501 10.1729 7.86688 10.1729 5.06365C10.1729 4.79242 10.1276 4.52106 10.0825 4.24982H14.6264C14.9203 4.24982 15.1916 4.43069 15.3046 4.70191L11.4616 8.59021C11.0095 9.0423 10.6478 9.5622 10.3765 10.1274L9.56252 11.8908C9.31385 12.4334 9.42691 13.0437 9.83375 13.4507C10.105 13.7219 10.4442 13.8575 10.8057 13.8575C11.0092 13.8575 11.2126 13.8123 11.3935 13.7219L13.1342 12.9081C13.6994 12.6369 14.2193 12.2751 14.6714 11.823L15.3496 11.1448L15.3497 15.0557ZM19.0799 5.67409L17.5652 4.15947L18.6956 3.02915L20.2102 4.54377L19.0799 5.67409Z" fill="#1C1C1C"/>
<path d="M6.8951 3.77539C6.64642 3.54926 6.26212 3.57196 6.03601 3.79793L4.54395 5.40307L3.95623 4.79266C3.7301 4.54398 3.34581 4.54398 3.09714 4.77011C2.84846 4.99624 2.84846 5.38052 3.07459 5.62919L4.09184 6.73694C4.2049 6.85001 4.36307 6.94036 4.54393 6.94036C4.70225 6.94036 4.88296 6.87256 4.99601 6.73694L6.94016 4.65716C7.16629 4.38561 7.14374 4.00133 6.89506 3.77535L6.8951 3.77539Z" fill="#1C1C1C"/>
</svg>
