<svg width="374" height="213" viewBox="0 0 374 213" fill="none" xmlns="http://www.w3.org/2000/svg">
<g clip-path="url(#clip0_190_9130)">
<path d="M104.428 9.32802C105.213 8.98148 105.88 8.41242 106.345 7.69119C106.811 6.96995 107.054 6.12817 107.046 5.2699C107.086 4.70698 107.009 4.14194 106.822 3.60977C106.634 3.0776 106.339 2.58963 105.955 2.17605C105.571 1.76247 105.106 1.43209 104.59 1.20537C104.073 0.978641 103.515 0.860397 102.951 0.857949C102.386 0.855501 101.828 0.968902 101.309 1.19113C100.79 1.41337 100.323 1.7397 99.9352 2.14993C99.5477 2.56016 99.2485 3.04556 99.0562 3.57608C98.8638 4.1066 98.7825 4.67095 98.817 5.2342C98.7989 6.09916 99.0381 6.95001 99.5042 7.67885C99.9703 8.40769 100.642 8.98168 101.435 9.32802C95.104 10.286 95.3897 17.1646 95.3897 17.1646L110.367 17.236C110.367 17.236 110.706 10.2801 104.428 9.32802Z" fill="#E0E0E0"/>
<path d="M347.534 45.5352L340.584 38.0616L342.834 35.9671L347.63 41.132L357.704 31.2188L359.858 33.4085L347.534 45.5352Z" fill="#F5F5F5"/>
<path d="M246.801 86.384C246.801 81.2727 241.446 78.0536 235.96 80.6003C234.723 81.1797 233.711 82.1499 233.08 83.3613C231.705 86.027 232.312 89.0736 233.562 91.6025L237.822 102.39C237.958 102.734 238.193 103.029 238.498 103.236C238.803 103.444 239.164 103.555 239.533 103.555C239.902 103.555 240.263 103.444 240.568 103.236C240.873 103.029 241.108 102.734 241.244 102.39L245.409 91.543C246.873 88.2227 246.801 86.384 246.801 86.384ZM241.672 90.8111C237.995 92.9472 234.264 88.9962 236.281 85.0928C236.552 84.5757 236.965 84.1464 237.471 83.8552C241.155 81.713 244.879 85.6403 242.862 89.5734C242.591 90.0906 242.178 90.5198 241.672 90.8111Z" fill="#EBEBEB"/>
<path d="M310.095 160.538C298.629 150.066 297.974 133.464 300.467 118.963C300.884 116.541 300.961 113.941 302.425 111.972C303.889 110.002 306.822 108.913 308.887 110.24C310.601 111.341 311.112 113.554 311.898 115.435C312.958 117.946 314.702 120.109 316.932 121.677C318.39 122.694 320.264 123.462 321.93 122.819C324.215 121.956 324.858 119.094 325.173 116.672L326.958 103.135C327.274 100.714 327.601 98.2443 328.678 96.0546C329.755 93.8648 331.73 91.9607 334.152 91.6394C336.574 91.3181 339.269 93.0377 339.442 95.4714C339.507 96.483 339.168 97.4767 339.097 98.4942C339.025 99.5117 339.353 100.684 340.287 101.094C341.221 101.505 342.304 100.964 343.131 100.357C345.993 98.2621 348.141 95.3524 350.176 92.4427C352.211 89.533 354.199 86.5459 356.859 84.1956C359.518 81.8452 362.981 80.1732 366.516 80.4588C370.05 80.7444 373.502 83.3982 373.924 86.9208C374.347 90.4434 371.859 93.6328 369.289 96.0962C365.466 99.7491 361.135 102.83 356.43 105.242C355.585 105.676 354.645 106.146 354.252 107.027C353.497 108.568 354.847 110.383 356.365 111.133C358.114 111.984 360.119 112.067 362 112.555C363.88 113.043 365.838 114.155 366.314 116.036C366.98 118.648 364.528 120.951 362.238 122.361C357.634 125.199 352.579 127.228 347.29 128.359C345.398 128.763 343.423 129.073 341.798 130.144C340.174 131.215 339.002 133.244 339.644 135.071C340.287 136.898 342.471 137.748 344.405 137.665C346.338 137.582 348.171 136.796 350.057 136.374C353.598 135.583 357.918 136.41 359.679 139.581C360.869 141.664 360.607 144.312 359.578 146.46C358.548 148.608 356.835 150.351 355.05 151.928C348.796 157.438 341.197 161.52 333.033 163.121C324.87 164.721 317.515 164.448 310.137 160.58" fill="#EBEBEB"/>
<path d="M311.005 166.44C312.332 160.746 311.999 158.984 315.171 151.945C318.71 144.345 322.683 136.954 327.071 129.81L330.493 124.169C331.623 122.319 332.736 120.486 333.944 118.76C336.268 115.451 338.773 112.273 341.447 109.24C343.988 106.324 346.499 103.652 348.873 101.165C351.247 98.6779 353.508 96.4049 355.657 94.4294C359.034 91.2808 362.655 88.4038 366.486 85.8252C367.843 84.9148 368.914 84.2365 369.646 83.7902L370.485 83.2844C370.675 83.1714 370.776 83.1238 370.776 83.1238C370.776 83.1238 370.687 83.1952 370.509 83.3142L369.687 83.8497C368.967 84.3198 367.902 85.0398 366.569 85.9442C362.778 88.5645 359.188 91.4644 355.829 94.6198C353.699 96.6131 351.456 98.8921 349.093 101.379C346.731 103.867 344.232 106.55 341.709 109.466C339.045 112.498 336.552 115.677 334.241 118.986C333.051 120.706 331.933 122.527 330.808 124.377L327.387 130.018C323.007 137.149 319.034 144.521 315.486 152.1C312.285 159.121 312.606 160.847 311.249 166.517" fill="#E0E0E0"/>
<path d="M334.069 118.736C334.011 118.384 333.985 118.027 333.992 117.671C333.956 116.987 333.944 115.993 333.938 114.767C333.938 112.31 334.027 108.918 334.146 105.181C334.265 101.444 334.301 98.0407 334.236 95.607C334.236 94.3813 334.176 93.3876 334.14 92.7033C334.104 92.3492 334.104 91.9923 334.14 91.6382C334.221 91.9841 334.271 92.3366 334.289 92.6914C334.372 93.3757 334.444 94.3694 334.503 95.5951C334.634 98.0467 334.634 101.444 334.503 105.193C334.372 108.942 334.271 112.25 334.188 114.767C334.188 115.957 334.14 116.921 334.122 117.671C334.139 118.027 334.122 118.384 334.069 118.736Z" fill="#E0E0E0"/>
<path d="M366.403 117.254C366.292 117.271 366.18 117.271 366.07 117.254L365.124 117.207C364.308 117.159 363.124 117.088 361.661 117.052C358.733 116.957 354.681 116.969 350.218 117.177C345.755 117.385 341.715 117.772 338.811 118.129C337.353 118.296 336.181 118.468 335.366 118.581L334.432 118.706C334.218 118.706 334.105 118.742 334.099 118.706C334.201 118.662 334.309 118.632 334.42 118.617L335.342 118.421C336.151 118.266 337.318 118.058 338.776 117.855C341.679 117.427 345.72 117.01 350.2 116.79C354.681 116.57 358.733 116.612 361.666 116.79C363.136 116.862 364.32 116.969 365.135 117.064L366.076 117.177C366.188 117.187 366.298 117.213 366.403 117.254Z" fill="#E0E0E0"/>
<path d="M315.623 151.41C315.557 151.278 315.504 151.14 315.462 150.999C315.367 150.684 315.242 150.285 315.087 149.809C314.76 148.762 314.332 147.244 313.82 145.358C312.797 141.58 311.535 136.331 310.25 130.512C308.965 124.693 307.721 119.439 306.763 115.636C306.287 113.78 305.894 112.262 305.609 111.156C305.484 110.662 305.382 110.257 305.299 109.966C305.257 109.824 305.229 109.678 305.216 109.531C305.283 109.662 305.335 109.799 305.371 109.942L305.745 111.132C306.073 112.173 306.507 113.696 307.013 115.583C308.042 119.355 309.298 124.609 310.583 130.429C311.868 136.248 313.112 141.496 314.07 145.305C314.552 147.161 314.939 148.684 315.224 149.785C315.355 150.285 315.456 150.69 315.534 151.005C315.578 151.136 315.608 151.272 315.623 151.41Z" fill="#E0E0E0"/>
<path d="M359.304 143.841C359.165 143.899 359.019 143.935 358.87 143.948L357.596 144.174L352.913 144.96C348.962 145.644 343.512 146.655 337.496 147.792C331.48 148.928 326.024 149.892 322.055 150.511C320.073 150.821 318.485 151.059 317.354 151.201L316.069 151.362C315.92 151.377 315.771 151.377 315.623 151.362C315.765 151.311 315.913 151.275 316.063 151.255L317.33 151.029L322.013 150.226C325.964 149.541 331.415 148.53 337.43 147.399C343.446 146.269 348.903 145.293 352.901 144.674C354.883 144.365 356.472 144.127 357.602 143.984L358.887 143.829C359.026 143.819 359.166 143.823 359.304 143.841Z" fill="#E0E0E0"/>
<path d="M1.21971 87.5145C1.21971 87.5145 4.7899 83.4802 12.8407 92.3819C20.8915 101.284 24.539 106.704 24.539 106.704C24.539 106.704 26.5264 108.489 27.6272 106.675C28.728 104.86 29.6741 100.284 32.3875 100.32C35.2139 100.355 36.874 103.045 37.5464 107.46C38.2188 111.875 40.0396 121.568 40.2062 122.437C40.3728 123.306 41.194 124.407 42.1401 123.282C43.0862 122.157 47.775 112.851 52.0592 115.338C56.3435 117.825 56.1828 130.494 56.1888 131.88C56.1947 133.267 56.5993 133.749 57.3015 133.903C58.0036 134.058 59.2829 130.773 60.7229 128.185C62.1629 125.597 64.2931 122.83 66.6435 124.478C68.9938 126.126 71.9631 134.784 67.4646 151.391L64.8762 158.948L57.0278 160.626C40.0158 163.185 31.7448 159.24 30.3822 156.717C29.0196 154.194 32.0067 152.397 34.7498 151.266C37.4929 150.136 40.8905 149.237 40.8191 148.523C40.7477 147.809 40.3193 147.333 38.9388 147.184C37.5583 147.036 24.9734 145.75 22.9979 141.21C21.0224 136.67 30.8047 133.082 32.0245 132.285C33.2443 131.487 32.2447 130.529 31.4295 130.268C30.6143 130.006 21.183 127.078 16.8512 125.9C12.5194 124.722 10.0381 122.77 10.3058 119.95C10.5855 117.236 15.2327 116.826 17.1725 115.939C19.1123 115.053 17.5593 112.875 17.5593 112.875C17.5593 112.875 12.5908 108.662 4.6709 99.5996C-3.24898 90.5373 1.29706 87.4372 1.29706 87.4372" fill="#EBEBEB"/>
<path d="M8.46729 95.4766C8.46729 95.4766 8.52679 95.5242 8.62199 95.6313L9.06232 96.1013C9.44909 96.5417 10.0025 97.1546 10.7106 97.946L16.7561 104.753L36.7908 127.108C44.6333 135.832 51.7023 143.769 56.766 149.541L62.7163 156.414L64.3289 158.294L64.7394 158.788C64.7871 158.842 64.8308 158.9 64.8704 158.961C64.8704 158.961 64.8168 158.913 64.7156 158.806L64.2813 158.336L62.6271 156.491L56.5994 149.72C51.494 143.972 44.4072 136.07 36.5587 127.346C28.7103 118.623 21.6829 110.686 16.5954 104.914L10.6451 98.0471C9.95487 97.2379 9.41339 96.6071 9.03852 96.1609L8.62199 95.667C8.56545 95.6077 8.51371 95.544 8.46729 95.4766Z" fill="#E0E0E0"/>
<path d="M31.3342 106.763C31.4193 107.476 31.4551 108.194 31.4413 108.911C31.4829 110.322 31.5424 112.107 31.6019 114.088C31.6615 116.07 31.721 117.944 31.715 119.271C31.715 119.937 31.715 120.461 31.6734 120.848C31.6824 121.049 31.6582 121.25 31.6019 121.443C31.5282 120.731 31.4924 120.016 31.4948 119.301C31.4413 117.891 31.3699 116.099 31.2925 114.124C31.2152 112.148 31.2033 110.262 31.2211 108.935C31.2211 108.275 31.2211 107.745 31.2687 107.364C31.2657 107.162 31.2877 106.96 31.3342 106.763Z" fill="#E0E0E0"/>
<path d="M30.9298 121.753C30.9298 121.836 27.1454 121.854 22.4803 121.788C17.8153 121.723 14.0249 121.598 14.0249 121.509C14.0249 121.419 17.8153 121.407 22.4803 121.473C27.1454 121.538 30.9357 121.663 30.9298 121.753Z" fill="#E0E0E0"/>
<path d="M45.4903 136.486C45.3221 136.589 45.1397 136.667 44.9488 136.718C44.5918 136.855 44.0741 137.027 43.4255 137.23C42.1343 137.64 40.3314 138.158 38.3142 138.622C36.2971 139.086 34.4465 139.425 33.1077 139.628C32.4353 139.729 31.9176 139.794 31.513 139.836C31.3174 139.876 31.1167 139.886 30.918 139.866C31.6241 139.67 32.3414 139.517 33.066 139.407C34.393 139.152 36.2257 138.812 38.2369 138.319C40.2481 137.825 42.051 137.372 43.3601 137.021C44.0584 136.799 44.7699 136.62 45.4903 136.486Z" fill="#E0E0E0"/>
<path d="M48.8402 123.015C48.754 123.687 48.6167 124.351 48.4296 125.002C48.144 126.192 47.7216 127.894 47.2396 129.762C46.7576 131.631 46.3054 133.279 45.9603 134.481C45.8121 135.14 45.6132 135.786 45.3652 136.415C45.4466 135.743 45.5819 135.078 45.7699 134.427C46.0614 133.237 46.4839 131.535 46.9599 129.667C47.4359 127.799 47.9001 126.15 48.2452 124.949C48.3933 124.289 48.5923 123.643 48.8402 123.015Z" fill="#E0E0E0"/>
<path d="M63.3471 134.385C63.3314 134.619 63.2895 134.851 63.2221 135.075C63.0972 135.575 62.9484 136.194 62.7699 136.92C62.3772 138.479 61.8119 140.621 61.1693 142.983C60.5266 145.346 59.9256 147.476 59.4734 149.017C59.2592 149.737 59.0748 150.344 58.932 150.838C58.8754 151.065 58.7936 151.284 58.688 151.492C58.7041 151.258 58.746 151.027 58.8129 150.802C58.9379 150.302 59.0867 149.689 59.2652 148.958C59.6579 147.405 60.2232 145.262 60.8658 142.9C61.5084 140.538 62.1094 138.402 62.5557 136.867C62.7759 136.147 62.9544 135.54 63.1031 135.046C63.1587 134.817 63.2406 134.595 63.3471 134.385Z" fill="#E0E0E0"/>
<path d="M58.6822 151.053C58.4571 151.159 58.2218 151.243 57.9801 151.303C57.5219 151.445 56.8495 151.636 56.0165 151.856C54.3564 152.302 52.0476 152.868 49.4711 153.391C46.8947 153.915 44.5562 154.302 42.8484 154.54C41.9976 154.659 41.3073 154.742 40.8313 154.79C40.5842 154.836 40.3325 154.852 40.0815 154.837C40.3188 154.755 40.5642 154.699 40.8134 154.671L42.8187 154.319C44.5086 154.028 46.8411 153.611 49.4116 153.088C51.9822 152.564 54.285 152.035 55.957 151.648L57.9385 151.184C58.1807 151.112 58.4302 151.068 58.6822 151.053Z" fill="#E0E0E0"/>
<path d="M29.5496 101.302C29.8499 101.275 30.1385 101.173 30.3886 101.004C30.6828 100.791 30.8933 100.481 30.9836 100.129C31.0328 99.9008 31.0508 99.6666 31.0371 99.4332C31.0371 99.1833 31.0371 98.9155 31.0371 98.6299C31.0371 96.3331 31.0907 93.0366 31.1264 88.9725C31.1264 87.9531 31.1383 86.8879 31.1621 85.7772C31.1621 85.2179 31.1621 84.6526 31.1621 84.0754C31.1864 83.7943 31.1864 83.5116 31.1621 83.2305C31.108 82.9615 30.9779 82.7137 30.7872 82.5164C30.5957 82.3158 30.3459 82.1804 30.0732 82.1297C29.7741 82.1083 29.4738 82.1083 29.1747 82.1297H27.2944H23.3553H5.82564C5.47346 82.1374 5.13668 82.2756 4.88054 82.5174C4.6244 82.7593 4.46714 83.0876 4.43922 83.4388L4.40352 85.7118C4.40352 87.2291 4.35592 88.6869 4.33211 90.1864C4.29046 93.1199 4.24881 95.9463 4.20716 98.6418V99.6474C4.18573 99.9523 4.26067 100.256 4.42137 100.516C4.5747 100.772 4.80935 100.969 5.08781 101.075C5.38018 101.166 5.68745 101.198 5.99226 101.171H9.70525H16.3756L26.027 101.218L28.6511 101.248H29.3354H29.5674C29.4903 101.256 29.4125 101.256 29.3354 101.248H28.6511H26.027L16.3756 101.302H9.70525H5.9744C5.63778 101.332 5.29854 101.297 4.97475 101.2C4.63923 101.07 4.35522 100.834 4.16551 100.528C3.97657 100.222 3.88719 99.864 3.90964 99.5046C3.90964 99.1714 3.90964 98.8382 3.90964 98.499C3.94534 95.8035 3.98105 92.9771 4.01675 90.0436C4.01675 88.5798 4.0584 87.0684 4.0822 85.569C4.0822 84.8073 4.0822 84.0457 4.11791 83.2721C4.18499 82.8695 4.3917 82.5033 4.7018 82.2378C5.01189 81.9723 5.40555 81.8245 5.81375 81.8203H23.3434H29.1687C29.4846 81.8118 29.8006 81.8237 30.1148 81.856C30.4404 81.9167 30.7384 82.0792 30.9657 82.3201C31.1884 82.5528 31.3411 82.8436 31.4061 83.1591C31.4324 83.458 31.4324 83.7587 31.4061 84.0576C31.4061 84.6526 31.4061 85.206 31.4061 85.7594C31.4061 86.8721 31.3704 87.9431 31.3525 88.9606C31.2692 93.0247 31.2097 96.3152 31.1621 98.6121C31.1621 98.8977 31.1621 99.1654 31.1621 99.4213C31.1693 99.6614 31.1453 99.9014 31.0907 100.135C30.983 100.503 30.7519 100.823 30.4362 101.04C30.2435 101.168 30.0234 101.25 29.7935 101.278C29.7143 101.3 29.6317 101.308 29.5496 101.302Z" fill="#455A64"/>
<path d="M18.7022 89.9959L21.9511 91.9714L18.6308 93.9172L15.3105 95.8689L15.382 91.9476L15.4534 88.0264L18.7022 89.9959Z" fill="#455A64"/>
<path d="M319.693 33.0927C320.766 32.6179 321.676 31.8389 322.311 30.8521C322.945 29.8654 323.276 28.7142 323.263 27.541C323.263 24.2267 320.764 21.5253 317.652 21.5074C314.54 21.4896 312.011 24.1732 311.999 27.4875C311.975 28.6698 312.301 29.8329 312.936 30.8304C313.572 31.8278 314.488 32.615 315.57 33.0927C306.906 34.4018 307.299 43.8033 307.299 43.8033L327.786 43.8985C327.786 43.8985 328.285 34.4137 319.693 33.0927Z" fill="#4200FF"/>
<path d="M198.274 11.9063L165.048 15.0588L167.173 37.4564L200.399 34.3039L198.274 11.9063Z" fill="white"/>
<path d="M200.389 34.2829C200.389 34.2829 200.389 34.1401 200.336 33.8664L200.211 32.6764C200.104 31.6232 199.949 30.1058 199.753 28.1601C199.366 24.2686 198.812 18.6872 198.146 11.8919L198.277 12.005L165.062 15.2419L165.199 15.0753V15.2419V15.4323L165.235 15.8013L165.306 16.551L165.449 18.0326L165.723 20.9661C165.905 22.9059 166.086 24.814 166.264 26.6903C166.615 30.439 166.954 34.0449 167.276 37.4545L167.121 37.3295L191.041 35.1279L197.89 34.5329L199.717 34.3722L200.193 34.3365H200.389H200.24L199.782 34.3841L197.997 34.5745L191.19 35.2588L167.192 37.6032H167.05V37.4604C166.722 34.0449 166.377 30.445 166.014 26.6963C165.836 24.8239 165.655 22.9159 165.473 20.9721C165.378 20.0022 165.282 19.0204 165.193 18.0386L165.05 16.5569L164.961 15.837L164.925 15.468V15.2776V15.1051L165.068 14.9325L198.295 11.8086H198.42V11.9335C199.015 18.7645 199.55 24.3757 199.907 28.2969C200.074 30.2248 200.211 31.7362 200.3 32.7835C200.342 33.2833 200.371 33.676 200.395 33.9735C200.419 34.271 200.389 34.2829 200.389 34.2829Z" fill="#455A64"/>
<path d="M198.271 11.9094C198.198 12.0386 198.11 12.1585 198.009 12.2664L197.224 13.1768C196.515 13.9861 195.522 15.1166 194.296 16.5031L184.466 27.4993L184.377 27.5945L184.27 27.5231L183.383 26.9578L170.376 18.6273L166.472 16.033L165.413 15.3249C165.287 15.2481 165.167 15.1605 165.056 15.0631C165.194 15.1194 165.325 15.1892 165.449 15.2714L166.538 15.9318L170.513 18.4072L183.568 26.6722L184.454 27.2672H184.252L194.141 16.3365L197.146 13.0757L197.967 12.201C198.062 12.0972 198.163 11.9998 198.271 11.9094Z" fill="#455A64"/>
<path d="M124.403 38.6396C124.339 37.9147 124.226 37.195 124.064 36.4855C123.853 35.6621 123.518 34.8756 123.071 34.153C122.492 33.1892 121.732 32.3466 120.833 31.6717C119.667 30.7892 118.298 30.2138 116.852 29.9986C115.406 29.7834 113.929 29.9352 112.556 30.44C110.939 31.0358 109.532 32.093 108.51 33.4806C107.408 34.9728 106.814 36.7788 106.814 38.6336C106.814 40.4884 107.408 42.2944 108.51 43.7866C109.53 45.1782 110.937 46.2379 112.556 46.8331C114.467 47.5307 116.562 47.5416 118.48 46.8642C120.398 46.1868 122.021 44.8631 123.071 43.1201C123.518 42.3975 123.853 41.611 124.064 40.7876C124.225 40.08 124.338 39.3623 124.403 38.6396C124.41 38.6869 124.41 38.735 124.403 38.7824V39.2048C124.403 39.434 124.385 39.6627 124.35 39.8891C124.317 40.2022 124.261 40.5124 124.183 40.8174C123.986 41.6546 123.663 42.4571 123.225 43.1975C122.172 45.0048 120.516 46.3846 118.549 47.0958C116.582 47.8071 114.427 47.8047 112.461 47.089C111.642 46.8132 110.871 46.4117 110.176 45.8989C109.441 45.369 108.796 44.7241 108.266 43.9889C107.123 42.4454 106.505 40.5753 106.505 38.6544C106.505 36.7335 107.123 34.8634 108.266 33.32C108.796 32.5848 109.441 31.9398 110.176 31.4099C110.871 30.8971 111.642 30.4957 112.461 30.2198C113.875 29.7064 115.396 29.5588 116.883 29.7908C118.37 30.0228 119.773 30.6268 120.964 31.5468C121.875 32.2469 122.641 33.118 123.219 34.1114C123.661 34.8504 123.986 35.6533 124.183 36.4915C124.261 36.7964 124.317 37.1067 124.35 37.4197C124.385 37.6461 124.403 37.8749 124.403 38.104V38.5265C124.407 38.5641 124.407 38.602 124.403 38.6396Z" fill="#263238"/>
<path d="M136.322 53.4436C136.274 53.515 133.133 51.4919 129.313 48.9273C125.492 46.3627 122.428 44.2206 122.476 44.1671C122.523 44.1135 125.659 46.1188 129.485 48.6893C133.311 51.2598 136.37 53.3722 136.322 53.4436Z" fill="#263238"/>
<path d="M162.622 69.8072L155.678 62.3336L157.927 60.2391L162.723 65.398L172.797 55.4907L174.951 57.6804L162.622 69.8072Z" fill="#4200FF"/>
<path d="M357.602 62.6482H357.936H358.352L358.947 62.7256C360.217 62.9321 361.415 63.4561 362.428 64.2489C364.053 65.5292 365.104 67.4016 365.35 69.4554C365.409 70.0504 365.409 70.6752 365.409 71.306C365.409 71.9367 365.409 72.5972 365.409 73.2755C365.409 74.6262 365.409 76.0603 365.409 77.5597C365.409 79.0592 365.409 80.648 365.409 82.32C365.409 83.1411 365.409 83.9861 365.409 84.8429C365.451 85.7297 365.363 86.6177 365.147 87.4789C364.784 88.8704 364.043 90.1346 363.007 91.132C361.97 92.1294 360.679 92.8214 359.274 93.1317C358.292 93.3011 357.295 93.3629 356.299 93.3162H329.737L329.844 93.2745L323.852 99.2665L323.584 99.5343V93.1912L323.739 93.3459C323.082 93.3694 322.424 93.3455 321.77 93.2745C321.115 93.1909 320.473 93.025 319.86 92.7807C318.652 92.295 317.585 91.5163 316.754 90.5148C315.923 89.5134 315.354 88.3207 315.099 87.0446C314.989 86.422 314.937 85.7905 314.945 85.1583V83.3078C314.945 80.8562 314.945 78.4404 314.945 76.0841V72.5853C314.909 71.4397 314.945 70.293 315.052 69.152C315.23 68.0308 315.648 66.9612 316.277 66.0161C316.884 65.1158 317.67 64.3508 318.587 63.7691C319.503 63.1874 320.53 62.8018 321.603 62.6363C322.621 62.54 323.645 62.5082 324.667 62.5411H335.759L351.777 62.5947H356.121H357.245H357.632H357.245H356.121H351.777L335.759 62.6482H324.667C323.659 62.6166 322.649 62.6503 321.645 62.7494C320.059 62.9893 318.591 63.7294 317.456 64.8618C316.32 65.9943 315.576 67.4598 315.331 69.0448C315.227 70.1722 315.196 71.3051 315.236 72.4365V75.9353C315.236 78.3154 315.236 80.6956 315.236 83.159C315.184 84.3868 315.234 85.6168 315.385 86.8363C315.642 88.0511 316.184 89.1872 316.968 90.1506C318.185 91.6232 319.916 92.5782 321.811 92.8223C322.452 92.8892 323.096 92.9111 323.739 92.8878H323.894V99.1416L323.632 99.0285L329.63 93.0365L329.672 92.9949H329.737H356.299C357.285 93.0445 358.273 92.9846 359.245 92.8164C360.178 92.6148 361.065 92.2372 361.857 91.7037C363.377 90.6765 364.474 89.1334 364.945 87.3599C365.152 86.5437 365.242 85.7023 365.213 84.8608C365.213 84.0039 365.213 83.159 365.213 82.3379C365.213 80.6896 365.213 79.1068 365.213 77.5776C365.213 76.0484 365.213 74.6441 365.213 73.2934C365.213 72.615 365.213 71.9605 365.213 71.3238C365.213 70.6871 365.213 70.0742 365.171 69.4911C364.941 67.4717 363.92 65.6256 362.333 64.356C361.341 63.5598 360.164 63.0258 358.911 62.803L358.346 62.7078H357.936L357.602 62.6482Z" fill="#263238"/>
<path d="M334.004 78.9098C334.004 78.9098 333.968 78.761 333.89 78.5052C333.779 78.1553 333.558 77.8507 333.26 77.6364C333.045 77.4831 332.796 77.385 332.535 77.3508C332.273 77.3165 332.007 77.3472 331.76 77.4401C331.459 77.5502 331.199 77.7503 331.015 78.0132C330.831 78.2761 330.733 78.589 330.733 78.9098C330.733 79.2305 330.831 79.5435 331.015 79.8064C331.199 80.0693 331.459 80.2694 331.76 80.3795C332.007 80.4724 332.273 80.503 332.535 80.4688C332.796 80.4346 333.045 80.3365 333.26 80.1832C333.558 79.9689 333.779 79.6643 333.89 79.3144C333.968 79.0645 333.974 78.9098 334.004 78.9098C334.042 79.052 334.042 79.202 334.004 79.3442C333.937 79.7431 333.725 80.1033 333.408 80.3557C333.17 80.5504 332.885 80.6801 332.582 80.7322C332.278 80.7844 331.967 80.7572 331.677 80.6532C331.316 80.5266 331.004 80.2912 330.783 79.9794C330.562 79.6676 330.443 79.2949 330.443 78.9128C330.443 78.5306 330.562 78.1579 330.783 77.8461C331.004 77.5343 331.316 77.2989 331.677 77.1723C331.966 77.0676 332.278 77.0394 332.581 77.0905C332.884 77.1415 333.169 77.2702 333.408 77.4639C333.725 77.7181 333.937 78.0804 334.004 78.4814C334.042 78.6216 334.042 78.7696 334.004 78.9098Z" fill="#263238"/>
<path d="M341.887 78.8514C341.844 78.7208 341.808 78.5877 341.78 78.4528C341.668 78.1015 341.447 77.7951 341.149 77.5781C340.934 77.4243 340.684 77.3259 340.421 77.2916C340.159 77.2574 339.892 77.2883 339.644 77.3817C339.346 77.4958 339.089 77.6976 338.909 77.9606C338.728 78.2235 338.631 78.5352 338.631 78.8544C338.631 79.1736 338.728 79.4853 338.909 79.7482C339.089 80.0112 339.346 80.213 339.644 80.3271C339.893 80.4181 340.159 80.4472 340.422 80.412C340.684 80.3767 340.934 80.2782 341.149 80.1248C341.446 79.9088 341.667 79.6048 341.78 79.2561C341.808 79.1193 341.844 78.9842 341.887 78.8514C341.887 78.8514 341.941 79.0061 341.887 79.2858C341.816 79.6831 341.605 80.0417 341.292 80.2974C341.054 80.4921 340.769 80.6218 340.466 80.6739C340.162 80.726 339.851 80.6988 339.561 80.5949C339.2 80.4683 338.888 80.2328 338.667 79.9211C338.446 79.6093 338.327 79.2366 338.327 78.8544C338.327 78.4723 338.446 78.0995 338.667 77.7878C338.888 77.476 339.2 77.2405 339.561 77.1139C339.85 77.0092 340.161 76.981 340.465 77.0321C340.768 77.0832 341.053 77.2118 341.292 77.4055C341.605 77.6633 341.816 78.024 341.887 78.423C341.941 78.6967 341.905 78.8514 341.887 78.8514Z" fill="#263238"/>
<path d="M349.778 78.8514C349.734 78.7205 349.696 78.5875 349.665 78.4528C349.564 78.1057 349.355 77.7996 349.07 77.5781C348.854 77.4243 348.604 77.3259 348.342 77.2916C348.079 77.2574 347.812 77.2883 347.564 77.3817C347.266 77.4958 347.01 77.6976 346.829 77.9606C346.648 78.2235 346.551 78.5352 346.551 78.8544C346.551 79.1736 346.648 79.4853 346.829 79.7482C347.01 80.0112 347.266 80.213 347.564 80.3271C347.813 80.4181 348.08 80.4472 348.342 80.412C348.604 80.3767 348.854 80.2782 349.07 80.1248C349.354 79.9043 349.562 79.6006 349.665 79.2561C349.748 79.0061 349.754 78.8514 349.778 78.8514C349.802 78.8514 349.831 79.0061 349.778 79.2858C349.706 79.6831 349.495 80.0417 349.183 80.2974C348.944 80.4921 348.66 80.6218 348.356 80.6739C348.053 80.726 347.741 80.6988 347.451 80.5949C347.091 80.4683 346.778 80.2328 346.557 79.9211C346.336 79.6093 346.218 79.2366 346.218 78.8544C346.218 78.4723 346.336 78.0995 346.557 77.7878C346.778 77.476 347.091 77.2405 347.451 77.1139C347.741 77.0092 348.052 76.981 348.355 77.0321C348.659 77.0832 348.944 77.2118 349.183 77.4055C349.496 77.6633 349.707 78.024 349.778 78.423C349.831 78.6967 349.796 78.8514 349.778 78.8514Z" fill="#263238"/>
<path d="M59.0391 37.9961C59.0391 32.8907 53.6838 29.6656 48.2036 32.2123C46.9669 32.7921 45.955 33.7622 45.3236 34.9733C43.9431 37.639 44.556 40.6856 45.7996 43.2145L50.0601 54.0084C50.1953 54.3518 50.4309 54.6466 50.736 54.8543C51.0411 55.0621 51.4016 55.1732 51.7708 55.1732C52.1399 55.1732 52.5005 55.0621 52.8056 54.8543C53.1107 54.6466 53.3462 54.3518 53.4815 54.0084L57.6467 43.155C59.1045 39.8407 59.0391 37.9961 59.0391 37.9961ZM53.898 42.4469C50.2207 44.5831 46.4958 40.632 48.507 36.7286C48.7755 36.2095 49.1889 35.7795 49.6971 35.491C53.3744 33.3489 57.1052 37.3058 55.0881 41.2033C54.82 41.7242 54.4066 42.1562 53.898 42.4469Z" fill="#4200FF"/>
<path d="M77.9552 55.6333C77.9552 55.6333 77.9552 55.6988 78.0326 55.8297C78.1099 55.9606 78.1397 56.157 78.2289 56.4247L78.9668 58.6739C79.6154 60.6554 80.5615 63.5651 81.7753 67.2959L81.811 67.4149H81.692L69.6962 65.2193H69.6188V65.136L69.7795 65.2133C64.542 69.1266 58.1688 71.2204 51.631 71.1755C50.1507 71.1517 48.6737 71.0285 47.2099 70.8066C45.6943 70.5789 44.1969 70.2428 42.7293 69.801L40.5099 68.9918C40.1336 68.8605 39.7676 68.7014 39.415 68.5158L38.332 67.9981C35.3672 66.5059 32.6627 64.5449 30.3229 62.1906C27.8703 59.7047 25.8778 56.8036 24.4381 53.6221C22.2949 48.9611 21.3835 43.8281 21.7911 38.7141C22.1986 33.6002 23.9115 28.6763 26.7659 24.4136C29.6203 20.1508 33.5207 16.6917 38.094 14.3672C42.6673 12.0426 47.7605 10.9304 52.8865 11.1368C60.3167 11.4029 67.3814 14.4272 72.7027 19.6198C78.024 24.8123 81.2203 31.8009 81.6682 39.2223C81.8952 42.2969 81.6199 45.3879 80.853 48.3739C80.3799 50.2604 79.7181 52.0944 78.8775 53.8482C78.5859 54.4433 78.3539 54.9014 78.1873 55.187L77.9314 55.6393L78.1575 55.187C78.3182 54.8717 78.5443 54.4195 78.824 53.8185C79.639 52.0603 80.2807 50.2269 80.74 48.3442C81.4805 45.368 81.7356 42.2918 81.4957 39.2342C81.2107 34.7422 79.9102 30.3734 77.6922 26.4567C75.4741 22.5401 72.3963 19.1778 68.6906 16.623C63.7722 13.2486 57.9571 11.4223 51.9926 11.3788C46.0282 11.3353 40.187 13.0767 35.22 16.3791C29.35 20.3124 25.0716 26.2066 23.1506 33.0064C21.2296 39.8062 21.7915 47.0678 24.7356 53.4912C26.1604 56.6421 28.1304 59.5166 30.555 61.9823C32.8709 64.3134 35.5471 66.2562 38.4808 67.7363L39.5578 68.2539C39.9053 68.4417 40.2675 68.6009 40.6408 68.73L42.8305 69.5333C44.286 69.975 45.7715 70.311 47.2754 70.5389C48.7254 70.7596 50.1884 70.8849 51.6548 70.9137C58.1389 70.9564 64.4595 68.8795 69.6545 64.9991L69.8152 64.8801V65.0824L69.7378 64.9813L81.7158 67.2305L81.6325 67.3257L78.8954 58.6799L78.1873 56.4188C78.1099 56.1688 78.0564 55.9725 78.0147 55.8237C77.9731 55.675 77.9552 55.6214 77.9552 55.6214V55.6333Z" fill="#263238"/>
<path d="M270.871 30.6583C270.789 30.3134 270.749 29.9597 270.752 29.6051C270.732 29.1777 270.683 28.7521 270.603 28.3317C270.532 27.7574 270.421 27.1887 270.27 26.63C269.898 25.0851 269.296 23.6049 268.485 22.2386C267.437 20.4255 266.051 18.8299 264.403 17.5379C262.419 15.9657 260.093 14.8814 257.613 14.3723C254.771 13.7874 251.823 13.9701 249.075 14.9019C247.585 15.389 246.18 16.1036 244.91 17.0202C243.568 17.9405 242.386 19.0741 241.411 20.3762C239.302 23.097 238.12 26.421 238.036 29.8621C237.953 33.3031 238.973 36.6806 240.947 39.5005C241.425 40.1768 241.95 40.8189 242.518 41.4224C243.077 41.9985 243.673 42.5372 244.303 43.035C245.523 44.0085 246.886 44.7891 248.343 45.3497C251.041 46.4127 253.974 46.7393 256.84 46.2958C259.343 45.9054 261.719 44.9333 263.778 43.4575C265.488 42.2489 266.95 40.7239 268.086 38.965C268.955 37.6367 269.623 36.1869 270.067 34.6629C270.245 34.1119 270.384 33.5492 270.484 32.9789C270.584 32.5642 270.651 32.1425 270.686 31.7175C270.702 31.3608 270.76 31.0073 270.859 30.6643C270.899 31.0182 270.899 31.3755 270.859 31.7294C270.854 32.1623 270.814 32.5941 270.74 33.0206C270.669 33.6072 270.556 34.188 270.401 34.7581C270.005 36.3383 269.366 37.8477 268.509 39.2327C267.249 41.2819 265.566 43.0388 263.574 44.386C261.581 45.7333 259.324 46.64 256.953 47.0455C253.95 47.5412 250.869 47.2269 248.028 46.1351C246.493 45.5621 245.055 44.7596 243.761 43.755C243.09 43.2337 242.454 42.6692 241.857 42.0651C241.27 41.4288 240.726 40.755 240.227 40.0479C238.132 37.0761 237.049 33.5092 237.138 29.8746C237.227 26.2399 238.483 22.7303 240.721 19.8644C241.25 19.1802 241.826 18.5339 242.446 17.9306C243.065 17.3426 243.725 16.7997 244.422 16.3062C245.758 15.3497 247.236 14.607 248.801 14.1045C251.691 13.1452 254.787 12.9808 257.762 13.6285C260.109 14.1415 262.319 15.1502 264.244 16.5869C266.169 18.0236 267.765 19.8552 268.925 21.959C269.721 23.391 270.287 24.9391 270.603 26.5467C270.736 27.134 270.821 27.7309 270.859 28.3317C270.914 28.7598 270.934 29.1917 270.918 29.623C270.94 29.9688 270.924 30.316 270.871 30.6583Z" fill="#455A64"/>
<path d="M267.544 20.2697C267.58 20.3233 267.277 20.5851 266.699 21.0135L265.628 21.7811C265.42 21.9239 265.194 22.0905 264.95 22.2452L264.129 22.6736C261.156 24.3711 257.775 25.223 254.352 25.1371L252.871 25.0716L251.455 24.8455C251.223 24.8098 250.991 24.78 250.764 24.7324L250.098 24.5539C249.664 24.4349 249.229 24.3338 248.819 24.2029C247.366 23.7142 245.97 23.0719 244.653 22.2869C242.428 20.9421 241.339 19.7163 241.422 19.639C241.506 19.5616 242.726 20.5613 244.993 21.7275C246.304 22.4017 247.672 22.9593 249.08 23.3936C249.473 23.5126 249.89 23.6019 250.312 23.709L250.949 23.8637L251.609 23.9649L252.966 24.1672L254.376 24.2207C257.658 24.291 260.907 23.562 263.843 22.0965L264.676 21.7335C264.926 21.6026 265.158 21.4657 265.378 21.3408L266.509 20.7457C267.134 20.3828 267.503 20.2221 267.544 20.2697Z" fill="#455A64"/>
<path d="M240.934 40.4887C240.899 40.4411 241.202 40.1793 241.779 39.7449L242.85 38.9773C243.059 38.8345 243.285 38.6679 243.529 38.5132L244.35 38.0847C247.324 36.3893 250.704 35.5395 254.126 35.6273L255.608 35.6927L257.024 35.9129C257.256 35.9545 257.488 35.9843 257.714 36.0319L258.381 36.2044C258.815 36.3294 259.25 36.4306 259.66 36.5615C261.113 37.0458 262.51 37.6862 263.825 38.4715C266.051 39.8222 267.14 41.048 267.056 41.1254C266.973 41.2027 265.753 40.2031 263.486 39.0368C262.176 38.3579 260.808 37.7983 259.398 37.3648C259 37.2517 258.583 37.1624 258.167 37.0553L257.53 36.8947L256.869 36.7935L255.513 36.5972L254.103 36.5377C250.819 36.4683 247.568 37.1994 244.63 38.6679L243.826 39.0427C243.576 39.1737 243.344 39.3165 243.124 39.4355L241.994 40.0662C241.345 40.3816 240.97 40.5422 240.934 40.4887Z" fill="#455A64"/>
<path d="M270.859 31.0461C270.859 31.302 263.403 31.3258 254.198 31.0997C244.993 30.8736 237.579 30.5047 237.584 30.2369C237.59 29.9691 245.034 29.9632 254.245 30.1893C263.456 30.4154 270.865 30.7962 270.859 31.0461Z" fill="#455A64"/>
<path d="M253.466 46.8675C253.216 46.8675 253.192 39.4177 253.412 30.2363C253.633 21.055 254.007 13.6171 254.275 13.6231C254.543 13.629 254.549 21.0788 254.329 30.2839C254.109 39.4891 253.716 46.8734 253.466 46.8675Z" fill="#455A64"/>
<path d="M253.466 46.8443C253.406 46.9395 251.574 45.6959 249.455 42.8873C248.22 41.2337 247.219 39.4176 246.48 37.4904C245.581 35.1116 245.145 32.5831 245.195 30.0406C245.255 27.4936 245.825 24.9846 246.873 22.6622C247.713 20.7794 248.806 19.0198 250.122 17.4319C252.359 14.7245 254.204 13.5285 254.287 13.6237C254.37 13.7189 252.704 15.0874 250.645 17.8305C249.449 19.4257 248.45 21.1599 247.67 22.9954C246.712 25.2284 246.189 27.6236 246.129 30.0525C246.094 32.4848 246.497 34.9035 247.319 37.1929C247.997 39.0698 248.907 40.8548 250.026 42.5065C251.907 45.3448 253.561 46.7431 253.466 46.8443Z" fill="#455A64"/>
<path d="M254.644 13.6298C254.71 13.5346 256.542 14.7782 258.655 17.5868C259.89 19.2404 260.891 21.0565 261.63 22.9837C262.523 25.366 262.959 27.8955 262.915 30.4395C262.852 32.9842 262.282 35.4906 261.237 37.8119C260.392 39.6923 259.299 41.4513 257.988 43.0422C255.751 45.7496 253.9 46.9516 253.823 46.8504C253.746 46.7493 255.406 45.3867 257.459 42.6436C258.655 41.0484 259.654 39.3142 260.434 37.4787C261.387 35.2444 261.907 32.8498 261.969 30.4216C262.004 27.9894 261.601 25.5706 260.779 23.2812C260.098 21.4046 259.186 19.6197 258.065 17.9676C256.203 15.1293 254.537 13.731 254.644 13.6298Z" fill="#455A64"/>
<path d="M237.62 55.026L237.418 55.0795L236.823 55.2223L234.514 55.7638L225.672 57.7869L225.553 57.8167L225.589 57.6977L228.838 45.9518V45.8684H228.951L228.855 46.0232C226.17 41.7053 224.632 36.7734 224.387 31.6948C224.321 30.2741 224.353 28.8506 224.482 27.4344C224.639 25.9633 224.893 24.5042 225.244 23.0668C225.604 21.5773 226.071 20.1156 226.642 18.6933C226.975 17.9853 227.308 17.2712 227.648 16.5572C227.818 16.1932 228.017 15.843 228.243 15.5099C228.445 15.1648 228.647 14.8197 228.838 14.4746C230.588 11.6558 232.78 9.13644 235.329 7.01286C238.023 4.79133 241.089 3.06483 244.386 1.91344C249.221 0.191639 254.417 -0.260279 259.476 0.600944C264.536 1.46217 269.289 3.6077 273.282 6.83215C277.275 10.0566 280.374 14.252 282.281 19.0168C284.188 23.7815 284.841 28.9561 284.176 34.0452C283.252 41.4239 279.613 48.194 273.968 53.0347C268.324 57.8754 261.078 60.4394 253.644 60.2266C250.562 60.1789 247.507 59.6303 244.6 58.6021C242.766 57.9615 241 57.1403 239.328 56.1506C238.733 55.8055 238.322 55.5556 238.055 55.3414L237.626 55.0438L238.055 55.3116C238.352 55.4961 238.787 55.7638 239.358 56.097C241.039 57.0572 242.808 57.8542 244.642 58.4772C247.541 59.4792 250.583 60.0076 253.65 60.0421C258.872 60.1573 264.032 58.8986 268.614 56.3921C273.197 53.8856 277.04 50.2192 279.759 45.7602C282.479 41.3011 283.979 36.2058 284.11 30.9846C284.24 25.7633 282.997 20.5993 280.504 16.0097C277.118 9.80539 271.633 5.00945 265.032 2.48101C258.431 -0.0474239 251.146 -0.143158 244.481 2.21096C241.213 3.3497 238.171 5.0558 235.496 7.25088C232.971 9.35588 230.802 11.8532 229.07 14.6471C228.867 14.9863 228.665 15.3314 228.475 15.6706C228.263 16.0026 228.074 16.3485 227.909 16.7059L226.898 18.8123C226.327 20.222 225.862 21.6719 225.505 23.1501C225.154 24.5735 224.897 26.0186 224.738 27.476C224.607 28.8822 224.573 30.2958 224.637 31.7067C224.867 36.7453 226.378 41.642 229.028 45.9339L229.135 46.1065H228.933L229.04 46.0351C227.761 50.5632 226.66 54.5262 225.732 57.7691L225.648 57.6739L234.502 55.7043L236.817 55.2045L237.412 55.0795C237.481 55.0635 237.55 55.0516 237.62 55.0438V55.026Z" fill="#263238"/>
<path d="M262.688 69.3307C259.779 70.0091 257.928 72.9545 257.291 75.8761C256.655 78.7977 256.976 81.8264 256.696 84.8016C256.417 87.7767 255.375 90.9363 252.87 92.537L255.364 93.2629C254.871 94.8241 253.831 96.1551 252.436 97.0116C253.41 97.7653 254.608 98.1735 255.84 98.1719C254.376 98.5587 253.971 100.653 254.78 101.933C255.59 103.212 257.131 103.819 258.601 104.194C260.319 104.722 262.149 104.777 263.896 104.354C266.276 103.634 268.109 101.516 269.031 99.1716C269.954 96.8272 270.126 94.2685 270.222 91.7515C270.4 85.4501 270.031 79.0833 268.436 72.9842C268.044 71.5085 267.508 69.9436 266.253 69.0749C264.997 68.2061 262.855 68.5572 262.474 70.0329" fill="#4200FF"/>
<path d="M328.457 160.286C327.767 157.656 323.745 142.84 320.127 133.164C316.134 122.424 307.899 120.205 307.899 120.205C289.364 113.879 272.709 113.844 254.941 120.008C254.346 120.187 253.817 120.377 253.287 120.603H253.234C240.042 125.78 238.679 139.716 238.679 139.716L233.116 173.519C233.057 173.787 233.014 174.057 232.985 174.329L232.931 174.65C232.837 176.23 233.218 177.802 234.027 179.163C234.835 180.524 236.033 181.611 237.465 182.284C245.201 185.854 252.603 185.004 258.958 182.379L254.34 189.103H309.315L305.709 180.231L306.899 174.876L315.414 185.123C316.435 186.349 317.801 187.239 319.336 187.675C329.154 188.818 330.742 174.198 328.898 165.689" fill="#455A64"/>
<path d="M293.63 116.522C293.63 116.522 284.758 161.149 281.635 160.804C278.511 160.459 263.855 117.367 263.855 117.367C263.855 117.367 282.587 112.368 293.63 116.522Z" fill="#FFBE9D"/>
<path d="M268.472 119.813C268.425 114.678 268.282 109.269 268.282 109.269C268.282 109.269 261.659 108.216 260.231 99.5883C258.874 91.365 260.118 72.3418 260.118 72.3418C264.802 70.4281 269.96 69.9924 274.899 71.0932C279.838 72.194 284.323 74.7786 287.751 78.5004L287.448 120.224C287.412 125.068 283.217 128.894 278.034 128.816C272.792 128.739 268.514 124.728 268.472 119.813Z" fill="#FFBE9D"/>
<path d="M262.313 86.7353C262.312 87.0238 262.423 87.3015 262.623 87.5094C262.823 87.7172 263.096 87.8387 263.385 87.848C263.526 87.8585 263.667 87.8407 263.801 87.7955C263.935 87.7503 264.059 87.6788 264.165 87.585C264.271 87.4913 264.357 87.3773 264.418 87.2498C264.479 87.1222 264.514 86.9837 264.521 86.8424C264.523 86.554 264.412 86.2762 264.212 86.0684C264.012 85.8605 263.738 85.739 263.45 85.7297C263.309 85.7192 263.167 85.7371 263.033 85.7823C262.899 85.8274 262.776 85.899 262.67 85.9927C262.564 86.0865 262.478 86.2005 262.416 86.328C262.355 86.4555 262.32 86.594 262.313 86.7353Z" fill="#263238"/>
<path d="M260.856 85.9488C260.993 86.0916 261.826 85.4669 263.016 85.4609C264.206 85.455 265.086 86.0559 265.217 85.9012C265.348 85.7465 265.134 85.5799 264.753 85.3062C264.228 84.9477 263.604 84.7625 262.968 84.7766C262.347 84.7905 261.746 84.9986 261.249 85.3717C260.909 85.6216 260.784 85.8834 260.856 85.9488Z" fill="#263238"/>
<path d="M274.363 87.3113C274.362 87.5998 274.473 87.8775 274.673 88.0854C274.873 88.2932 275.146 88.4147 275.434 88.424C275.574 88.432 275.714 88.4123 275.846 88.366C275.978 88.3197 276.099 88.2478 276.203 88.1543C276.307 88.0608 276.392 87.9476 276.452 87.8213C276.512 87.695 276.546 87.5581 276.553 87.4184C276.555 87.1299 276.444 86.8522 276.244 86.6444C276.044 86.4365 275.77 86.315 275.482 86.3057C275.342 86.2977 275.203 86.3174 275.071 86.3637C274.939 86.41 274.817 86.4819 274.713 86.5754C274.609 86.6689 274.525 86.7821 274.465 86.9084C274.405 87.0347 274.37 87.1716 274.363 87.3113Z" fill="#263238"/>
<path d="M273.286 86.3067C273.429 86.4495 274.262 85.8248 275.452 85.8188C276.642 85.8129 277.523 86.4139 277.648 86.2591C277.773 86.1044 277.571 85.9378 277.19 85.6641C276.665 85.3056 276.04 85.1204 275.405 85.1345C274.782 85.1435 274.18 85.3521 273.685 85.7296C273.346 85.9795 273.221 86.2413 273.286 86.3067Z" fill="#263238"/>
<path d="M269.02 95.1667C268.389 94.9761 267.738 94.8642 267.08 94.8335C266.776 94.8335 266.485 94.7443 266.437 94.536C266.408 94.2215 266.477 93.9057 266.633 93.6316L267.52 91.3109C268.746 88.0026 269.638 85.2892 269.502 85.2357C269.365 85.1821 268.264 87.83 267.032 91.1384C266.741 91.9536 266.437 92.7271 266.187 93.4709C265.999 93.8377 265.946 94.2591 266.038 94.661C266.082 94.7679 266.15 94.8633 266.237 94.9397C266.323 95.0161 266.427 95.0714 266.538 95.1013C266.707 95.1453 266.881 95.1692 267.056 95.1727C267.708 95.2541 268.368 95.2521 269.02 95.1667Z" fill="#263238"/>
<path d="M268.282 109.257C272.347 109.294 276.343 108.203 279.825 106.104C279.825 106.104 277.053 112.054 268.407 111.298L268.282 109.257Z" fill="#EB996E"/>
<path d="M269.537 98.0342C269.764 97.7493 270.059 97.5259 270.395 97.3845C270.731 97.2432 271.097 97.1883 271.459 97.2249C271.722 97.2479 271.978 97.3235 272.211 97.4472C272.444 97.5709 272.65 97.7401 272.816 97.9449C272.977 98.143 273.072 98.3856 273.091 98.64C273.109 98.8944 273.048 99.1482 272.917 99.367C272.727 99.5818 272.477 99.7346 272.199 99.8056C271.921 99.8767 271.628 99.8628 271.358 99.7657C270.795 99.5708 270.278 99.2653 269.835 98.8672C269.698 98.7734 269.581 98.6542 269.49 98.5161C269.445 98.4514 269.421 98.3746 269.421 98.296C269.421 98.2173 269.445 98.1405 269.49 98.0758" fill="#EB996E"/>
<path d="M272.53 95.9698C272.334 95.9698 272.34 97.2551 271.239 98.1774C270.138 99.0997 268.758 98.9688 268.752 99.1473C268.752 99.2306 269.061 99.3972 269.645 99.4091C270.402 99.4151 271.137 99.1539 271.721 98.6713C272.284 98.2098 272.641 97.5446 272.715 96.8207C272.762 96.2852 272.62 95.9639 272.53 95.9698Z" fill="#263238"/>
<path d="M283.098 71.5439C280.022 76.1019 271.739 80.8859 265.771 82.0641C266.455 81.1299 270.097 78.7974 270.775 77.8691C268.097 79.9398 264.23 82.7186 260.659 82.9685C260.237 83.034 259.805 82.974 259.416 82.796C259.21 82.638 259.043 82.4343 258.93 82.2009C258.816 81.9674 258.758 81.7108 258.761 81.4512C258.516 78.8466 258.554 76.223 258.874 73.6265C259.124 71.432 260.203 69.416 261.891 67.9916C264.17 66.1648 267.461 65.671 270.573 65.5401C273.179 65.4329 275.868 65.54 278.272 66.4385C280.676 67.337 282.747 69.1638 283.134 71.3892" fill="#4200FF"/>
<path d="M293.303 92.4227C293.674 90.512 293.929 88.5806 294.065 86.639C294.243 82.1762 295.576 66.0866 280.242 67.6813L281.111 72.0071C281.111 72.0071 278.249 82.0275 284.836 88.787C284.836 88.787 282.961 102.901 287.543 107.459C287.543 107.459 292.458 97.2365 293.303 92.4227Z" fill="#4200FF"/>
<path d="M284.639 88.0373C285.563 87.8365 286.524 87.892 287.418 88.198C288.317 88.5156 289.053 89.1769 289.465 90.0366C289.829 90.9161 289.844 91.9015 289.507 92.7916C289.167 93.6754 288.634 94.4723 287.948 95.1241C287.486 95.6245 286.913 96.0097 286.275 96.2487C285.956 96.3609 285.614 96.3936 285.279 96.3438C284.944 96.294 284.627 96.1634 284.354 95.9631" fill="#FFBE9D"/>
<path d="M285.181 93.6315C285.08 93.6672 285.484 94.2266 286.323 93.9945C286.777 93.8378 287.151 93.5086 287.365 93.0782C287.613 92.6008 287.765 92.0791 287.811 91.543C287.879 90.9711 287.737 90.394 287.412 89.9185C287.28 89.7183 287.104 89.5506 286.898 89.428C286.692 89.3054 286.461 89.231 286.222 89.2104C285.353 89.2104 285.086 89.8055 285.187 89.8055C285.288 89.8055 285.591 89.5615 286.157 89.6924C286.507 89.8228 286.798 90.0751 286.978 90.4029C287.157 90.7308 287.212 91.1124 287.132 91.4775C287.037 92.4296 286.674 93.2983 286.169 93.5185C285.663 93.7386 285.24 93.5542 285.181 93.6315Z" fill="#EB996E"/>
<path d="M254.388 161.376C254.304 161.376 254.233 157.871 254.233 153.545C254.233 149.219 254.304 145.72 254.388 145.72C254.471 145.72 254.542 149.225 254.542 153.545C254.542 157.865 254.471 161.376 254.388 161.376Z" fill="#263238"/>
<path d="M276.731 145.393C276.731 145.393 268.996 145.482 268.526 147.178C267.717 150.01 269.163 165.559 269.163 165.559L276.273 167.939C276.273 167.939 279.701 167.147 278.118 160.548C277.084 156.402 275.503 152.412 273.417 148.684C273.417 148.684 282.866 148.945 282.604 146.833C282.342 144.721 276.731 145.393 276.731 145.393Z" fill="#FFBE9D"/>
<path d="M273.661 149.982C274.084 149.898 283.527 149.119 282.938 150.63C282.349 152.142 273.661 152.517 273.661 152.517V149.982Z" fill="#FFBE9D"/>
<path d="M304.002 127.119L302.835 156.615L298.527 167.932L272.06 168.48L270.989 131.951L304.002 127.119Z" fill="#263238"/>
<path d="M267.913 155.788C267.813 155.856 267.705 155.912 267.592 155.955L266.64 156.383L263.111 157.889L251.437 162.762L245.016 165.41C243.246 166.074 241.527 166.869 239.875 167.79C238.768 168.417 237.791 169.249 236.995 170.241C236.448 170.955 236.251 171.431 236.222 171.431C236.253 171.312 236.301 171.198 236.364 171.092C236.512 170.775 236.692 170.474 236.9 170.194C237.669 169.155 238.64 168.282 239.756 167.629C241.406 166.678 243.129 165.86 244.909 165.184L251.341 162.518L263.052 157.728L266.622 156.312L267.598 155.943C267.696 155.878 267.802 155.826 267.913 155.788Z" fill="#263238"/>
<path d="M276.666 167.344C276.49 167.599 276.291 167.836 276.071 168.053C275.684 168.499 275.107 169.124 274.363 169.867C272.882 171.367 270.74 173.342 268.276 175.401C265.813 177.46 263.516 179.233 261.802 180.471C260.951 181.066 260.255 181.578 259.767 181.911C259.524 182.094 259.265 182.255 258.994 182.393C259.209 182.173 259.444 181.974 259.696 181.798L261.671 180.28C263.337 179.001 265.616 177.21 268.08 175.151C270.543 173.092 272.697 171.159 274.209 169.701C274.97 168.981 275.571 168.374 275.994 167.963C276.2 167.738 276.425 167.531 276.666 167.344Z" fill="#263238"/>
<path d="M316.527 186.218C316.461 186.277 312.582 181.826 307.857 176.281C303.133 170.735 299.354 166.201 299.42 166.165C299.485 166.129 303.365 170.544 308.089 176.078C312.814 181.612 316.592 186.164 316.527 186.218Z" fill="#263238"/>
<path d="M324.007 164.792C323.713 164.714 323.427 164.613 323.15 164.489C322.602 164.274 321.817 163.941 320.859 163.513C318.943 162.65 316.337 161.365 313.564 159.758C310.791 158.151 308.369 156.539 306.667 155.307C305.816 154.712 305.138 154.177 304.68 153.808C304.432 153.631 304.201 153.432 303.99 153.213C304.258 153.354 304.513 153.519 304.751 153.707C305.281 154.07 305.971 154.546 306.792 155.123C308.524 156.313 310.958 157.884 313.719 159.484C316.479 161.085 319.074 162.4 320.954 163.304L323.197 164.369C323.479 164.486 323.75 164.627 324.007 164.792Z" fill="#263238"/>
<path d="M310.309 158.317C310.226 158.317 309.762 155.181 309.274 151.289C308.786 147.398 308.458 144.226 308.542 144.22C308.625 144.215 309.095 147.356 309.583 151.248C310.071 155.139 310.398 158.311 310.309 158.317Z" fill="#263238"/>
<path d="M287.924 93.5782C287.855 93.7111 287.774 93.8367 287.68 93.9531L286.924 94.9647L284.181 98.5349V98.3445L288.65 101.855L289.048 102.176H288.834L292.702 97.3329V97.5114L289.792 95.1313L288.995 94.4589C288.896 94.3823 288.806 94.2945 288.727 94.1971C288.727 94.1971 288.846 94.2566 289.042 94.3994L289.881 94.9944L292.857 97.2793L292.958 97.3567L292.874 97.4579C291.774 98.874 290.465 100.54 289.054 102.337L288.959 102.462L288.834 102.367L288.453 102.117C286.841 100.832 285.324 99.6178 284.009 98.5765L283.901 98.4873L283.985 98.3861L286.817 94.8992L287.626 93.9293C287.805 93.6794 287.912 93.5663 287.924 93.5782Z" fill="#263238"/>
<path d="M299.277 165.702C294.993 165.506 290.725 165.049 286.496 164.334C281.492 163.536 281.545 163.078 281.736 162.507C282.212 160.972 290.59 163.578 289.084 161.965C287.579 160.353 278.505 159.972 279.07 158.395C279.808 156.33 288.531 159.222 289.287 159.413C290.042 159.603 290.31 158.514 289.62 158.377C288.632 158.181 278.261 155.89 278.963 153.855C279.356 152.725 281.307 153.671 281.307 153.671C281.307 153.671 290.869 156.539 291.173 155.563C291.476 154.587 285.919 152.701 283.997 152.207C282.075 151.713 281.545 150.606 282.438 149.94C283.033 149.488 288.983 150.874 290.834 151.416C292.684 151.957 297.867 153.516 295.903 150.672L295.82 150.535C293.809 147.786 293.172 145.001 293.535 144.067C293.635 143.872 293.787 143.708 293.974 143.594C294.16 143.48 294.375 143.419 294.594 143.419C294.813 143.419 295.028 143.48 295.215 143.594C295.402 143.708 295.554 143.872 295.653 144.067C295.749 144.205 295.816 144.361 295.85 144.525C295.869 144.608 295.893 144.689 295.921 144.769C296.394 145.836 296.977 146.851 297.659 147.798C298.248 148.663 298.981 149.421 299.825 150.041C300.8 150.749 303.27 153.355 303.99 153.819" fill="#FFBE9D"/>
<path d="M122.196 130.624C119.516 130.575 116.958 129.498 115.05 127.615C113.143 125.732 112.033 123.188 111.949 120.509C111.806 115.873 111.699 111.405 111.699 111.405C111.699 111.405 103.184 110.613 102.56 102.188C101.935 93.7621 102.203 74.3105 102.203 74.3105C106.87 71.9548 112.081 70.8877 117.299 71.2193C122.517 71.5509 127.551 73.2692 131.883 76.1967L133.192 77.0833L132.829 120.283C132.816 121.662 132.53 123.024 131.987 124.292C131.444 125.56 130.656 126.708 129.667 127.669C128.679 128.631 127.509 129.387 126.227 129.894C124.945 130.401 123.574 130.649 122.196 130.624Z" fill="#B78876"/>
<path d="M111.491 96.988C111.491 96.8928 110.765 96.7916 109.587 96.7024C109.278 96.7024 109.04 96.6369 108.992 96.4763C108.966 96.1711 109.024 95.8646 109.159 95.5897L109.944 93.1917C111.003 89.7524 111.729 86.92 111.545 86.8665C111.36 86.8129 110.355 89.556 109.307 92.9953C109.058 93.8343 108.82 94.6376 108.587 95.429C108.414 95.831 108.383 96.2801 108.498 96.7024C108.55 96.8151 108.626 96.9145 108.722 96.9929C108.818 97.0713 108.931 97.1266 109.052 97.1546C109.224 97.1885 109.4 97.2005 109.575 97.1903C110.753 97.1427 111.485 97.0772 111.491 96.988Z" fill="#263238"/>
<path d="M115.341 98.0344C113.553 98.8988 111.678 99.571 109.748 100.04C110.179 100.626 110.796 101.048 111.499 101.238C112.201 101.429 112.947 101.375 113.615 101.087C116.079 100.004 115.341 98.0344 115.341 98.0344Z" fill="white"/>
<path d="M111.682 111.273C115.579 111.107 119.339 109.783 122.481 107.471C122.481 107.471 120.256 113.701 111.771 113.457L111.682 111.273Z" fill="#A36957"/>
<path d="M132.722 87.4909C132.719 87.1661 132.841 86.8527 133.062 86.6149C133.284 86.3771 133.587 86.2328 133.912 86.2116C135.488 86.1699 138.077 86.8066 138.303 91.1325C138.648 97.3386 132.68 95.7916 132.662 95.6131C132.644 95.4346 132.704 89.9007 132.722 87.4909Z" fill="#B78876"/>
<path d="M134.055 93.1919C134.055 93.1919 134.162 93.2633 134.352 93.3347C134.612 93.4387 134.902 93.4387 135.162 93.3347C135.804 93.055 136.298 91.984 136.262 90.8653C136.251 90.3328 136.119 89.8097 135.876 89.3361C135.807 89.1453 135.694 88.974 135.545 88.8371C135.395 88.7002 135.215 88.6019 135.019 88.5506C134.892 88.5244 134.76 88.5434 134.646 88.6042C134.532 88.6651 134.443 88.764 134.394 88.8839C134.323 89.0624 134.394 89.1814 134.334 89.1933C134.275 89.2052 134.198 89.0981 134.233 88.8362C134.26 88.6824 134.337 88.542 134.453 88.4376C134.535 88.368 134.63 88.3153 134.732 88.2826C134.834 88.2499 134.942 88.2379 135.048 88.2472C135.307 88.2824 135.553 88.3835 135.761 88.5408C135.969 88.6982 136.134 88.9065 136.239 89.1457C136.53 89.6545 136.695 90.2258 136.72 90.8118C136.75 92.0613 136.173 93.2692 135.292 93.5787C135.129 93.636 134.955 93.6556 134.783 93.636C134.611 93.6164 134.445 93.5582 134.299 93.4656C134.073 93.3228 134.031 93.1919 134.055 93.1919Z" fill="#A36957"/>
<path d="M104.844 88.5863C104.864 88.8846 105 89.1634 105.222 89.3634C105.444 89.5634 105.736 89.6688 106.035 89.6573C106.181 89.659 106.325 89.6312 106.461 89.5757C106.596 89.5202 106.718 89.4381 106.821 89.3343C106.924 89.2305 107.004 89.1071 107.058 88.9714C107.112 88.8358 107.139 88.6906 107.135 88.5446C107.118 88.2447 106.984 87.9635 106.761 87.7619C106.539 87.5604 106.245 87.4546 105.945 87.4676C105.799 87.4668 105.654 87.4953 105.519 87.5514C105.384 87.6076 105.261 87.6902 105.159 87.7945C105.056 87.8988 104.975 88.0226 104.921 88.1586C104.867 88.2946 104.841 88.44 104.844 88.5863Z" fill="#263238"/>
<path d="M102.899 87.4373C103.053 87.5742 103.875 86.8423 105.1 86.7887C106.326 86.7352 107.278 87.2528 107.397 87.0981C107.516 86.9434 107.296 86.7649 106.885 86.5031C106.325 86.1727 105.677 86.0231 105.029 86.0747C104.39 86.1138 103.781 86.3579 103.291 86.7709C102.934 87.0981 102.804 87.3718 102.899 87.4373Z" fill="#263238"/>
<path d="M117.085 88.3721C117.103 88.671 117.238 88.9507 117.461 89.151C117.683 89.3513 117.975 89.4562 118.275 89.4432C118.421 89.4448 118.566 89.417 118.701 89.3616C118.837 89.3062 118.96 89.2242 119.063 89.1205C119.166 89.0168 119.247 88.8934 119.302 88.7577C119.357 88.622 119.384 88.4767 119.381 88.3305C119.361 88.0321 119.226 87.7534 119.004 87.5534C118.782 87.3533 118.49 87.2479 118.191 87.2594C118.045 87.2586 117.9 87.2869 117.765 87.3426C117.63 87.3983 117.508 87.4803 117.405 87.5839C117.302 87.6875 117.22 87.8105 117.165 87.9458C117.11 88.0811 117.083 88.226 117.085 88.3721Z" fill="#263238"/>
<path d="M115.377 87.4375C115.531 87.5744 116.353 86.8425 117.578 86.789C118.804 86.7354 119.75 87.2531 119.875 87.0984C120 86.9437 119.774 86.7651 119.357 86.5033C118.8 86.1723 118.153 86.0226 117.507 86.0749C116.868 86.114 116.259 86.3582 115.769 86.7711C115.412 87.0984 115.299 87.3721 115.377 87.4375Z" fill="#263238"/>
<path d="M123.511 71.3886C122.954 72.7021 122.79 74.149 123.04 75.5537C123.289 76.9585 123.94 78.2607 124.915 79.3025C125.742 80.1594 126.789 80.8139 127.509 81.7719C128.997 83.7533 128.753 86.4786 128.991 88.942C129.098 90.0845 129.366 91.3222 130.181 92.0778C130.996 92.8335 132.591 92.9109 133.156 91.9291C133.315 91.6179 133.42 91.2818 133.466 90.9354C133.985 88.1863 134.501 85.4393 135.013 82.6942C135.4 80.6294 135.792 78.529 135.435 76.4464C135.227 75.2351 134.767 74.0808 134.086 73.0579C133.404 72.0349 132.516 71.166 131.479 70.5069C130.441 69.8478 129.278 69.4131 128.062 69.2309C126.847 69.0486 125.606 69.1229 124.421 69.4488" fill="#263238"/>
<path d="M124.82 69.6459C121.958 69.0985 120.351 68.1822 118.328 67.2658C116.33 66.2737 114.047 66.0147 111.878 66.5339C110.438 66.9385 109.075 67.8073 107.594 67.7894C106.112 67.7716 104.797 66.9028 103.393 66.4566C102.431 66.1599 101.42 66.0596 100.419 66.1619C99.4187 66.2641 98.4487 66.5667 97.5673 67.0516C96.1808 67.8132 94.9372 69.1759 94.8182 70.842C94.6992 72.508 96.1868 74.2277 97.6803 73.7517C96.1213 74.2931 95.4906 76.59 96.2641 78.1192C96.6684 78.8381 97.2851 79.4144 98.0297 79.7691C98.7743 80.1239 99.6104 80.2397 100.423 80.1006C102.07 79.7372 103.549 78.8347 104.624 77.5361C104.66 79.3926 106.522 80.6957 108.248 80.6421C109.974 80.5886 111.533 79.5532 112.955 78.4881C114.377 77.423 115.817 76.2627 117.507 75.8878C118.697 75.626 119.887 75.7688 121.077 75.626C122.267 75.4832 123.546 74.9655 124.124 73.8409C124.701 72.7163 126.986 71.3953 125.79 71.3596" fill="#263238"/>
<path d="M107.861 78.78C108.067 78.9042 108.28 79.0174 108.498 79.1192C109.118 79.3252 109.788 79.3252 110.408 79.1192C110.839 78.9935 111.251 78.8115 111.634 78.5777C112.05 78.3278 112.473 77.9827 112.925 77.6792C113.396 77.3212 113.895 77.0027 114.418 76.7272C114.998 76.431 115.636 76.2703 116.287 76.2571C117.614 76.2571 118.81 76.5903 119.893 76.4951C120.369 76.4661 120.834 76.3328 121.253 76.1045C121.673 75.8763 122.037 75.5587 122.32 75.1741C122.721 74.6569 122.973 74.0393 123.046 73.389C123.094 72.9249 123.046 72.6631 123.076 72.6631C123.106 72.6631 123.106 72.7226 123.13 72.8475C123.161 73.0283 123.173 73.2117 123.165 73.395C123.138 74.082 122.906 74.7453 122.499 75.2991C122.225 75.6906 121.875 76.0226 121.469 76.2749C121.001 76.5617 120.47 76.7331 119.922 76.7748C118.768 76.8878 117.542 76.5367 116.299 76.5605C115.055 76.5843 113.984 77.2686 113.091 77.9053C112.633 78.2266 112.205 78.542 111.765 78.7919C111.358 79.0299 110.919 79.2082 110.461 79.3215C109.801 79.5229 109.091 79.4914 108.45 79.2322C108.281 79.1529 108.124 79.0486 107.986 78.9228C107.899 78.8356 107.857 78.7879 107.861 78.78Z" fill="#263238"/>
<path d="M123.933 66.7065C123.939 67.3685 123.997 68.0291 124.106 68.682C124.314 69.3117 124.575 69.9228 124.885 70.5088C124.355 70.0494 123.98 69.4381 123.809 68.7578C123.639 68.0776 123.682 67.3614 123.933 66.7065Z" fill="#263238"/>
<path d="M127.105 66.5757C127.17 66.6411 126.402 67.3671 125.831 68.5095C125.26 69.652 125.099 70.6873 125.01 70.6695C124.945 69.8642 125.135 69.0588 125.551 68.3667C125.875 67.6254 126.416 67.0005 127.105 66.5757Z" fill="#263238"/>
<path d="M166.894 154.806L179.848 188.134H160.022L150.781 164.41L166.894 154.806Z" fill="#B78876"/>
<path d="M96.6807 127.745C96.6807 127.745 79.5973 145.328 72.2189 145.328C69.8031 145.328 67.9109 116.041 67.8811 107.597C68.2726 106.507 68.8328 105.485 69.5413 104.568C70.1657 103.697 70.8862 102.898 71.6893 102.188C72.703 101.32 73.83 100.593 75.0394 100.028C76.1937 99.6236 76.2889 98.0468 75.2357 97.7314C74.1825 97.4161 70.9812 98.4574 68.0953 101.177C65.2094 103.896 66.0841 97.8088 66.3578 95.5893C66.6316 93.3698 67.1492 86.4496 66.5304 85.8427C65.6259 84.9501 64.4775 85.7772 64.2514 88.0026C64.0253 90.2281 62.9364 96.8805 61.7463 96.708C60.5563 96.5354 62.1391 85.2357 62.1391 85.2357C62.1391 85.2357 62.8591 82.8556 61.544 82.6176C59.1163 82.1832 58.3606 94.2981 58.319 95.4524C58.319 96.2557 57.0099 96.1189 57.0872 95.2561C57.1646 94.3933 58.8723 84.01 56.4268 83.5399C54.5405 83.1829 55.7127 93.5067 54.1597 95.4881C52.6067 97.4696 54.0704 87.5445 52.2496 87.2767C51.5713 87.1815 51.0596 87.1993 51.0596 92.995C51.0596 96.1129 52.2496 100.82 51.7855 106.818C52.571 124.526 51.7022 174.253 71.4216 168.362C93.0867 161.876 107.891 147.684 107.891 147.684L96.6807 127.745Z" fill="#B78876"/>
<path d="M144.509 143.5C144.597 143.727 144.661 143.962 144.7 144.202C144.807 144.655 144.944 145.315 145.099 146.136C145.402 147.779 145.765 150.058 146.045 152.586C146.324 155.115 146.467 157.418 146.527 159.084C146.527 159.917 146.568 160.596 146.562 161.06C146.581 161.302 146.569 161.546 146.527 161.786C146.476 161.549 146.448 161.308 146.443 161.066C146.408 160.536 146.36 159.876 146.306 159.096C146.193 157.436 146.015 155.145 145.711 152.622C145.408 150.099 145.116 147.82 144.855 146.172C144.736 145.398 144.64 144.75 144.557 144.226C144.513 143.987 144.497 143.743 144.509 143.5Z" fill="#263238"/>
<path d="M93.7889 188.134L148.365 188.408L146.527 176.888C147.008 171.421 146.982 165.921 146.449 160.459L149.216 167.95L171.774 156.645C171.774 156.645 163.574 134.783 156.708 127.375C148.038 118.015 132.43 118.949 132.43 118.949L121.886 126.09L112.181 119.253C106.975 119.864 101.908 121.338 97.1865 123.614L96.6867 123.757V123.864C90.9625 126.84 82.7927 134.141 75.0156 141.216L83.9947 149.957L93.9376 159.221C94.5008 159.138 95.0712 159.114 95.6394 159.15C95.806 160.173 93.7889 188.134 93.7889 188.134Z" fill="#455A64"/>
<path opacity="0.2" d="M144.771 140.009L152.191 166.464L149.216 167.951L146.455 160.46C146.455 160.46 143.759 144.775 144.771 140.009Z" fill="black"/>
<path d="M111.574 119.176V116.32C111.574 116.32 120.095 115.659 121.821 125.727C121.821 125.727 124.599 116.32 132.87 115.374L134.06 119.771C134.06 119.771 130.139 132.023 129.574 132.13C129.009 132.237 121.839 134.326 121.839 134.326L117.673 133.385L113.062 128.131L111.574 119.176Z" fill="#455A64"/>
<path d="M134.245 119.438C134.104 119.619 133.945 119.784 133.769 119.932C133.46 120.247 133.007 120.687 132.472 121.264C131.082 122.756 129.844 124.383 128.777 126.12C128.515 126.548 128.277 126.971 128.051 127.381L127.914 127.631L127.783 127.381C126.837 125.596 125.998 124.049 125.355 122.841C125.217 122.608 125.033 122.406 124.814 122.246C124.638 122.125 124.432 122.053 124.219 122.038C124.042 122.036 123.867 122.066 123.701 122.127C123.701 122.127 123.838 121.937 124.225 121.931C124.456 121.927 124.684 121.992 124.879 122.115C125.134 122.281 125.349 122.501 125.51 122.758C126.182 123.883 127.039 125.459 128.033 127.262H127.795C128.021 126.846 128.259 126.412 128.527 125.983C129.597 124.221 130.874 122.593 132.329 121.134C132.888 120.574 133.364 120.152 133.704 119.866C133.863 119.698 134.045 119.554 134.245 119.438Z" fill="#263238"/>
<path d="M111.021 119.968C111.174 120.092 111.31 120.236 111.426 120.396C111.676 120.688 112.021 121.11 112.443 121.64C113.294 122.693 114.448 124.163 115.71 125.805L115.912 126.067H115.65C116.109 125.228 116.144 124.282 116.352 123.413C116.485 122.624 116.91 121.915 117.543 121.426C117.766 121.277 118.021 121.182 118.287 121.148C118.553 121.114 118.824 121.142 119.078 121.229C119.211 121.285 119.334 121.364 119.441 121.461C119.506 121.539 119.53 121.58 119.524 121.586C119.373 121.488 119.211 121.406 119.042 121.342C118.807 121.284 118.561 121.277 118.323 121.322C118.085 121.367 117.859 121.463 117.662 121.604C117.105 122.083 116.743 122.75 116.644 123.478C116.534 124.419 116.295 125.34 115.936 126.216L115.823 126.424L115.68 126.233L115.478 125.972C114.216 124.335 113.098 122.842 112.282 121.753C111.884 121.211 111.562 120.765 111.342 120.456C111.215 120.307 111.107 120.143 111.021 119.968Z" fill="#263238"/>
<path d="M117.084 188.134C117.077 188.079 117.077 188.023 117.084 187.968C117.084 187.849 117.084 187.688 117.084 187.497C117.084 187.057 117.138 186.45 117.18 185.677C117.281 184.076 117.43 181.797 117.602 178.994C117.995 173.33 118.53 165.547 119.119 156.949L120.72 134.932C120.94 132.13 121.119 129.857 121.244 128.256C121.309 127.483 121.363 126.876 121.404 126.441C121.404 126.245 121.44 126.09 121.452 125.965C121.445 125.914 121.445 125.862 121.452 125.811C121.462 125.864 121.462 125.918 121.452 125.971V126.441C121.452 126.882 121.393 127.489 121.351 128.262C121.25 129.863 121.107 132.142 120.928 134.944C120.542 140.609 120.006 148.392 119.417 156.99C118.828 165.588 118.227 173.371 117.81 179.006C117.59 181.809 117.418 184.082 117.293 185.683C117.221 186.456 117.168 187.063 117.132 187.503C117.132 187.694 117.096 187.849 117.084 187.974C117.093 188.027 117.093 188.081 117.084 188.134Z" fill="#263238"/>
<path d="M97.4898 135.2C97.5 135.517 97.4821 135.833 97.4363 136.146C97.3887 136.807 97.3173 137.67 97.234 138.717C97.0733 140.883 96.9067 143.888 96.7222 147.208C96.5378 150.528 96.3355 153.527 96.1272 155.699C96.0201 156.782 95.913 157.663 95.8238 158.264C95.7948 158.58 95.7371 158.892 95.6512 159.198C95.641 158.881 95.659 158.565 95.7047 158.252C95.7583 157.591 95.8238 156.722 95.9071 155.681C96.0737 153.509 96.2343 150.504 96.4247 147.19C96.6151 143.876 96.8056 140.865 97.0198 138.693C97.1269 137.61 97.234 136.735 97.3232 136.128C97.3526 135.815 97.4083 135.504 97.4898 135.2Z" fill="#263238"/>
<path d="M121.249 124.287C121.249 124.287 118.322 128.113 118.75 128.684L121.249 132.023H123.035C123.035 132.023 124.701 127.346 124.272 126.751C123.844 126.155 121.249 124.287 121.249 124.287Z" fill="#4200FF"/>
<path d="M125.712 123.257L122.481 125.786L123.719 128.154L127.045 125.709L125.712 123.257Z" fill="#4200FF"/>
<path d="M116.222 124.852L119.167 127.315L120.797 124.852L117.079 122.026L116.222 124.852Z" fill="#4200FF"/>
<path d="M121.22 132.023L116.721 172.277L121.142 186.278L127.045 172.408L123.159 131.542L121.22 132.023Z" fill="#4200FF"/>
<path d="M152.65 124.537C152.464 124.386 152.265 124.253 152.054 124.138C151.474 123.869 150.812 123.831 150.204 124.031C149.313 124.373 148.522 124.931 147.901 125.656C147.082 126.5 146.374 127.446 145.795 128.47C144.749 130.343 144.139 132.428 144.01 134.569C143.914 136.217 144.123 137.235 144.057 137.241C143.983 137.01 143.932 136.773 143.903 136.533C143.811 135.88 143.775 135.222 143.795 134.563C143.859 132.371 144.453 130.227 145.527 128.315C146.118 127.267 146.849 126.305 147.699 125.453C148.358 124.706 149.201 124.144 150.144 123.823C150.47 123.724 150.812 123.691 151.15 123.727C151.489 123.763 151.816 123.866 152.114 124.031C152.272 124.123 152.415 124.239 152.536 124.376C152.626 124.471 152.655 124.531 152.65 124.537Z" fill="#263238"/>
<path d="M195.177 74.7458C191.363 77.0843 188.715 80.9937 187.144 85.1768C185.573 89.3598 184.978 93.8464 184.514 98.2675C183.284 110.02 182.873 121.844 183.282 133.654C197.7 135.475 212.23 137.308 226.719 136.32C224.202 119.76 222.608 103.218 224.625 86.587" fill="#263238"/>
<path d="M227.564 212.358L217.05 191.127L221.061 175.597C221.531 178.888 221.947 181.744 221.947 181.744L244.469 180.554C244.667 180.543 244.861 180.492 245.038 180.402C245.216 180.313 245.372 180.187 245.498 180.034C245.624 179.88 245.717 179.702 245.77 179.511C245.823 179.32 245.836 179.12 245.808 178.923L241.446 147.863C241.446 147.863 240.036 133.451 226.392 128.096H226.327C225.779 127.881 225.208 127.691 224.619 127.501C206.226 121.122 189 121.164 169.834 127.703C169.834 127.703 161.319 129.994 157.19 141.103C153.06 152.212 148.859 168.54 148.859 168.54L167.96 175.306L168.085 172.074L172.31 188.236L163.045 211.775L195.385 212.572L227.564 212.358Z" fill="#4200FF"/>
<path d="M148.877 168.332L146.729 178.447C144.885 187.165 151.341 196.114 160.195 197.119L207.268 201.951C209.748 202.231 212.26 202.011 214.654 201.305C217.048 200.599 219.277 199.422 221.209 197.841C223.142 196.261 224.738 194.31 225.905 192.104C227.072 189.897 227.786 187.479 228.005 184.993L168.656 179.34L169.025 173.639L148.877 168.332Z" fill="#4200FF"/>
<path d="M207.744 178.679L211.397 178.001C211.397 178.001 220.061 168.522 221.685 168.391C223.024 168.278 230.397 168.349 232.991 168.391C233.226 168.394 233.45 168.489 233.614 168.657C233.779 168.824 233.872 169.049 233.872 169.283C233.872 169.515 233.782 169.738 233.621 169.904C233.46 170.071 233.24 170.168 233.009 170.176L224.303 170.515L224.262 171.217L232.979 171.33C233.872 171.402 234.437 172.806 231.599 173.062L224.303 173.318V173.77L231.7 174.805C232.075 174.859 233.056 175.049 233.062 175.43C233.062 175.43 233.515 176.352 231.402 176.62C230.682 176.709 224.262 176.495 224.262 176.495L224.506 177.09L231.158 178.524C231.391 178.575 231.596 178.711 231.732 178.907C231.867 179.102 231.924 179.342 231.89 179.578C231.857 179.819 231.732 180.038 231.542 180.189C231.351 180.339 231.109 180.411 230.867 180.387L223.768 179.732L216.794 185.296H207.452L207.744 178.679Z" fill="#FFBE9D"/>
<path d="M184.609 123.121C184.609 123.121 193.778 170.009 197.009 169.67C200.24 169.331 215.396 124.727 215.396 124.727C215.396 124.727 196.028 118.831 184.609 123.121Z" fill="#FAFAFA"/>
<path d="M225.184 168.511C225.101 168.511 225.029 165.274 225.029 161.287C225.029 157.3 225.101 154.069 225.184 154.069C225.267 154.069 225.339 157.3 225.339 161.287C225.339 165.274 225.273 168.511 225.184 168.511Z" fill="#263238"/>
<path d="M168.894 168.813C168.907 168.117 168.971 167.423 169.084 166.737C169.245 165.451 169.483 163.69 169.769 161.744C170.054 159.798 170.322 158.031 170.536 156.764C170.622 156.07 170.759 155.384 170.947 154.711C170.934 155.409 170.87 156.105 170.756 156.794C170.596 158.073 170.358 159.84 170.072 161.786C169.787 163.732 169.519 165.487 169.305 166.76C169.219 167.454 169.082 168.14 168.894 168.813Z" fill="#263238"/>
<path d="M195.385 212.542C195.368 212.397 195.368 212.252 195.385 212.107C195.385 211.792 195.385 211.381 195.385 210.864C195.385 209.781 195.385 208.216 195.427 206.282C195.498 202.414 195.706 197.077 195.974 191.186C196.242 185.295 196.48 179.958 196.611 176.09C196.664 174.186 196.712 172.633 196.748 171.514C196.748 171.002 196.748 170.586 196.783 170.271C196.78 170.125 196.792 169.979 196.819 169.836C196.832 169.981 196.832 170.126 196.819 170.271C196.819 170.584 196.819 171 196.819 171.52C196.819 172.597 196.819 174.162 196.783 176.096C196.712 179.964 196.498 185.301 196.236 191.198C195.974 197.095 195.724 202.426 195.599 206.288C195.54 208.198 195.492 209.751 195.462 210.864C195.462 211.381 195.462 211.798 195.421 212.107C195.418 212.253 195.406 212.398 195.385 212.542Z" fill="#263238"/>
<path d="M215.318 124.651C215.318 124.651 215.348 124.853 215.419 125.246C215.522 125.8 215.679 126.342 215.889 126.865C216.225 127.687 216.622 128.483 217.08 129.245C217.696 130.262 218.258 131.31 218.763 132.387C219.41 133.707 219.658 135.188 219.477 136.647C219.33 137.457 219.003 138.224 218.52 138.89C218.017 139.584 217.455 140.232 216.842 140.83C215.531 142.085 214.337 143.455 213.271 144.924C212.136 146.498 211.495 148.375 211.433 150.315C211.433 151.29 211.649 152.253 212.063 153.135C212.499 154.003 212.885 154.895 213.218 155.807C213.368 156.271 213.431 156.76 213.402 157.247C213.368 157.733 213.214 158.203 212.956 158.616C212.416 159.351 211.744 159.981 210.975 160.472L203.519 165.97L198.479 169.647L197.098 170.641L196.735 170.891L196.604 170.968C196.604 170.968 196.64 170.927 196.718 170.861L197.063 170.588L198.407 169.552L203.364 165.786L210.778 160.24C211.516 159.768 212.16 159.163 212.676 158.455C212.911 158.084 213.05 157.661 213.081 157.223C213.103 156.77 213.043 156.316 212.902 155.884C212.572 154.986 212.188 154.108 211.754 153.254C211.322 152.335 211.098 151.331 211.099 150.315C211.162 148.314 211.823 146.378 212.998 144.757C214.073 143.272 215.285 141.89 216.615 140.628C217.835 139.438 218.96 138.123 219.198 136.599C219.384 135.19 219.155 133.757 218.537 132.476C218.049 131.398 217.502 130.347 216.901 129.328C216.456 128.548 216.072 127.734 215.753 126.894C215.551 126.361 215.412 125.806 215.336 125.24C215.314 125.094 215.301 124.947 215.294 124.8C215.294 124.749 215.302 124.699 215.318 124.651Z" fill="#263238"/>
<path d="M196.974 169.189H196.831L196.408 169.111C195.87 168.999 195.34 168.854 194.82 168.677C192.902 168.028 191.127 167.018 189.589 165.702C187.291 163.725 185.622 161.119 184.787 158.204C184.296 156.493 184.095 154.711 184.192 152.932C184.241 151.996 184.367 151.064 184.567 150.148C184.795 149.236 184.821 148.286 184.645 147.363C184.521 146.925 184.27 146.534 183.925 146.238C183.555 145.968 183.14 145.767 182.699 145.643C182.259 145.495 181.8 145.376 181.354 145.191C180.911 145.008 180.507 144.741 180.164 144.406C179.519 143.727 179.092 142.871 178.938 141.948C178.773 141.088 178.725 140.209 178.796 139.336C179.074 136.348 179.73 133.407 180.747 130.583C181.427 128.682 182.262 126.841 183.246 125.079C183.597 124.484 183.883 123.984 184.091 123.675L184.323 123.318C184.347 123.274 184.377 123.234 184.413 123.199C184.413 123.199 184.413 123.246 184.353 123.33L184.145 123.705C183.954 124.026 183.687 124.514 183.347 125.139C182.417 126.915 181.621 128.759 180.967 130.654C179.996 133.469 179.367 136.389 179.093 139.354C179.035 140.202 179.087 141.054 179.248 141.889C179.395 142.751 179.792 143.552 180.39 144.191C180.713 144.497 181.091 144.739 181.503 144.905C181.919 145.078 182.372 145.197 182.83 145.352C183.308 145.49 183.756 145.716 184.151 146.018C184.546 146.353 184.832 146.799 184.972 147.298C185.163 148.265 185.139 149.262 184.901 150.219C184.704 151.124 184.579 152.043 184.526 152.968C184.438 154.715 184.639 156.464 185.121 158.145C185.929 161.014 187.552 163.587 189.792 165.553C191.3 166.876 193.039 167.911 194.921 168.606C195.587 168.844 196.111 168.998 196.486 169.094L196.896 169.201C196.922 169.195 196.948 169.191 196.974 169.189Z" fill="#263238"/>
<path d="M221.739 178.744L182.306 177.471L182.366 190.561L208.476 196.298L226.844 199.231C238.257 199.231 247.391 188.752 245.623 177.477H245.576L221.739 178.744Z" fill="#4200FF"/>
<path d="M232.592 178.496C232.423 178.523 232.252 178.535 232.081 178.531L230.617 178.573L225.226 178.668C220.674 178.74 214.385 178.817 207.435 178.746C200.485 178.674 194.195 178.43 189.649 178.151C187.376 177.996 185.543 177.853 184.294 177.722L182.836 177.573C182.664 177.564 182.492 177.54 182.324 177.502C182.494 177.488 182.666 177.488 182.836 177.502L184.3 177.591C185.573 177.681 187.412 177.794 189.655 177.919C194.201 178.168 200.485 178.389 207.435 178.454C214.385 178.52 220.662 178.454 225.214 178.454H230.611H232.075C232.248 178.455 232.421 178.469 232.592 178.496Z" fill="#263238"/>
<path d="M181.973 178.679L178.319 178.001C178.319 178.001 169.656 168.522 168.025 168.391C166.692 168.278 159.32 168.349 156.749 168.391C156.515 168.394 156.291 168.489 156.126 168.657C155.961 168.824 155.869 169.049 155.869 169.283C155.868 169.514 155.958 169.736 156.117 169.902C156.277 170.069 156.495 170.167 156.725 170.176L165.437 170.515L165.478 171.217L156.755 171.33C155.869 171.402 155.297 172.806 158.142 173.062L165.437 173.318V173.77L158.041 174.805C157.666 174.859 156.684 175.049 156.672 175.43C156.672 175.43 156.226 176.352 158.332 176.62C159.058 176.709 165.472 176.495 165.472 176.495L165.223 177.09L158.576 178.524C158.344 178.576 158.139 178.713 158.002 178.908C157.866 179.102 157.807 179.341 157.838 179.578C157.872 179.818 157.998 180.036 158.188 180.187C158.379 180.337 158.62 180.409 158.862 180.387L165.966 179.732L172.94 185.296H182.258L181.973 178.679Z" fill="#FFBE9D"/>
<path d="M226.142 199.018C225.994 199.035 225.844 199.035 225.696 199.018L224.423 198.881C223.31 198.756 221.715 198.554 219.74 198.286C215.789 197.739 210.35 196.876 204.382 195.71C198.414 194.543 193.076 193.282 189.185 192.294C187.257 191.806 185.698 191.39 184.627 191.104L183.395 190.747C183.249 190.71 183.106 190.662 182.967 190.604C183.116 190.617 183.264 190.644 183.407 190.688L184.657 190.985L189.238 192.104C193.112 193.032 198.479 194.252 204.441 195.424C210.404 196.596 215.836 197.489 219.77 198.09L224.435 198.786L225.702 198.982C225.849 198.986 225.996 198.998 226.142 199.018Z" fill="#263238"/>
<path d="M182.722 190.615C182.549 190.007 182.433 189.383 182.377 188.753C182.223 187.563 182.056 185.98 181.961 184.201C181.866 182.422 181.872 180.797 181.907 179.625C181.899 178.993 181.949 178.362 182.056 177.739C182.127 178.367 182.15 178.999 182.127 179.631C182.127 180.821 182.181 182.404 182.27 184.183C182.36 185.962 182.496 187.563 182.598 188.723C182.681 189.35 182.723 189.982 182.722 190.615Z" fill="#263238"/>
<path d="M187.031 191.127C186.952 190.968 186.894 190.8 186.858 190.627C186.769 190.306 186.65 189.83 186.531 189.24C185.897 186.153 185.697 182.993 185.936 179.851C185.984 179.256 186.043 178.762 186.097 178.429C186.106 178.254 186.142 178.081 186.204 177.917C186.226 178.566 186.21 179.216 186.156 179.863C186.108 181.053 186.091 182.719 186.204 184.546C186.317 186.372 186.531 188.015 186.721 189.199C186.864 189.834 186.968 190.478 187.031 191.127Z" fill="#263238"/>
<path d="M183.389 179.835C183.425 179.87 183.199 180.031 183.204 180.43C183.204 180.531 183.226 180.631 183.267 180.723C183.308 180.815 183.367 180.898 183.442 180.965C183.54 181.031 183.655 181.065 183.773 181.065C183.89 181.065 184.005 181.031 184.103 180.965C184.21 180.91 184.297 180.823 184.353 180.717C184.409 180.61 184.432 180.49 184.418 180.37C184.399 180.271 184.358 180.178 184.3 180.096C184.241 180.014 184.166 179.945 184.079 179.894C183.764 179.704 183.484 179.817 183.484 179.769C183.484 179.722 183.728 179.513 184.174 179.704C184.302 179.756 184.415 179.837 184.506 179.94C184.597 180.043 184.662 180.166 184.698 180.299C184.719 180.475 184.688 180.654 184.608 180.813C184.528 180.972 184.403 181.103 184.249 181.191C184.095 181.28 183.918 181.32 183.741 181.309C183.563 181.297 183.393 181.234 183.252 181.126C183.15 181.03 183.072 180.912 183.025 180.781C182.977 180.65 182.961 180.509 182.978 180.37C183.05 179.912 183.389 179.793 183.389 179.835Z" fill="#263238"/>
<path d="M190.559 193.062C190.425 193.078 190.289 193.078 190.155 193.062C189.887 193.062 189.5 193.062 188.994 193.062C187.577 193.099 186.163 193.232 184.764 193.46C182.689 193.812 180.634 194.269 178.605 194.829C176.302 195.424 173.791 196.168 171.096 196.757C168.561 197.348 165.963 197.63 163.36 197.596C161.233 197.541 159.129 197.139 157.13 196.406C155.79 195.898 154.534 195.189 153.406 194.305C153.102 194.063 152.814 193.803 152.543 193.526C152.441 193.437 152.349 193.337 152.269 193.228C152.269 193.228 152.68 193.609 153.459 194.21C154.599 195.048 155.853 195.718 157.184 196.197C159.177 196.904 161.27 197.284 163.384 197.322C165.958 197.338 168.524 197.05 171.03 196.465C173.708 195.87 176.225 195.156 178.534 194.561C180.576 194.014 182.645 193.577 184.734 193.252C186.144 193.045 187.569 192.945 188.994 192.954C189.5 192.954 189.893 192.954 190.155 193.008C190.291 193.013 190.426 193.031 190.559 193.062Z" fill="#263238"/>
<path d="M207.905 128.643C208.839 123.419 209.922 117.933 209.922 117.933C209.922 117.933 216.86 117.998 219.805 109.454C222.614 101.302 224.643 81.6894 224.643 81.6894C220.198 78.9268 215.015 77.5892 209.789 77.8562C204.563 78.1231 199.543 79.9818 195.403 83.1829L188.489 125.775C187.685 130.72 191.297 135.349 196.599 136.165C201.948 136.992 207.012 133.654 207.905 128.643Z" fill="#FFBE9D"/>
<path d="M219.484 96.3742C219.435 96.6684 219.274 96.9321 219.034 97.1088C218.793 97.2856 218.494 97.3615 218.198 97.3203C218.052 97.3078 217.91 97.2659 217.781 97.1973C217.651 97.1286 217.537 97.0345 217.445 96.9206C217.353 96.8067 217.284 96.6753 217.244 96.5344C217.204 96.3935 217.192 96.2459 217.211 96.1005C217.26 95.8057 217.423 95.542 217.664 95.3654C217.905 95.1887 218.206 95.113 218.502 95.1544C218.647 95.1684 218.788 95.2113 218.916 95.2805C219.045 95.3498 219.158 95.444 219.249 95.5576C219.341 95.6713 219.409 95.8021 219.449 95.9423C219.489 96.0825 219.501 96.2293 219.484 96.3742Z" fill="#263238"/>
<path d="M221.537 95.435C221.37 95.5599 220.626 94.7745 219.412 94.5662C218.198 94.358 217.205 94.8043 217.098 94.6317C217.044 94.5603 217.235 94.3163 217.693 94.1021C218.283 93.8325 218.941 93.7495 219.579 93.8641C220.211 93.9758 220.792 94.2839 221.239 94.7448C221.537 95.0958 221.614 95.3814 221.537 95.435Z" fill="#263238"/>
<path d="M207.024 94.3812C206.974 94.6748 206.812 94.9375 206.572 95.114C206.332 95.2905 206.034 95.367 205.738 95.3273C205.45 95.3002 205.184 95.1597 204.998 94.9366C204.813 94.7135 204.724 94.426 204.751 94.1373C204.8 93.8422 204.963 93.5779 205.204 93.4003C205.445 93.2227 205.745 93.1456 206.042 93.1852C206.33 93.2153 206.595 93.3577 206.778 93.5816C206.962 93.8055 207.05 94.0928 207.024 94.3812Z" fill="#263238"/>
<path d="M208.797 93.6498C208.63 93.7688 207.887 92.9893 206.673 92.7751C205.459 92.5609 204.465 93.0191 204.358 92.8465C204.305 92.7692 204.489 92.5252 204.953 92.311C205.543 92.0408 206.202 91.9597 206.839 92.0789C207.472 92.1862 208.053 92.4926 208.5 92.9536C208.797 93.3047 208.874 93.5962 208.797 93.6498Z" fill="#263238"/>
<path d="M211.611 103.419C212.287 103.338 212.97 103.338 213.646 103.419C213.962 103.419 214.241 103.419 214.354 103.229C214.437 102.915 214.423 102.583 214.313 102.277C214.152 101.474 213.986 100.635 213.813 99.7539C213.129 96.1837 212.694 93.2443 212.843 93.2086C212.992 93.1729 213.652 96.0647 214.337 99.6468C214.497 100.533 214.652 101.372 214.795 102.176C214.922 102.584 214.903 103.024 214.741 103.419C214.677 103.522 214.59 103.608 214.487 103.671C214.383 103.734 214.267 103.772 214.146 103.782C213.967 103.807 213.784 103.807 213.605 103.782C212.927 103.748 212.257 103.626 211.611 103.419Z" fill="#263238"/>
<path d="M209.91 117.933C205.759 117.263 201.875 115.457 198.688 112.715C198.688 112.715 200.473 119.26 209.398 119.986L209.91 117.933Z" fill="#EB996E"/>
<path d="M210.588 106.282C210.411 105.945 210.15 105.659 209.832 105.451C209.513 105.243 209.147 105.119 208.767 105.092C208.495 105.069 208.222 105.101 207.963 105.187C207.704 105.273 207.466 105.411 207.262 105.592C207.063 105.765 206.922 105.994 206.859 106.25C206.796 106.506 206.814 106.775 206.911 107.02C207.067 107.272 207.295 107.471 207.565 107.593C207.835 107.715 208.136 107.754 208.428 107.704C209.036 107.6 209.619 107.378 210.142 107.05C210.296 106.977 210.435 106.876 210.552 106.752C210.609 106.694 210.647 106.619 210.661 106.538C210.675 106.457 210.664 106.374 210.629 106.3" fill="#EB996E"/>
<path d="M207.898 103.634C208.095 103.634 207.863 104.972 208.827 106.109C209.79 107.246 211.207 107.341 211.207 107.531C211.207 107.614 210.85 107.727 210.255 107.638C209.482 107.516 208.778 107.124 208.267 106.531C207.769 105.973 207.505 105.244 207.529 104.496C207.601 103.901 207.809 103.61 207.898 103.634Z" fill="#263238"/>
<path d="M201.347 76.8993C203.698 82.082 211.314 88.3894 217.193 90.6267C216.657 89.5556 213.355 86.5448 212.819 85.4796C215.2 88.0561 218.621 91.5549 222.245 92.4296C222.664 92.5707 223.115 92.5851 223.542 92.4713C223.778 92.3447 223.981 92.1657 224.137 91.948C224.293 91.7303 224.397 91.4798 224.44 91.2158C225.141 88.6005 225.556 85.9172 225.678 83.2126C225.81 80.9346 225.065 78.6925 223.595 76.9469C221.59 74.6917 218.317 73.6147 215.17 72.9423C212.528 72.383 209.767 72.026 207.161 72.5258C204.554 73.0256 202.127 74.5251 201.347 76.7327" fill="#263238"/>
<path d="M187.328 96.4162C187.281 94.4043 187.356 92.3913 187.554 90.3885C188.149 85.8127 189.571 69.1697 204.929 73.4539L203.299 77.7203C203.299 77.7203 204.489 88.4309 196.593 94.1789C196.593 94.1789 196.628 104.889 191.166 108.727C191.166 108.727 187.358 101.48 187.328 96.4222" fill="#263238"/>
<path d="M196.92 93.4474C196.013 93.083 195.023 92.9739 194.058 93.132C193.096 93.3054 192.241 93.8505 191.678 94.6494C191.156 95.4841 190.971 96.4859 191.16 97.452C191.354 98.4125 191.76 99.3174 192.35 100.1C192.73 100.684 193.242 101.171 193.844 101.522C194.15 101.694 194.493 101.788 194.844 101.795C195.195 101.802 195.542 101.723 195.855 101.564" fill="#FFBE9D"/>
<path d="M195.397 99.0576C195.498 99.1112 194.992 99.611 194.171 99.2242C193.955 99.1069 193.765 98.9482 193.611 98.7572C193.457 98.5663 193.342 98.3469 193.272 98.1115C193.098 97.5826 193.034 97.0239 193.082 96.4692C193.113 95.875 193.356 95.3114 193.766 94.8805C193.94 94.6968 194.154 94.5553 194.391 94.4666C194.629 94.3779 194.883 94.3445 195.135 94.3688C196.021 94.5056 196.188 95.1661 196.081 95.1661C195.974 95.1661 195.712 94.8508 195.111 94.8865C194.733 94.9588 194.394 95.1644 194.155 95.4658C193.916 95.7671 193.792 96.1443 193.808 96.5287C193.742 97.5165 193.957 98.4685 194.433 98.778C194.909 99.0874 195.355 98.9684 195.397 99.0576Z" fill="#EB996E"/>
<path d="M195.385 101.557C193.005 115.784 194.939 130.327 195.385 144.75C195.427 146.131 195.439 147.577 194.79 148.809C193.844 150.671 191.63 151.581 189.542 151.706C187.453 151.831 185.377 151.349 183.3 151.177C183.074 149.796 182.854 148.41 182.628 147.012C181.931 148.606 181.235 150.195 180.545 151.772C181.461 141.656 182.465 131.541 183.556 121.425" fill="#263238"/>
</g>
<defs>
<clipPath id="clip0_190_9130">
<rect width="373.942" height="212.325" fill="white" transform="translate(0 0.223633)"/>
</clipPath>
</defs>
</svg>
