<svg width="190" height="191" viewBox="0 0 190 191" fill="none" xmlns="http://www.w3.org/2000/svg">
<path d="M81.9244 3.99988C81.9244 3.99988 113.533 -0.020519 138.7 22.8745C163.868 45.7695 171.186 81.9037 177.893 111.034C184.6 140.165 171.551 165.45 146.897 172.895C122.242 180.339 111.238 159.009 80.5982 151.409C49.9588 143.809 40.6982 146.39 18.9242 123.381C-2.84979 100.372 1.52021 58.2221 28.3444 32.1997C55.1686 6.17728 81.9244 3.99988 81.9244 3.99988Z" fill="#00CCE8"/>
<path opacity="0.75" d="M81.9244 3.99988C81.9244 3.99988 113.533 -0.020519 138.7 22.8745C163.868 45.7695 171.186 81.9037 177.893 111.034C184.6 140.165 171.551 165.45 146.897 172.895C122.242 180.339 111.238 159.009 80.5982 151.409C49.9588 143.809 40.6982 146.39 18.9242 123.381C-2.84979 100.372 1.52021 58.2221 28.3444 32.1997C55.1686 6.17728 81.9244 3.99988 81.9244 3.99988Z" fill="white"/>
<path d="M173.516 130.794L17.936 119.835" stroke="#263238" stroke-width="0.38" stroke-miterlimit="10"/>
<path d="M25.9199 120.302V102.795" stroke="#263238" stroke-width="0.38" stroke-miterlimit="10"/>
<path d="M40.626 121.238V104.199" stroke="#263238" stroke-width="0.38" stroke-miterlimit="10"/>
<path d="M57.665 122.635V105.132" stroke="#263238" stroke-width="0.38" stroke-miterlimit="10"/>
<path d="M76.5742 124.038V105.596" stroke="#263238" stroke-width="0.38" stroke-miterlimit="10"/>
<path d="M96.1782 125.204V105.596" stroke="#263238" stroke-width="0.38" stroke-miterlimit="10"/>
<path d="M115.786 126.139V107.466" stroke="#263238" stroke-width="0.38" stroke-miterlimit="10"/>
<path d="M136.683 128.81V108.632" stroke="#263238" stroke-width="0.38" stroke-miterlimit="10"/>
<path d="M160.368 129.639V110.267" stroke="#263238" stroke-width="0.38" stroke-miterlimit="10"/>
<path d="M173.516 133.523L17.4346 121.94" stroke="#263238" stroke-width="0.38" stroke-miterlimit="10"/>
<path d="M168.618 179.365L173.28 179.909" stroke="#263238" stroke-width="0.38" stroke-miterlimit="10"/>
<path d="M16.7202 161.669L163.404 178.758" stroke="#263238" stroke-width="0.38" stroke-miterlimit="10"/>
<path d="M174.42 106.451L22.2759 99.9262V17.0102L174.42 10.4856V106.451Z" fill="#263238"/>
<path d="M170.666 101.933L25.0957 96.2593V20.6811L170.666 15.0039V101.933Z" stroke="#00CCE8" stroke-width="0.38" stroke-miterlimit="10"/>
<path d="M72.3789 29.2504L32.0989 30.3904C31.8593 30.3832 31.6236 30.3279 31.4058 30.2277C31.188 30.1275 30.9926 29.9845 30.8313 29.8072C30.6699 29.6299 30.5459 29.422 30.4667 29.1957C30.3874 28.9695 30.3545 28.7296 30.3699 28.4904C30.3699 27.415 31.1299 26.5182 32.0989 26.4878L72.3789 25.1692C72.6337 25.1715 72.8854 25.225 73.119 25.3266C73.3527 25.4282 73.5635 25.5757 73.739 25.7604C73.9145 25.9451 74.0511 26.1632 74.1405 26.4018C74.23 26.6403 74.2706 26.8944 74.2599 27.149C74.279 27.6745 74.0938 28.187 73.743 28.5789C73.3923 28.9707 72.9034 29.2114 72.3789 29.2504Z" fill="#808080"/>
<path d="M48.1882 27.9663C48.2026 27.7215 48.1673 27.4763 48.0844 27.2455C48.0015 27.0147 47.8727 26.8031 47.7058 26.6235C47.5389 26.4438 47.3374 26.2998 47.1133 26.2001C46.8893 26.1004 46.6474 26.0471 46.4022 26.0435L32.1028 26.5109C31.149 26.5413 30.3738 27.4381 30.3738 28.5135C30.3584 28.7527 30.3913 28.9926 30.4706 29.2188C30.5498 29.445 30.6738 29.653 30.8352 29.8303C30.9965 30.0076 31.1919 30.1506 31.4097 30.2508C31.6275 30.351 31.8632 30.4063 32.1028 30.4135L46.4022 29.9993C46.9048 29.9566 47.3714 29.7211 47.7043 29.3422C48.0372 28.9632 48.2106 28.4702 48.1882 27.9663Z" fill="#00CCE8"/>
<path d="M72.3791 37.1807L32.0991 38.0205C31.1453 38.0433 30.37 37.1883 30.37 36.1205C30.3455 35.63 30.5119 35.149 30.8342 34.7785C31.1566 34.408 31.6099 34.1767 32.0991 34.1331L72.3791 33.1299C72.6342 33.1322 72.8862 33.1858 73.1201 33.2876C73.354 33.3894 73.565 33.5373 73.7406 33.7224C73.9161 33.9075 74.0526 34.1261 74.1418 34.3651C74.2311 34.6041 74.2713 34.8586 74.26 35.1135C74.2749 35.6345 74.0873 36.141 73.7365 36.5265C73.3857 36.912 72.8991 37.1465 72.3791 37.1807Z" fill="#808080"/>
<path d="M58.2617 35.4758C58.275 35.2268 58.2381 34.9776 58.153 34.7431C58.068 34.5087 57.9366 34.2937 57.7668 34.1111C57.5969 33.9285 57.3921 33.782 57.1644 33.6802C56.9367 33.5784 56.6909 33.5235 56.4415 33.5188L32.1215 34.1268C31.6323 34.1704 31.179 34.4017 30.8567 34.7722C30.5343 35.1427 30.368 35.6237 30.3925 36.1142C30.3925 37.1896 31.1525 38.0446 32.1215 38.0142L56.4605 37.505C56.9644 37.4642 57.4331 37.2304 57.7688 36.8522C58.1044 36.4741 58.281 35.981 58.2617 35.4758Z" fill="#00CCE8"/>
<path d="M72.3789 45.108L32.0989 45.6362C31.8586 45.625 31.6229 45.5662 31.4055 45.4633C31.1881 45.3603 30.9933 45.2151 30.8324 45.0362C30.6716 44.8573 30.5479 44.6483 30.4685 44.4212C30.3891 44.1941 30.3556 43.9535 30.3699 43.7134C30.3494 43.2254 30.5176 42.7483 30.8396 42.3811C31.1615 42.0138 31.6125 41.7847 32.0989 41.7412L72.3789 41.0496C72.6348 41.0549 72.887 41.1112 73.1207 41.2153C73.3545 41.3194 73.5651 41.469 73.7403 41.6555C73.9155 41.842 74.0517 42.0616 74.1409 42.3015C74.2302 42.5413 74.2706 42.7965 74.2599 43.0522C74.2776 43.5728 74.0906 44.0796 73.7389 44.4639C73.3873 44.8482 72.8991 45.0794 72.3789 45.108Z" fill="#808080"/>
<path d="M65.3604 43.1853C65.3716 42.9332 65.3325 42.6815 65.2454 42.4447C65.1582 42.208 65.0248 41.9909 64.8529 41.8063C64.681 41.6216 64.474 41.4731 64.2441 41.3693C64.0141 41.2654 63.7658 41.2085 63.5136 41.2017L32.1028 41.7413C31.6164 41.7848 31.1654 42.0139 30.8435 42.3812C30.5215 42.7484 30.3533 43.2255 30.3738 43.7135C30.3595 43.9536 30.393 44.1942 30.4724 44.4213C30.5518 44.6484 30.6755 44.8574 30.8364 45.0363C30.9972 45.2152 31.192 45.3604 31.4094 45.4633C31.6268 45.5663 31.8625 45.6251 32.1028 45.6363L63.5136 45.2259C64.0267 45.1935 64.5069 44.9621 64.8518 44.581C65.1968 44.1998 65.3793 43.699 65.3604 43.1853Z" fill="#00CCE8"/>
<path d="M72.3787 53.038L32.0987 53.2508C31.8581 53.2377 31.6224 53.1773 31.4051 53.0729C31.1879 52.9685 30.9934 52.8223 30.8328 52.6426C30.6721 52.4629 30.5486 52.2533 30.4691 52.0258C30.3896 51.7982 30.3559 51.5572 30.3697 51.3166C30.3436 50.8284 30.5101 50.3495 30.8334 49.9828C31.1568 49.6161 31.6111 49.391 32.0987 49.3558L72.3787 48.9758C72.6349 48.9832 72.8871 49.0412 73.1207 49.1467C73.3543 49.2522 73.5647 49.4029 73.7396 49.5902C73.9145 49.7775 74.0506 49.9977 74.1399 50.2379C74.2291 50.4782 74.2699 50.7337 74.2597 50.9898C74.2793 51.5102 74.0928 52.0173 73.7405 52.4008C73.3883 52.7844 72.8989 53.0134 72.3787 53.038Z" fill="#00CCE8"/>
<path d="M82.4984 28.9583L76.9808 29.1179C76.7244 29.1181 76.4706 29.0665 76.2348 28.966C75.9989 28.8656 75.7858 28.7185 75.6083 28.5335C75.4307 28.3485 75.2925 28.1295 75.2018 27.8897C75.1112 27.6499 75.07 27.3942 75.0808 27.1381C75.0667 26.6111 75.2563 26.0991 75.6102 25.7084C75.9641 25.3177 76.455 25.0785 76.9808 25.0405L82.4984 24.8695C82.7573 24.8666 83.0142 24.9167 83.2531 25.0167C83.492 25.1167 83.7079 25.2644 83.8877 25.4509C84.0674 25.6374 84.2071 25.8586 84.2982 26.1011C84.3893 26.3435 84.4298 26.602 84.4174 26.8607C84.4284 27.39 84.2352 27.9031 83.8778 28.2937C83.5205 28.6843 83.0265 28.9223 82.4984 28.9583Z" fill="#00CCE8"/>
<path d="M82.4981 36.9679L76.9805 37.0819C76.7228 37.0822 76.4677 37.0301 76.2308 36.9287C75.9938 36.8274 75.78 36.6788 75.6023 36.4922C75.4245 36.3056 75.2866 36.0848 75.1969 35.8432C75.1072 35.6016 75.0676 35.3443 75.0805 35.0869C75.0657 34.5612 75.2555 34.0504 75.6099 33.6619C75.9643 33.2734 76.4557 33.0377 76.9805 33.0045L82.4981 32.8677C82.7572 32.869 83.0133 32.9225 83.2513 33.0249C83.4893 33.1273 83.7042 33.2766 83.8832 33.4638C84.0623 33.651 84.2019 33.8723 84.2936 34.1146C84.3853 34.3569 84.4273 34.6152 84.4171 34.8741C84.4318 35.404 84.2398 35.9188 83.8816 36.3096C83.5235 36.7004 83.0273 36.9365 82.4981 36.9679Z" fill="#00CCE8"/>
<path d="M82.4982 44.9747L76.9806 45.0469C76.723 45.0426 76.4688 44.9868 76.233 44.8828C75.9973 44.7789 75.7846 44.6289 75.6076 44.4416C75.4306 44.2543 75.2928 44.0336 75.2023 43.7923C75.1118 43.5511 75.0704 43.2942 75.0806 43.0367C75.065 42.5124 75.2549 42.0027 75.6099 41.6164C75.9649 41.2302 76.4568 40.998 76.9806 40.9695L82.4982 40.8745C82.7577 40.8789 83.0137 40.9349 83.2512 41.0394C83.4888 41.1438 83.7032 41.2945 83.8818 41.4827C84.0605 41.6709 84.1998 41.8929 84.2918 42.1355C84.3837 42.3782 84.4263 42.6368 84.4172 42.8961C84.4338 43.425 84.2419 43.9392 83.883 44.328C83.524 44.7168 83.0267 44.9491 82.4982 44.9747Z" fill="#00CCE8"/>
<path d="M82.4981 52.9879L76.9805 53.0145C76.7223 53.0076 76.468 52.9497 76.2324 52.8439C75.9968 52.7381 75.7845 52.5867 75.6078 52.3983C75.4311 52.2099 75.2935 51.9884 75.203 51.7465C75.1125 51.5046 75.0708 51.2472 75.0805 50.9891C75.0639 50.466 75.254 49.9574 75.6096 49.5734C75.9652 49.1894 76.4576 48.9608 76.9805 48.9371L82.4981 48.8877C82.7581 48.8936 83.0143 48.951 83.2519 49.0567C83.4895 49.1623 83.7038 49.3141 83.8823 49.5032C84.0608 49.6924 84.2 49.915 84.2918 50.1584C84.3836 50.4017 84.4262 50.6608 84.4171 50.9207C84.4335 51.4484 84.2413 51.9614 83.8821 52.3484C83.5229 52.7354 83.0256 52.9652 82.4981 52.9879Z" fill="#00CCE8"/>
<path d="M32.418 24.4657L38.9008 24.2415" stroke="white" stroke-width="0.38" stroke-miterlimit="10"/>
<path d="M32.418 32.4537L38.9008 32.2827" stroke="white" stroke-width="0.38" stroke-miterlimit="10"/>
<path d="M32.418 40.0349L38.9008 39.9133" stroke="white" stroke-width="0.38" stroke-miterlimit="10"/>
<path d="M32.418 48.0232L38.9008 47.9548" stroke="white" stroke-width="0.38" stroke-miterlimit="10"/>
<path d="M152.342 24.6823L157.776 24.5151" stroke="white" stroke-width="0.38" stroke-miterlimit="10"/>
<path d="M149.185 29.365L157.776 29.137" stroke="white" stroke-width="0.38" stroke-miterlimit="10"/>
<path d="M152.342 33.8753L157.776 33.7537" stroke="white" stroke-width="0.38" stroke-miterlimit="10"/>
<path d="M154.588 38.4315L157.776 38.3745" stroke="white" stroke-width="0.38" stroke-miterlimit="10"/>
<path d="M152.342 43.0714L157.776 42.9954" stroke="white" stroke-width="0.38" stroke-miterlimit="10"/>
<path d="M150.891 47.6802L157.776 47.6118" stroke="white" stroke-width="0.38" stroke-miterlimit="10"/>
<path d="M152.342 52.2643L157.776 52.2339" stroke="white" stroke-width="0.38" stroke-miterlimit="10"/>
<path d="M149.709 56.8639L157.776 56.8525" stroke="white" stroke-width="0.38" stroke-miterlimit="10"/>
<path d="M152.342 61.4556L157.776 61.4708" stroke="white" stroke-width="0.38" stroke-miterlimit="10"/>
<path d="M159.22 24.4889L160.869 24.4395" stroke="white" stroke-width="0.38" stroke-miterlimit="10"/>
<path d="M159.22 29.0986L160.869 29.053" stroke="white" stroke-width="0.38" stroke-miterlimit="10"/>
<path d="M159.22 33.7235L160.869 33.6855" stroke="white" stroke-width="0.38" stroke-miterlimit="10"/>
<path d="M159.247 38.3483L160.851 38.3179" stroke="white" stroke-width="0.38" stroke-miterlimit="10"/>
<path d="M159.22 42.973L160.869 42.9502" stroke="white" stroke-width="0.38" stroke-miterlimit="10"/>
<path d="M159.22 47.6003H160.835" stroke="white" stroke-width="0.38" stroke-miterlimit="10"/>
<path d="M159.22 52.2297H160.869" stroke="white" stroke-width="0.38" stroke-miterlimit="10"/>
<path d="M159.19 56.8494H160.851" stroke="white" stroke-width="0.38" stroke-miterlimit="10"/>
<path d="M159.22 61.4746H160.869" stroke="white" stroke-width="0.38" stroke-miterlimit="10"/>
<path d="M162.461 24.3708L165.285 24.2834" stroke="white" stroke-width="0.38" stroke-miterlimit="10"/>
<path d="M162.461 29.0106L165.285 28.9346" stroke="white" stroke-width="0.38" stroke-miterlimit="10"/>
<path d="M162.461 33.6515L165.285 33.5869" stroke="white" stroke-width="0.38" stroke-miterlimit="10"/>
<path d="M162.534 38.2865L165.285 38.2371" stroke="white" stroke-width="0.38" stroke-miterlimit="10"/>
<path d="M162.461 42.9264L165.285 42.8884" stroke="white" stroke-width="0.38" stroke-miterlimit="10"/>
<path d="M162.522 47.5662L165.285 47.5396" stroke="white" stroke-width="0.38" stroke-miterlimit="10"/>
<path d="M162.461 52.2065H165.285" stroke="white" stroke-width="0.38" stroke-miterlimit="10"/>
<path d="M162.439 56.8462H165.3" stroke="white" stroke-width="0.38" stroke-miterlimit="10"/>
<path d="M162.461 61.4861H165.285" stroke="white" stroke-width="0.38" stroke-miterlimit="10"/>
<path d="M90.0947 57.769L145.354 57.731" stroke="#999999" stroke-width="0.38" stroke-miterlimit="10"/>
<path d="M90.0947 54.2553L145.354 54.0273" stroke="#999999" stroke-width="0.38" stroke-miterlimit="10"/>
<path d="M90.0947 50.736L145.354 50.3218" stroke="#999999" stroke-width="0.38" stroke-miterlimit="10"/>
<path d="M145.54 65.0388V48.3188C145.54 48.3188 144.244 46.6734 138.898 46.9774C133.608 47.2814 132.339 51.9554 126.738 54.6762C121.137 57.397 118.56 53.008 114 53.0308C109.44 53.0536 107.217 58.1 103.945 60.0114C100.674 61.9228 97.7971 59.7644 93.9097 60.2318C92.8181 60.3557 91.7882 60.8022 90.9516 61.5143C90.1149 62.2263 89.5096 63.1716 89.2129 64.2294L89.1597 64.7006L145.54 65.0388Z" fill="#00CCE8"/>
<path d="M145.541 65.0388V55.858C143.713 55.7592 139.92 56.0632 135.892 59.4186C131.864 62.774 124.679 61.0032 122.566 60.2318C119.203 59.0006 115.346 58.9398 111.512 61.3718C107.677 63.8038 104.561 63.5682 101.008 63.5492C98.4965 63.5492 95.5819 64.3092 94.1113 64.731L145.541 65.0388Z" fill="#808080"/>
<path d="M103.273 91.0872L93.4422 90.7794C92.9846 90.7501 92.556 90.5452 92.2459 90.2074C91.9358 89.8697 91.7681 89.4252 91.7778 88.9667C91.7702 88.7438 91.8076 88.5216 91.8879 88.3134C91.9682 88.1053 92.0897 87.9155 92.2451 87.7555C92.4005 87.5954 92.5867 87.4684 92.7924 87.3821C92.9981 87.2957 93.2191 87.2518 93.4422 87.253L103.273 87.5228C103.738 87.5492 104.175 87.7546 104.493 88.096C104.81 88.4374 104.983 88.8883 104.975 89.3544C104.981 89.581 104.942 89.8066 104.859 90.0176C104.776 90.2286 104.651 90.4207 104.492 90.5825C104.333 90.7442 104.143 90.8723 103.934 90.959C103.724 91.0457 103.5 91.0893 103.273 91.0872Z" fill="#808080"/>
<path d="M123.121 91.7031L112.914 91.3877C112.443 91.3603 112.002 91.1528 111.68 90.8081C111.359 90.4635 111.183 90.0082 111.189 89.5371C111.183 89.3081 111.223 89.0803 111.308 88.8674C111.392 88.6545 111.519 88.4608 111.68 88.298C111.841 88.1351 112.033 88.0064 112.245 87.9196C112.457 87.8329 112.685 87.7897 112.914 87.7929L123.121 88.0741C123.599 88.0967 124.05 88.3035 124.38 88.6513C124.709 88.9991 124.891 89.4609 124.888 89.9399C124.892 90.173 124.85 90.4047 124.762 90.621C124.675 90.8373 124.545 91.0337 124.38 91.1984C124.215 91.3631 124.018 91.4928 123.802 91.5795C123.585 91.6662 123.354 91.7083 123.121 91.7031Z" fill="#808080"/>
<path d="M143.298 92.3337L132.704 92.0031C132.217 91.9805 131.758 91.7696 131.424 91.4151C131.09 91.0606 130.907 90.5901 130.914 90.1031C130.91 89.8675 130.953 89.6334 131.042 89.415C131.13 89.1966 131.262 88.9984 131.43 88.8323C131.597 88.6661 131.796 88.5355 132.015 88.4483C132.234 88.3611 132.468 88.3191 132.704 88.3247L143.298 88.6173C143.79 88.635 144.256 88.843 144.598 89.1974C144.939 89.5519 145.13 90.025 145.13 90.5173C145.135 90.7586 145.091 90.9984 145.001 91.2222C144.91 91.4459 144.775 91.649 144.604 91.8189C144.433 91.9888 144.228 92.1221 144.004 92.2106C143.779 92.2991 143.539 92.341 143.298 92.3337Z" fill="#808080"/>
<path d="M30.3052 81.5503L84.8048 82.8385" stroke="#999999" stroke-width="0.38" stroke-miterlimit="10"/>
<path d="M30.3052 78.658L84.8048 79.7866" stroke="#999999" stroke-width="0.38" stroke-miterlimit="10"/>
<path d="M30.3052 75.7659L84.8048 76.7311" stroke="#999999" stroke-width="0.38" stroke-miterlimit="10"/>
<path d="M30.3052 72.8704L84.8048 73.676" stroke="#999999" stroke-width="0.38" stroke-miterlimit="10"/>
<path d="M30.3052 69.9792L84.8048 70.6252" stroke="#999999" stroke-width="0.38" stroke-miterlimit="10"/>
<path d="M30.3052 67.0869L84.8048 67.5695" stroke="#999999" stroke-width="0.38" stroke-miterlimit="10"/>
<path d="M30.3052 64.1948L84.8048 64.514" stroke="#999999" stroke-width="0.38" stroke-miterlimit="10"/>
<path d="M30.3052 61.3037L84.8048 61.4633" stroke="#999999" stroke-width="0.38" stroke-miterlimit="10"/>
<path d="M36.8794 84.8339L31.6582 84.6933V73.2249L36.8794 73.3047V84.8339Z" fill="#808080"/>
<path d="M44.2854 85.0307L38.9844 84.8901V70.0967L44.2854 70.1613V85.0307Z" fill="#00CCE8"/>
<path d="M51.8056 85.2322L46.4248 85.0877V67.6458L51.8056 67.699V85.2322Z" fill="#808080"/>
<path d="M59.44 85.4372L53.9756 85.2928V60.4104L59.44 60.4218V85.4372Z" fill="#00CCE8"/>
<path d="M67.192 85.6461L61.644 85.4979V67.7861L67.192 67.8393V85.6461Z" fill="#808080"/>
<path d="M75.0656 85.8596L69.4302 85.7076V73.426L75.0656 73.5096V85.8596Z" fill="#00CCE8"/>
<path d="M83.0645 86.0717L77.3379 85.9197V78.4033L83.0645 78.5135V86.0717Z" fill="#808080"/>
<path d="M31.9048 87.5884L36.1532 87.7138" stroke="white" stroke-width="0.38" stroke-linecap="round" stroke-linejoin="round"/>
<path d="M39.2847 87.8096L43.5977 87.9388" stroke="white" stroke-width="0.38" stroke-linecap="round" stroke-linejoin="round"/>
<path d="M46.7744 88.033L51.1558 88.1622" stroke="white" stroke-width="0.38" stroke-linecap="round" stroke-linejoin="round"/>
<path d="M54.3818 88.2571L58.8278 88.3901" stroke="white" stroke-width="0.38" stroke-linecap="round" stroke-linejoin="round"/>
<path d="M62.1074 88.4878L66.6218 88.6208" stroke="white" stroke-width="0.38" stroke-linecap="round" stroke-linejoin="round"/>
<path d="M69.9507 88.7246L74.5373 88.8614" stroke="white" stroke-width="0.38" stroke-linecap="round" stroke-linejoin="round"/>
<path d="M77.9194 88.9607L82.5782 89.1013" stroke="white" stroke-width="0.38" stroke-linecap="round" stroke-linejoin="round"/>
<path d="M149.861 69.3478V66.6194L157.275 66.6764V69.42L149.861 69.3478Z" fill="#00CCE8"/>
<path d="M149.861 73.1631V70.4385L159.368 70.5411V73.2923L149.861 73.1631Z" fill="#808080"/>
<path d="M149.861 76.9787V74.2542L161.006 74.4137V77.1687L149.861 76.9787Z" fill="#00CCE8"/>
<path d="M149.861 80.7972V78.0688L165.707 78.3538V81.1202L149.861 80.7972Z" fill="#808080"/>
<path d="M149.861 84.6123V81.8877L161.006 82.1233V84.8783L149.861 84.6123Z" fill="#00CCE8"/>
<path d="M149.861 88.4282V85.7036L157.506 85.8936V88.6372L149.861 88.4282Z" fill="#808080"/>
<path d="M149.861 92.2477V89.5193L154.489 89.6523V92.3883L149.861 92.2477Z" fill="#00CCE8"/>
<path d="M106.111 76.2261C106.111 80.8621 102.532 84.5291 98.1504 84.4189C93.769 84.3087 90.311 80.5239 90.311 75.9601C90.311 71.3963 93.807 67.7255 98.1504 67.7635C102.494 67.8015 106.111 71.6091 106.111 76.2261Z" fill="#808080"/>
<path d="M98.5265 67.7863C98.4011 67.7863 98.2795 67.7635 98.1465 67.7635C93.8031 67.7255 90.3071 71.3963 90.3071 75.9601C90.3071 80.5239 93.8031 84.3201 98.1465 84.4189C98.2757 84.4189 98.3973 84.4189 98.5265 84.4189V67.7863Z" fill="#00CCE8"/>
<path d="M103.634 76.1689C103.634 79.3609 101.171 81.8955 98.1504 81.8271C95.1294 81.7587 92.7202 79.1595 92.7202 76.0017C92.7202 72.8439 95.1446 70.3017 98.1466 70.3435C101.149 70.3853 103.634 72.9921 103.634 76.1689Z" fill="#263238"/>
<path d="M125.78 76.5496C125.78 81.2692 122.068 85.0046 117.523 84.8906C112.978 84.7766 109.387 80.9197 109.387 76.2723C109.387 71.6249 113.012 67.8857 117.523 67.9123C122.034 67.9389 125.78 71.8376 125.78 76.5496Z" fill="#00CCE8"/>
<path d="M123.192 76.514C123.208 77.2698 123.072 78.021 122.792 78.723C122.512 79.4251 122.093 80.0638 121.562 80.6011C121.03 81.1384 120.396 81.5635 119.697 81.851C118.998 82.1385 118.248 82.2826 117.492 82.2748C114.372 82.2064 111.861 79.5426 111.861 76.324C111.845 75.5741 111.979 74.8285 112.255 74.131C112.531 73.4335 112.943 72.7979 113.467 72.2615C113.992 71.7251 114.618 71.2987 115.309 71.0071C116 70.7155 116.742 70.5646 117.492 70.5632C120.635 70.5974 123.192 73.2612 123.192 76.514Z" fill="#263238"/>
<path d="M146.16 76.9021C146.173 78.0286 145.96 79.1463 145.533 80.1888C145.106 81.2312 144.473 82.1771 143.673 82.9701C142.873 83.7632 141.922 84.3872 140.875 84.8051C139.829 85.223 138.71 85.4262 137.583 85.4027C135.311 85.3199 133.16 84.3571 131.584 82.7178C130.009 81.0784 129.132 78.8908 129.14 76.6171C129.128 75.5023 129.337 74.3961 129.757 73.363C130.176 72.33 130.797 71.3906 131.582 70.5995C132.368 69.8085 133.303 69.1816 134.333 68.7554C135.364 68.3291 136.468 68.1119 137.583 68.1165C139.881 68.1595 142.069 69.1054 143.674 70.7497C145.279 72.394 146.172 74.6043 146.16 76.9021Z" fill="#808080"/>
<path d="M137.99 68.1393C137.853 68.1393 137.72 68.1165 137.583 68.1165C136.468 68.1119 135.364 68.3291 134.333 68.7554C133.303 69.1816 132.368 69.8085 131.582 70.5995C130.797 71.3906 130.176 72.33 129.757 73.363C129.337 74.3961 129.128 75.5023 129.14 76.6171C129.132 78.8908 130.009 81.0784 131.584 82.7178C133.16 84.3571 135.311 85.3199 137.583 85.4027C137.72 85.4027 137.853 85.4027 137.99 85.4027V68.1393Z" fill="#00CCE8"/>
<path d="M143.492 76.8564C143.501 77.6331 143.355 78.4039 143.06 79.1229C142.766 79.8419 142.331 80.4945 141.78 81.042C141.229 81.5895 140.573 82.0208 139.852 82.3103C139.131 82.5998 138.36 82.7417 137.583 82.7274C136.009 82.674 134.518 82.0089 133.427 80.8736C132.335 79.7383 131.73 78.2221 131.739 76.6474C131.731 75.8765 131.876 75.1118 132.167 74.3978C132.457 73.6838 132.887 73.0348 133.431 72.4887C133.975 71.9425 134.622 71.5102 135.335 71.2169C136.048 70.9235 136.812 70.7751 137.583 70.7802C139.169 70.8141 140.677 71.4704 141.783 72.6073C142.888 73.7442 143.502 75.2705 143.492 76.8564Z" fill="#263238"/>
<path d="M96.4634 76.4807L100.073 76.5453" stroke="white" stroke-width="0.38" stroke-miterlimit="10"/>
<path d="M115.828 76.8152L119.575 76.8798" stroke="white" stroke-width="0.38" stroke-miterlimit="10"/>
<path d="M135.562 77.157L139.449 77.2254" stroke="white" stroke-width="0.38" stroke-miterlimit="10"/>
<path d="M115.995 32.2331L116.022 31.9443L115.938 32.0279L115.995 32.2331Z" fill="#808080"/>
<path d="M104.785 36.494L104.979 36.5244L105.424 36.3876L104.785 36.1824L104.873 36.3914L104.614 36.4522L104.785 36.494Z" fill="#808080"/>
<path d="M109.82 40.0276L108.84 39.6476L108.665 39.7502L108.692 39.602L108.376 39.3892L108.015 39.5412L108.133 39.3626L107.863 39.2866L107.776 39.4082L107.943 39.0852L107.738 38.633L107.506 38.4316L106.989 38.3632L106.609 37.9832H106.415L106.45 37.8578L106.252 37.778V37.6906L106.142 37.6564L105.883 37.7666L105.458 37.6564L105.241 37.455L105.203 37.5538L105.021 37.6792L105.066 37.8996L104.926 37.8502L104.983 37.6488L104.964 37.5424L104.998 37.512L105.032 37.417L104.652 37.626H104.588L104.284 38.0858H104.257L104.173 37.9642L103.987 37.8692L103.797 37.9528H103.584L103.368 37.6678L103.448 37.0332L103.299 36.9154H102.767L102.714 36.8812L102.794 36.5468H102.821L102.976 36.0376H102.653L102.357 36.4974L101.947 36.5696L101.795 36.4898L101.578 36.1402V35.3118L101.525 35.289L101.578 35.3118L101.54 35.118L101.574 34.9698L102.026 34.6164L102.467 34.7152L102.528 34.662L102.646 34.7532L102.589 34.5936L102.798 34.4948L102.851 34.5366L103.026 34.5062L103.151 34.605H103.242L103.368 34.5556L103.702 35.3156H103.805L103.862 35.1332L103.676 34.3732L104.28 33.693V33.5942L104.314 33.5372H104.405L104.439 33.446L104.348 33.2902V33.218L104.261 33.0888L104.314 33.0356V32.8342H104.36L104.382 33.1648L104.443 33.1192L104.47 32.8532H104.565L104.633 32.6594L104.903 32.5492H104.702L104.914 32.4656L104.983 32.401H105.093L105.059 32.2832L105.161 32.0362L105.336 31.8652H105.503L105.883 31.5726V31.6372L106.005 31.6866L105.735 31.8272V31.9982L105.91 31.9564L106.035 31.8272L106.343 31.7246L106.4 31.7094L106.579 31.6296L106.529 31.5688V31.4624L106.313 31.6828L106.077 31.641L105.933 31.5118V31.3522L105.872 31.3028V31.242L106.005 31.0444L105.427 31.166L105.135 31.4586L105.469 31.0178L105.61 30.9684L105.709 30.8316L106.545 30.7594L107.153 30.3794V30.3148L107.115 30.273L107.16 30.1894L107.088 30.0716L106.947 30.0982V29.9728L106.609 30.1058L106.579 30.045L106.925 29.8816L106.275 29.4712V29.4294L106.381 29.361L105.963 28.601L105.842 28.7606L105.796 28.9392L105.75 28.9962H105.671L105.538 29.0912L105.317 28.8974L105.26 28.6314L105.306 28.4984L105.002 28.4034L104.724 28.1526L104.591 28.2058L104.185 28.1526L104.128 28.2666L104.215 28.3692L104.143 28.5174L104.234 28.7416L104.101 29.0684L104.299 29.247L104.329 29.5814L104.12 29.8094L103.934 29.893L104.04 30.3756L104.014 30.5048L104.033 30.5808H103.972L103.9 30.6796L103.79 30.634L103.554 30.292V29.9386L103.478 29.8436L102.376 29.4104L102.178 29.4826V29.4066L102.023 29.0874L101.878 29.0494L101.962 28.506L102.414 28.0234L102.011 27.8448L102.471 27.9208L102.505 27.7878L102.699 27.8182L102.889 27.5902L102.555 27.4344V27.3508L102.821 27.4914L103.018 27.3204L102.942 27.233L103.045 27.1798L103.132 27.2482H103.273L103.201 27.1418L103.223 27.1L103.36 27.1494H103.474L103.672 26.9822L103.562 26.7086V26.644L103.695 26.587L103.615 26.4312L103.155 26.2944V26.4388L103.197 26.5148L103.174 26.5832L103.087 26.6516L103.022 26.8074L102.965 26.7124L102.946 26.834L102.995 26.9252L102.904 27.005L102.741 26.7808L102.798 26.7124V26.6174L102.71 26.5148L102.585 26.4844L102.475 26.72L102.433 26.5376L102.482 26.4122L102.349 26.3552L102.251 26.3856V26.2564L102.327 26.2222L102.129 26.0474V25.9144L101.958 25.7814L101.928 25.7168L102.023 25.6332L102.053 25.4812H102.258L102.452 25.1734L102.095 25.0632L101.817 25.1202L101.855 25.2114H101.768L101.84 25.732L101.76 25.8232L101.802 25.9106H101.692V26.321L101.958 26.4236L101.912 26.625L101.977 26.568L102.038 26.6516L101.817 26.8112V26.9594L101.745 27.0164L101.677 26.8948V26.777L101.525 26.7314L101.624 26.7086L101.692 26.6478L101.844 26.6288L101.772 26.4996H101.665L101.776 26.473L101.548 26.3894L101.263 26.5414L101.479 26.701L101.365 26.7846V26.8834L100.636 26.8454L100.518 26.7808L100.449 26.663H100.233L100.039 26.7694L100.1 26.8302L100.396 26.7162L100.18 26.853V27.1798L100.096 27.1418V27.0164L99.1801 26.9556L99.3283 26.834L99.2789 26.72L98.4239 26.4958L97.9755 26.587V26.4882L97.9337 26.3704L97.7551 26.5908L97.5575 26.2944L97.4777 26.3248L97.3333 26.5148L96.7899 26.796L96.8203 26.7124L97.2839 26.416H97.1699L96.7215 26.6326L96.6227 26.5794L96.4441 26.7352L96.4973 26.8226L94.2857 26.3894L94.2439 26.3134H94.0197L93.9551 26.2526L93.7879 26.2982L93.8373 26.2298L93.7347 26.1766L93.2711 26.3818L93.3015 26.4616L93.0127 26.4996L92.8607 26.6516L92.8075 26.815L92.4769 26.8986L92.4427 26.9974L92.7999 27.3546H93.0203L93.0621 27.4838L93.2027 27.5142L92.7695 27.6054V27.5294H92.6061L92.5339 27.6206H92.4199L92.2451 27.7422L92.4351 27.8258L92.4085 27.898L92.5073 28.0082H92.8873L93.1191 27.9056L93.0811 28.012V28.2134L92.9215 28.2324L92.8531 28.3578L92.7201 28.3274L92.6669 28.4832L92.5377 28.5972L92.4731 28.734L92.5909 28.8214V28.9658L92.7505 29.1406L92.9063 29.1064L92.9709 29.0418L93.0127 29.3648H93.4155L93.4687 29.285H93.6093L93.5675 29.6004L93.1875 29.9804L92.9861 30.0108L92.8911 30.178L94.1337 29.2698L94.0311 29.2128L94.4909 28.7074L94.5707 28.7416V28.7986L94.4377 28.8328L94.3845 28.9734V29.0836L94.3389 29.152L94.3921 29.2014L94.6505 29.0304H94.8367V28.9506L94.7797 28.8632L94.8215 28.7872L95.0913 28.8404L95.0343 28.8936V28.9468L95.2167 28.905L95.2433 28.9316L95.6765 28.9658L95.7943 29.0532L95.9539 28.9886L95.9273 29.0836L96.3073 29.3572L96.3833 29.2812L96.4897 29.342V29.2128H96.5391V29.4104L96.4403 29.3876L96.3529 29.418L96.5619 29.7524V29.4864L96.5809 29.5928L96.6569 29.5396V29.4294L96.7329 29.532L96.6911 29.6384L96.6189 29.6802V29.8398L96.6721 29.7828L96.7557 29.76L96.8697 29.8588L96.8165 29.7866V29.703L96.9153 29.8512L96.8507 29.931L96.7367 29.8702L96.7557 30.1362L96.8013 30.083L96.8735 30.1134L96.9039 30.026L96.9685 30.0526L97.0293 30.0146V30.121H97.0863L97.1433 30.197L97.1053 30.2616L97.1281 30.3756H97.2421L97.2725 30.463L97.4359 30.5884L97.4663 30.824L97.8121 30.9798L97.8615 31.071L98.0401 31.128L98.1541 31.2876L98.1769 31.4434L98.1351 31.5992L98.0743 31.375V31.3104L97.6943 30.9798L97.3827 30.9228L97.8007 31.3028L97.9869 31.7398L98.0059 33.1838L98.4467 33.9172L98.7203 34.016L99.2827 35.0458H99.1763L99.4841 35.2814L99.5221 35.4714L99.8147 35.8172L99.8793 35.7678L99.8527 35.6462L99.7387 35.593L99.3587 34.8558V34.776L99.2561 34.7266L99.1383 34.3846H99.1877L99.3891 34.4606L99.4385 34.8406L100.419 36.0718V36.1858L100.377 36.239L100.484 36.429L101.445 36.9306H101.954L102.095 37.056L102.243 37.1966L102.688 37.3296L102.733 37.3068H102.771L102.805 37.4208L103.011 37.6564V37.7172L103.045 37.8502L103.121 37.8312L103.653 38.2112L103.755 38.177L103.717 38.0934L103.786 38.0174L103.934 37.9604L104.094 38.2682L104.116 38.842L103.911 39.1118V39.1308L103.82 39.1878L103.74 39.6894L103.82 39.7692H103.885L103.824 39.8642L103.714 39.9972L103.767 40.2062L103.725 40.248L104.432 41.6008L105.192 42.1708L104.641 46.3508L104.702 46.4534L104.762 46.176L104.812 46.119L104.846 46.176L104.797 46.8258L104.728 46.8714V46.9702L104.645 46.9322L104.702 46.8296L104.633 46.7194L104.675 46.841L104.527 46.9436V47.0158L104.443 47.1108H104.614V47.1868L104.572 47.2818H104.698V47.3426H104.531L104.439 47.4262L104.489 47.4946L104.557 47.4452H104.61L104.474 47.6048L104.534 47.715L104.633 47.582L104.595 47.8062L104.515 47.905V48.0494L104.652 48.0266L104.679 48.0798L104.618 48.152H104.698H104.743L104.827 48.1862L104.709 48.2432L104.671 48.3344L104.77 48.2964H104.975L104.732 48.399V48.4294L105.006 48.3382L104.835 48.4788H104.694V48.5814L104.895 48.6498L104.873 48.5966L105.146 48.2964L105.108 48.4598H105.23L105.154 48.5282V48.6346L105.097 48.5092L105.07 48.6042L105.006 48.5776L104.903 48.6992L105.002 48.722L105.066 48.8588L105.116 48.7372L105.211 48.8778L105.256 48.8246L105.397 48.9386V48.836L105.811 48.76L105.393 48.4446V48.38L105.344 48.2964L105.226 48.2356V48.2128H105.351L105.268 47.9544L105.294 47.8138L105.697 47.3198L105.724 47.1678L105.591 47.1298L105.496 46.898L105.716 46.7498L105.88 46.2938L105.956 46.3432L106.009 46.2254L105.914 46.252L105.842 46.214L105.815 45.9556L106.028 46.0164L106.184 45.9252V45.6706L106.233 45.6098L106.575 45.5832L106.83 45.435L106.951 45.2336L106.704 44.8042H106.75L106.978 44.8802L107.282 44.846L107.696 44.086V44.2798L108.004 43.8124L108.084 43.2462L108.608 42.8662L108.954 42.8206L109.334 42.0036L109.368 41.2436L109.395 41.198L109.478 41.2246L109.9 40.5634L109.873 40.1188L109.756 40.0314L109.82 40.0276Z" fill="#808080"/>
<path d="M104.637 36.1661L103.744 35.7139L103.273 35.9153L103.501 35.7899L104.139 36.0673L104.204 36.1889L104.637 36.1661Z" fill="#808080"/>
<path d="M104.086 36.4739L104.36 36.5233L104.086 36.4739Z" fill="#808080"/>
<path d="M105.606 36.4585L105.826 36.4509L105.606 36.4585Z" fill="#808080"/>
<path d="M102.354 39.3503L102.437 39.5061L102.354 39.3503Z" fill="#808080"/>
<path d="M111.717 25.9441L111.181 25.9327L111.242 25.6857L111.732 25.8567L111.777 25.6515L111.428 25.3057L111.625 25.3285L111.755 25.1651L111.432 25.1689L111.371 25.0701L111.424 24.9409L111.72 25.0321L111.948 24.9637L111.77 24.7775L112.07 24.7357L112.104 24.6293L111.861 24.4621L112.097 24.4089L112.032 24.1277L111.793 24.0707L111.694 23.9529L112.245 23.9073L112.161 23.7477L111.937 23.6983L112.123 23.6489L111.743 23.5995L111.827 23.3107L112.29 22.9307L112.199 22.8129L111.975 22.9003L112.157 22.7673L112.499 22.6989L112.249 22.6419L113.088 22.2467L112.625 22.1137L112.351 22.2695L112.074 22.2961L111.956 22.2505L111.462 22.6343L111.686 22.3075L111.603 22.0871L110.998 22.3873L111.28 22.1783L110.265 22.2733L111.793 21.9009L109.653 21.6311L109.425 21.7717L108.411 21.8173L108.544 21.9541L108.304 22.0415L108.646 22.2771L107.814 22.0491L107.977 22.2581L107.791 22.2733L107.544 22.1289L107.533 22.3227L107.423 22.4329L107.35 22.1213L106.393 22.4025L106.431 22.6343L106.176 22.5963L105.572 22.9953L105.899 23.0409L105.789 23.3259L104.861 23.6679L104.941 23.7819L105.732 23.9491L105.048 24.0707L105.287 24.1353L105.291 24.2569L105.45 24.3519L106.138 24.2683L106.784 24.5381L107.255 25.3019L107.187 25.4957L107.252 25.7009L107.453 25.5945L107.502 25.7465L107.757 25.8795L107.704 25.9441L107.347 25.9251L107.708 26.1037L107.825 26.2595L107.799 26.4723L107.628 26.4875L107.411 26.8295L107.54 26.9587L107.438 27.0993L107.624 27.3159L107.647 27.5781L107.962 28.1215L108.787 28.6231L108.886 28.5015L108.943 28.0151L109.167 27.7111L109.171 27.6009L109.224 27.5287L109.197 27.4147L109.216 27.3539L109.532 27.0803L109.596 27.0765L109.627 27.1563L109.877 27.0879L110.341 26.5901L111.667 26.0239L111.717 25.9441Z" fill="#808080"/>
<path d="M107.662 26.2369L107.556 26.1267L107.293 26.0811L107.274 26.2141L107.423 26.3091L107.662 26.2369Z" fill="#808080"/>
<path d="M102.258 24.7977L102.631 24.9155L102.726 24.8661L103.816 24.8775L103.934 24.6305L102.589 24.5583L102.631 24.4139L101.992 24.2163L101.658 24.2809L102.254 24.5621L102.258 24.7977Z" fill="#808080"/>
<path d="M103.907 28.3697L103.926 28.1987L103.907 28.3697Z" fill="#808080"/>
<path d="M100.909 26.3593L101.095 26.3441L100.651 26.0325L100.56 25.2573L100.301 25.3333L100.468 25.4929L100.286 25.4169L100.145 25.4207L100.233 25.7893L100.149 25.8729L100.05 25.6145L99.8033 25.5119L99.9059 25.6373L99.7501 25.6563L99.4993 25.5081L99.4119 25.6525L99.3131 25.6107L99.3359 25.4321L98.7621 25.7019L98.7241 25.8083L98.8381 26.0097L99.1497 25.9527L98.8039 26.1199L99.6399 26.2605L98.9141 26.4125L99.6893 26.7545L100.278 26.5379L100.966 26.5987L100.879 26.4657L100.776 26.4619L100.909 26.3593Z" fill="#808080"/>
<path d="M103.391 28.2357L103.615 28.0571L103.391 28.2357Z" fill="#808080"/>
<path d="M107.149 30.5606L107.084 30.5112L106.693 31.2902L107.213 31.2712L107.179 31.3814L107.293 31.3244L107.544 31.3814L107.476 31.1648L107.422 31.1306L107.43 30.9786L107.206 30.9254L107.145 30.838L107.042 30.8456L107.054 30.7354L107.149 30.5606Z" fill="#808080"/>
<path d="M105.979 30.8801L106.347 31.0131L105.979 30.8801Z" fill="#808080"/>
<path d="M103.817 27.8491L103.209 27.3779L103.06 27.4843L102.912 27.9023L103.079 27.8909L103.148 28.0125L103.372 27.8643L103.817 27.8491Z" fill="#808080"/>
<path d="M100.73 24.8347L100.609 24.7625L100.73 24.8347Z" fill="#808080"/>
<path d="M104.5 26.9069L104.519 26.7017L104.348 26.6599L104.227 26.8993L104.5 26.9069Z" fill="#808080"/>
<path d="M101.301 25.9103L101.536 25.8305L101.711 25.4505L101.631 25.4353L101.612 25.4961L101.449 25.4277L101.62 25.2605L101.525 25.1199L101.05 25.3327L101.194 25.4619L100.932 25.4429L101.301 25.9103Z" fill="#808080"/>
<path d="M98.1655 26.1305L99.1611 25.3781L98.9977 25.2147L98.3821 25.0779L97.9679 25.1653L98.0287 25.3059L97.8159 25.7695L98.1655 26.1305Z" fill="#808080"/>
<path d="M102.558 23.9866L102.429 24.1082L102.558 23.9866Z" fill="#808080"/>
<path d="M98.6826 24.7636L98.8878 24.604L98.6826 24.7636Z" fill="#808080"/>
<path d="M96.8511 30.2837L97.0525 30.6105L96.9879 30.3787L96.8511 30.2837Z" fill="#808080"/>
<path d="M102.118 23.95L101.73 24.045L102.118 23.95Z" fill="#808080"/>
<path d="M105.032 25.7965L104.831 25.8079L104.227 25.4469L104.078 25.5799L103.999 25.5495L103.778 25.6369L103.786 25.3785L103.691 25.1999L103.432 25.2075L103.147 25.3443L103.189 25.5685L103.121 25.7129L103.261 25.8231L103.037 25.7281L103.007 25.5343L103.079 25.3139L103.212 25.1733L102.688 25.3405L102.566 25.8725L102.847 25.9257L102.817 25.9941L102.619 26.0207L103.573 26.2829L103.71 26.2107L104.01 26.2487L103.991 26.1537L104.021 26.0777L104.455 26.4121L104.322 26.5451L104.531 26.4691L104.854 26.7579V27.0239L105.074 26.9973L105.279 27.1075L105.085 27.2215L104.747 27.0885L104.713 27.3469L104.223 27.4761L104.147 27.6699L104.77 27.6243L104.926 27.7763L105.002 27.9701L105.735 28.2475L105.386 27.8523L105.948 27.9017L105.522 27.2975L105.56 27.1265L105.75 27.1949L105.944 27.4077L106.222 27.2671L106.396 27.0657L105.477 26.4615L105.659 26.4083L105.507 26.3247L105.583 26.2525L105.511 26.1271L105.416 26.1841L105.439 26.0625L105.139 25.9219L104.968 25.9675L104.918 25.9219L105.032 25.7965Z" fill="#808080"/>
<path d="M103.763 25.165L103.843 25.3512L104.044 25.4196L104.364 25.3474L104.025 25.1688L103.763 25.165Z" fill="#808080"/>
<path d="M99.8986 23.9799L99.8188 23.9229L99.4844 24.0559L99.6592 24.1851L99.8986 23.9799Z" fill="#808080"/>
<path d="M100.59 23.6179L100.765 23.7091L100.556 23.7547L101.324 23.8915L101.271 23.7243L100.97 23.5191L100.503 23.4583L100.59 23.6179Z" fill="#808080"/>
<path d="M99.4121 24.0331L99.2373 23.9951L99.4121 24.0331Z" fill="#808080"/>
<path d="M100.632 24.1855L100.431 24.0107L100.632 24.1855Z" fill="#808080"/>
<path d="M99.1084 24.5272L99.1273 24.6298L99.0134 24.759L99.1502 24.7552L98.9146 24.8502L99.268 24.873L99.3706 24.8236L99.6252 24.835L99.4314 24.9642L99.4238 25.1048L100.378 24.873L100.427 24.5576L100.279 24.626L100.036 24.3296L99.895 24.5006L99.9064 24.6032L100.005 24.7134L99.249 24.4284L99.1084 24.5272Z" fill="#808080"/>
<path d="M98.2457 24.6747L98.4433 24.5759L98.5345 24.6937L98.8119 24.3593L98.8499 24.4961L99.0779 24.3935V24.2795L99.1615 24.1959L99.0551 24.1313L98.9753 24.1921L98.8005 24.1807L98.1963 24.5911L98.2457 24.6747Z" fill="#808080"/>
<path d="M99.6099 23.8614L99.9937 23.793L99.7049 23.7246L99.4541 23.8538L99.6099 23.8614Z" fill="#808080"/>
<path d="M101.711 23.2579L101.84 23.4175H102.228L101.992 23.5543L102.494 23.8013L102.684 23.7861L102.954 23.4783L103.178 23.3833L102.919 23.2237L102.859 23.0831L101.992 22.7183L102.007 22.7867L101.806 22.9311L101.829 23.0983L101.711 23.2579Z" fill="#808080"/>
<path d="M101.643 23.9296L101.878 23.8726L101.89 23.7586L101.472 23.6104L101.643 23.9296Z" fill="#808080"/>
<path d="M101.396 23.2762L101.217 23.2078L101.396 23.2762Z" fill="#808080"/>
<path d="M101.989 24.6816L101.654 24.845L102.053 24.94L101.989 24.6816Z" fill="#808080"/>
<path d="M101.149 24.2834L101.191 24.4582L101.035 24.4164L100.989 24.5266L100.909 24.538L100.689 24.3138L100.674 24.5038L100.883 24.6672L101.202 24.6482L101.172 24.8382L101.449 24.8458L101.559 24.7166L101.548 24.5646L101.396 24.3366L101.149 24.2834Z" fill="#808080"/>
<path d="M102.425 22.5621L102.501 22.5811L102.555 22.6381L102.513 22.7445L102.634 22.8319L102.973 22.8357L103.011 22.9079L103.957 22.7331V22.8623L103.52 22.9877L103.687 23.1853L103.041 23.0219L103.049 23.2651L103.554 23.6147L103.197 23.5463L102.855 23.7325H103.17L103.144 23.8275L103.296 24.0251L103.121 24.0099L102.889 23.8807L102.866 24.1277L102.596 24.2911L104.097 24.2759L104.158 24.1391L103.721 24.0935L103.725 24.0023L104.075 23.9795L104.097 23.8275L104.348 23.8009L104.614 23.4779L104.257 23.4019L104.557 23.3031L104.724 23.1549L104.983 23.1663L105.963 22.5279L105.564 22.5165L106.286 22.2733L106.324 22.1213L105.963 21.9921L105.659 22.0491L105.712 21.9541L103.136 22.2543L102.919 22.4215L102.714 22.3949L102.608 22.4937L102.323 22.5317L102.425 22.5621Z" fill="#808080"/>
<path d="M92.6445 30.3188L92.8193 30.2124L92.6445 30.3188Z" fill="#808080"/>
<path d="M94.1835 29.4289L94.0657 29.5847L93.9707 29.6303L94.0277 29.7443H94.0961L94.2671 29.5961L94.2177 29.5087L94.3127 29.4555L94.2861 29.3833L94.1835 29.4289Z" fill="#808080"/>
<path d="M92.443 29.0383L92.3252 29.0877L92.5076 29.1447L92.5342 29.0421L92.443 29.0383Z" fill="#808080"/>
<path d="M115.19 32.5796L115.072 32.629L115.19 32.5796Z" fill="#808080"/>
<path d="M118.26 33.2812L117.96 33.2546L117.876 33.2964L118.078 33.3496L118.26 33.2812Z" fill="#808080"/>
<path d="M119.286 33.3167L119.362 33.2179L119.358 33.1875L119.165 33.2597L119.1 33.3699L119.286 33.3167Z" fill="#808080"/>
<path d="M112.663 27.4689L112.876 27.2485L112.705 26.9559L112.613 26.9673L112.484 26.8989L112.469 26.9939L112.256 27.0205L112.188 26.9977L112.097 27.0699L112.043 27.0395L111.979 27.0889L111.964 27.1611L111.872 27.2105L111.838 27.0851L111.633 26.9369L111.652 27.0243L111.603 27.0205L111.515 27.0623L111.447 27.1649L111.739 27.1953L111.713 27.2713L111.489 27.3663H111.686L111.774 27.4727L111.66 27.5981L111.831 27.5867L112.078 27.6893L112.663 27.4689Z" fill="#808080"/>
<path d="M113.457 30.33L113.856 30.1703V29.7866L113.959 29.7105L113.883 29.5396L113.56 29.608L113.624 29.6802L113.514 29.7448L113.37 29.7523L113.45 29.9766L113.412 30.1058L113.32 30.2121L113.457 30.33Z" fill="#808080"/>
<path d="M113.864 28.8203L113.776 28.9609L113.864 28.8203Z" fill="#808080"/>
<path d="M113.833 29.03L113.928 29.1174L113.879 29.2314L113.951 29.315L113.841 29.4138L113.936 29.372L113.993 29.4632L114.069 29.3416L114.08 29.448L114.031 29.6038L114.228 29.5772L114.319 29.7748L114.308 29.9154L114.171 29.923L114.129 29.9496L114.088 30.0484L114.167 30.1054L114.038 30.2118L114.091 30.2764L114.312 30.3144L114.323 30.3524L114.175 30.379L114 30.626L114.103 30.5576L114.202 30.5804L114.262 30.5082L114.468 30.455L114.574 30.4816L114.916 30.3486L114.859 30.3182L114.87 30.227L114.981 30.075L114.772 29.9914V29.9078L114.445 29.3796L114.319 29.3606L114.475 28.9844L114.221 28.9806L114.175 28.9312L114.278 28.7982L114.3 28.707L114.24 28.7716L114.091 28.7792L113.913 29.0604L113.833 29.03Z" fill="#808080"/>
<path d="M116.33 29.5916L116.428 29.4624L116.463 29.2952L116.417 29.3332L116.371 29.2952L116.28 29.3446L116.333 29.4814L116.295 29.527L116.33 29.5916Z" fill="#808080"/>
<path d="M117.272 28.8528L117.181 29.058L117.272 28.8528Z" fill="#808080"/>
<path d="M117.815 28.5886L117.728 28.5999L117.815 28.5886Z" fill="#808080"/>
<path d="M117.702 28.7948L117.842 28.6846L117.755 28.658L117.702 28.7948Z" fill="#808080"/>
<path d="M117.208 22.7022H117.705L117.42 22.82L117.903 22.915L118.424 22.592L117.949 22.5274L117.873 22.573L117.796 22.4742L117.77 22.6262L117.664 22.5616L117.55 22.5578L117.401 22.4666L117.409 22.535L117.31 22.5084L117.314 22.5958L117.211 22.516L117.154 22.5768L117.223 22.6414L117.208 22.7022Z" fill="#808080"/>
<path d="M116.261 23.2319L116.356 23.3041L116.178 23.0989L116.261 23.2319Z" fill="#808080"/>
<path d="M116.387 22.9503L116.307 23.1023L116.444 23.2695L116.637 23.2771L116.782 23.0833L116.793 23.1783L116.911 23.1593L116.964 23.2087L116.588 23.3873L116.71 23.4405L116.983 23.4177L116.607 23.5545L116.744 23.6723L116.877 23.6837L116.812 23.7445L116.922 23.8167L117.014 23.7825L117.333 23.1745L117.5 23.1137L117.527 23.1479L117.546 23.2657L117.595 23.3189L117.572 23.4671L117.701 23.4937L117.777 23.5697L118.066 23.3797L117.857 23.3265L117.834 23.2657L117.728 23.2239L117.652 23.1403L117.625 23.0529L117.276 22.9313L117.223 22.8135L117.112 22.8705L117.147 22.7603L117.006 22.7071L116.934 22.6387L116.881 22.7869L116.964 23.0187L116.721 22.7527L116.668 22.8781L116.63 22.9085L116.527 22.8173L116.641 22.7641L116.565 22.7375L116.352 22.7565L116.242 22.8135V22.9693L116.387 22.9503Z" fill="#808080"/>
<path d="M134.171 31.4464L134.053 31.5034L133.973 31.6896V31.8112L134.121 31.758L134.038 31.644L134.368 31.6782L134.661 31.5262L134.893 31.2488L134.619 31.3362L134.311 31.093L134.22 31.1424L134.171 31.4464Z" fill="#808080"/>
<path d="M132.571 33.3302L132.51 33.4404L132.59 33.3948L132.666 33.7406L132.822 33.4708L132.791 33.372L132.696 33.2922L132.571 33.3302Z" fill="#808080"/>
<path d="M133.487 32.7231L133.399 32.8827L132.936 32.9625L132.719 33.1487V33.2437L133.225 33.0917L133.285 33.2285L133.449 33.2171L133.498 33.1069L133.544 33.0841L133.825 33.0727L133.909 32.9777L134.042 32.9511L134.114 32.4837L134.243 32.3089L134.175 31.8909L133.996 31.9517L133.901 32.3735L133.684 32.6433L133.593 32.5939L133.487 32.7231Z" fill="#808080"/>
<path d="M133.004 33.3962L133.126 33.3392L133.221 33.1985L133.08 33.1833L132.947 33.229L132.928 33.438L133.004 33.3962Z" fill="#808080"/>
<path d="M131.237 35.289L131.412 34.7988L131.161 35.023L131.237 35.289Z" fill="#808080"/>
<path d="M129.785 35.8812L129.858 35.6912L129.687 35.6836L129.55 35.9002L129.785 35.8812Z" fill="#808080"/>
<path d="M131.91 37.3555L131.746 37.5113L131.625 37.4809L131.461 37.5911L131.408 37.7545L131.636 37.6329L131.75 37.9027L131.898 37.9825L131.891 37.7811L132.043 37.7089L132.009 37.3631L131.91 37.3555Z" fill="#808080"/>
<path d="M131.108 36.2617L131.184 36.5961L131.625 36.8203L131.792 37.2231L131.902 37.0863L131.864 36.8963L131.61 36.6379L131.416 36.6037L131.344 36.4593L131.439 36.2351L131.408 35.9273L131.203 35.9121L131.176 36.2807L131.108 36.2617Z" fill="#808080"/>
<path d="M131.188 36.7329L131.32 36.8963L131.188 36.7329Z" fill="#808080"/>
<path d="M130.929 37.2756L130.75 37.5378L131.005 37.2718L131.043 37.1008L130.929 37.2756Z" fill="#808080"/>
<path d="M131.773 37.28L131.67 37.356L131.773 37.28Z" fill="#808080"/>
<path d="M131.625 37.1458L131.412 36.9634L131.42 37.1762L131.496 37.1306L131.526 37.427L131.678 37.1724L131.625 37.1458Z" fill="#808080"/>
<path d="M135.615 39.5591L135.444 39.6769L135.144 39.6959L135.372 39.8061L135.664 39.6389L135.706 39.4983L135.615 39.5591Z" fill="#808080"/>
<path d="M135.801 39.5414L135.755 39.3818L135.713 39.3932L135.801 39.5414Z" fill="#808080"/>
<path d="M135.03 39.7767L133.608 39.0661L133.255 39.3625L133.107 38.9749L132.784 38.9331L132.666 39.0357L132.738 39.0775L132.818 39.1839L133.042 39.1915L133.031 39.2409L132.826 39.2903L132.913 39.4271L133.673 39.6893L133.753 39.8679L133.749 40.0085L133.616 40.1377L133.943 40.1111L134.243 40.2935L134.498 40.0655L134.79 40.1339L135.102 40.4379L135.398 40.4911L135.375 40.3961L135.132 40.2175L134.999 39.8793L135.03 39.7767Z" fill="#808080"/>
<path d="M125.716 37.4321L125.659 37.7855L125.731 38.0173L125.944 37.7893L125.716 37.4321Z" fill="#808080"/>
<path d="M121.376 40.9092L121.327 40.9586L121.308 41.0688L121.156 41.2094L121.152 41.293L120.684 41.5438L120.559 42.7218L120.65 43.0144L120.893 43.079L121.034 43.0182L121.444 41.4792L121.528 41.4602L121.376 40.9092Z" fill="#808080"/>
<path d="M121.973 37.0552L122.113 37.021L121.973 37.0552Z" fill="#808080"/>
<path d="M134.843 45.7458L134.604 45.6736L134.669 45.989L134.855 46.2284L134.935 46.1676L134.965 46.084L135.049 46.103L135.083 45.6888L134.843 45.7458Z" fill="#808080"/>
<path d="M132.548 40.7259L132.73 40.6765L132.548 40.7259Z" fill="#808080"/>
<path d="M133.43 44.7956L133.601 44.769L133.43 44.7956Z" fill="#808080"/>
<path d="M135.862 43.3636L135.82 42.9836L135.512 42.6416L135.463 42.4782L135.406 42.4288L135.326 42.4364L135.189 42.0982L134.866 41.8892L134.6 41.114L134.49 41.1178L134.311 40.5212L134.22 40.6352L134.114 41.4598L133.992 41.646L133.323 41.2128L133.346 41.0038L133.437 40.9278L133.483 40.8214L133.453 40.7454L133.399 40.81L133.346 40.7264L133.24 40.7796L132.837 40.601L132.89 40.7036L132.674 40.7796L132.476 41.0874L132.484 41.2204L132.32 41.247L132.077 41.0456L131.997 41.0988L131.955 41.171L131.845 41.1786L131.822 41.247L131.754 41.3002L131.727 41.456L131.625 41.4446L131.648 41.5624L131.602 41.646L131.549 41.5282L131.439 41.5928L131.431 41.7752L131.23 42.0032L130.375 42.3604L130.299 42.4744L130.283 42.3794L130.211 42.4934L130.192 42.9228L130.272 43.1318L130.188 43.052L130.23 43.1622L130.131 43.0786L130.515 44.0818L130.485 44.2908L130.405 44.4238L130.443 44.5264L130.546 44.6252L130.815 44.6518L132.681 44.0058L133.099 44.1654L133.107 44.2604L133.232 44.3934L133.266 44.5682L133.643 44.2566L133.494 44.6062L133.624 44.591L133.703 44.5454L133.684 44.7164L133.787 44.7088L133.981 45.1268L134.41 45.3016L134.589 45.1838L134.646 45.2104L134.672 45.256L134.71 45.2256L134.851 45.3586L135.049 45.1572L135.341 45.0964L135.862 43.3636Z" fill="#808080"/>
<path d="M137.879 46.89L137.932 46.8184L137.879 46.89Z" fill="#808080"/>
<path d="M121.327 25.9962L121.585 25.9316L121.46 25.8328L121.327 25.9962Z" fill="#808080"/>
<path d="M121.877 25.2189L121.9 25.3329L121.953 25.2797L122.238 25.4697L122.599 25.4583L122.409 25.2759L122.36 24.9415L122.751 24.3297L124.192 23.5317L122.485 24.0865L122.337 24.3981L122.219 24.4703L122.166 24.6717L121.946 24.8237L121.991 24.9301L121.737 25.1315L121.877 25.2189Z" fill="#808080"/>
<path d="M127.312 21.9382L127.125 21.9724L127.312 21.9382Z" fill="#808080"/>
<path d="M134.486 24.3665L134.304 24.1765L134.072 24.3057L134.486 24.3665Z" fill="#808080"/>
<path d="M134.155 24.0706L134.022 24.1352L134.155 24.0706Z" fill="#808080"/>
<path d="M127.635 22.3874L127.54 22.528L128.174 22.7408L128.334 22.4444L128.022 22.281L127.635 22.3874Z" fill="#808080"/>
<path d="M128.273 23.0177L129.124 22.7669L128.942 22.6377L128.74 22.6909L128.756 22.6073L128.676 22.5085L128.528 22.5731L128.478 22.7023L128.372 22.7935L128.273 23.0177Z" fill="#808080"/>
<path d="M133.73 23.8998L134.319 23.8428L134.307 23.6604L134.566 23.8276L134.665 23.687L134.63 23.554L134.326 23.497L134.125 23.5616L133.855 23.4248L133.616 23.801L133.73 23.8998Z" fill="#808080"/>
<path d="M134.437 29.4142L134.346 29.228L134.258 30.9266L134.349 30.8202L134.471 30.9342L134.349 30.6112L134.391 30.3566L134.559 30.3338L134.604 30.3034L134.437 29.4142Z" fill="#808080"/>
<path d="M130.059 24.1208L129.976 24.1968L130.226 24.1437L130.059 24.1208Z" fill="#808080"/>
<path d="M135.223 23.874L135.561 23.7904L134.976 23.646L134.877 23.7562L135.223 23.874Z" fill="#808080"/>
<path d="M127.418 22.2665L127.384 22.3273L127.285 22.3843L127.411 22.4755L127.958 22.2171L127.996 22.0841L127.832 21.8523L127.475 22.0499L127.414 22.1601L127.418 22.2665Z" fill="#808080"/>
<path d="M140.847 26.3432L141.007 26.3774L140.976 26.3318H141.007H141.083L141.174 26.1988L140.703 25.9595H140.517L140.6 26.0088L140.581 26.1114L140.49 26.0697V25.91L140.437 25.8264L138.404 25.1576L138.358 25.2602L138.427 25.3856L138.392 25.5376L138.058 25.3666L138.229 25.2754L138.05 25.1995L137.883 25.3514H137.1L137.074 25.4997L137.036 25.3476L136.85 25.2792L136.876 25.1766L136.644 24.96L135.782 25.0095L135.744 24.9334L135.333 24.7966V24.7472L135.447 24.6826L134.995 24.6142L134.912 24.77H134.76L134.87 24.6902L134.714 24.6408L134.79 24.599H134.9L134.14 24.4888L134.11 24.561L133.855 24.7168H133.969L133.931 24.8004L133.973 24.9068H133.726L133.688 24.941V25.0056L133.38 24.8688L133.217 24.9334L132.928 24.846L132.761 25.1348L132.673 25.1045L132.335 24.7434H132.495L132.403 24.409L132.308 24.3406H132.069L131.784 24.1962L131.647 24.3596V24.4774L130.937 24.4888L130.994 24.4128H130.257V24.4964L130.234 24.3444L130.162 24.3254L130.017 24.3558L129.858 24.2684L129.698 24.3748L129.782 24.3976L129.17 24.6332L129.204 24.523L129.964 24.0784L130.032 23.991L130.2 23.9112L130.264 23.8162L130.203 23.763L130.272 23.7326L130.226 23.5882H130.135L130.105 23.459L129.523 23.4248L129.432 23.4856L129.257 23.5122L129.356 23.3602L128.976 23.3298L129.147 23.25V23.1892L128.885 23.1208L128.698 23.1702L128.452 23.4476L128.478 23.5122L128.185 23.5844L128.277 23.6566L127.87 23.706L127.908 23.6186L127.775 23.6604H127.684L127.46 23.7326L127.543 23.7934L126.715 24.0518L126.696 24.0898L126.643 24.1316L126.681 24.1848H126.563L126.7 24.2798H126.593L126.7 24.3786V24.447L125.898 24.5496L125.856 24.8194L126.042 24.9258L126.122 25.074L125.468 24.8612L125.381 24.941L125.514 25.0132L125.248 25.0779L125.56 25.3097L125.537 25.3552L125.377 25.2679H125.142L125.168 25.0095L125.108 24.8194L125.035 25.0474L124.872 25.15L124.815 25.245L124.975 25.4579L124.898 25.8797H125.005L125.165 25.8379L125.43 25.929L125.484 26.0506L125.419 26.1647L125.579 26.2824H125.423L125.362 26.1874L125.396 26.0734L125.237 25.9138L125.024 25.986L125.054 26.1988L124.708 26.6244H124.328L124.26 26.5598L124.492 26.6016L124.807 26.2824L124.872 26.0468L124.762 25.9138L124.792 25.4426L124.678 25.2716L124.785 24.8916L124.348 24.827L123.937 25.4426L124.013 25.4616L123.945 25.7694L124.108 25.834L124.165 25.9595L124.249 26.005L124.165 26.1608L122.812 25.6098L122.854 25.739L123.044 25.8492L123.105 25.9747L123.063 26.062L122.896 26.1532V26.0088L122.812 25.9404L122.603 26.0658H122.372L122.242 26.1722H122.056L122.155 25.9747L121.965 26.043L121.938 26.1304L121.878 26.0924L121.281 26.3584L121.25 26.5256L121.015 26.5674L120.908 26.4534V26.3547L121.129 26.2976L121.045 26.1532L120.7 26.0848L120.764 26.252L120.711 26.4268L120.806 26.6168L120.764 26.7384H120.703L120.665 26.6966L120.525 26.67L120.187 26.8942L120.251 27.1526L119.943 27.1108L119.788 27.012L119.704 27.0995L119.746 27.1906L119.879 27.2363V27.3313L119.776 27.354L119.544 27.2438L119.438 27.0424V26.8448L119.058 26.5218L119.917 26.7802L120.316 26.5674V26.385L119.115 25.8758L119.218 25.8379L119.126 25.796L118.948 25.8188H118.784L118.697 25.7429H118.765L118.952 25.6668L118.879 25.5908L118.705 25.5186L118.564 25.6174V25.53L118.507 25.4464L118.34 25.6592V25.5148L118.123 25.7238L118.146 25.625L118.233 25.4997V25.4426L118.157 25.5148H118.062L118.036 25.5756L117.914 25.6364L117.865 25.7884L117.815 25.6897L117.918 25.5452L117.758 25.5908V25.6934L117.72 25.7276H117.618L117.694 25.8036H117.629L117.557 25.7542L117.511 25.7884L117.542 25.8872L117.496 25.8568H117.42V25.7656H117.325L117.287 25.8113V25.8834L117.242 25.9214L117.101 25.9442L117.033 26.0545H117.116L117.135 26.1114V26.1495H117.063L117.006 26.1114L116.93 26.157L116.96 26.0279L116.58 26.3736H116.626L117.025 26.2292V26.3129L116.987 26.3395L116.934 26.309L116.637 26.7384L116.615 26.8524L116.508 26.8752L116.489 27.126L116.31 27.1792L116.387 27.2704L116.223 27.354L116.075 27.5706L115.999 27.5061V27.5934L115.794 27.7074L115.866 27.7682H115.748L115.52 27.9088H115.467L115.406 27.9811L115.459 28.057L115.418 28.3382L115.49 28.3611L115.585 28.3192L115.611 28.3648L115.539 28.4332H115.486L115.44 28.4788V28.57H115.588L115.52 28.6688L115.665 28.7942L115.824 28.8361L116.075 28.6156L116.17 28.5929L116.204 28.4788L116.538 29.4136H116.645L116.736 29.2692H116.85L116.93 29.197L116.975 29.2198L117.04 29.0488H116.991L117.01 28.722L117.291 28.3648L117.162 28.2052L117.067 28.1786L117.048 28.0038L117.295 27.5364L117.633 27.2629V27.1108L117.682 26.9854L117.773 26.9018L117.99 26.8829L118.1 26.9322L118.15 27.05L117.603 27.6504V28.1824L117.963 28.3192L118.511 28.1748L118.575 28.0798L118.511 28.1748L118.568 28.152L118.655 28.2508L118.773 28.2774L117.967 28.475L117.884 28.5663L117.914 28.6613L117.994 28.7144L118.02 28.7752V28.9272L117.907 28.988L117.785 28.8322L117.656 28.9044L117.58 29.178V29.3908L117.603 29.4136L117.557 29.4972H117.401V29.5352L117.325 29.5808L117.26 29.4858L116.713 29.7138L116.63 29.6682V29.577L116.352 29.7214L116.136 29.5847L116.071 29.4706H116.238L116.189 29.3756H116.128L116.166 29.2768L116.253 29.2236L116.189 29.1514V28.912L116.007 29.0261V29.0944L115.9 29.0488L115.832 29.1628L115.965 29.7442L115.908 29.805H115.703V29.8354L115.532 29.862L115.478 29.9684H115.414L115.349 30.0064L115.178 30.28L115.038 30.3447L114.726 30.7247L114.555 30.66L114.475 30.7247L114.494 30.888H114.38L114.297 30.8424H114.163L114.08 30.9184V31.0134L114.38 31.1084L114.566 31.4276L114.483 31.895L113.628 31.8342L113.514 31.9179V33.0578H113.799L113.962 33.2326L114 33.2288L114.38 33.1566L114.733 32.7766V32.5486L115.113 32.2256L115.17 32.0964V32.0547L115.285 31.8988L115.532 31.9558L115.934 31.7088L116.873 32.5752V32.864L117.021 32.6398L116.96 32.522L117.09 32.4498H117.192L116.432 31.6898V31.534L116.493 31.4429H116.58L116.626 31.553L116.732 31.6024L116.854 31.8152L117.31 32.1154L117.337 32.0394L117.31 32.1154L117.344 32.4384L117.435 32.5676L117.511 32.7006L117.728 32.7804H117.583L117.682 33.016L117.812 33.0806L117.8 32.9248H117.895L117.834 32.8679L117.884 32.8336H117.983L117.937 32.7082H117.823L117.868 32.6247L117.758 32.4536L117.827 32.408H117.937L117.963 32.2902L118.047 32.3206L118.15 32.2598L118.321 32.3472L118.45 32.2561L118.632 32.2332L118.53 32.1382L118.45 31.9064L118.587 31.7392V31.6556L118.727 31.4429L118.91 31.1654L119.062 31.135V31.2376L119.286 31.268L119.103 31.3858L119.24 31.4542V31.572L119.666 31.439L119.525 31.401L119.415 31.2795L120.012 31.04L119.845 31.1579L119.894 31.2414L119.704 31.439L120.316 31.8988L120.365 32.0584L120.335 32.1116L119.841 32.2256L119.354 32.0547L118.636 32.237L118.568 32.3586L118.283 32.3928L118.252 32.5068L118.309 32.5486V32.8564L118.469 32.9932L118.537 33.016L118.621 33.111L118.91 33.0122L119.096 33.13L119.237 33.0997L119.366 33.0047L119.472 33.0312L119.575 32.997L119.449 33.6088L119.522 33.643V33.7343V33.643L119.449 33.6126L119.32 33.9888L118.108 33.9014L117.728 33.7343L117.424 33.9166L117.443 34.118L116.979 34.0268L116.755 33.833L116.352 33.7494L116.136 33.5822L116.242 33.472L116.273 33.13L116.253 33.073L114.962 33.1566L114.487 33.4492L113.973 33.3277L113.822 33.643L113.616 33.7608L113.438 34.042V34.2776L112.45 35.7976L112.556 36.2194L112.457 36.7818L112.48 37.0288V37.12V37.1922L113.654 38.431L114.35 38.3436L114.452 38.3816L115.159 38.0738L115.364 38.127L115.566 38.4158L115.908 38.3512L115.965 38.4348L116.067 38.4576L116.105 38.6097L116.079 38.7464L116.045 38.9516L116.022 38.982L116.075 39.0618L115.946 39.2252L116.546 40.3652L116.523 40.5286L116.611 40.8516L116.326 41.813L117.192 44.6288L117.321 44.7314L118.237 44.5224L119.039 43.6104L119.111 43.2761L119.058 43.2152L119.438 42.9112L119.385 42.1779L120.19 41.3647L119.936 40.0118L121.646 37.1922L121.558 37.139L120.623 37.3252L120.551 37.2379L120.532 37.2645L120.551 37.2379L120.479 37.2074L120.559 37.1314L119.073 34.1636L119.305 34.5436L119.388 34.3232L120.574 36.9832L121.684 36.569L121.817 36.4094L122.197 36.2879L122.25 36.1663L122.402 36.132L122.493 35.9876L122.58 35.9382L122.626 35.7254L122.854 35.4518V35.3682L122.736 35.2048L122.508 35.1136L122.394 34.7564L122.231 34.9692L121.805 35.1668H121.779L121.722 35.068V34.8248L121.63 34.9768L121.273 34.2168V34.1902L121.528 34.1218L121.745 34.5018L122.227 34.7222L122.448 34.6462L122.554 34.8476L123.876 34.9313L123.968 35.1213L124.237 35.3226H124.389L124.199 35.4024L124.492 35.6646L124.682 35.4176L125.335 37.6976L125.594 37.4506L125.807 36.4474L126.593 35.7178L126.635 35.5545L127.205 35.2808L127.585 36.0408L127.566 36.2916L127.623 36.3752H127.76L127.878 36.2156L127.95 36.2764L128.516 38.4386L128.919 38.7274L128.82 38.1688L128.235 37.4088L128.33 36.8388L128.448 36.797L128.71 36.9795L128.748 37.12H128.835V37.2036H128.945L129.022 37.2797L128.983 37.4164L129.052 37.4772L129.25 37.2226L129.527 37.0972L129.633 36.8882L129.603 36.5082L129.147 35.7254L129.42 35.3986L129.664 35.372L129.732 35.5734L129.77 35.505L130.238 35.182L130.618 35.1364L131.089 34.6728V34.5208L131.188 34.4676L131.453 33.9736L131.263 33.8938L131.412 33.8102L131.203 33.6279H131.404L131.157 33.2288L131.035 33.1338L131.168 32.902L131.488 32.731L131.408 32.6322L131.271 32.5752L131.085 32.7158L130.998 32.5904L130.853 32.541V32.3434L131.431 32.0394L131.313 32.3776H131.412L131.67 32.2066H131.738L131.898 32.294L131.815 32.465L131.841 32.56L131.91 32.598L132.02 32.5714H132.05L132.096 32.655L132.054 33.1604L132.46 32.9894L132.518 32.9211L132.335 32.4347L132.21 32.3054L132.252 32.1648L132.495 31.99L132.544 31.8L132.738 31.5986L132.852 31.5226L133.015 31.6214L133.923 30.5536L134.182 29.4934L133.935 29.2502H133.813L133.726 29.368H133.646V29.2122L133.559 29.3263L133.54 29.1666H133.38V29.0488L134.52 28.0418L135.482 27.9658L135.687 28.0418L135.615 28.1445L136.15 28.038L136.093 27.9886V27.8556L136.473 27.43L136.709 27.3997L136.8 27.4414L136.903 27.392L136.834 27.5402L136.914 27.601L136.876 27.6656L137.283 27.449L137.313 27.2932L137.556 27.1906V27.2286L136.549 28.3306L136.416 28.3648L136.238 28.9234L136.397 29.8848L136.618 29.6454L136.648 29.482L136.743 29.4098L136.85 29.3832V29.2502L136.983 29.102L137.153 29.064L137.127 28.9082L137.23 28.7144H137.34L137.271 28.6118L137.298 28.3497H137.207L137.188 28.1863L137.416 27.8404H137.541L137.594 27.867L137.735 27.7113L137.765 27.848L137.898 27.7606L138.252 27.7226L138.358 27.8176L138.415 27.7226L139.346 27.1488H139.627V27.0234L139.32 26.6206L139.202 26.594L139.342 26.5447L139.418 26.6206H139.578L139.768 26.5066L139.81 26.423L139.783 26.3318V26.252L139.836 26.1988H139.912V26.2824L139.962 26.3888L140.342 26.4648L140.44 26.5979L140.657 26.689H140.824L140.76 26.6016H140.828V26.3661L140.87 26.347L140.847 26.3432Z" fill="#808080"/>
<path d="M124.599 24.6635L124.447 24.5989L124.386 24.7243L124.599 24.6635Z" fill="#808080"/>
<path d="M125.689 24.7017L125.583 24.7549L125.689 24.7017Z" fill="#808080"/>
<path d="M104.15 35.3762L104.101 35.4218L104.2 35.5852L104.15 35.3762Z" fill="#808080"/>
<path d="M106.332 37.7355L106.435 37.7165L106.427 37.6292L106.328 37.6633L106.332 37.7355Z" fill="#808080"/>
<path d="M129.466 39.3503L129.394 39.3881L129.466 39.3503Z" fill="#808080"/>
<path d="M131.594 40.2132L131.64 40.1638L131.081 40.2436L131.309 40.2854L131.594 40.2132Z" fill="#808080"/>
<path d="M130.762 40.1711L130.633 40.1901L130.568 40.2775L130.77 40.3079L130.967 40.2395L130.762 40.1711Z" fill="#808080"/>
<path d="M131.807 40.3801L131.841 40.3383L132.149 40.1711L131.94 40.1787L131.697 40.3155L131.632 40.4941L131.807 40.3801Z" fill="#808080"/>
<path d="M132.251 39.3625L132.624 39.4575L132.525 39.2979L132.251 39.3625Z" fill="#808080"/>
<path d="M131.226 40.4677L130.967 40.3955L131.093 40.4601L131.226 40.4677Z" fill="#808080"/>
<path d="M131.967 39.3735L132.138 39.4229L131.967 39.3735Z" fill="#808080"/>
<path d="M130.948 39.2786L131.093 39.7802L131.161 39.6244L131.146 39.3394L131.237 39.4002L131.309 39.5598L131.435 39.575L131.37 39.1418L131.583 38.967L131.294 39.0658L131.123 38.9176L131.83 38.625L131.682 38.6934L131.328 38.6554L131.157 38.739L130.948 39.2786Z" fill="#808080"/>
<path d="M132.275 38.6295L132.18 38.5725L132.252 38.9145L132.358 38.6713L132.275 38.6295Z" fill="#808080"/>
<path d="M127.916 38.6973L128.003 38.8189L127.916 38.6973Z" fill="#808080"/>
<path d="M128.117 39.0935L128.181 39.1765L128.117 39.0935Z" fill="#808080"/>
<path d="M130.317 40.2279L130.485 40.2317L130.344 40.1367L130.101 40.0987L130.241 39.9885L129.162 39.8745L129.094 39.9657L129.2 39.9885L129.272 40.0759L130.317 40.2279Z" fill="#808080"/>
<path d="M129.546 38.7928L129.873 39.3704L129.983 39.4274L130.17 39.4008L130.348 39.492L130.55 39.4502L130.74 38.8574L130.952 38.7206L130.774 38.219L131.009 38.0442L130.914 37.9568L130.789 37.9188L130.664 37.801L130.447 38.1126L130.375 38.1506L130.276 38.1354L130.154 38.3558L129.949 38.428L129.858 38.6294L129.638 38.5724L129.546 38.7928Z" fill="#808080"/>
<path d="M129.144 39.5864L129.166 39.423L129.223 39.385L129.227 39.29L129.113 39.1646L129.094 39.2368L129.151 39.309L129.064 39.2824L127.677 38.0474L128.946 39.8182H129.094L129.144 39.5864Z" fill="#808080"/>
<path d="M116.728 32.8259L116.561 32.8297L116.447 32.8981L116.744 33.0843L116.835 32.8335L116.728 32.8259Z" fill="#808080"/>
<path d="M115.847 32.3555L115.954 32.7013L116.049 32.6329L116.071 32.3821L115.946 32.3289L115.847 32.3555Z" fill="#808080"/>
<path d="M100.826 30.5305C100.832 30.9518 100.676 31.3594 100.389 31.6681C100.102 31.9768 99.7074 32.1629 99.2867 32.1873C99.0822 32.1874 98.8798 32.1463 98.6915 32.0664C98.5033 31.9865 98.3331 31.8694 98.1912 31.7221C98.0493 31.5749 97.9386 31.4005 97.8656 31.2095C97.7927 31.0185 97.759 30.8147 97.7667 30.6103C97.7589 30.1918 97.9124 29.7864 98.1954 29.4779C98.4783 29.1695 98.8691 28.9817 99.2867 28.9535C99.4928 28.9508 99.6973 28.99 99.8877 29.0688C100.078 29.1476 100.251 29.2642 100.395 29.4118C100.539 29.5593 100.651 29.7345 100.725 29.9268C100.799 30.1192 100.833 30.3245 100.826 30.5305Z" fill="#00CCE8"/>
<path d="M103.216 37.1694C103.216 37.3633 103.142 37.55 103.01 37.6913C102.877 37.8326 102.695 37.9178 102.501 37.9294C102.406 37.9295 102.312 37.9104 102.224 37.8732C102.136 37.8361 102.057 37.7817 101.991 37.7133C101.924 37.6449 101.873 37.5638 101.838 37.475C101.804 37.3861 101.788 37.2913 101.791 37.196C101.79 37.0027 101.864 36.8166 101.996 36.6754C102.128 36.5342 102.309 36.4486 102.501 36.436C102.597 36.436 102.691 36.4551 102.779 36.4922C102.867 36.5293 102.947 36.5836 103.013 36.6519C103.08 36.7203 103.132 36.8013 103.167 36.8902C103.202 36.9791 103.218 37.074 103.216 37.1694Z" fill="#00CCE8"/>
<path d="M120.578 36.6757C120.586 37.3875 120.317 38.0745 119.826 38.5905C119.336 39.1065 118.663 39.4107 117.952 39.4383C117.605 39.4399 117.26 39.3719 116.94 39.2382C116.619 39.1044 116.328 38.9078 116.085 38.6598C115.842 38.4118 115.65 38.1175 115.523 37.7943C115.395 37.4712 115.333 37.1257 115.342 36.7783C115.333 36.0691 115.601 35.3842 116.088 34.8687C116.575 34.3531 117.244 34.0472 117.952 34.0157C118.301 34.0126 118.646 34.0795 118.969 34.2125C119.291 34.3455 119.583 34.5419 119.828 34.79C120.073 35.0381 120.266 35.3328 120.394 35.6568C120.523 35.9807 120.586 36.3272 120.578 36.6757Z" fill="#00CCE8"/>
<path d="M125.727 26.5487C125.729 26.8568 125.611 27.1535 125.399 27.3762C125.186 27.599 124.895 27.7301 124.587 27.7419C124.436 27.7473 124.285 27.7214 124.145 27.666C124.004 27.6106 123.876 27.5268 123.769 27.4199C123.662 27.3129 123.578 27.1851 123.523 27.0444C123.468 26.9037 123.442 26.7531 123.447 26.6019C123.446 26.2942 123.564 25.998 123.776 25.7755C123.989 25.553 124.28 25.4215 124.587 25.4087C124.738 25.404 124.888 25.4302 125.029 25.4859C125.169 25.5415 125.297 25.6253 125.404 25.7321C125.51 25.8389 125.594 25.9665 125.65 26.1069C125.705 26.2474 125.732 26.3978 125.727 26.5487Z" fill="#00CCE8"/>
<path d="M128.478 33.2789C128.481 33.6296 128.348 33.9678 128.106 34.2218C127.864 34.4757 127.533 34.6255 127.182 34.6393C127.011 34.6414 126.842 34.6091 126.684 34.5444C126.526 34.4798 126.382 34.384 126.261 34.2628C126.141 34.1416 126.046 33.9974 125.982 33.8389C125.919 33.6803 125.887 33.5106 125.89 33.3397C125.888 32.9903 126.021 32.6536 126.262 32.4006C126.503 32.1475 126.833 31.9979 127.182 31.9831C127.353 31.98 127.523 32.0114 127.682 32.0755C127.84 32.1395 127.985 32.2348 128.105 32.3558C128.226 32.4767 128.322 32.6208 128.386 32.7794C128.45 32.938 128.481 33.1079 128.478 33.2789Z" fill="#00CCE8"/>
<path d="M133.859 25.5713C133.86 25.8724 133.745 26.1623 133.537 26.3804C133.33 26.5985 133.046 26.728 132.745 26.7417C132.6 26.7448 132.454 26.7185 132.319 26.6643C132.183 26.6101 132.06 26.5291 131.957 26.4263C131.853 26.3235 131.771 26.2008 131.716 26.0657C131.661 25.9305 131.634 25.7857 131.636 25.6397C131.638 25.3423 131.755 25.0572 131.961 24.843C132.168 24.6289 132.448 24.5019 132.745 24.4883C132.89 24.4837 133.035 24.5084 133.17 24.5608C133.305 24.6132 133.428 24.6923 133.532 24.7934C133.636 24.8945 133.719 25.0155 133.775 25.1491C133.831 25.2828 133.859 25.4264 133.859 25.5713Z" fill="#00CCE8"/>
<path d="M129.238 182.556C134.81 182.556 139.327 181.154 139.327 179.425C139.327 177.696 134.81 176.294 129.238 176.294C123.666 176.294 119.149 177.696 119.149 179.425C119.149 181.154 123.666 182.556 129.238 182.556Z" fill="#00CCE8"/>
<path opacity="0.5" d="M129.238 182.556C134.81 182.556 139.327 181.154 139.327 179.425C139.327 177.696 134.81 176.294 129.238 176.294C123.666 176.294 119.149 177.696 119.149 179.425C119.149 181.154 123.666 182.556 129.238 182.556Z" fill="white"/>
<path d="M121.113 162.834C119.888 164.893 119.256 167.251 119.286 169.647C119.286 175.45 122.706 180.158 126.912 180.158C131.119 180.158 134.539 175.45 134.539 169.647C134.57 167.249 133.939 164.889 132.715 162.826L121.113 162.834Z" fill="white" stroke="#263238" stroke-width="0.38" stroke-linecap="round" stroke-linejoin="round"/>
<path d="M132.818 163.101C132.871 164.039 130.283 164.811 127.038 164.822C123.793 164.834 121.121 164.081 121.068 163.143C121.015 162.204 123.599 161.436 126.844 161.425C130.089 161.414 132.765 162.162 132.818 163.101Z" fill="white" stroke="#263238" stroke-width="0.38" stroke-linecap="round" stroke-linejoin="round"/>
<path d="M132.351 163.793C131.378 163.219 129.333 162.824 126.981 162.835C124.629 162.847 122.55 163.265 121.661 163.865C122.634 164.439 124.682 164.83 127.031 164.823C129.379 164.815 131.48 164.389 132.351 163.793Z" fill="#263238" stroke="#263238" stroke-width="0.38" stroke-linecap="round" stroke-linejoin="round"/>
<path d="M112.761 113.028C112.761 113.028 113.468 114.369 112.837 115.627C112.207 116.885 111.424 118.146 111.895 118.777C112.366 119.408 113.795 120.194 113.628 121.532C113.461 122.87 111.58 125.549 112.761 127.046C113.943 128.543 115.912 128.463 115.988 130.116C116.064 131.769 114.088 133.107 114.65 134.604C115.212 136.101 118.45 136.417 118.45 137.439C118.45 138.461 117.188 139.563 118.214 140.669C119.24 141.775 124.188 144.644 124.899 143.466C125.609 142.288 127.03 139.012 126.096 134.376C125.936 133.597 124.826 133.422 124.671 132.32C124.515 131.218 124.986 129.25 124.196 128.14C123.405 127.031 120.89 126.643 120.734 125.777C120.578 124.91 121.676 122.786 120.574 121.445C119.472 120.103 116.873 119.476 116.873 118.614C116.873 117.751 117.663 116.641 116.558 115.463C115.452 114.285 112.761 113.028 112.761 113.028Z" fill="#00CCE8"/>
<path d="M116.531 122.311C118.172 127.251 121.041 133.966 122.208 137.207C123.625 141.144 124.868 143.994 125.487 147.931C125.78 149.762 126.012 156.439 126.175 163.062" stroke="#263238" stroke-width="0.38" stroke-linecap="round" stroke-linejoin="round"/>
<path d="M113.153 113.507C113.153 113.507 114.494 114.609 115.672 119.412C115.752 119.72 115.839 120.046 115.934 120.388" stroke="#263238" stroke-width="0.38" stroke-linecap="round" stroke-linejoin="round"/>
<path d="M137.374 122.003C137.214 122.324 137.125 122.676 137.114 123.035C137.103 123.394 137.17 123.751 137.309 124.082C137.815 125.092 138.449 126.099 138.069 126.605C137.689 127.11 136.549 127.745 136.686 128.809C136.823 129.873 138.324 132.024 137.378 133.221C136.431 134.418 134.858 134.361 134.794 135.679C134.729 136.998 136.314 138.073 135.865 139.27C135.417 140.467 132.825 140.718 132.825 141.55C132.825 142.382 133.832 143.253 133.015 144.134C132.198 145.016 128.231 147.319 127.665 146.372C127.099 145.426 125.959 142.812 126.707 139.099C126.833 138.476 127.722 138.339 127.847 137.454C127.973 136.568 127.596 134.995 128.227 134.114C128.858 133.232 130.887 132.917 130.997 132.214C131.108 131.511 130.237 129.816 131.123 128.748C132.008 127.68 134.087 127.171 134.087 126.468C134.087 125.765 133.456 124.891 134.338 123.945C135.219 122.999 137.374 122.003 137.374 122.003Z" fill="#00CCE8"/>
<path d="M134.357 129.428C133.046 133.391 130.747 138.757 129.797 141.349C128.657 144.499 127.676 146.783 127.171 149.933C126.92 151.506 126.726 157.571 126.593 163.233" stroke="#263238" stroke-width="0.38" stroke-linecap="round" stroke-linejoin="round"/>
<path d="M137.058 122.384C137.058 122.384 135.987 123.265 135.044 127.107C134.98 127.358 134.911 127.616 134.832 127.894" stroke="#263238" stroke-width="0.38" stroke-linecap="round" stroke-linejoin="round"/>
<path d="M115.706 139.848C115.839 140.117 115.913 140.411 115.921 140.711C115.93 141.011 115.873 141.309 115.756 141.585C115.338 142.428 114.809 143.268 115.125 143.69C115.44 144.112 116.39 144.636 116.284 145.533C116.177 146.43 114.916 148.219 115.706 149.219C116.497 150.218 117.811 150.165 117.865 151.271C117.918 152.377 116.599 153.273 116.968 154.273C117.336 155.272 119.495 155.485 119.495 156.173C119.495 156.861 118.651 157.594 119.339 158.331C120.027 159.068 123.333 160.991 123.808 160.201C124.283 159.41 125.233 157.225 124.606 154.121C124.503 153.6 123.758 153.482 123.656 152.745C123.553 152.008 123.865 150.693 123.34 149.956C122.816 149.219 121.129 148.957 121.022 148.375C120.916 147.794 121.653 146.376 120.916 145.48C120.179 144.583 118.442 144.165 118.442 143.58C118.442 142.994 118.97 142.265 118.233 141.474C117.496 140.684 115.706 139.848 115.706 139.848Z" fill="#00CCE8"/>
<path d="M118.226 146.05C119.324 149.36 121.243 153.844 122.026 156.01C122.976 158.643 123.796 160.547 124.218 163.18" stroke="#263238" stroke-width="0.38" stroke-linecap="round" stroke-linejoin="round"/>
<path d="M115.968 140.163C115.968 140.163 116.861 140.9 117.652 144.111C117.705 144.316 117.762 144.536 117.826 144.764" stroke="#263238" stroke-width="0.38" stroke-linecap="round" stroke-linejoin="round"/>
<path d="M142.823 138.538C142.632 138.768 142.492 139.037 142.415 139.326C142.337 139.616 142.324 139.918 142.375 140.213C142.592 141.133 142.911 142.072 142.508 142.41C142.105 142.748 141.06 143.044 140.958 143.93C140.855 144.815 141.676 146.86 140.68 147.65C139.684 148.44 138.4 148.091 138.108 149.17C137.815 150.249 138.868 151.408 138.294 152.297C137.72 153.187 135.554 152.898 135.398 153.563C135.242 154.228 135.892 155.14 135.06 155.702C134.228 156.265 130.561 157.378 130.28 156.5C129.998 155.622 129.573 153.278 130.891 150.401C131.116 149.919 131.86 149.976 132.134 149.28C132.408 148.585 132.4 147.236 133.08 146.62C133.76 146.005 135.463 146.153 135.695 145.613C135.926 145.074 135.539 143.523 136.455 142.82C137.37 142.117 139.164 142.106 139.297 141.54C139.43 140.973 139.084 140.137 139.985 139.537C140.885 138.937 142.823 138.538 142.823 138.538Z" fill="#00CCE8"/>
<path d="M138.951 143.998C137.127 146.97 134.231 150.895 132.974 152.826C131.454 155.17 129.622 156.671 129.2 159.286C129.071 160.091 128.961 161.566 128.866 163.23" stroke="#263238" stroke-width="0.38" stroke-linecap="round" stroke-linejoin="round"/>
<path d="M142.5 138.784C142.5 138.784 141.459 139.297 139.954 142.242C139.859 142.432 139.753 142.622 139.635 142.839" stroke="#263238" stroke-width="0.38" stroke-linecap="round" stroke-linejoin="round"/>
<path d="M62.97 187.128C71.6354 187.128 78.6602 185.041 78.6602 182.466C78.6602 179.891 71.6354 177.803 62.97 177.803C54.3045 177.803 47.2798 179.891 47.2798 182.466C47.2798 185.041 54.3045 187.128 62.97 187.128Z" fill="#00CCE8"/>
<path opacity="0.5" d="M62.97 187.128C71.6354 187.128 78.6602 185.041 78.6602 182.466C78.6602 179.891 71.6354 177.803 62.97 177.803C54.3045 177.803 47.2798 179.891 47.2798 182.466C47.2798 185.041 54.3045 187.128 62.97 187.128Z" fill="white"/>
<path d="M46.3262 126.564C46.3262 126.564 46.976 132.31 47.2534 135.278C47.5308 138.245 48.2718 146.678 48.1806 147.7C48.0894 148.722 47.1622 159.317 47.1622 163.394C47.1622 167.471 47.717 173.221 47.717 173.221C47.717 173.221 46.7898 174.794 46.976 175.63C47.163 176.328 47.2902 177.042 47.356 177.762C47.3763 178.139 47.4388 178.512 47.5422 178.875C47.5422 178.875 48.933 179.802 49.769 179.894C50.605 179.985 52.2694 179.43 52.2694 179.153C52.2694 178.875 53.0104 176.093 53.0104 175.071C53.0104 174.049 53.0104 174.425 53.2916 173.035C53.5728 171.644 56.533 152.427 56.9054 150.664C57.2778 148.901 57.8326 135.65 57.8326 135.65L58.4824 136.855C58.4824 136.855 60.0556 151.036 59.9644 152.613C59.8732 154.19 59.3146 160.213 59.5844 162.995C59.8542 165.777 60.4204 172.636 60.4204 173.377C60.4204 174.118 60.2342 175.786 60.2342 176.435C60.2342 177.085 59.6794 178.104 59.9568 178.567C60.1843 179.013 60.37 179.478 60.5116 179.958C60.5116 179.958 63.8518 180.513 64.7752 180.513C65.6986 180.513 66.4472 179.681 66.4472 179.681V178.104C66.4472 177.268 66.6296 176.527 66.6296 175.695C66.6296 174.862 66.7246 173.099 66.7246 171.8C66.7828 170.557 66.9096 169.319 67.1046 168.091C67.1996 167.259 68.4954 157.527 68.6816 153.909C68.8678 150.291 69.7 142.129 69.7 140.841C69.7 139.553 69.6088 127.4 69.6088 127.4L69.4226 125.174C69.4226 125.174 59.6908 126.473 55.0548 125.823C50.4188 125.174 46.6188 124.987 46.6188 124.987L46.3262 126.564Z" fill="#263238" stroke="#263238" stroke-width="0.38" stroke-linecap="round" stroke-linejoin="round"/>
<path d="M52.6224 177.678C52.4029 177.87 52.1432 178.01 51.8624 178.088C51.3532 178.24 51.0454 178.343 50.6388 177.78C50.2322 177.218 49.4114 176.557 48.7388 176.861C48.0662 177.165 47.31 177.621 47.158 178.001C47.006 178.381 47.1048 182.086 47.1048 182.804C47.1048 183.522 48.4842 183.822 49.8636 183.876C50.7334 183.886 51.5867 183.638 52.3146 183.161C52.3146 183.161 53.4888 183.26 53.8992 182.751C54.3096 182.242 54.1044 181.064 53.846 180.657C53.5876 180.25 53.39 179.897 53.029 179.175C52.8051 178.704 52.6674 178.197 52.6224 177.678Z" fill="white" stroke="#263238" stroke-width="0.38" stroke-linecap="round" stroke-linejoin="round"/>
<path d="M53.8992 182.736C54.0359 182.54 54.1137 182.309 54.1234 182.071C53.4508 182.378 52.6566 182.185 52.3678 182.226C52.0106 182.276 51.1936 182.838 49.3544 182.736C48.5763 182.709 47.8104 182.534 47.0972 182.223C47.0972 182.473 47.0972 182.671 47.0972 182.789C47.0972 183.503 48.4766 183.807 49.856 183.86C50.7258 183.871 51.5791 183.622 52.307 183.146C52.307 183.146 53.4888 183.245 53.8992 182.736Z" fill="#00CCE8" stroke="#263238" stroke-width="0.38" stroke-linecap="round" stroke-linejoin="round"/>
<path d="M52.1094 183.146L52.3146 180.691" stroke="#263238" stroke-width="0.38" stroke-linecap="round" stroke-linejoin="round"/>
<path d="M51.0531 178.16C50.8802 178.075 50.7343 177.943 50.6313 177.78C50.2209 177.218 49.4039 176.557 48.7313 176.861C48.1944 177.087 47.7017 177.406 47.2759 177.803C47.4963 178.434 48.0359 179.547 49.0885 179.62C49.9625 179.68 50.6313 178.924 51.0531 178.16Z" fill="#00CCE8" stroke="#263238" stroke-width="0.38" stroke-linecap="round" stroke-linejoin="round"/>
<path d="M66.5 178.845C66.5 178.845 65.74 179.05 65.3258 178.796C64.9116 178.541 64.3036 177.01 62.9242 177.162C61.5448 177.314 60.933 178.591 60.6442 178.746C60.3554 178.902 60.287 178.948 60.1844 179.104C60.0818 179.259 60.0324 183.394 60.0818 183.804C60.1312 184.215 63.0458 184.617 64.8356 184.416C66.6254 184.215 67.2334 183.443 67.3892 183.341C67.641 183.242 67.8604 183.075 68.0229 182.859C68.1853 182.643 68.2843 182.386 68.3088 182.117C68.4114 181.197 68.1036 180.175 67.5906 179.818C67.2659 179.589 66.9597 179.335 66.6748 179.058L66.5 178.845Z" fill="white" stroke="#263238" stroke-width="0.38" stroke-linecap="round" stroke-linejoin="round"/>
<path d="M64.5241 183.236C63.0064 183.284 61.4928 183.053 60.0591 182.552C60.0591 183.168 60.0591 183.67 60.0591 183.803C60.1123 184.209 63.0231 184.616 64.8129 184.414C66.6027 184.213 67.2107 183.442 67.3665 183.339C67.6183 183.241 67.8377 183.074 68.0001 182.858C68.1626 182.642 68.2616 182.385 68.2861 182.115C68.307 181.885 68.307 181.654 68.2861 181.424C68.2101 181.58 68.1227 181.747 68.0239 181.91C67.7427 182.419 66.9751 183.187 64.5241 183.236Z" fill="#00CCE8" stroke="#263238" stroke-width="0.38" stroke-linecap="round" stroke-linejoin="round"/>
<path d="M66.5308 181.492L66.2344 184.023" stroke="#263238" stroke-width="0.38" stroke-linecap="round" stroke-linejoin="round"/>
<path d="M63.0803 180.175C63.9961 180.282 64.9803 179.556 65.5275 178.879C65.4566 178.862 65.3887 178.834 65.3261 178.796C64.9157 178.541 64.3039 177.01 62.9245 177.162C61.5451 177.314 60.9333 178.591 60.6445 178.746C60.6407 178.746 61.7655 180.023 63.0803 180.175Z" fill="#00CCE8" stroke="#263238" stroke-width="0.38" stroke-linecap="round" stroke-linejoin="round"/>
<path d="M57.821 135.65L55.5942 134.536" stroke="#636363" stroke-width="0.38" stroke-linecap="round" stroke-linejoin="round"/>
<path d="M62.5255 83.3461C62.5255 83.3461 63.0841 82.4189 63.2855 83.6235C63.4869 84.8281 63.0044 86.1239 62.3584 86.5875C61.7124 87.0511 61.4312 86.5875 61.4312 86.1239C61.4312 85.6603 62.5255 83.3461 62.5255 83.3461Z" fill="white" stroke="#263238" stroke-width="0.38" stroke-linecap="round" stroke-linejoin="round"/>
<path d="M51.68 83.8101C51.5553 83.7631 51.4205 83.7497 51.2891 83.7712C51.1576 83.7927 51.0341 83.8484 50.931 83.9327C50.8278 84.017 50.7486 84.1269 50.7013 84.2515C50.6541 84.376 50.6403 84.5108 50.6616 84.6423C50.6616 85.7557 52.1436 87.3327 52.7934 86.9603C53.4432 86.5879 51.68 83.8101 51.68 83.8101Z" fill="white" stroke="#263238" stroke-width="0.38" stroke-linecap="round" stroke-linejoin="round"/>
<path d="M57.0572 72.9605C57.0572 72.9605 55.6094 75.3697 54.0932 76.0195C52.1438 76.8555 50.5706 79.3597 50.6732 81.3965C50.7758 83.4333 53.7322 90.1098 54.1958 90.296C54.6594 90.4822 60.5 90.0187 60.6862 89.7413C60.8724 89.4639 61.7046 86.6823 62.4456 83.9919C63.1866 81.3015 63.1866 79.9145 63.1866 79.9145C63.4557 79.0449 63.584 78.1379 63.5666 77.2278C63.5099 76.1313 63.0855 75.0859 62.362 74.2601L61.2486 75.6509L61.6286 72.5007C60.8573 72.4084 60.077 72.5698 59.4056 72.9605C58.746 73.3983 58.1534 73.9295 57.6462 74.5375L57.0572 72.9605Z" fill="#263238" stroke="#263238" stroke-width="0.38" stroke-linecap="round" stroke-linejoin="round"/>
<path d="M89.5927 75.4692C89.4559 75.055 89.0417 75.055 88.6959 74.1582C88.3501 73.2614 87.3849 73.4704 87.1075 73.3298C86.8301 73.1892 86.8339 73.0562 86.9707 72.642C87.1075 72.2278 87.4533 70.8484 86.8339 70.8484C86.2145 70.8484 85.7281 72.2962 85.5913 72.642C85.2127 73.2638 84.7978 73.8627 84.3487 74.4356C84.0546 74.5091 83.7544 74.5549 83.4519 74.5724C83.1099 74.5724 82.6919 75.264 82.6273 75.606C82.5817 75.8226 82.9161 76.5256 83.1745 77.0196C83.2902 77.4302 83.4297 77.8337 83.5925 78.228C83.5925 78.228 83.9345 78.7106 84.9719 78.5738C86.0093 78.437 87.9359 79.8164 88.2133 79.6074C88.4907 79.3984 89.1101 78.1596 89.3837 77.4718C89.6452 76.8384 89.7178 76.1429 89.5927 75.4692Z" fill="white" stroke="#263238" stroke-width="0.38" stroke-linecap="round" stroke-linejoin="round"/>
<path d="M44.977 133.119C44.977 133.119 46.231 135.019 46.2994 135.756C46.3678 136.493 46.364 137.869 46.4286 138.328C46.4932 138.788 46.231 139.123 45.9042 139.123C45.7965 139.112 45.6927 139.077 45.601 139.02C45.5093 138.962 45.4322 138.884 45.376 138.792C45.4141 139.17 45.4802 139.545 45.5736 139.913C45.7028 140.377 46.4286 140.772 46.364 141.232C46.2994 141.691 45.5736 141.893 44.5818 141.893C43.9831 141.889 43.3993 141.706 42.9056 141.367C42.4119 141.029 42.0309 140.55 41.8116 139.993C41.2188 138.61 40.626 134.65 40.626 133.913C40.626 133.176 44.3196 132.59 44.977 133.119Z" fill="white" stroke="#263238" stroke-width="0.38" stroke-linecap="round" stroke-linejoin="round"/>
<path d="M43.594 135.558C43.594 135.558 43.8562 136.151 43.328 137.078C42.9708 137.626 42.704 138.228 42.5376 138.86C42.6844 139.321 42.8833 139.763 43.1304 140.179C43.3964 140.707 44.2704 140.643 44.3198 141.106C44.3668 141.355 44.3194 141.612 44.1868 141.828" stroke="#263238" stroke-width="0.38" stroke-linecap="round" stroke-linejoin="round"/>
<path d="M44.4258 138.381C44.4854 138.9 44.604 139.41 44.7792 139.901C45.0452 140.562 46.4284 140.958 45.9192 141.683" stroke="#263238" stroke-width="0.38" stroke-linecap="round" stroke-linejoin="round"/>
<path d="M43.5938 138.658C43.657 139.087 43.7679 139.508 43.9243 139.912C44.1219 140.292 45.4443 140.702 45.1783 141.759" stroke="#263238" stroke-width="0.38" stroke-linecap="round" stroke-linejoin="round"/>
<path d="M45.376 138.792C45.376 138.792 45.243 137.736 45.1784 137.341C45.131 136.963 45.1082 136.582 45.11 136.201" stroke="#263238" stroke-width="0.38" stroke-linecap="round" stroke-linejoin="round"/>
<path d="M67.0171 92.6339C65.2822 91.2785 63.2485 90.3573 61.0853 89.9473C57.3765 89.2063 52.4631 90.4109 50.5175 91.7067C49.9369 92.1134 49.4474 92.6368 49.0803 93.2433C48.7133 93.8498 48.4767 94.5262 48.3857 95.2293L67.0171 92.6339Z" fill="white" stroke="#263238" stroke-width="0.38" stroke-linecap="round" stroke-linejoin="round"/>
<path d="M82.3122 81.3246C82.213 80.9614 82.213 80.5782 82.3122 80.215C82.4984 79.835 82.5896 78.7292 82.867 78.4518C83.1444 78.1744 85.185 77.061 86.667 77.7108C88.149 78.3606 88.8938 81.1308 89.1712 81.7882C89.4486 82.4456 88.6164 83.92 88.244 84.1062C87.8716 84.2924 87.503 82.9928 87.1306 82.6242C86.7582 82.2556 83.6004 80.7698 82.3122 81.3246Z" fill="white" stroke="#263238" stroke-width="0.38" stroke-linecap="round" stroke-linejoin="round"/>
<path d="M57.84 92.4516C57.46 92.5428 50.4224 93.47 47.2722 94.3972C44.122 95.3244 41.5266 96.529 41.4316 97.7336C41.3366 98.9382 38.7716 121.392 38.6728 122.692C38.574 123.992 39.5088 131.497 39.9724 131.774C40.436 132.051 42.5678 132.238 43.3088 131.96C43.7696 131.78 44.182 131.495 44.5134 131.128L44.7908 124.915C44.7908 124.915 44.977 127.047 45.3456 127.142C49.9697 128.355 54.7684 128.763 59.531 128.346C67.511 127.697 70.8398 126.492 71.4858 126.028C72.1318 125.565 72.0444 124.174 72.0444 124.174C72.0444 124.174 72.1356 123.156 72.1356 122.133C72.1356 121.111 69.1602 100.606 69.1602 100.606C69.1602 100.606 81.3962 97.27 82.3234 96.1566C83.2506 95.0432 87.7004 82.9022 87.7004 81.975C87.7004 81.0478 85.6598 79.657 84.1778 79.5658C82.6958 79.4746 79.0782 86.7858 78.246 87.352C77.4138 87.9182 69.4376 91.0608 66.466 91.6156C63.4944 92.1704 57.84 92.4516 57.84 92.4516Z" fill="#00CCE8" stroke="#263238" stroke-width="0.38" stroke-linecap="round" stroke-linejoin="round"/>
<path d="M54.9028 98.7339C54.9028 98.7339 56.1568 103.674 59.8428 105.692" stroke="#263238" stroke-width="0.38" stroke-linecap="round" stroke-linejoin="round"/>
<path d="M60.3291 107.879C60.6078 108.024 60.8928 108.164 61.1841 108.301" stroke="#263238" stroke-width="0.38" stroke-linecap="round" stroke-linejoin="round"/>
<path d="M54.9028 103.856C56.1271 105.099 57.496 106.191 58.9802 107.109" stroke="#263238" stroke-width="0.38" stroke-linecap="round" stroke-linejoin="round"/>
<path d="M69.6275 104.364L69.1601 100.606L64.6001 102.293L66.3671 103.019C65.5045 103.779 64.3759 104.851 65.0751 104.725C65.9965 104.452 66.8818 104.069 67.7123 103.585L69.6275 104.364Z" fill="#263238" stroke="#263238" stroke-width="0.38" stroke-linecap="round" stroke-linejoin="round"/>
<path d="M43.9546 122.229C43.9546 120.561 44.7678 103.575 44.7678 103.575L44.4904 102.37L42.4346 99.0945L43.529 105.429C42.6588 105.159 40.907 104.696 41.5682 105.581C42.1816 106.325 42.8777 106.997 43.643 107.584L43.0198 120.146C42.9677 121.195 43.224 122.236 43.757 123.141L44.3954 124.228C44.1051 123.601 43.9546 122.919 43.9546 122.229Z" fill="#263238" stroke="#263238" stroke-width="0.38" stroke-linecap="round" stroke-linejoin="round"/>
<path d="M44.3955 124.242C44.4971 124.479 44.6245 124.705 44.7755 124.915L44.3955 124.242Z" fill="#263238" stroke="#263238" stroke-width="0.38" stroke-linecap="round" stroke-linejoin="round"/>
<path d="M71.6722 123.71C57.4906 130.106 44.791 124.915 44.791 124.915C44.791 124.915 44.9772 127.047 45.3458 127.142C49.97 128.355 54.7687 128.763 59.5312 128.346C67.5112 127.697 70.84 126.492 71.486 126.028C72.132 125.565 72.0446 124.174 72.0446 124.174C72.0446 124.174 72.0446 123.961 72.0826 123.631L71.6722 123.71Z" fill="white" stroke="#263238" stroke-width="0.38" stroke-linecap="round" stroke-linejoin="round"/>
<path d="M38.9502 130.847C38.9502 130.847 41.082 131.774 42.8452 131.227C44.6084 130.68 45.0682 130.114 45.3456 130.209C45.623 130.304 45.6268 132.523 45.3456 133.173C45.0644 133.823 44.4184 134.286 42.4728 134.472C40.5272 134.659 39.5088 133.712 39.3226 133.173C39.1493 132.406 39.0249 131.629 38.9502 130.847Z" fill="white" stroke="#263238" stroke-width="0.38" stroke-linecap="round" stroke-linejoin="round"/>
<path d="M31.2819 181.738C38.898 181.738 45.0721 179.822 45.0721 177.459C45.0721 175.096 38.898 173.18 31.2819 173.18C23.6658 173.18 17.4917 175.096 17.4917 177.459C17.4917 179.822 23.6658 181.738 31.2819 181.738Z" fill="#00CCE8"/>
<path opacity="0.5" d="M31.2819 181.738C38.898 181.738 45.0721 179.822 45.0721 177.459C45.0721 175.096 38.898 173.18 31.2819 173.18C23.6658 173.18 17.4917 175.096 17.4917 177.459C17.4917 179.822 23.6658 181.738 31.2819 181.738Z" fill="white"/>
<path d="M33.4593 80.3265C33.4593 80.3265 34.5993 81.6793 34.5423 82.2265C34.4975 82.8408 34.6435 83.4539 34.9603 83.9821C35.2301 84.3203 35.9749 84.5901 35.9749 85.1981C35.9496 85.6088 35.8086 86.004 35.5683 86.3381C35.5683 86.3381 35.8419 89.0475 35.5683 89.7239C35.2947 90.4003 34.2155 90.4003 33.6075 90.4003C32.9995 90.4003 32.6613 90.3319 32.4675 90.3319C32.2737 90.3319 31.0463 89.2489 30.1001 86.8815C29.1539 84.5141 30.2369 80.9915 31.0463 80.5203C31.8557 80.0491 33.4593 80.3265 33.4593 80.3265Z" fill="white" stroke="#263238" stroke-width="0.38" stroke-linecap="round" stroke-linejoin="round"/>
<path d="M32.9878 84.4577L35.7618 82.8997" stroke="#263238" stroke-width="0.38" stroke-linecap="round" stroke-linejoin="round"/>
<path d="M34.542 82.6301C34.542 82.6301 36.0316 82.2235 35.492 84.3895" stroke="#263238" stroke-width="0.38" stroke-linecap="round" stroke-linejoin="round"/>
<path d="M30.495 92.4682L30.0732 97.5032L24.7266 96.2416V92.2554C24.7266 92.2554 28.5 91.4156 30.495 92.4682Z" fill="white" stroke="#263238" stroke-width="0.38" stroke-linecap="round" stroke-linejoin="round"/>
<path d="M29.9442 78.0695C28.9522 78.3248 27.9217 78.3957 26.9042 78.2785C25.3386 78.0695 21.8958 78.4875 20.9572 80.7865C20.0186 83.0855 21.1662 85.1679 21.0598 85.7949C20.9534 86.4219 19.2852 87.3605 19.2852 88.3029C19.2852 89.2453 20.0148 90.0775 19.7032 90.8071C19.3916 91.5367 18.8672 92.1637 19.2852 92.8933C19.7032 93.6229 21.3752 92.3727 21.5652 93.1023C21.7552 93.8319 23.3398 94.7743 24.0732 94.7743C24.8066 94.7743 25.6388 93.2087 26.0568 93.8319C26.4748 94.4551 27.3069 95.0859 28.143 94.9719C28.9789 94.8579 29.3931 92.9389 31.183 93.7179C32.9727 94.4969 33.5427 92.8667 33.4629 91.4379C33.4021 90.0775 31.7948 88.2003 32.1063 87.1553C32.4179 86.1103 33.045 85.3807 32.836 84.2331C32.627 83.0855 31.696 82.6675 32.209 81.8315C32.722 80.9955 33.463 80.9993 33.672 79.9543C33.881 78.9093 33.463 77.5527 31.8974 77.3437C30.3318 77.1347 29.9442 78.0695 29.9442 78.0695Z" fill="white" stroke="#263238" stroke-width="0.38" stroke-linecap="round" stroke-linejoin="round"/>
<path d="M20.5202 131.383C20.5202 131.383 21.9908 139.774 21.2574 147.853C20.961 151.094 19.3574 151.945 18.947 156.243C18.5366 160.541 19.9958 169.25 19.2624 173.867C19.1636 174.498 18.4226 176.071 19.2624 176.907C20.1022 177.743 23.0396 177.223 23.8794 177.223C24.7192 177.223 26.7104 176.907 26.9194 176.383C27.1284 175.858 25.6616 175.334 24.7192 173.552C23.6466 171.512 23.0711 169.248 23.0396 166.944C23.0396 164.531 24.5064 157.713 25.6616 152.154C26.8168 146.595 27.4438 143.551 27.4438 140.405V130.525C27.4438 130 24.6128 128.742 22.4088 129.16C20.2048 129.578 20.5202 131.383 20.5202 131.383Z" fill="white" stroke="#263238" stroke-width="0.38" stroke-linecap="round" stroke-linejoin="round"/>
<path d="M24.727 173.553C24.5636 173.249 24.4116 172.922 24.2672 172.584C23.9936 173.161 23.8872 173.853 23.3628 173.975C22.4166 174.184 19.2702 173.868 19.2702 173.868C19.1676 174.499 18.4304 176.072 19.2702 176.908C20.11 177.744 23.0474 177.224 23.8872 177.224C24.727 177.224 26.7182 176.908 26.9272 176.384C27.1362 175.859 25.6694 175.35 24.727 173.553Z" fill="#263238" stroke="#263238" stroke-width="0.38" stroke-linecap="round" stroke-linejoin="round"/>
<path d="M23.2792 169.33C23.1296 168.543 23.052 167.745 23.0474 166.944C23.0474 164.531 24.5142 157.713 25.6694 152.154C26.8246 146.595 27.4516 143.551 27.4516 140.405V130.525C27.4516 130 24.6206 128.742 22.4166 129.16C20.2126 129.578 20.5166 131.364 20.5166 131.364C20.5166 131.364 21.9872 139.755 21.2538 147.833C20.9574 151.075 19.3538 151.926 18.9434 156.224C18.6394 159.348 19.3234 164.793 19.4488 169.311C20.7051 169.628 22.0198 169.635 23.2792 169.33Z" fill="#00CCE8" stroke="#263238" stroke-width="0.38" stroke-linecap="round" stroke-linejoin="round"/>
<path d="M19.1675 167.369C19.962 167.532 20.7671 167.637 21.5767 167.685C22.2579 167.639 22.9293 167.498 23.5717 167.267L23.8871 169.995C22.9304 170.278 21.9452 170.454 20.9497 170.52C20.4162 170.558 19.8807 170.485 19.3765 170.307C19.3765 170.307 19.1675 168.202 19.1675 167.369Z" fill="white" stroke="#263238" stroke-width="0.38" stroke-linecap="round" stroke-linejoin="round"/>
<path d="M19.38 123.619C19.38 123.619 18.7492 127.799 19.38 129.912C20.0108 132.025 21.6866 134.951 22.1084 135.787C22.5302 136.623 23.0508 139.249 23.0508 139.773C23.0508 140.297 23.4688 146.488 22.8418 149.634C22.2148 152.78 21.4776 154.574 21.4776 157.614C21.4776 160.654 22.9444 172.012 22.9444 174.003C22.9444 175.995 22.211 178.514 22.7354 179.038C23.2598 179.563 32.281 178.495 33.1208 178.18C33.2808 178.12 33.425 178.024 33.5422 177.899C33.6594 177.775 33.7464 177.625 33.7967 177.462C33.847 177.299 33.8592 177.126 33.8322 176.957C33.8053 176.788 33.74 176.628 33.6414 176.489C33.326 176.071 29.5488 174.832 28.9218 174.307C28.2948 173.783 27.873 172.103 27.7818 171.37C27.6906 170.637 27.9908 159.385 28.4126 156.869C28.8344 154.354 30.5102 149.421 31.4526 146.693C32.395 143.964 34.0746 134.316 34.0746 130.854C34.0761 128.787 33.9721 126.721 33.763 124.664C33.763 124.664 23.9894 125.401 19.38 123.619Z" fill="white" stroke="#263238" stroke-width="0.38" stroke-linecap="round" stroke-linejoin="round"/>
<path d="M33.1173 178.172C33.2765 178.113 33.4199 178.017 33.5367 177.894C33.6534 177.77 33.7404 177.621 33.791 177.459C33.8415 177.297 33.8544 177.125 33.8285 176.957C33.8027 176.789 33.7388 176.629 33.6417 176.489C33.3263 176.071 29.5491 174.832 28.9221 174.308C28.8228 174.221 28.7358 174.122 28.6637 174.011L28.3977 175.672C27.7419 176.2 26.9292 176.496 26.0873 176.512C25.0385 176.512 23.4957 175.828 22.8383 175.512C22.6597 177.101 22.2873 178.689 22.7319 179.027C24.8637 180.669 32.2775 178.488 33.1173 178.172Z" fill="#263238" stroke="#263238" stroke-width="0.38" stroke-linecap="round" stroke-linejoin="round"/>
<path d="M27.74 170.982C27.7096 168.976 28.006 159.172 28.3898 156.873C28.8078 154.354 30.4874 149.425 31.4298 146.697C32.3722 143.968 34.0518 134.32 34.0518 130.858C34.0533 128.791 33.9493 126.725 33.7402 124.668C33.7402 124.668 23.9894 125.401 19.38 123.619C19.38 123.619 18.7492 127.799 19.38 129.912C20.0108 132.025 21.6866 134.951 22.1084 135.787C22.5302 136.623 23.0508 139.249 23.0508 139.773C23.0508 140.297 23.4688 146.488 22.8418 149.634C22.2148 152.78 21.4776 154.574 21.4776 157.614C21.4776 159.769 22.2148 166.78 22.6442 170.587C23.8363 170.921 25.0629 171.116 26.2998 171.169C26.7855 171.164 27.2691 171.102 27.74 170.982Z" fill="#00CCE8" stroke="#263238" stroke-width="0.38" stroke-linecap="round" stroke-linejoin="round"/>
<path d="M22.6293 171.899C23.3299 172.174 24.0767 172.313 24.8295 172.309C26.0873 172.309 27.9759 172.621 27.8695 171.994C27.8367 171.083 27.871 170.171 27.9721 169.265C27.9721 169.265 25.6655 169.581 24.3013 169.372C22.9371 169.163 22.1011 169.056 22.1011 169.056C22.1011 169.056 22.3139 171.272 22.6293 171.899Z" fill="white" stroke="#263238" stroke-width="0.38" stroke-linecap="round" stroke-linejoin="round"/>
<path d="M31.2286 98.6539C30.1425 97.2657 28.6316 96.2713 26.927 95.8229C24.096 95.0895 21.3676 99.2847 20.6342 101.591C19.9008 103.898 19.7944 110.088 18.7342 113.235C17.674 116.381 16.952 122.678 17.37 123.411C17.788 124.144 26.813 126.451 29.9594 126.451C33.1058 126.451 36.4802 123.935 36.579 122.678C36.6778 121.42 36.0546 113.029 35.5302 108.515C35.0058 104.001 31.2286 98.6539 31.2286 98.6539Z" fill="#263238" stroke="#263238" stroke-width="0.38" stroke-linecap="round" stroke-linejoin="round"/>
<path d="M29.8302 133.55C29.8302 133.55 29.796 135.005 29.8302 135.86C29.8507 136.642 29.7429 137.423 29.511 138.17C29.3324 138.737 28.9068 139.128 28.8726 138.737C28.8384 138.345 29.0132 137.635 29.0132 137.315C29.0132 136.996 28.9068 135.541 28.9068 135.541C28.8266 136.066 28.72 136.588 28.5876 137.103C28.3748 137.92 27.7706 138.771 27.4856 138.843C27.2006 138.915 27.022 138.664 27.1664 138.277C27.3108 137.889 27.6642 136.757 27.6984 136.498C27.7326 136.24 27.7402 135.45 27.7402 135.45C27.4713 136.262 27.1515 137.056 26.7826 137.828C26.4976 138.258 26.4634 138.471 26.1784 138.505C25.8934 138.539 25.9314 137.935 26.1062 137.475C26.3128 136.788 26.4678 136.087 26.5698 135.377C26.5698 135.237 26.2506 136.016 25.8592 136.445C25.4678 136.875 25.1828 137.224 25.0042 137.156C24.8256 137.087 25.0764 136.396 25.2208 136.088C25.3882 135.715 25.507 135.321 25.5742 134.918V133.994C25.5742 133.994 25.255 133.28 26.7484 133.033C28.2418 132.786 29.511 132.501 29.8302 133.55Z" fill="white" stroke="#263238" stroke-width="0.38" stroke-linecap="round" stroke-linejoin="round"/>
<path d="M24.6241 132.539C24.5332 132.8 24.5284 133.083 24.6105 133.347C24.6926 133.611 24.8572 133.842 25.0801 134.005C25.8629 134.53 28.6559 134.952 29.5489 134.112C30.0537 133.689 30.374 133.087 30.4419 132.432L24.6241 132.539Z" fill="white" stroke="#263238" stroke-width="0.38" stroke-linecap="round" stroke-linejoin="round"/>
<path d="M25.4603 99.9111C25.4603 99.9111 23.1537 103.688 23.1537 106.101C23.1537 108.514 21.8921 125.402 21.7895 127.503C21.6869 129.604 21.8921 131.276 23.1537 132.325C24.4153 133.374 29.5491 133.374 30.9133 132.85C32.2775 132.325 33.5353 129.912 33.5353 128.236C33.5353 126.561 31.9621 114.176 31.6353 111.767C31.3085 109.358 31.2135 102.955 30.2711 101.488C29.3287 100.021 29.0095 99.9111 29.0095 99.9111" fill="#263238"/>
<path d="M25.4603 99.9111C25.4603 99.9111 23.1537 103.688 23.1537 106.101C23.1537 108.514 21.8921 125.402 21.7895 127.503C21.6869 129.604 21.8921 131.276 23.1537 132.325C24.4153 133.374 29.5491 133.374 30.9133 132.85C32.2775 132.325 33.5353 129.912 33.5353 128.236C33.5353 126.561 31.9621 114.176 31.6353 111.767C31.3085 109.358 31.2135 102.955 30.2711 101.488C29.3287 100.021 29.0095 99.9111 29.0095 99.9111" stroke="#263238" stroke-width="0.38" stroke-linecap="round" stroke-linejoin="round"/>
<path d="M22.0137 123.704C22.0137 123.704 22.6559 109.085 23.1537 106.102C23.4833 104.222 24.0622 102.395 24.8751 100.668" stroke="#636363" stroke-width="0.38" stroke-linecap="round" stroke-linejoin="round"/>
<path d="M29.6401 100.805C29.6401 100.805 31.4527 104.29 31.5401 108.025C31.6275 111.761 32.9043 123.7 32.9043 123.7" stroke="#636363" stroke-width="0.38" stroke-linecap="round" stroke-linejoin="round"/>
<path d="M31.126 104.423L31.4376 102.325" stroke="#636363" stroke-width="0.38" stroke-linecap="round" stroke-linejoin="round"/>
</svg>
